<svg width="110" height="102" viewBox="0 0 110 102" fill="none" xmlns="http://www.w3.org/2000/svg">
<g clip-path="url(#clip0)">
<path d="M96.39 94.86C96.39 90.99 96.46 87.13 96.36 83.26C96.31 81.05 96.91 79.97 99.42 79.94C103.61 79.89 105.46 77.79 105.48 73.52C105.51 65.47 105.49 57.42 105.49 49.37C105.49 48.76 105.28 48.03 105.55 47.58C106 46.81 106.74 46.22 107.36 45.56C107.95 46.26 109.05 46.95 109.05 47.65C109.16 56.82 109.23 66 109.04 75.18C108.95 79.7 105.64 82.73 100.04 83.85C100.04 88.06 100.15 92.36 99.99 96.65C99.93 98.34 99.27 100.01 98.88 101.68C97.43 100.77 95.78 100.07 94.57 98.9C89.89 94.4 85.4 89.7 80.71 85.21C79.84 84.37 78.38 83.75 77.17 83.72C70.42 83.58 63.66 83.68 56.91 83.64C51.13 83.61 47.31 79.82 47.29 74.03C47.25 59.83 47.25 45.63 47.29 31.44C47.31 25.58 51.05 21.85 56.89 21.83C71.09 21.8 85.29 21.8 99.5 21.83C105.34 21.84 109.03 25.56 109.12 31.43C109.16 34.11 109.26 36.81 109.04 39.47C108.97 40.27 107.9 40.98 107.28 41.73C106.68 40.96 105.64 40.24 105.56 39.42C105.33 36.93 105.51 34.41 105.46 31.9C105.38 27.58 103.34 25.48 99.08 25.47C85.14 25.44 71.2 25.44 57.25 25.47C53.09 25.48 50.95 27.55 50.93 31.69C50.88 45.71 50.88 59.74 50.92 73.76C50.93 77.89 53.02 79.94 57.22 79.98C64.32 80.04 71.42 79.92 78.52 80.07C79.82 80.1 81.39 80.76 82.33 81.66C86.88 86.04 91.27 90.59 95.71 95.08C95.95 95.02 96.17 94.94 96.39 94.86Z" fill="black"/>
<path d="M10.92 61.97C2.9 61.39 0 58.27 0 50.57C0 37.24 0 23.9 0 10.57C0 3.47 3.44 0.01 10.48 0C24.17 0 37.85 0 51.53 0.01C58.25 0.02 61.81 3.55 61.85 10.22C61.86 12.04 61.84 13.86 61.85 15.67C61.86 17.01 61.57 18.36 59.96 18.05C59.25 17.91 58.39 16.62 58.28 15.76C58.03 13.8 58.25 11.79 58.19 9.8C58.05 5.78 56.02 3.68 52.04 3.67C37.93 3.63 23.81 3.62 9.7 3.67C5.85 3.68 3.7 5.78 3.68 9.64C3.61 23.84 3.62 38.04 3.68 52.23C3.69 55.96 5.73 57.93 9.47 58.17C10.25 58.22 11.03 58.23 11.81 58.17C13.8 58.04 14.63 58.91 14.59 60.92C14.51 64.95 14.57 68.98 14.57 73.01C14.85 73.2 15.13 73.39 15.41 73.58C19.07 69.72 22.88 65.98 26.33 61.94C28.86 58.99 31.69 57.62 35.57 58.13C37.44 58.38 39.4 57.99 41.27 58.26C42.13 58.38 42.86 59.38 43.65 59.98C42.89 60.59 42.16 61.66 41.35 61.73C38.86 61.96 36.32 61.66 33.83 61.88C32.59 61.99 31.13 62.5 30.26 63.34C25.08 68.32 20.08 73.48 14.93 78.5C14.23 79.18 13.06 79.39 12.11 79.82C11.72 78.84 11.01 77.88 10.99 76.89C10.85 71.99 10.92 67.07 10.92 61.97Z" fill="black"/>
<path d="M84.36 39.06C84.24 40.4 84.16 41.33 84.06 42.38C84.52 42.49 84.91 42.65 85.31 42.67C90 42.87 90 42.86 90 47.64C90 48.92 90 50.21 90 51.35C90.34 51.59 90.46 51.73 90.61 51.76C91.87 52.02 93.69 51.54 93.58 53.71C93.48 55.74 91.84 55.51 90.47 55.51C85.89 55.52 81.31 55.53 76.73 55.51C75.37 55.5 73.73 55.69 73.76 53.6C73.78 51.63 75.33 51.92 76.6 51.88C77.28 51.86 77.97 51.88 79.02 51.88C79.26 50.13 79.48 48.48 79.77 46.34C78.25 46.34 76.96 46.55 75.78 46.26C75.01 46.07 74.41 45.15 73.74 44.56C74.42 43.94 75.03 43.24 75.79 42.75C76.16 42.51 76.8 42.7 77.32 42.69C80.57 42.67 80.57 42.67 80.38 39.06C78.87 39.06 77.3 39.25 75.82 38.98C75.05 38.84 74.43 37.9 73.74 37.32C74.4 36.69 75.05 35.55 75.73 35.53C81 35.38 86.27 35.37 91.54 35.52C92.24 35.54 92.91 36.66 93.6 37.27C92.85 37.87 92.14 38.9 91.33 38.99C89.12 39.22 86.87 39.06 84.36 39.06ZM86.24 46.55C83.17 46.28 82.68 47.2 83.19 51.7C84.18 51.7 85.16 51.7 86.24 51.7C86.24 49.93 86.24 48.32 86.24 46.55Z" fill="black"/>
<path d="M89.72 70.1799C86.28 70.1799 82.85 70.1799 79.31 70.1799C79.23 70.5799 79.1 70.8999 79.1 71.2099C79.11 72.5699 78.72 73.8799 77.17 73.5399C76.45 73.3799 75.57 72.02 75.52 71.16C75.32 67.98 75.47 64.7799 75.43 61.5799C75.41 59.8299 76.2 59.0999 77.95 59.1199C82.35 59.1699 86.76 59.1799 91.16 59.1199C92.91 59.0999 93.68 59.7599 93.65 61.5499C93.59 64.6599 93.76 67.77 93.56 70.87C93.5 71.82 92.69 73.3699 91.99 73.5099C90.3 73.8499 89.97 72.3899 89.95 70.9699C89.95 70.7399 89.82 70.4999 89.72 70.1799ZM79.17 66.1899C82.91 66.1899 86.37 66.1899 89.81 66.1899C89.81 64.9799 89.81 63.9899 89.81 62.9999C86.16 62.9999 82.69 62.9999 79.17 62.9999C79.17 64.1399 79.17 65.0799 79.17 66.1899Z" fill="black"/>
<path d="M28.15 7.95996C28.9 8.64996 29.7 9.08996 30.05 9.75996C32.39 14.28 34.7 18.82 36.82 23.44C37.13 24.11 36.4 25.26 36.16 26.19C35.34 25.8 34.52 25.43 33.71 25.01C33.58 24.94 33.53 24.72 33.45 24.57C31.39 20.81 30.05 20.14 25.75 20.93C25.19 21.03 24.57 21.55 24.24 22.05C23.63 22.98 23.38 24.19 22.66 24.99C22.1 25.61 21.06 25.8 20.23 26.18C19.95 25.31 19.19 24.22 19.47 23.62C21.69 18.85 24.09 14.17 26.5 9.49996C26.78 8.94996 27.44 8.59996 28.15 7.95996Z" fill="black"/>
<path d="M17.25 38.83C22.54 39.57 24.68 41.48 24.47 44.96C24.25 48.41 21.78 49.91 16.82 50.03C14.27 50.09 13.49 49.1 13.57 46.68C13.7 42.71 13.61 38.73 13.6 34.76C13.59 33.39 13.66 31.95 15.41 31.88C17.25 31.8 17.28 33.27 17.27 34.63C17.24 35.99 17.25 37.36 17.25 38.83ZM17.39 42.33C17.39 44.07 17.39 45.07 17.39 46.56C18.61 46.19 19.68 46.04 20.53 45.53C20.84 45.34 20.9 43.91 20.6 43.69C19.79 43.1 18.73 42.85 17.39 42.33Z" fill="black"/>
<path d="M64.36 55.4801C63.14 55.4801 61.97 55.7101 60.96 55.4001C60.26 55.1901 59.35 54.2701 59.31 53.6301C59.28 53.0801 60.36 52.4601 60.97 51.9001C61.07 51.8101 61.3 51.8701 61.48 51.8701C69.3 51.9301 68.06 51.0101 68.16 58.1001C68.19 60.1401 68.16 62.1701 68.16 64.6001C69.18 64.0101 69.79 63.4001 70.46 63.3301C71.4 63.2301 72.39 63.5401 73.35 63.6801C73.07 64.5401 73.04 65.6801 72.46 66.2001C71.11 67.3901 69.52 68.3101 67.99 69.2801C65.86 70.6201 64.59 69.9401 64.53 67.3501C64.45 64.0701 64.52 60.7901 64.5 57.5101C64.51 56.9201 64.43 56.3401 64.36 55.4801Z" fill="black"/>
<path d="M31.66 43.84C31.78 39.96 32.74 38.41 35.63 37.69C37.76 37.16 39.41 37.96 40.45 39.77C40.77 40.33 40.7 41.56 40.29 41.98C39.86 42.41 38.81 42.32 38.03 42.29C37.25 42.26 36.48 42.04 35.71 41.9C35.75 43.24 35.79 44.57 35.83 45.91C36.5 45.79 37.16 45.6 37.83 45.57C38.73 45.54 39.63 45.63 40.53 45.67C40.44 46.52 40.66 47.85 40.21 48.14C38.94 48.96 37.31 49.94 35.97 49.76C34.62 49.57 33.23 48.25 32.29 47.07C31.67 46.32 31.84 44.94 31.66 43.84Z" fill="black"/>
<path d="M63.27 42.3C64.88 44.29 66.5 46.29 68.11 48.28C67.3 48.79 66.01 49.9001 65.76 49.7001C64.09 48.3801 62.49 46.8901 61.21 45.2001C60.89 44.7701 61.8 43.41 62.14 42.48C62.52 42.42 62.89 42.36 63.27 42.3Z" fill="black"/>
</g>
<defs>
<clipPath id="clip0">
<rect width="109.19" height="101.68" fill="white"/>
</clipPath>
</defs>
</svg>
