<svg width="123" height="84" viewBox="0 0 123 84" fill="none" xmlns="http://www.w3.org/2000/svg">
<g clip-path="url(#clip0)">
<path d="M109.14 35.62C105.66 37.33 102.5 38.71 99.57 40.48C98.85 40.92 98.66 42.64 98.65 43.78C98.6 48.76 98.71 53.74 98.73 58.72C98.75 62.14 96.66 64.4501 93.83 65.41C88.13 67.34 82.33 69.34 76.41 70.15C63 72 49.54 71.72 36.33 68.29C33.35 67.5201 30.47 66.18 27.73 64.75C25.11 63.39 23.85 61.07 23.95 57.92C24.11 52.75 23.9 47.58 24.04 42.41C24.09 40.45 23.56 39.39 21.67 38.59C15.37 35.93 9.11 33.13 2.93 30.21C1.75 29.65 0.97 28.25 0 27.23C0.96 26.32 1.76 25.02 2.91 24.55C22.33 16.51 41.81 8.60005 61.24 0.590046C63.22 -0.229954 64.87 -0.189954 66.82 0.690046C84.54 8.65005 102.3 16.5 120 24.49C121.19 25.03 122.59 26.33 122.77 27.46C122.89 28.24 121.25 29.64 120.11 30.23C114.15 33.31 114.13 33.25 114.2 39.92C114.26 46.06 114.34 52.21 114.3 58.35C114.29 59.91 114.85 60.73 116.01 61.83C117.5 63.24 118.97 65.36 119.18 67.32C119.65 71.73 119.34 76.22 119.35 80.68C119.35 82.56 118.38 83.46 116.53 83.46C113.5 83.47 110.47 83.47 107.44 83.46C105.58 83.46 104.64 82.51 104.64 80.66C104.64 76.2001 104.37 71.72 104.8 67.3C104.99 65.41 106.64 63.66 107.68 61.87C108.09 61.16 109.08 60.54 109.09 59.88C109.18 51.96 109.14 44.05 109.14 35.62ZM93.59 52.09C93.59 46.67 93.38 41.18 93.67 35.72C93.83 32.77 92.54 31.69 90.09 30.8C78.22 26.49 65.98 25.47 53.5 26.35C52.29 26.43 51.09 26.5 49.84 26.58C49.53 24.89 49.28 23.52 48.98 21.82C64.32 20.41 79.09 21.13 93.3 27.05C96.85 28.53 99.67 30.29 98.86 34.79C98.85 34.86 99.11 34.98 99.22 35.06C104.25 32.58 109.26 30.11 114.47 27.55C113.96 27.21 113.7 26.98 113.4 26.85C97.37 19.7 81.36 12.54 65.3 5.49005C64.41 5.10005 63.04 5.28005 62.08 5.65005C56.19 7.95005 50.35 10.37 44.5 12.77C32.66 17.62 20.81 22.48 8.33 27.59C13.83 29.91 18.76 32 23.46 33.99C24.03 32.36 24.09 30.35 25.11 29.57C29.16 26.44 34.01 25 39.13 23.71C39.48 25.49 39.76 26.92 40.04 28.33C37.54 29.15 35.33 29.82 33.16 30.61C29.14 32.08 29.17 32.11 29.14 36.47C29.13 37.72 28.99 38.96 28.98 40.21C28.96 44.23 28.97 48.25 28.97 52.19C50.81 45.51 72.05 45.48 93.59 52.09ZM60.18 52.13C52.29 52.17 42.95 52.69 34.04 56.01C32.33 56.65 30.93 58.11 29.38 59.19C30.93 60.28 32.33 61.94 34.04 62.34C40.08 63.78 46.18 65.25 52.35 65.85C63.58 66.94 74.81 66.41 85.77 63.4C88.06 62.77 90.24 61.67 92.37 60.59C93.9 59.81 93.85 58.59 92.37 57.77C90.75 56.87 89.05 56.02 87.29 55.45C78.97 52.75 70.36 52.15 60.18 52.13ZM114.47 78.47C114.47 74.81 114.64 71.35 114.35 67.93C114.27 67.02 112.87 65.78 111.88 65.57C111.29 65.44 109.7 66.95 109.64 67.81C109.38 71.31 109.53 74.8501 109.53 78.48C111.27 78.47 112.66 78.47 114.47 78.47Z" fill="black"/>
</g>
<defs>
<clipPath id="clip0">
<rect width="122.78" height="83.46" fill="white"/>
</clipPath>
</defs>
</svg>
