<svg width="109" height="84" viewBox="0 0 109 84" fill="none" xmlns="http://www.w3.org/2000/svg">
<g clip-path="url(#clip0)">
<path d="M105.09 76.2433C105.09 74.9463 105.099 74.0077 105.099 73.069C105.141 53.1954 105.175 33.3132 105.218 13.4396C105.218 12.7484 105.014 11.9548 105.278 11.3917C105.661 10.581 106.393 9.94955 106.981 9.23277C107.612 9.91542 108.421 10.5127 108.812 11.3063C109.128 11.9463 108.957 12.8337 108.949 13.6103C108.915 34.3543 108.872 55.0897 108.83 75.8337C108.821 79.8187 108.617 80.0576 104.528 79.9979C90.2696 79.7931 76.0963 80.4246 62.1274 83.6415C58.7544 84.4181 57.6812 84.0255 54.2316 81.6619C51.6337 84.5631 48.3544 84.0853 44.9644 83.2917C31.6003 80.1942 18.0061 79.6822 4.35239 79.8016C-0.000114546 79.8358 -0.00863219 79.7846 -0.000114567 75.518C0.0424735 54.6887 0.0680264 33.8593 0.153203 13.0385C0.16172 11.5708 -0.638936 9.20717 1.84821 9.14744C4.53978 9.08771 3.76467 11.5367 3.76467 13.0983C3.77319 32.8866 3.71357 52.6834 3.6795 72.4717C3.6795 73.5042 3.6795 74.5367 3.67098 75.8764C4.56533 75.9361 5.38302 76.0471 6.20071 76.0471C19.9311 76.0471 33.5849 76.8577 47.0172 80.0235C49.2488 80.5526 50.0494 80.2368 51.7189 78.2486C47.9711 76.7809 44.5215 75.0316 40.8589 74.1015C37.3071 73.2055 33.5593 72.8898 29.8797 72.7703C23.5 72.557 17.1118 72.7106 10.7321 72.668C7.69982 72.6509 7.2569 72.1901 7.2569 69.2376C7.29097 47.2819 7.33356 25.3262 7.38466 3.37905C7.39318 0.153537 7.49539 0.0596724 10.7747 0.0682055C18.7983 0.0682055 26.8304 0.349798 34.837 0.0340731C43.0054 -0.290185 49.8876 1.57857 54.172 9.06211C54.5382 8.97678 54.7767 8.99384 54.8363 8.89145C58.9333 2.44041 64.8019 -0.136589 72.3741 0.110871C81.0791 0.400997 89.8012 0.281533 98.5062 0.179136C100.942 0.145004 101.666 1.07511 101.658 3.34492C101.581 18.8155 101.607 34.286 101.47 49.7565C101.462 50.7464 100.491 52.4701 99.7753 52.581C97.7907 52.8882 97.8844 51.1048 97.8844 49.7139C97.9014 35.455 97.9355 21.1962 97.961 6.93736C97.961 5.99019 97.961 5.04301 97.9696 3.79718C96.9389 3.73744 96.0275 3.64358 95.1162 3.64358C87.6121 3.61798 80.1081 3.60092 72.6041 3.59238C62.7236 3.58385 58.1667 7.41522 56.2162 17.1771C56.0714 17.9195 55.0322 18.4827 54.4104 19.1312C53.8142 18.44 52.7921 17.7915 52.7069 17.0406C52.2385 13.1153 50.8927 9.70209 47.8604 7.04829C45.1262 4.65049 41.8555 3.62651 38.3377 3.58385C29.6242 3.46439 20.9106 3.50705 12.2056 3.49852C11.9586 3.49852 11.7201 3.62651 11.2687 3.74598C11.2261 25.2665 11.1835 46.8126 11.1409 68.7171C24.9565 69.2376 39.2491 67.0617 52.5025 74.8524C52.5792 73.325 52.6643 72.429 52.6643 71.5245C52.6984 56.8305 52.724 42.145 52.758 27.451C52.758 26.6745 52.6047 25.8211 52.8688 25.1385C53.0987 24.5497 53.9079 23.7135 54.3253 23.7817C54.9811 23.8927 55.7477 24.5668 56.0458 25.1982C56.3525 25.8382 56.148 26.7257 56.148 27.5022C56.1225 42.4522 56.0969 57.4022 56.0714 72.3522C56.0714 72.9495 56.131 73.5383 56.1992 74.8524C69.3163 67.1726 83.5407 69.2547 97.8248 68.9134C97.8248 67.7443 97.6033 66.6009 97.8759 65.594C98.685 62.5989 95.8657 58.904 99.622 56.5062C103.685 58.7675 101.249 62.5221 101.351 65.4575C101.649 73.4274 102.697 72.8301 94.2133 72.8386C87.6547 72.8472 81.0962 72.7021 74.5461 72.9751C68.3623 73.2397 62.6385 75.2535 57.2127 78.6241C58.4308 80.8085 60.228 80.2454 61.8208 79.9894C66.5821 79.2299 71.3009 78.0267 76.0878 77.6428C84.9291 76.926 93.8044 76.67 102.663 76.2348C103.353 76.2092 104.043 76.2348 105.09 76.2433Z" fill="black"/>
<path d="M79.4098 25.5225C76.4797 25.514 73.5241 25.258 70.6281 25.5823C68.0388 25.8724 65.475 26.6745 62.9963 27.5193C61.7613 27.9374 60.6625 28.5177 59.8704 27.1353C59.0271 25.6847 60.0578 24.7546 61.2417 24.3535C63.9844 23.4234 66.7611 22.1434 69.5719 21.9984C76.2753 21.657 83.0127 21.8618 89.7331 21.9216C90.5253 21.9301 91.4707 22.2032 92.0584 22.6981C92.4077 22.9967 92.4843 24.1572 92.1862 24.5668C91.82 25.0788 90.9426 25.4628 90.2698 25.4799C86.6498 25.5567 83.0298 25.5055 79.4098 25.4969C79.4098 25.4969 79.4098 25.5055 79.4098 25.5225Z" fill="black"/>
<path d="M79.2905 40.0033C82.3058 40.0118 85.3295 39.9264 88.3362 40.0544C89.8609 40.1227 92.314 39.2182 92.2969 41.9403C92.2714 44.5002 89.912 43.6213 88.4725 43.6384C82.8679 43.7237 77.2719 43.6725 71.6673 43.6384C68.5243 43.6213 65.5261 43.9711 62.7152 45.6351C62.0509 46.0276 60.8158 45.4559 59.8363 45.3364C60.194 44.4405 60.3473 42.9557 60.9521 42.7338C63.9844 41.6416 67.0848 40.5579 70.2448 40.0971C73.2004 39.6619 76.2668 40.0118 79.282 40.0203C79.2905 40.0118 79.2905 40.0033 79.2905 40.0033Z" fill="black"/>
<path d="M79.5035 61.8139C76.6586 61.8054 73.7882 61.5408 70.9773 61.8736C68.2262 62.1979 65.492 63.0085 62.843 63.8704C61.5739 64.2885 60.3388 64.7834 59.8363 63.3328C59.6063 62.6757 60.3729 61.0459 61.0373 60.7899C63.8992 59.7233 66.8548 58.4433 69.836 58.2726C76.3605 57.9057 82.9276 58.1532 89.4776 58.1873C90.7638 58.1958 92.2629 58.0849 92.3225 59.9793C92.3906 61.9504 90.8489 61.7968 89.5798 61.8054C86.2154 61.8395 82.8594 61.8054 79.495 61.7968C79.5035 61.8054 79.5035 61.8054 79.5035 61.8139Z" fill="black"/>
<path d="M30.0672 25.4032C25.9191 25.3946 22.4695 25.4117 19.0284 25.369C17.8018 25.352 16.4816 25.3264 16.5327 23.5429C16.5923 21.8107 17.887 21.751 19.1221 21.751C26.098 21.768 33.091 21.5718 40.0499 21.9899C42.8351 22.1606 45.5778 23.6197 48.2438 24.729C48.7634 24.9424 49.1467 26.2991 49.0104 27.0159C48.9337 27.4255 47.3835 28.0826 47.0088 27.8436C41.4808 24.2597 35.297 25.8042 30.0672 25.4032Z" fill="black"/>
<path d="M29.8628 58.1789C33.3976 58.1874 36.975 57.8546 40.4502 58.3069C43.0992 58.6567 45.6544 59.9111 48.1416 61.0033C48.6867 61.2423 48.7804 62.5052 49.0785 63.2987C48.2012 63.5462 47.0002 64.2886 46.5062 63.9558C42.8607 61.5665 38.8233 61.6945 34.7604 61.703C29.5902 61.7116 24.4115 61.703 19.2413 61.6689C17.9807 61.6604 16.456 61.8652 16.4731 59.877C16.4901 57.9399 17.9807 58.0509 19.2583 58.0423C22.7931 58.0082 26.328 58.0423 29.8628 58.0509C29.8628 58.1021 29.8628 58.1447 29.8628 58.1789Z" fill="black"/>
<path d="M29.8287 40.0289C33.3635 40.0374 36.9409 39.7046 40.4161 40.1569C43.0651 40.4982 45.6374 41.7184 48.116 42.8277C48.6782 43.0752 48.7293 44.4576 49.0189 45.3194C48.116 45.4815 46.9321 46.1045 46.3699 45.7375C43.1247 43.6555 39.5558 43.5445 35.9103 43.5616C30.3909 43.5957 24.88 43.5701 19.3606 43.5275C18.117 43.5189 16.5327 43.7579 16.5157 41.7952C16.4986 39.7046 18.117 39.9094 19.4883 39.9009C22.938 39.8924 26.3876 39.9094 29.8287 39.918C29.8287 39.9521 29.8287 39.9862 29.8287 40.0289Z" fill="black"/>
<path d="M79.2054 30.9326C82.5698 30.9411 85.9343 30.9326 89.2902 30.9582C90.636 30.9667 92.3055 30.6596 92.3736 32.7331C92.4417 34.8664 90.7553 34.5763 89.4095 34.5763C83.3705 34.5848 77.3315 34.3544 71.3095 34.6445C68.4817 34.781 65.6623 35.7624 62.9197 36.6242C61.6506 37.0253 60.4155 37.5628 59.8959 36.1037C59.6659 35.4466 60.441 33.8339 61.1225 33.5608C63.797 32.4856 66.5652 31.3934 69.3931 31.0179C72.6127 30.5913 75.9346 30.9326 79.2054 30.9411C79.2054 30.9411 79.2054 30.9411 79.2054 30.9326Z" fill="black"/>
<path d="M50.2795 16.2385C48.9337 18.6875 47.9883 19.6006 46.5403 18.6278C43.0055 16.2556 39.0788 16.2897 35.0926 16.3153C29.8372 16.358 24.5733 16.3068 19.318 16.2983C17.9892 16.2983 16.5242 16.3921 16.5497 14.4892C16.5668 12.629 17.9977 12.6546 19.3435 12.6632C26.0639 12.6888 32.8099 12.4413 39.5047 12.8338C42.3837 13.0045 45.1945 14.4892 48.0309 15.4023C48.7975 15.6497 49.53 15.9655 50.2795 16.2385Z" fill="black"/>
<path d="M79.1798 12.7912C82.7998 12.7912 86.4198 12.8082 90.0483 12.8082C91.4111 12.8082 92.7058 13.1837 92.331 14.7623C92.1692 15.4706 90.8404 16.358 90.0227 16.3751C83.7282 16.4946 77.4252 16.23 71.1477 16.5031C68.405 16.6226 65.6709 17.6124 63.0134 18.4572C61.7783 18.8497 60.6881 19.4555 59.8874 18.039C59.0527 16.5458 60.1344 15.6839 61.3098 15.2829C64.044 14.3442 66.7952 13.2434 69.623 12.8765C72.7575 12.4584 75.9857 12.7912 79.1798 12.7912Z" fill="black"/>
<path d="M29.6158 49.0057C32.9802 49.0142 36.3958 48.6558 39.6836 49.1337C42.5796 49.5518 45.3904 50.8062 48.1416 51.9325C48.6782 52.1544 48.7804 53.4344 49.087 54.2279C48.2097 54.4754 47.0087 55.2178 46.5062 54.885C42.8607 52.5043 38.8318 52.5981 34.7689 52.6237C29.5987 52.6579 24.42 52.6067 19.2498 52.6067C17.9211 52.6067 16.456 52.692 16.4731 50.7976C16.4901 48.9459 17.9126 48.963 19.2669 48.963C22.7165 48.9801 26.1661 48.9801 29.6158 48.9886C29.6158 48.9971 29.6158 49.0057 29.6158 49.0057Z" fill="black"/>
<path d="M79.2735 49.0911C82.7231 49.0911 86.1728 49.1082 89.6224 49.0996C90.9852 49.0996 92.3821 49.1423 92.3566 50.994C92.331 52.9139 90.8234 52.7433 89.5287 52.7433C83.3194 52.7347 77.1015 52.53 70.9092 52.803C68.2517 52.9139 65.6538 54.1 62.9963 54.612C61.9998 54.8083 60.4581 54.9022 59.947 54.339C58.8142 53.0846 59.9811 52.0265 61.148 51.6169C63.8737 50.6612 66.6248 49.5434 69.4612 49.1764C72.6809 48.7583 75.9942 49.0911 79.2735 49.0911Z" fill="black"/>
<path d="M49.5896 35.8306C48.6782 36.2146 47.3665 37.1959 46.9065 36.8972C41.5404 33.356 35.544 34.7298 29.7691 34.4994C26.2428 34.3629 22.6995 34.4653 19.1646 34.4482C17.9381 34.4397 16.5923 34.5421 16.5242 32.7757C16.456 30.8984 17.7763 30.8046 19.1646 30.8131C26.0639 30.8472 32.9717 30.6083 39.8454 31.0094C42.6392 31.1715 45.3478 32.6989 48.0905 33.6376C48.7463 33.8594 49.3426 34.2263 49.9729 34.525C49.8451 34.9602 49.7174 35.3954 49.5896 35.8306Z" fill="black"/>
</g>
<defs>
<clipPath id="clip0">
<rect width="109" height="84" fill="white"/>
</clipPath>
</defs>
</svg>
