<svg width="98" height="112" viewBox="0 0 98 112" fill="none" xmlns="http://www.w3.org/2000/svg">
<path d="M0.0859087 111.157C-0.883284 99.2503 6.53576 87.8231 18.1661 83.1866C24.1442 80.8052 30.1137 78.407 36.0747 76.0004C38.8022 74.8981 40.063 73.0048 39.9086 70.2279C39.8914 69.8829 39.6684 69.4369 39.394 69.235C34.2049 65.5072 30.3882 60.7361 27.8923 54.9215C27.7637 54.627 27.2576 54.3325 26.9145 54.3072C21.7855 53.9454 18.1832 50.2093 18.1661 45.1604C18.1489 40.4145 18.1232 35.6686 18.1747 30.9227C18.3119 15.894 29.5905 3.2887 44.7631 1.16818C61.9856 -1.23843 78.0759 11.0639 79.594 28.1458C80.1258 34.1119 79.9285 40.1537 79.7656 46.1534C79.6455 50.5206 75.7859 54.0296 71.3173 54.2483C70.5454 54.2904 70.2195 54.5344 69.9278 55.2076C67.5435 60.8118 63.8554 65.4231 58.855 69.0078C58.2718 69.4201 58.0316 69.8408 58.0488 70.5561C58.1088 73.1478 59.2667 74.9149 61.7111 75.8994C67.9551 78.4239 74.2335 80.8726 80.4432 83.4559C91.7047 88.1345 98.8235 99.4607 97.9144 111.166C65.3392 111.157 32.7469 111.157 0.0859087 111.157ZM66.1712 81.5457C63.6238 86.5273 61.1193 91.433 58.512 96.5408C55.2356 93.3179 52.1307 90.255 48.8629 87.0406C45.7152 90.1456 42.5846 93.2254 39.4026 96.3641C36.8724 91.3994 34.3765 86.5188 31.872 81.6215C31.6319 81.6804 31.486 81.6972 31.3488 81.7477C26.9917 83.5064 22.5403 85.0883 18.2862 87.0658C9.51196 91.1469 4.80322 98.1312 3.67964 107.606C8.55992 107.606 13.3373 107.606 18.1918 107.606C18.1918 104.055 18.1918 100.588 18.1918 97.0709C19.4183 97.0709 20.5676 97.0709 21.837 97.0709C21.837 100.63 21.837 104.131 21.837 107.631C30.3367 107.631 38.7078 107.631 47.2076 107.631C47.2076 106.453 47.2076 105.326 47.2076 104.207C48.4769 104.207 49.6263 104.207 50.8528 104.207C50.8528 105.385 50.8528 106.487 50.8528 107.615C59.3353 107.615 67.7407 107.615 76.2662 107.615C76.2662 104.047 76.2662 100.546 76.2662 97.0625C77.5098 97.0625 78.6334 97.0625 79.8685 97.0625C79.8685 100.614 79.8685 104.114 79.8685 107.623C84.7402 107.623 89.4832 107.623 94.2949 107.623C93.583 100.319 90.4439 94.3445 84.5429 89.9352C82.6389 88.5131 80.4603 87.3856 78.2732 86.4263C74.3192 84.6928 70.2623 83.1866 66.1712 81.5457ZM21.9313 38.0247C22.9863 37.604 24.1099 37.1917 25.1906 36.6952C25.4222 36.5942 25.5851 36.2071 25.6452 35.921C26.9832 29.8372 32.0007 25.8318 38.3647 25.8065C41.0836 25.7897 43.8025 25.8149 46.53 25.8065C52.5767 25.7897 51.4531 26.2189 56.3506 22.6342C59.6698 20.2023 63.2807 19.6974 67.0031 21.5066C70.7598 23.3326 72.5695 26.4797 72.5867 30.5945C72.5953 32.5972 72.5867 34.5915 72.5867 36.5185C73.8218 37.0654 74.9711 37.5703 76.412 38.2099C76.1976 34.2297 76.4206 30.3168 75.7173 26.5807C73.676 15.7762 67.0889 8.50583 56.3506 5.52702C45.6294 2.5482 36.2462 5.45128 28.6642 13.4705C22.0514 20.4716 21.1508 29.0799 21.9313 38.0247ZM29.5305 47.1547C29.5219 47.222 29.4876 47.2978 29.4962 47.3651C29.5048 47.5165 29.5048 47.6596 29.5391 47.8111C31.8291 58.3295 37.9874 65.7176 48.1253 69.8493C48.6485 70.0596 49.4118 70.0512 49.935 69.8408C59.2324 66.071 65.2191 59.3982 67.9723 49.9232C68.2382 49.0144 68.3754 48.0719 68.5641 47.18C64.3185 47.18 60.2102 47.222 56.1104 47.1631C53.2028 47.1211 50.9128 44.8154 50.827 41.9628C50.8099 41.3485 50.827 40.7343 50.827 40.1537C49.5148 40.1537 48.374 40.1537 47.1818 40.1537C47.1818 40.8773 47.2076 41.5084 47.1733 42.1311C47.0274 44.7818 44.8661 47.0706 42.1729 47.1379C37.9874 47.2304 33.8018 47.1547 29.5305 47.1547ZM30.9285 32.9254C34.5309 32.9254 37.8501 32.9591 41.1608 32.917C43.6138 32.8833 45.4579 33.8174 46.6243 35.9715C47.0446 36.7541 50.9557 36.7457 51.3845 35.9631C52.5596 33.8089 54.395 32.8917 56.848 32.917C60.862 32.9591 64.876 32.9254 68.9586 32.9254C68.9586 32.1176 68.9844 31.192 68.9501 30.2748C68.8729 27.7672 67.7321 25.857 65.4507 24.721C63.1606 23.5766 60.9221 23.8291 58.8293 25.268C57.903 25.9075 56.9938 26.5723 56.1104 27.2623C54.1978 28.7433 52.0364 29.4165 49.6005 29.3828C45.7495 29.3407 41.8984 29.3407 38.0474 29.3828C35.217 29.4165 32.9012 30.5609 30.9285 32.9254ZM36.2891 43.6037C38.0646 43.6037 39.84 43.6289 41.6154 43.5953C42.8247 43.57 43.5109 42.8969 43.5452 41.7188C43.5795 40.608 43.5795 39.4973 43.5452 38.3866C43.5109 37.2001 42.8333 36.5101 41.6326 36.5017C38.0817 36.4764 34.5309 36.4764 30.98 36.5017C29.7707 36.5101 29.0931 37.1917 29.0502 38.3697C29.0159 39.4047 29.033 40.4482 29.0416 41.4832C29.0588 42.9389 29.7106 43.5869 31.1859 43.6037C32.8927 43.6205 34.5909 43.6037 36.2891 43.6037ZM61.7369 36.4848C59.9958 36.4848 58.2632 36.468 56.5221 36.4932C55.167 36.5101 54.4808 37.158 54.4465 38.4539C54.4208 39.531 54.4208 40.608 54.4465 41.6767C54.4808 42.9137 55.1669 43.5953 56.4449 43.5953C59.9614 43.6121 63.4694 43.6205 66.986 43.5953C68.2468 43.5869 68.9158 42.8969 68.9501 41.6431C68.9758 40.608 68.9758 39.5646 68.9501 38.5296C68.9243 37.158 68.2553 36.5101 66.8401 36.4932C65.1419 36.4764 63.4351 36.4848 61.7369 36.4848ZM49.0516 82.0338C51.2044 79.9049 53.2543 77.8853 55.2784 75.8405C55.45 75.6638 55.5958 75.302 55.5272 75.0916C55.1755 74.0145 54.7553 72.9627 54.3521 71.8772C52.9369 72.4494 51.5389 73.0973 50.0808 73.5602C49.429 73.7705 48.5884 73.7705 47.9366 73.5602C46.4528 73.0889 45.029 72.4326 43.6396 71.8772C43.2279 72.9795 42.8247 74.0061 42.4731 75.0496C42.4045 75.2431 42.4817 75.5797 42.6189 75.7227C44.7117 77.8096 46.8302 79.8628 49.0516 82.0338ZM57.6199 90.3475C59.3439 86.9564 61.0507 83.6073 62.7575 80.2499C61.1279 79.5178 59.6355 78.8446 58.3919 78.2892C56.1704 80.4687 54.0005 82.5976 51.8563 84.7013C53.666 86.4684 55.5786 88.3448 57.6199 90.3475ZM46.1097 84.5835C43.9741 82.4882 41.8041 80.3593 39.6599 78.2556C38.2704 78.8867 36.7866 79.5599 35.2427 80.2583C36.9753 83.6578 38.6735 86.9817 40.3374 90.255C42.3187 88.3112 44.2571 86.4095 46.1097 84.5835ZM25.3278 40.5239C22.9777 41.3065 21.5197 43.6289 21.8198 46.0271C22.12 48.3833 24.0927 50.3607 26.3227 50.4869C26.0826 48.8461 25.7824 47.2136 25.6194 45.5812C25.4565 43.915 25.4222 42.2489 25.3278 40.5239ZM71.6861 50.4533C73.9333 50.4028 76.0003 48.257 76.1976 45.8168C76.3948 43.4102 74.7652 40.9951 72.6725 40.5744C72.5867 42.2321 72.5524 43.8898 72.3894 45.5391C72.2179 47.1884 71.9263 48.8124 71.6861 50.4533Z" fill="black"/>
<path d="M47.2246 93.3512C47.2246 92.2068 47.2246 91.1129 47.2246 89.9517C48.4082 89.9517 49.5489 89.9517 50.7496 89.9517C50.7496 91.0708 50.7496 92.1647 50.7496 93.3512C49.6347 93.3512 48.494 93.3512 47.2246 93.3512Z" fill="black"/>
<path d="M47.1902 100.495C47.1902 99.7212 47.1902 99.0564 47.1902 98.3917C47.1902 97.9878 47.1902 97.5839 47.1902 97.0874C48.3738 97.0874 49.5146 97.0874 50.7411 97.0874C50.7411 98.1813 50.7411 99.3005 50.7411 100.487C49.5918 100.495 48.451 100.495 47.1902 100.495Z" fill="black"/>
<path d="M52.7567 56.0992C53.8717 56.0992 54.9953 56.0992 56.1189 56.0992C56.5992 59.4147 53.2885 62.932 49.5146 63.1676C45.3548 63.4285 41.7268 60.1383 41.8125 56.1245C42.9618 56.1245 44.1197 56.1245 45.2776 56.1245C45.8952 58.4722 47.1302 59.6166 49.0172 59.6166C50.8784 59.6166 52.0791 58.4974 52.7567 56.0992Z" fill="black"/>
</svg>
