<svg width="131" height="131" viewBox="0 0 131 131" fill="none" xmlns="http://www.w3.org/2000/svg">
<path d="M0.000465163 65.3343C-0.166662 29.6334 29.222 0.141925 65.1157 0.000509344C100.688 -0.140906 130.18 29.1835 130.514 64.6401C130.861 100.932 101.189 130.72 65.2443 130.745C29.7491 130.771 -0.0381026 101.562 0.000465163 65.3343ZM5.00142 65.36C5.03999 98.7855 32.1917 125.397 64.6272 125.719C98.374 126.04 125.461 98.5026 125.474 65.5657C125.487 32.0118 98.4383 4.98861 65.0257 5.01432C32.0889 5.05289 4.92429 32.346 5.00142 65.36Z" fill="black"/>
<path d="M22.7556 65.3858C22.7684 42.4765 41.1267 23.514 63.8817 22.7684C88.0637 21.9713 106.885 40.9467 107.913 63.2388C109.045 88.0379 89.5293 107.515 66.1829 107.99C42.9008 108.479 22.8841 89.6321 22.7556 65.3858ZM65.1544 27.6022C43.6079 27.6408 27.2294 45.7933 27.6922 66.0157C28.1679 86.7652 45.9091 103.735 67.0442 102.707C86.9452 101.729 103.439 84.7854 102.668 63.7659C101.935 43.4021 84.9783 27.5508 65.1544 27.6022Z" fill="black"/>
<path d="M25.5707 33.5031C26.1235 31.7033 26.7021 29.9934 27.152 28.2707C27.5891 26.5866 27.8848 24.8639 28.2319 23.1669C28.3605 23.1926 28.489 23.2055 28.6305 23.2312C28.5276 24.0154 28.3862 24.7868 28.3348 25.571C28.2833 26.3423 28.2833 27.1394 28.3219 27.9108C28.3348 28.0779 28.6047 28.2322 28.7462 28.3993C28.8876 28.2065 29.1318 28.0136 29.1575 27.8079C29.2218 27.1008 29.0676 26.3552 29.2475 25.6867C29.6075 24.3625 30.3403 24.2597 31.2659 25.2753C32.8215 26.998 34.377 28.7335 35.9712 30.4305C37.3211 31.8704 37.2825 32.0889 35.277 32.6932C35.6755 31.819 35.6884 31.0733 34.7756 30.7648C34.2871 31.0348 33.8371 31.2147 33.49 31.5233C33.3229 31.6647 33.3229 32.0889 33.3871 32.3461C33.4771 32.6803 33.7085 32.976 33.8371 33.2074C33.0786 33.5931 32.4358 33.9273 31.6902 34.313C31.4845 33.9273 31.2273 33.3488 30.8674 32.8474C30.6745 32.5646 30.2889 32.4232 29.9932 32.2046C29.8903 32.5903 29.7361 32.9631 29.7103 33.3488C29.6975 33.5545 29.9546 33.7731 29.9932 33.9916C30.0575 34.3516 30.0317 34.7373 30.0446 35.1101C29.7232 34.8658 29.2347 34.6987 29.1318 34.3773C28.7719 33.3103 28.5533 32.2046 28.2833 31.1119C28.2319 30.9191 28.2705 30.6876 28.1805 30.5077C28.0776 30.2891 27.8977 30.1091 27.6534 29.7749C26.8049 31.0733 27.3706 33.0403 25.5707 33.5031ZM30.3403 26.1366C30.1989 26.3295 29.9932 26.4966 30.0189 26.6123C30.1089 27.0237 30.276 27.7436 30.4303 27.7565C31.7416 27.7694 31.9987 28.8878 32.6158 29.6335C32.7958 29.8392 33.1429 29.9034 33.4129 30.032C33.3743 29.6849 33.4643 29.2349 33.2843 29.0292C32.5258 28.155 31.6902 27.358 30.8802 26.5352C30.7388 26.3938 30.5717 26.3038 30.3403 26.1366ZM28.5405 29.942C28.5662 30.3791 28.5919 30.5591 28.5919 30.7262C28.6305 31.3819 29.0033 31.7675 29.6332 31.6647C29.7746 31.639 29.8132 30.9319 29.8518 30.5334C29.8646 30.3791 29.8003 30.1734 29.7103 30.0577C29.4789 29.7749 29.209 29.5306 28.9647 29.2735C28.7847 29.5563 28.6047 29.8392 28.5405 29.942Z" fill="black"/>
<path d="M19.156 46.0761C17.7418 46.0889 16.4691 44.8291 16.4434 43.4021C16.4176 41.8465 17.5747 40.6766 19.1431 40.6637C20.7244 40.6509 21.9585 41.7951 21.9714 43.2864C21.9971 44.8033 20.7244 46.0504 19.156 46.0761Z" fill="black"/>
<path d="M114.675 43.4149C114.675 44.8676 113.364 46.1018 111.859 46.089C110.42 46.0632 109.16 44.8034 109.147 43.4021C109.134 42.155 110.278 40.5609 111.872 40.6766C113.518 40.7923 114.675 41.8079 114.675 43.4149Z" fill="black"/>
<path d="M41.0238 25.2239C40.9338 24.1183 40.8567 23.077 40.7795 22.0356C40.6381 22.0228 40.4838 22.0228 40.3424 22.0099C40.2396 22.267 40.1624 22.537 40.0339 22.7813C39.931 22.9741 39.7639 23.1541 39.5839 23.2569C39.5196 23.2955 39.2368 23.1155 39.1982 22.9998C39.1468 22.7941 39.134 22.5242 39.2368 22.3442C39.6096 21.7142 39.9053 20.8143 40.471 20.5572C41.4095 20.1458 41.9494 19.4902 42.5151 18.7574C42.5408 18.7188 43.0036 19.0402 43.2736 19.1945C43.4921 19.323 43.6978 19.4516 43.9035 19.5802C43.9935 19.3359 44.1478 19.1045 44.1606 18.8602C44.1992 18.3588 44.1221 17.8317 44.2121 17.3304C44.2506 17.099 44.5592 16.829 44.7906 16.7647C44.932 16.7261 45.2791 17.0347 45.3434 17.2532C45.8448 18.8345 46.2947 20.4415 46.809 22.2156C45.5748 22.0742 45.9476 20.7629 45.3048 20.3001C43.6207 20.8657 43.6464 20.8657 44.1349 22.1771C44.2506 22.4856 43.9678 22.9356 43.8649 23.3084C43.6464 22.9741 43.3764 22.6656 43.2221 22.3056C43.0422 21.8942 42.965 21.4443 42.8236 20.93C41.718 21.6371 41.3452 22.3956 41.6152 23.5912C41.8723 24.7611 41.718 24.8897 41.0238 25.2239Z" fill="black"/>
<path d="M15.4792 66.5299C14.2707 66.6456 13.0494 66.7485 11.8281 66.8513C11.661 66.8642 11.4681 66.967 11.3267 66.9156C11.0696 66.8385 10.8382 66.6842 10.5939 66.5685C10.8125 66.4014 11.0182 66.1314 11.2624 66.0928C12.7537 65.9 14.2579 65.7457 15.762 65.5914C16.2377 65.54 16.7262 65.4886 17.2019 65.5014C17.4976 65.5143 17.7804 65.6686 18.0761 65.7714C17.9347 66.08 17.8832 66.5171 17.639 66.6842C16.5462 67.4427 15.3892 68.1369 14.2707 68.8568C14.0008 69.0368 13.7436 69.2297 13.4865 69.4225C13.5122 69.5125 13.5251 69.5896 13.5508 69.6796C13.8593 69.7053 14.1679 69.7568 14.4764 69.7311C15.5692 69.6282 16.6491 69.4739 17.7418 69.4097C17.9732 69.3968 18.2175 69.6282 18.4618 69.7439C18.2432 69.911 18.0375 70.1939 17.8061 70.2196C15.762 70.4638 13.7179 70.6695 11.6738 70.8495C11.4553 70.8752 11.211 70.6695 10.9796 70.5667C11.121 70.2453 11.1725 69.8082 11.4167 69.6411C12.5223 68.8826 13.6794 68.214 14.7978 67.507C15.0935 67.327 15.3635 67.0956 15.6463 66.8899C15.582 66.7613 15.5306 66.6456 15.4792 66.5299Z" fill="black"/>
<path d="M32.4873 105.561C33.0529 104.866 33.6314 104.185 34.1971 103.491C34.5056 103.118 34.7756 102.719 35.1227 102.398C35.2641 102.269 35.5727 102.308 35.8041 102.269C35.8041 102.488 35.8812 102.771 35.7784 102.899C34.3899 104.635 32.9886 106.358 31.5616 108.067C31.4588 108.183 31.0217 108.222 30.9703 108.145C30.816 107.913 30.6489 107.579 30.7131 107.335C30.996 106.062 31.3559 104.815 31.6773 103.555C31.7802 103.144 31.8573 102.707 31.7159 102.154C31.4202 102.437 31.0988 102.707 30.8288 103.015C30.1475 103.838 29.5175 104.686 28.8362 105.496C28.7205 105.638 28.4376 105.625 28.2448 105.689C28.2191 105.445 28.0648 105.123 28.1805 104.982C29.5433 103.272 30.9317 101.575 32.333 99.8911C32.4487 99.7497 32.8987 99.6726 32.9244 99.724C33.0915 99.9811 33.31 100.328 33.2586 100.598C33.0658 101.601 32.7701 102.591 32.5387 103.594C32.3973 104.172 32.2816 104.764 32.153 105.355C32.2559 105.432 32.3716 105.496 32.4873 105.561Z" fill="black"/>
<path d="M102.539 29.2221C103.066 28.7078 102.745 28.3736 102.179 28.155C101.639 27.9493 101.087 27.7694 100.534 27.6151C99.5053 27.3451 99.3896 26.9851 100.02 26.1367C100.675 26.6123 101.292 27.1651 101.999 27.5122C102.706 27.8465 103.503 28.0393 104.288 28.1679C105.085 28.2965 105.638 27.9751 105.419 27.1651C106.422 26.8952 107.322 26.6123 108.234 26.4066C108.543 26.3424 108.903 26.4709 109.25 26.5223C108.98 26.818 108.762 27.3065 108.453 27.3708C107.849 27.4994 107.476 27.6922 107.129 28.2836C106.692 29.0421 106.923 29.4406 107.412 29.9677C107.63 30.1991 107.682 30.572 107.81 30.8934C107.437 30.9962 107.013 31.279 106.717 31.189C105.265 30.7391 103.619 30.7391 102.539 29.2221Z" fill="black"/>
<path d="M83.1269 23.2183C84.7982 22.6398 86.4823 22.3312 87.8579 21.0071C86.8551 20.3386 85.3381 21.0842 84.8624 19.4001C85.3381 19.4386 85.7238 19.4515 86.0966 19.5029C86.778 19.6058 87.4465 19.7086 88.115 19.8372C88.8992 19.9915 89.5034 19.76 90.0048 19.1172C90.699 18.243 91.4575 17.4331 92.3317 16.4304C92.6917 17.5874 92.1903 18.2302 91.6889 18.8473C91.2518 19.3872 90.6733 19.8886 91.7918 20.2486C91.7404 20.4157 91.7275 20.5185 91.7018 20.5314C89.5806 20.6985 88.2435 22.6783 86.148 22.9355C85.4667 23.0254 84.811 23.244 84.1297 23.334C83.8211 23.3854 83.474 23.2697 83.1269 23.2183Z" fill="black"/>
<path d="M61.4258 20.4286C60.3459 20.48 59.5103 20.5186 58.9575 20.5443C58.7647 19.8629 58.559 19.2716 58.4561 18.6545C58.3918 18.3202 58.4175 17.896 58.5718 17.6131C59.0218 16.7904 59.2275 16.0961 58.199 15.5433C58.0319 15.4533 57.8776 14.9905 57.9676 14.8748C58.469 14.232 58.9446 13.525 59.6003 13.075C60.2174 12.6508 60.8345 11.2109 60.3459 10.6195C59.8703 10.041 59.536 10.4138 59.266 10.8895C59.0089 11.3394 58.7518 11.7894 58.4947 12.2265C58.3661 12.1365 58.2376 12.0465 58.109 11.9565C58.6618 11.2495 59.1503 10.5038 59.7674 9.87387C60.2431 9.38535 61.2073 10.0539 61.0916 10.9281C60.9244 12.2265 60.6673 13.5635 60.1659 14.7591C59.7931 15.6462 59.356 16.3018 60.1917 17.1375C60.3588 17.3175 60.2945 17.8445 60.1917 18.1531C59.7546 19.4644 59.7288 19.4515 61.0144 19.9529C61.0659 20.0043 61.1173 20.1072 61.4258 20.4286Z" fill="black"/>
<path d="M115.215 88.0891C114.855 87.9606 114.483 87.8706 114.135 87.7035C112.541 86.9193 110.934 86.135 109.366 85.3123C109.083 85.158 108.89 84.8237 108.659 84.5666C108.98 84.4252 109.289 84.1809 109.61 84.1681C111.011 84.1167 112.413 84.1424 113.827 84.1424C114.187 84.1424 114.534 84.1038 114.894 84.0781C114.933 83.9624 114.971 83.8467 115.01 83.731C113.416 82.8953 111.821 82.0597 110.227 81.2369C110.279 81.1084 110.33 80.9798 110.382 80.8513C110.703 80.9412 111.037 80.9798 111.333 81.1212C113.017 81.9569 114.701 82.7925 116.372 83.6667C116.604 83.7824 116.758 84.0524 116.951 84.2581C116.707 84.4124 116.475 84.6823 116.231 84.6952C114.791 84.7852 113.364 84.798 111.924 84.8495C111.539 84.8623 111.14 84.888 110.754 84.9009C110.729 85.0037 110.703 85.1066 110.677 85.1966C112.259 86.0193 113.84 86.855 115.421 87.6778C115.357 87.8063 115.293 87.9477 115.215 88.0891Z" fill="black"/>
<path d="M15.9287 78.5503C15.1445 78.8074 14.3988 79.1031 13.6403 79.2831C13.3832 79.3473 13.0618 79.1416 12.779 79.0645C12.9718 78.8717 13.1261 78.576 13.3575 78.4989C15.2987 77.8175 17.24 77.1747 19.1941 76.5448C19.4255 76.4676 19.7212 76.609 19.9911 76.6476C19.8112 76.8919 19.6955 77.2261 19.4512 77.3547C19.0655 77.5732 18.6284 77.6889 18.1913 77.7918C17.3171 77.9846 17.1371 78.4346 17.4071 79.2959C17.9342 80.9672 17.8828 80.9415 19.5797 80.453C20.0554 80.3115 20.5825 79.6816 21.1096 80.4015C20.6725 80.6972 20.2611 81.07 19.7854 81.25C18.1527 81.8543 16.4943 82.4071 14.8231 82.9342C14.5402 83.0241 14.1803 82.8699 13.846 82.8313C14.0646 82.5999 14.2574 82.2785 14.5274 82.1371C15.0159 81.8928 15.5816 81.8157 16.0701 81.5843C16.4686 81.3914 17.1114 81.0443 17.0986 80.8258C17.0214 80.1058 16.7129 79.3988 16.4429 78.7046C16.4172 78.5888 16.0958 78.5888 15.9287 78.5503Z" fill="black"/>
<path d="M113.505 76.2618C114.971 76.4547 116.501 76.9175 117.812 77.9331C118.609 78.5631 118.879 79.5787 118.481 80.53C118.082 81.4942 117.234 82.137 116.308 81.9313C114.765 81.6099 113.223 81.0828 111.821 80.35C110.767 79.7972 110.626 78.653 111.037 77.6374C111.461 76.5961 112.297 76.2618 113.505 76.2618ZM116.282 81.3785C116.912 80.9285 117.658 80.6457 117.928 80.1186C118.314 79.373 117.709 78.6659 117.028 78.3959C115.742 77.8817 114.405 77.4446 113.043 77.1875C112.631 77.1103 111.821 77.6503 111.68 78.0617C111.539 78.4859 111.834 79.3987 112.207 79.6044C113.441 80.2986 114.791 80.7614 116.282 81.3785Z" fill="black"/>
<path d="M116.192 64.6015C117.066 64.7301 117.953 64.8072 118.815 65.0257C120.075 65.3471 120.846 66.3499 120.807 67.4427C120.756 68.6125 119.92 69.5896 118.558 69.6796C117.349 69.7567 116.102 69.641 114.919 69.4096C113.518 69.1268 112.747 68.0083 112.914 66.8513C113.107 65.4757 114.045 64.7172 115.575 64.6915C115.781 64.6915 115.986 64.6915 116.192 64.6915C116.179 64.6658 116.179 64.6401 116.192 64.6015ZM117.259 69.0239C117.966 68.9339 118.57 69.0239 118.956 68.7797C119.458 68.4711 120.049 67.9312 120.1 67.4298C120.152 67.0056 119.586 66.1699 119.162 66.0671C117.786 65.7457 116.359 65.6171 114.932 65.5657C114.238 65.54 113.621 65.9642 113.531 66.7999C113.441 67.6998 113.942 68.2526 114.727 68.484C115.626 68.754 116.539 68.8697 117.259 69.0239Z" fill="black"/>
<path d="M26.2778 103.234C26.8435 102.848 27.2549 102.629 27.5891 102.321C28.6562 101.305 29.6589 100.238 30.726 99.2225C30.9188 99.0425 31.2916 99.0297 31.5745 98.9397C31.4973 99.2354 31.523 99.6082 31.3431 99.801C30.276 100.945 29.1704 102.077 28.0391 103.169C27.1649 104.018 26.0464 104.005 25.1851 103.208C24.1052 102.231 23.8223 100.958 24.6451 100.02C25.8021 98.7211 27.062 97.5127 28.3219 96.3042C28.4762 96.1628 28.8361 96.2271 29.1061 96.2014C29.0418 96.4456 29.0547 96.7542 28.9004 96.9084C27.7562 98.0912 26.5349 99.1968 25.4679 100.431C25.1336 100.817 24.9537 101.575 25.0694 102.064C25.1722 102.501 25.8021 102.809 26.2778 103.234Z" fill="black"/>
<path d="M115.562 59.2279C115.344 59.4336 115.164 59.7165 114.907 59.8193C114.213 60.0764 113.621 60.4107 113.673 61.2463C113.737 62.1462 114.393 62.6476 115.19 62.6476C116.475 62.6476 117.774 62.5705 119.021 62.3134C119.753 62.1719 120.255 61.5034 120.023 60.6549C119.805 59.8322 119.098 59.4722 118.352 59.6522C117.915 59.755 117.594 60.3207 117.079 60.7964C117.054 60.3078 116.899 59.7165 117.041 59.2022C117.105 58.9708 117.761 58.8551 118.159 58.8037C118.892 58.7008 119.651 58.7008 120.306 58.6494C120.396 59.3179 120.461 59.9093 120.563 60.475C120.769 61.5934 120.229 62.699 119.136 63.1618C117.696 63.7661 116.179 63.7661 114.701 63.3033C113.518 62.9304 112.978 61.992 113.12 60.8478C113.248 59.7679 113.994 59.1251 115.305 58.9708C115.395 59.0608 115.485 59.1508 115.562 59.2279Z" fill="black"/>
<path d="M57.6209 120.551C56.2839 120.538 55.294 119.818 55.114 118.725C55.0754 118.468 55.3197 118.172 55.4354 117.902C55.6154 118.095 55.8082 118.288 55.9625 118.494C56.2839 118.944 56.5024 119.676 56.9138 119.792C57.428 119.934 58.238 119.754 58.6365 119.406C59.2022 118.905 59.0736 118.095 58.5208 117.568C57.9809 117.054 57.2866 116.72 56.6824 116.27C55.6668 115.498 55.4739 114.367 56.1553 113.493C56.8752 112.58 58.4051 112.426 59.2922 113.21C59.5107 113.403 59.7164 113.686 59.7935 113.968C59.8578 114.226 59.7293 114.521 59.6907 114.804C59.485 114.637 59.1893 114.508 59.0865 114.29C58.8036 113.66 58.3922 113.184 57.698 113.364C57.2995 113.467 56.6953 113.943 56.721 114.2C56.7595 114.727 57.0809 115.318 57.4538 115.73C57.8523 116.167 58.4951 116.385 58.9579 116.784C59.7164 117.427 60.1149 118.224 59.7164 119.252C59.305 120.229 58.5594 120.628 57.6209 120.551Z" fill="black"/>
<path d="M108.003 85.9037C110.124 87.2022 112.232 88.5135 114.354 89.812C114.328 89.9148 114.289 90.0176 114.264 90.1205C114.071 90.1462 113.839 90.2362 113.672 90.1719C113.364 90.0434 113.081 89.8248 112.785 89.6577C110.883 88.5264 110.908 88.5392 109.893 90.5062C109.571 91.1361 109.687 91.5218 110.278 91.8432C110.844 92.1517 111.41 92.486 111.937 92.8588C112.13 93.0002 112.245 93.2573 112.4 93.4502C112.31 93.553 112.22 93.6559 112.13 93.7587C110.021 92.4603 107.9 91.1618 105.792 89.8505C105.856 89.7091 105.92 89.5805 105.984 89.4391C106.267 89.5291 106.563 89.5677 106.833 89.6962C107.257 89.9148 107.656 90.1848 108.067 90.429C108.247 90.5319 108.569 90.699 108.607 90.6476C109.108 90.0305 109.636 89.4263 109.983 88.732C110.098 88.5006 109.816 87.9478 109.558 87.6907C109.198 87.3436 108.684 87.1636 108.273 86.8551C108.041 86.688 107.874 86.418 107.694 86.1994C107.797 86.1223 107.9 86.0195 108.003 85.9037Z" fill="black"/>
<path d="M52.9667 119.586C52.8253 119.213 52.6324 118.841 52.5425 118.455C52.3753 117.761 52.3625 117.002 52.0796 116.359C51.8997 115.948 51.3726 115.639 50.9355 115.447C50.8326 115.395 50.3441 115.948 50.2027 116.295C49.9198 117.002 49.7656 117.748 49.547 118.481C49.4185 118.468 49.3028 118.442 49.1742 118.429C49.1742 118.172 49.1228 117.915 49.1871 117.671C49.6884 115.717 50.2541 113.775 50.7169 111.821C50.9098 110.986 51.3083 110.844 52.0282 111.114C52.4396 111.268 52.8767 111.384 53.2881 111.538C54.1237 111.847 54.7665 112.374 54.7665 113.3C54.7665 114.29 54.5094 115.241 53.4167 115.601C52.7353 115.832 52.6453 116.218 52.8253 116.861C53.0567 117.709 53.1724 118.596 53.3267 119.471C53.211 119.509 53.0824 119.548 52.9667 119.586ZM52.4267 115.125C53.4681 115.138 54.098 114.547 54.1237 113.634C54.1494 112.657 53.0953 111.77 51.9254 111.783C51.4111 111.783 50.7169 113.107 50.794 114.135C50.884 115.267 51.9382 114.842 52.4267 115.125Z" fill="black"/>
<path d="M10.4522 64.8329C10.4136 63.9587 11.0307 63.9716 11.5321 63.843C12.3291 63.6631 12.9848 63.4445 12.9591 62.3517C12.9334 61.439 12.6634 60.989 11.7635 60.7705C11.2878 60.6548 10.4907 60.7962 10.4907 59.9091C10.9921 59.9477 11.5063 59.8963 11.9692 60.0377C13.769 60.5648 15.556 61.1433 17.3429 61.7347C17.5872 61.8118 17.7672 62.0946 17.9857 62.2875C17.7929 62.4932 17.6386 62.8017 17.3944 62.8788C15.2089 63.5731 13.0233 64.2287 10.8378 64.8844C10.7607 64.8972 10.6579 64.8587 10.4522 64.8329ZM16.173 62.5317C16.173 62.3775 16.173 62.236 16.173 62.0818C15.5045 61.8761 14.836 61.6318 14.1547 61.529C14.0004 61.5033 13.6147 61.9789 13.6019 62.236C13.589 62.506 13.9361 63.0331 14.0775 63.0203C14.7718 62.9431 15.466 62.7117 16.173 62.5317Z" fill="black"/>
<path d="M69.5123 18.7829C72.0835 17.8958 74.0505 16.3274 75.4518 13.8848C74.2562 13.4734 73.112 14.8104 72.1092 13.5377C73.9476 13.1263 75.6703 12.7277 77.5216 12.3163C77.4059 12.5606 77.3416 12.7663 77.213 12.9206C76.5574 13.7434 75.8632 14.5404 75.2461 15.3889C75.1047 15.5818 75.2204 15.9546 75.3618 16.2503C74.1276 18.0887 70.4765 19.6699 69.5123 18.7829Z" fill="black"/>
<path d="M17.2915 88.4878C16.083 88.5007 15.4145 88.1021 15.0288 87.2665C14.6174 86.3666 14.7203 85.4667 15.3631 84.7724C16.5587 83.4869 18.05 82.6641 19.8241 82.4455C20.814 82.317 21.5596 82.7412 22.0096 83.6411C22.4338 84.4768 22.4081 85.3381 21.8039 86.0452C20.5569 87.5236 18.8727 88.205 17.2915 88.4878ZM16.9443 87.9221C18.7313 87.5365 20.184 86.9322 21.2125 85.6852C21.5211 85.3124 21.5725 84.4639 21.3668 83.9882C21.1868 83.5768 20.4797 83.1912 20.0041 83.1783C18.3456 83.1655 16.9572 83.9754 15.9287 85.2095C15.5945 85.6081 15.5559 86.4694 15.7359 87.0094C15.8773 87.4208 16.5715 87.665 16.9443 87.9221Z" fill="black"/>
<path d="M25.6867 90.1205C25.5195 90.5319 25.4938 90.7119 25.4167 90.7633C23.8226 91.7532 22.2541 92.8074 20.6086 93.6945C19.6572 94.1959 18.8859 93.823 18.2559 92.8717C17.5103 91.7532 17.4332 90.6862 18.3588 90.0048C19.9144 88.8478 21.6242 87.8965 23.2698 86.868C23.334 86.8294 23.4497 86.8937 23.8354 86.9837C23.4112 87.3694 23.1541 87.6779 22.8327 87.8836C21.6628 88.655 20.4543 89.3749 19.2973 90.1591C18.4231 90.7505 18.2559 91.5475 18.7702 92.3575C19.2973 93.1931 20.0172 93.3602 20.9685 92.7946C22.1384 92.1003 23.2826 91.3418 24.4525 90.6348C24.7353 90.4419 25.1082 90.3519 25.6867 90.1205Z" fill="black"/>
<path d="M104.596 98.3998C104.159 98.9397 103.761 99.5054 103.272 100.007C102.706 100.598 102.796 101.022 103.375 101.549C105.072 103.066 104.66 103.606 106.563 101.369C106.833 101.048 107.154 100.778 107.437 100.495C107.527 100.572 107.63 100.662 107.72 100.74C107.206 101.369 106.692 101.999 106.165 102.604C104.892 104.031 104.866 104.056 103.465 102.796C102.192 101.652 100.971 100.444 99.7366 99.2611C99.3381 98.8754 99.2095 98.5155 99.6723 98.0398C100.418 97.2684 101.112 96.4328 101.832 95.6357C101.935 95.7257 102.038 95.8029 102.141 95.8929C101.768 96.3557 101.369 96.8056 101.035 97.2942C100.778 97.6798 100.328 98.3355 100.469 98.5283C100.907 99.1454 101.549 99.6339 102.154 100.11C102.244 100.174 102.668 99.8782 102.873 99.6725C103.362 99.1711 103.812 98.6312 104.275 98.1169C104.378 98.2198 104.48 98.3098 104.596 98.3998Z" fill="black"/>
<path d="M47.9915 113.685C47.3873 113.454 46.7702 113.248 46.1788 112.991C45.3818 112.644 44.8933 112.708 44.5847 113.685C43.9805 115.652 43.9291 115.627 45.8317 116.359C46.3845 116.565 46.9116 116.822 47.4516 117.054C47.4259 117.169 47.4002 117.272 47.3616 117.388C47.1045 117.362 46.8216 117.401 46.5774 117.311C45.6775 116.989 44.8033 116.604 43.9034 116.27C43.3505 116.064 43.1834 115.768 43.402 115.177C44.109 113.287 44.7647 111.384 45.4204 109.469C45.6132 108.916 45.8575 108.659 46.4745 108.929C47.3487 109.302 48.2615 109.623 49.1486 109.97C49.3414 110.047 49.5214 110.112 49.7142 110.176C49.6114 110.343 49.4957 110.51 49.3928 110.677C48.8015 110.459 48.1972 110.266 47.6059 110.034C46.0631 109.456 45.6132 109.7 45.4846 111.384C45.4589 111.68 45.8703 112.13 46.1917 112.31C46.8216 112.67 47.5159 112.888 48.1844 113.171C48.1201 113.351 48.0558 113.518 47.9915 113.685Z" fill="black"/>
<path d="M87.5875 114.765C87.6132 115.742 87.279 116.514 86.3019 116.874C85.3892 117.208 84.2964 116.912 83.8207 115.961C83.1908 114.688 82.638 113.351 82.2652 111.976C81.9309 110.729 82.5866 109.623 83.5636 109.25C84.5021 108.89 85.5563 109.301 86.1734 110.523C86.8419 111.847 87.2918 113.287 87.8318 114.662C87.7547 114.701 87.6775 114.74 87.5875 114.765ZM84.5664 109.854C83.3579 109.816 82.6251 110.549 82.8694 111.577C83.1651 112.888 83.6793 114.174 84.2321 115.408C84.5535 116.141 85.2092 116.629 86.0705 116.282C86.9319 115.935 87.2147 115.138 86.9576 114.315C86.5848 113.081 86.1091 111.86 85.5434 110.69C85.3506 110.279 84.7849 110.034 84.5664 109.854Z" fill="black"/>
<path d="M18.4742 71.4152C18.7313 72.6622 18.9885 73.9092 19.1813 75.1562C19.1942 75.2077 18.4614 75.5419 18.1528 75.4519C16.5458 74.9891 14.9517 74.4234 13.3576 73.8964C12.0205 73.4593 11.9048 73.5621 12.1491 74.9248C12.2777 75.6576 12.4191 76.3904 12.5476 77.1232C12.4191 77.1618 12.3034 77.1875 12.1748 77.226C12.0591 76.9432 11.892 76.6732 11.8277 76.3776C11.6349 75.4391 11.4677 74.4877 11.3006 73.5492C11.1335 72.5722 11.352 72.3408 12.3419 72.6493C13.9104 73.1379 15.4659 73.6778 17.0215 74.2049C18.2942 74.642 18.4485 74.5134 18.2557 73.1636C18.1785 72.6108 18.1143 72.0451 18.0371 71.4923C18.1914 71.4666 18.3328 71.4409 18.4742 71.4152Z" fill="black"/>
<path d="M71.9164 112.528C73.5877 112.464 73.4334 114.29 74.5133 114.727C75.3618 113.943 74.7961 112.361 75.9403 111.744C76.056 111.783 76.1717 111.821 76.2874 111.847C76.1588 112.477 76.0946 113.146 75.876 113.75C75.2718 115.408 75.1561 117.079 75.606 118.789C75.6703 119.021 75.696 119.265 75.6703 119.496C75.6575 119.638 75.4903 119.869 75.4003 119.856C75.2332 119.844 75.0661 119.715 74.9247 119.599C74.8604 119.548 74.8347 119.406 74.8347 119.316C74.809 116.835 73.4591 114.933 72.0964 113.043C72.0321 112.966 72.0192 112.863 71.9164 112.528Z" fill="black"/>
<path d="M108.89 93.8875C109.687 94.0032 109.983 94.6717 110.202 95.3145C110.484 96.1501 110.382 97.05 109.662 97.5514C109.096 97.9371 108.222 98.297 107.618 98.1428C105.715 97.6542 104.275 96.4458 103.504 94.5945C103.118 93.656 103.349 92.769 104.095 92.0619C104.725 91.4577 105.483 91.3034 106.268 91.7019C106.512 91.8305 106.653 92.1648 106.846 92.409C106.576 92.409 106.268 92.499 106.049 92.3962C105.393 92.0876 104.789 92.0105 104.262 92.5762C103.735 93.1418 103.684 93.8489 104.095 94.4788C105.008 95.893 106.229 97.0114 107.849 97.4871C108.337 97.6285 109.237 97.3328 109.507 96.9472C109.777 96.5615 109.585 95.7644 109.43 95.1859C109.315 94.7745 108.916 94.4531 108.646 94.0932C108.723 94.0289 108.8 93.9646 108.89 93.8875Z" fill="black"/>
<path d="M112.94 58.0064C113.223 57.6336 113.48 57.2222 113.801 56.8751C114.238 56.3866 114.727 55.9366 115.19 55.4609C114.624 55.2038 114.045 54.9595 113.493 54.6767C113.043 54.4453 112.271 54.4839 112.477 53.4297C113.261 53.674 114.007 53.8539 114.714 54.1496C116 54.7024 117.272 54.8053 118.609 54.4067C118.866 54.3296 119.149 54.2653 119.419 54.291C119.612 54.3167 119.779 54.4967 119.959 54.5996C119.818 54.7667 119.676 54.921 119.535 55.0752C119.509 55.101 119.471 55.101 119.432 55.101C117.041 55.1138 115.408 56.6051 113.737 58.0064C113.66 58.0707 113.57 58.1221 113.48 58.1735C113.428 58.1992 113.351 58.1864 113.287 58.1992C113.171 58.1478 113.056 58.0835 112.94 58.0064Z" fill="black"/>
<path d="M90.3646 114.624C90.2232 114.47 90.0303 114.328 89.9404 114.136C88.9247 112.233 87.9091 110.33 86.9449 108.402C86.8164 108.158 86.8678 107.579 87.0478 107.463C88.012 106.82 89.0404 106.268 90.0689 105.715C90.2103 105.638 90.4289 105.702 90.7246 105.933C90.4289 106.152 90.146 106.396 89.8375 106.589C89.3104 106.923 88.7962 107.258 88.2434 107.515C87.6006 107.81 87.5749 108.209 87.8834 108.749C88.0248 108.98 88.1534 109.225 88.2691 109.482C88.5776 110.214 89.0147 110.369 89.7089 109.919C90.1975 109.597 90.776 109.405 91.3159 109.16C91.3931 109.302 91.4573 109.456 91.5345 109.597C91.0331 109.893 90.5446 110.202 90.0432 110.472C89.3618 110.844 89.1047 111.269 89.5932 112.04C90.0689 112.786 90.3775 113.621 90.7631 114.418C90.6217 114.495 90.4932 114.56 90.3646 114.624Z" fill="black"/>
<path d="M41.2551 106.178C41.2937 108.312 40.2523 110.343 40.2266 112.477C40.3166 112.528 40.3937 112.567 40.4837 112.618C40.7408 112.4 41.0365 112.207 41.2679 111.95C42.2193 110.87 43.132 109.777 44.0962 108.697C44.3019 108.466 44.6105 108.337 44.8805 108.157C44.9576 108.247 45.0476 108.337 45.1247 108.44C44.4562 109.224 43.8006 110.022 43.1192 110.793C42.2193 111.821 41.3194 112.85 40.3809 113.84C40.2138 114.02 39.8666 114.045 39.6095 114.135C39.5195 113.904 39.3267 113.647 39.3653 113.428C39.8024 111.076 40.2909 108.736 40.7666 106.396C40.7923 106.293 40.9208 106.203 40.998 106.1C41.0622 106.139 41.1651 106.152 41.2551 106.178Z" fill="black"/>
<path d="M102.102 34.6986C102.012 34.6986 101.871 34.7501 101.819 34.7115C100.817 33.9273 99.8782 33.7087 98.9783 34.9172C98.8883 35.0329 98.1298 34.8658 97.937 34.6215C97.5513 34.1201 97.3456 33.4902 97.2042 32.8217C97.4099 33.0145 97.6284 33.2073 97.8341 33.413C98.2969 33.863 98.6826 33.7087 99.0426 33.2588C99.4411 32.7702 99.2225 32.4617 98.7597 32.1917C98.1169 31.8318 97.4741 31.4461 97.3327 30.3148C97.9498 30.6619 98.374 30.9061 98.7983 31.1375C99.2225 31.3561 99.6596 31.5875 100.11 31.7675C100.495 31.9217 102.115 34.2101 102.102 34.6986Z" fill="black"/>
<path d="M66.9929 113.171C68.4713 113.094 69.9626 113.017 71.441 112.94C71.4667 113.056 71.4925 113.171 71.5053 113.287C71.2225 113.364 70.9396 113.518 70.6568 113.505C69.8726 113.48 69.6669 113.853 69.7055 114.585C69.7955 116.359 69.8469 118.146 69.8726 119.921C69.8726 120.229 69.6541 120.538 69.5255 120.846C69.3712 120.551 69.1013 120.268 69.0755 119.972C68.947 118.339 68.8184 116.694 68.8056 115.048C68.7927 114.084 68.587 113.505 67.4814 113.698C67.3143 113.724 67.1343 113.595 66.9543 113.544C66.98 113.403 66.9929 113.287 66.9929 113.171Z" fill="black"/>
<path d="M94.9285 102.629C96.137 101.485 97.1912 100.482 98.2454 99.4669C98.3096 99.5183 98.3739 99.5697 98.4511 99.6211C98.4253 99.7368 98.4382 99.8782 98.3739 99.9554C97.4097 101.19 97.4097 101.19 98.4768 102.385C99.4667 103.504 100.482 104.622 101.446 105.766C101.614 105.972 101.588 106.345 101.639 106.64C101.356 106.563 100.984 106.563 100.817 106.383C99.7366 105.201 98.6825 103.992 97.654 102.758C97.0369 102.012 96.4455 101.64 95.6999 102.565C95.6356 102.642 95.5328 102.681 95.4299 102.707C95.3656 102.732 95.3013 102.694 94.9285 102.629Z" fill="black"/>
<path d="M10.8894 58.0579C10.838 57.8522 10.748 57.6465 10.7609 57.4409C10.8509 56.4509 10.9923 55.4739 11.0566 54.484C11.1209 53.6226 11.4551 53.3012 12.355 53.4427C14.2063 53.7126 16.0832 53.8541 17.9473 54.0983C18.2045 54.1369 18.423 54.4454 18.6673 54.6254C18.3845 54.7411 18.1016 54.9854 17.8316 54.9597C16.1347 54.7925 14.4377 54.6125 12.7536 54.3554C11.9565 54.2397 11.6094 54.4326 11.5708 55.2682C11.5451 55.9881 11.4294 56.6952 11.3394 57.4023C11.3137 57.6337 11.2108 57.8522 11.1337 58.0837C11.0437 58.0708 10.9666 58.0708 10.8894 58.0579Z" fill="black"/>
<path d="M120.178 71.878C119.869 73.215 119.599 74.552 119.239 75.8633C119.201 76.0047 118.622 76.0947 118.339 76.0433C116.463 75.6447 114.598 75.2076 112.747 74.7448C112.49 74.6805 112.297 74.3591 112.079 74.1535C112.361 74.0763 112.683 73.8835 112.94 73.9478C114.611 74.2949 116.283 74.6677 117.941 75.0791C118.571 75.2334 118.905 75.0919 119.034 74.4234C119.201 73.5364 119.445 72.6622 119.664 71.788C119.831 71.8008 119.998 71.8394 120.178 71.878Z" fill="black"/>
<path d="M55.7437 13.6021C54.5996 15.6976 54.651 16.4946 56.1166 17.0603C56.0137 17.5617 55.9623 18.1016 55.7823 18.603C55.6923 18.8601 55.3838 19.0401 55.1781 19.2587C55.0752 18.9758 54.921 18.7059 54.8953 18.423C54.8695 18.0116 54.9338 17.6002 54.9595 17.0217C54.5739 17.176 54.3939 17.3174 54.2267 17.3046C53.9953 17.2917 53.6482 17.2403 53.5582 17.086C53.4682 16.9446 53.584 16.5718 53.7254 16.4175C54.7153 15.4019 54.7281 15.4147 53.5325 14.3091C54.3296 14.052 55.0367 13.8206 55.7437 13.6021Z" fill="black"/>
<path d="M99.9036 28.862C100.932 29.4919 101.845 30.0576 102.77 30.5975C103.208 30.8547 103.67 31.0475 104.133 31.2532C104.815 31.536 104.853 31.6003 104.827 32.4874C102.642 32.6031 99.9293 30.7133 99.9036 28.862Z" fill="black"/>
<path d="M63.8172 116.887C63.8172 117.941 63.8429 119.008 63.8043 120.062C63.7915 120.306 63.5472 120.538 63.4058 120.769C63.2515 120.525 62.943 120.268 62.943 120.023C62.9687 117.979 63.0458 115.922 63.1487 113.878C63.1615 113.583 63.4701 113.313 63.6372 113.03C63.74 113.325 63.92 113.621 63.9329 113.917C63.9714 114.907 63.9457 115.897 63.9457 116.887C63.9072 116.887 63.8686 116.887 63.8172 116.887Z" fill="black"/>
<path d="M34.1712 110.831C34.2741 110.523 34.3126 110.176 34.4797 109.906C35.5468 108.145 36.6395 106.409 37.7452 104.673C37.8994 104.442 38.2465 104.339 38.5037 104.185C38.4779 104.455 38.5294 104.789 38.4008 104.995C37.2952 106.808 36.151 108.595 35.0197 110.394C34.8783 110.613 34.6854 110.793 34.5183 110.986C34.4026 110.934 34.2869 110.883 34.1712 110.831Z" fill="black"/>
<path d="M91.226 25.7252C89.6576 25.918 88.9891 24.9539 89.1819 22.9612C89.9147 23.9511 90.5318 24.7867 91.226 25.7252Z" fill="black"/>
<path d="M26.6118 23.0126C26.509 22.4726 26.4061 21.9455 26.3033 21.4056C26.6247 21.4956 27.2161 21.547 27.2289 21.6756C27.2932 22.0998 27.1518 22.5626 27.0875 23.0126C26.9332 23.0126 26.779 23.0126 26.6118 23.0126Z" fill="black"/>
<path d="M103.131 24.5681C103.169 25.0823 103.259 25.6094 103.221 26.1237C103.208 26.3165 102.925 26.4965 102.758 26.6765C102.617 26.4836 102.321 26.2651 102.347 26.1108C102.449 25.558 102.655 25.0309 102.822 24.491C102.925 24.5167 103.028 24.5424 103.131 24.5681Z" fill="black"/>
<path d="M26.7536 25.8023C26.2908 25.6994 25.828 25.5966 25.1852 25.4423C25.4809 25.0438 25.6994 24.7609 26.008 24.3495C26.3679 24.8252 26.6379 25.198 26.9207 25.558C26.8565 25.6351 26.805 25.7251 26.7536 25.8023Z" fill="black"/>
<path d="M56.7463 52.0027C56.772 52.5812 56.8106 52.8769 56.8106 53.1726C56.8106 61.5675 56.8363 69.9753 56.7978 78.3702C56.7978 79.3987 57.0806 79.7715 58.1219 79.7458C61.2459 79.6558 60.7574 80.0286 60.7574 77.1232C60.7702 62.8917 60.7574 48.673 60.7445 34.4415C60.7445 33.9144 60.7445 33.3744 60.7445 32.8474C60.8345 32.8088 60.9374 32.7831 61.0274 32.7445C61.8501 33.5416 62.6729 34.3258 63.47 35.1357C70.2065 41.8722 76.9173 48.6216 83.6666 55.3452C84.2195 55.898 84.438 56.4765 84.438 57.2479C84.4251 69.1139 84.438 80.9671 84.438 92.8331C84.438 94.3758 84.4251 94.3887 82.921 94.3887C75.8888 94.3887 68.8695 94.3758 61.8373 94.4015C60.9888 94.4015 60.7317 94.1187 60.7188 93.2702C60.706 89.9148 61.4387 90.4419 57.672 90.4162C57.0677 90.4162 56.7849 90.6733 56.8106 91.2904C56.8363 91.9718 56.7849 92.666 56.8235 93.3473C56.8749 94.0801 56.6435 94.4015 55.8464 94.4015C52.9281 94.4144 50.0227 94.4658 47.1044 94.5172C46.4102 94.5301 46.1016 94.2858 46.1145 93.5659C46.1402 91.9846 46.1273 90.4162 46.1273 88.8349C46.1273 80.5428 46.1402 72.2379 46.1016 63.9458C46.1016 63.0845 46.3459 62.4931 46.9501 61.8889C49.8941 58.932 52.7996 55.9237 55.7179 52.9283C55.9878 52.6583 56.2707 52.4269 56.7463 52.0027Z" fill="black"/>
</svg>
