<svg width="98" height="126" viewBox="0 0 98 126" fill="none" xmlns="http://www.w3.org/2000/svg">
<path d="M0.0553983 0.403014C4.40517 1.91779 8.57423 3.82168 12.9518 4.79447C23.6525 7.19866 34.3394 6.86513 44.512 2.45977C47.4859 1.18125 49.5982 0.917204 52.6278 2.43198C59.5346 5.87844 67.178 6.30925 74.7797 6.1008C82.2841 5.90624 89.4272 4.2108 96.0005 0.403014C96.2228 0.277941 96.473 0.236249 97.1261 0C97.1261 2.22352 97.14 4.25249 97.1261 6.28146C96.9871 17.9689 96.8065 29.6563 96.7231 41.3437C96.6536 50.335 96.9733 59.3264 96.6258 68.3039C95.8059 89.608 85.8279 105.312 67.0391 115.429C61.1329 118.611 55.2266 121.807 49.3065 124.948C48.9313 125.143 48.2781 125.157 47.9029 124.962C41.6353 121.668 35.3539 118.403 29.1558 114.998C15.495 107.494 6.44798 96.2508 2.34836 81.1864C0.583435 74.7243 0.333302 68.026 0.277713 61.3554C0.194331 50.0988 0.249936 38.8283 0.208245 27.5717C0.180451 18.7471 0.069241 9.90858 -0.000244141 1.08397C0.0136529 0.792131 0.0553983 0.472499 0.0553983 0.403014ZM3.22388 4.50264C3.22388 5.25308 3.22388 5.76727 3.22388 6.28146C3.27946 19.0806 3.27947 31.8659 3.40455 44.6651C3.50182 54.1706 3.08494 63.7596 4.12722 73.1679C6.0867 90.8032 14.6611 104.506 30.7678 112.858C36.4934 115.818 42.3162 118.569 48.1252 121.377C48.5143 121.571 49.1675 121.571 49.5566 121.377C55.4351 118.486 61.3135 115.595 67.1502 112.622C76.1694 108.036 82.7149 100.976 87.4955 92.1373C92.3039 83.2293 93.6797 73.5292 93.777 63.6345C93.9576 44.8735 93.9298 26.0986 93.9993 7.33763C93.9993 6.47602 93.9993 5.6005 93.9993 4.75278C93.6936 4.72499 93.5824 4.6833 93.4851 4.71109C93.0404 4.86396 92.5957 5.04462 92.151 5.21139C79.3379 9.99196 66.4276 10.0892 53.4617 5.92013C51.8079 5.39205 50.2514 4.01624 48.6672 4.01624C47.0829 4.03014 45.5543 5.46153 43.9005 5.98962C30.8095 10.1031 17.8158 9.97807 4.93327 5.04462C4.44687 4.83617 3.96042 4.72499 3.22388 4.50264Z" fill="black"/>
<path d="M18.5247 37.4384C38.592 37.4384 58.4648 37.4384 78.421 37.4384C78.4766 37.7303 78.5877 37.9665 78.5877 38.2167C78.5877 46.944 78.7128 55.6713 78.5321 64.3848C78.3931 70.43 77.5176 76.3918 75.0717 82.0201C72.3062 88.3988 67.5535 92.9709 61.6473 96.3479C57.7561 98.5714 53.6564 100.448 49.6402 102.435C49.1816 102.657 48.459 102.754 48.0143 102.56C42.2887 100.072 36.6187 97.4875 31.588 93.7075C24.2086 88.1765 20.4286 80.6582 19.303 71.639C18.2051 62.8978 18.4692 54.1148 18.5665 45.3458C18.5387 42.761 18.5247 40.1761 18.5247 37.4384ZM48.8341 44.3591C47.097 48.0002 45.2904 51.794 43.4004 55.7825C44.4427 55.6296 45.346 55.4907 46.4022 55.3239C44.8874 59.5347 41.3298 61.9389 38.7727 65.3436C40.218 65.2603 41.6633 65.1908 43.1086 65.1074C43.1781 65.2603 43.2476 65.427 43.3171 65.5799C39.5788 68.0258 35.8405 70.4578 32.1161 72.9036C32.8248 73.2511 33.4501 73.3205 34.0477 73.2372C36.2434 72.8897 38.4253 72.5145 40.6071 72.1115C43.6228 71.5556 46.5967 71.1665 49.251 73.3344C51.2383 71.4166 53.5592 71.3889 55.9772 71.8891C57.895 72.2922 59.785 72.8202 61.7028 73.1121C62.8702 73.2927 64.0931 73.1399 65.2883 73.1399C61.7445 70.291 57.5754 68.5678 54.4624 65.1074C56.0745 65.2325 57.492 65.3436 59.3403 65.4826C56.4636 61.8694 52.5725 59.6737 51.3079 55.2822C52.4196 55.4629 53.2534 55.6018 54.1428 55.7408C52.2667 51.7107 50.4879 47.9168 48.8341 44.3591ZM28.475 78.6709C34.423 78.6709 40.2319 78.6709 46.0547 78.6709C46.1242 79.1712 46.1798 79.5603 46.2493 80.0328C48.0976 80.0328 49.8765 80.0328 51.7526 80.0328C51.8221 79.5603 51.8915 79.1434 51.9749 78.5736C57.7977 78.5736 63.5233 78.5736 69.2489 78.5736C69.3462 78.4346 69.4296 78.2957 69.5268 78.1706C68.6513 77.2812 67.9148 75.9193 66.8586 75.5997C63.7457 74.6547 60.5216 74.0154 57.3114 73.4456C55.6298 73.1538 53.6982 72.7508 52.1834 73.2789C49.9737 74.071 48.1532 74.2099 45.9297 73.265C43.5533 72.2644 41.0518 73.3622 38.6476 73.932C36.4936 74.4462 34.3535 75.0577 32.1716 75.3773C29.9203 75.6969 29.3089 76.0444 28.475 78.6709ZM44.2342 92.4012C44.6095 92.693 44.9986 93.235 45.3738 93.2211C45.9158 93.2072 46.833 92.9154 46.9303 92.554C47.236 91.484 47.4028 90.3027 47.2221 89.2326C47.1526 88.7601 45.9991 88.0514 45.5266 88.1765C44.9152 88.3293 44.1369 89.1632 44.0536 89.7885C43.8034 91.6507 45.4016 91.3172 46.5273 91.4423C46.0826 92.9709 45.8741 93.0404 44.2342 92.4012ZM52.6003 90.0248C51.9749 89.316 51.4746 88.1765 50.7103 87.968C49.3623 87.6067 49.0426 88.8852 48.8202 89.9553C48.4589 91.7619 49.0565 93.235 50.1822 93.4017C51.2523 93.5685 52.2112 92.1232 52.6003 90.0248ZM53.6842 88.8574C53.7815 88.913 53.8649 88.9825 53.9622 89.0381C54.6292 88.9686 55.2963 88.8991 55.9633 88.8157C55.7966 89.4411 55.7271 90.122 55.4491 90.6918C55.2546 91.0809 54.7126 91.2755 54.393 91.6229C54.0455 92.012 53.7676 92.4845 53.3368 93.0821C54.6292 93.0821 55.602 93.0821 56.5748 93.0821C56.5748 92.957 56.5887 92.8459 56.5887 92.7208C55.9633 92.6513 55.338 92.5818 54.657 92.4984C55.3519 91.748 56.1023 91.1504 56.5748 90.3722C56.8388 89.9275 56.8666 89.1076 56.6304 88.649C56.4219 88.2598 55.6576 87.9263 55.1851 87.968C54.657 88.0236 54.1845 88.5517 53.6842 88.8574ZM41.5799 87.8985C40.8156 88.5378 40.3292 88.9408 39.8567 89.3438C42.0802 90.0387 40.0791 92.1649 41.5799 93.1238C41.5799 91.4701 41.5799 89.9275 41.5799 87.8985Z" fill="black"/>
<path d="M22.2907 30.8514C22.3602 30.9904 22.4019 31.1433 22.4991 31.2683C22.8882 31.7269 23.3052 32.1855 23.7082 32.6442C23.1245 33.0472 22.5965 33.6447 21.9572 33.8115C19.4419 34.4647 16.8153 34.5341 15.7035 31.31C15.2866 30.1288 13.9108 30.1288 12.4238 30.1288C12.8268 30.8375 13.216 31.2961 13.3271 31.8103C13.4522 32.3801 13.5217 33.1444 13.2437 33.5753C13.0214 33.9227 12.2432 34.0061 11.7012 34.02C11.2426 34.0478 10.784 33.7976 10.3254 33.7142C9.14416 33.4919 8.72719 32.9638 8.96344 31.6436C9.18579 30.3233 8.99122 28.9059 8.86615 27.5439C8.40755 22.6383 11.7845 21.735 15.1198 22.0407C15.9536 22.1102 16.7736 22.4298 17.6074 22.4854C18.9277 22.5688 19.2333 21.9712 18.9276 20.7066C18.5941 19.3586 18.4134 17.955 18.3578 16.5653C18.3162 15.3979 18.8442 14.1889 20.0672 14.0082C21.4013 13.8137 22.9022 13.8415 24.1668 14.2584C25.3202 14.6336 26.0012 15.662 26.0568 17.1907C26.0846 18.1079 27.0852 19.0945 27.8356 19.8728C29.5311 21.6238 30.073 24.834 28.864 26.8769C27.8495 28.6001 28.2526 29.9481 29.948 31.185C30.212 31.3656 30.2259 32.3801 29.9618 32.6997C29.0585 33.8393 27.4465 33.7281 26.571 32.5469C26.2652 32.13 26.0429 31.6297 25.7789 31.1711C24.9034 29.7397 23.6109 29.6146 22.2907 30.8514ZM26.0429 22.2909C26.6961 20.9568 26.5432 20.1368 25.1952 19.8589C23.7638 19.5532 22.2351 20.5398 20.8593 19.4837C20.8315 19.5254 20.8037 19.567 20.7759 19.6226C21.2206 20.0395 21.6931 20.4565 22.1656 20.9012C19.6364 22.7356 19.6363 22.7356 19.6363 23.486C21.2623 21.8462 23.194 21.4987 24.7227 22.68C24.7644 21.9712 24.8061 21.332 24.8756 20.2758C25.362 21.0957 25.626 21.5682 26.0429 22.2909ZM21.6375 32.5747C21.6931 32.4218 21.7626 32.2689 21.8182 32.1161C21.4152 31.2961 21.0122 30.4762 20.6231 29.6841C20.3312 29.7814 20.095 29.9064 19.8587 29.9342C18.6775 30.0593 18.8164 30.8514 18.9554 31.6575C18.9832 31.8242 19.0388 31.991 19.1361 32.4218C19.4279 31.8242 19.5808 31.4907 19.5947 31.4629C20.3034 31.852 20.9705 32.2133 21.6375 32.5747ZM10.0614 31.3239C10.242 31.2822 10.4365 31.2544 10.6172 31.2128C10.4921 30.7264 10.367 30.24 10.2559 29.7953C11.2842 28.7113 12.257 27.6968 13.2159 26.6823C12.2987 26.7101 10.0891 28.5445 9.7834 29.7397C9.65833 30.2122 9.96408 30.7958 10.0614 31.3239ZM19.1916 28.9197C20.3868 28.211 21.4708 27.5578 22.5548 26.9047C18.5941 27.9748 18.6219 27.5161 19.1916 28.9197ZM25.0562 24.5422C23.2357 23.347 23.2496 24.973 22.5409 25.2231C22.7215 25.4594 23.0412 25.9041 23.0829 25.8902C23.6943 25.515 24.2919 25.0842 25.0562 24.5422Z" fill="black"/>
<path d="M85.3969 30.0591C83.9099 30.3231 82.7565 30.337 82.1033 31.8101C81.1444 33.9919 76.9892 34.8674 75.0298 33.4499C74.1404 32.7968 74.2793 32.2409 75.6412 31.0319C74.7796 29.7116 73.3899 29.6005 72.5144 30.8234C72.2087 31.2542 72.1252 31.8796 71.75 32.1992C71.1107 32.7273 70.3464 33.3805 69.6099 33.4221C68.5676 33.4638 67.7338 32.7829 67.7199 31.546C70.138 30.0591 70.4159 28.5165 68.9845 25.9316C68.0395 24.2362 68.6093 22.513 69.5404 20.9843C70.1102 20.0393 71.0274 19.3167 71.5971 18.3856C72.0002 17.7463 72.2086 16.9125 72.2781 16.1481C72.431 14.5917 73.8068 14.2026 74.7518 14.008C75.9886 13.7579 77.5867 12.8545 78.6846 14.4527C79.9214 16.2454 80.3801 18.1632 79.6019 20.3034C79.3795 20.887 79.3378 21.5402 79.2127 22.1656C79.977 22.2489 80.7414 22.4296 81.4918 22.4157C82.8398 22.374 84.2296 21.9293 85.5081 22.1795C88.1346 22.6797 89.2603 24.2223 89.302 26.8905C89.3436 28.7388 89.3159 30.5872 89.2603 32.4355C89.2464 32.769 88.9684 33.1859 88.6766 33.3944C88.3569 33.6445 87.8984 33.8252 87.5093 33.8391C86.606 33.853 85.7026 33.7418 84.7993 33.6862C84.9105 32.8385 85.0356 31.9908 85.1468 31.143C85.2023 30.8512 85.2718 30.6149 85.3969 30.0591ZM75.3076 26.3764C75.6829 24.5836 75.127 23.9027 73.0841 24.403C73.9874 25.1812 74.6684 25.7649 75.3355 26.3486C76.5306 27.2519 77.7119 28.1413 78.907 29.0446C79.0599 28.8778 79.2128 28.725 79.3656 28.5582C79.0738 28.1969 78.8653 27.6827 78.4901 27.5159C77.4617 27.0573 76.3638 26.7516 75.3076 26.3764ZM73.4455 22.6381C73.5567 22.7214 73.6678 22.8048 73.779 22.8882C74.2932 21.1789 75.1548 21.6097 76.1554 22.1795C76.9753 22.652 77.8925 22.9994 78.7542 23.3885C78.8375 23.2912 78.907 23.18 78.9904 23.0828C78.0315 22.4018 77.0587 21.7208 76.0442 20.9982C76.475 20.4979 76.9058 19.9976 77.1281 19.7336C76.1137 19.7614 75.0576 19.8447 73.9875 19.8031C72.1114 19.7197 71.4859 20.4145 72.1808 21.9849C72.4726 21.5263 72.7645 21.0955 73.2509 20.345C73.3482 21.3734 73.3899 22.0127 73.4455 22.6381ZM77.5451 29.5588C77.156 30.4065 76.7391 31.3098 76.3222 32.2131C76.4195 32.3382 76.5028 32.4494 76.6 32.5744C77.2532 32.1853 77.9064 31.7962 78.6012 31.3932C78.6429 31.4766 78.7958 31.824 79.0877 32.5049C79.1988 31.5322 79.2683 30.9485 79.3239 30.3787C78.6429 30.0591 78.0454 29.795 77.5451 29.5588ZM87.5371 31.0736C87.7038 31.1708 87.8706 31.2542 88.0374 31.3515C88.1624 30.8095 88.5377 30.1841 88.3848 29.7394C87.9123 28.2663 85.8277 26.6265 85.0078 26.7516C85.9389 27.7383 86.9255 28.7805 87.8983 29.8228C87.7594 30.2814 87.6483 30.6705 87.5371 31.0736Z" fill="black"/>
<path d="M58.8258 17.288C56.9775 13.8415 54.5733 11.1733 50.0985 10.7564C51.0157 13.0355 51.8495 15.1339 52.7945 17.4825C51.9468 17.5937 50.7099 17.7466 49.4314 17.8994C48.6948 19.9701 49.0701 20.4982 51.2102 20.3453C51.8217 20.3036 52.4331 20.3453 53.3643 20.3453C52.2942 22.5827 50.5154 20.929 49.3063 21.7211C49.2369 22.3326 49.1396 23.0413 49.0423 23.889C50.5432 24.0558 51.9467 24.1948 53.3364 24.3893C54.3231 24.5283 55.3376 24.6673 56.2826 24.9869C59.8263 26.1404 60.2294 26.0987 57.7001 29.5451C56.0603 31.7826 53.8229 33.1862 50.9462 33.1584C50.8489 32.9777 50.7655 32.8109 50.6682 32.6303C51.5993 32.1856 52.5443 31.7548 53.4755 31.3101C53.4893 31.1989 53.5171 31.0877 53.531 30.9904C52.4331 30.782 51.3353 30.5874 50.3486 30.4067C49.4453 31.4907 50.9045 33.2001 49.0839 33.6448C48.0139 33.8949 46.916 33.9366 45.6792 32.5608C46.9577 32.5052 47.8193 32.4635 48.667 32.4218C48.9728 30.504 48.8338 30.3095 47.055 30.4484C45.9711 30.5457 44.8871 30.782 43.4835 31.0043C44.2895 31.5741 44.8036 31.9215 45.429 32.3523C42.733 33.075 39.0364 30.0454 37.9524 26.3766C40.9959 24.2504 44.6508 24.5422 48.0695 24.028C48.0973 21.4432 48.0972 21.4571 45.6931 21.5682C45.1233 21.596 44.5535 21.4293 43.9838 21.3459C43.9838 21.1096 43.9698 20.8734 43.9698 20.6371C44.762 20.5677 45.5541 20.4148 46.3324 20.4565C47.3329 20.5121 48.1111 20.5677 48.1111 19.178C48.1111 17.8994 47.6109 17.5242 46.3879 17.6493C45.5958 17.7327 44.7898 17.552 44.3312 17.5103C45.2901 15.2173 46.1239 13.1883 46.9994 11.0899C43.4556 10.7008 39.2448 14.2306 38.7306 17.8299C39.9675 17.691 41.1905 17.5242 42.4273 17.413C42.5941 17.3991 42.7747 17.5798 43.0943 17.7466C41.7602 19.3864 39.0503 17.9828 37.9386 20.2758C39.7313 20.0396 41.3155 19.845 42.8997 19.6366C42.9275 19.8172 42.9692 19.984 42.997 20.1646C41.8158 21.8462 38.953 20.1924 37.9524 22.5688C39.6062 22.9163 41.1488 21.3042 43.1082 22.8051C41.9826 23.0691 41.2321 23.3054 40.4678 23.4026C39.3004 23.5694 37.9941 23.486 38.2165 25.4733C38.008 25.4594 37.8134 25.4316 37.605 25.4177C37.3131 24.6812 36.8546 23.9724 36.7712 23.222C36.0347 16.5375 39.4811 11.4651 45.9155 9.49172C46.8883 9.19988 47.6943 7.97695 48.5837 7.94915C49.4175 7.93525 50.1957 9.17209 51.1268 9.46393C53.9202 10.3533 56.4494 11.5902 58.1587 14.0499C58.7146 14.856 59.0064 15.8566 59.4094 16.7738C59.201 16.9683 59.0064 17.1212 58.8258 17.288ZM39.3421 26.9047C40.843 29.9343 41.8714 30.4623 44.0255 29.3923C43.8865 29.2255 43.7753 29.0726 43.6502 28.9198C43.2333 28.4195 42.8303 27.9192 42.4134 27.4328C42.9832 27.0854 43.5529 26.46 44.1366 26.4322C46.9577 26.2932 49.7927 26.2376 52.6138 26.3349C53.3504 26.3627 54.073 27.0298 54.8095 27.405C54.337 27.9748 53.8507 28.5445 53.3921 29.1143C53.3365 29.1838 53.3365 29.295 53.3087 29.3923C55.5322 30.5179 57.172 29.5729 57.7696 26.6685C51.5993 24.8618 45.4985 24.5561 39.3421 26.9047ZM48.9172 15.12C49.1395 16.1762 49.5426 16.8849 50.7655 16.2179C50.1124 14.3001 49.9039 12.2572 48.3196 10.4228C47.5831 12.5908 46.9716 14.3974 46.3602 16.204C46.5269 16.343 46.6798 16.4958 46.8465 16.6348C47.4719 16.1762 48.1112 15.7037 48.9172 15.12ZM52.8083 27.6273C49.89 26.9742 47.2913 26.9047 44.4424 27.7107C46.8188 29.6285 50.5709 29.6007 52.8083 27.6273Z" fill="black"/>
<path d="M59.2705 25.1537C58.6173 22.3465 55.56 24.2782 54.5177 22.0407C56.0603 22.2353 57.6028 22.4298 59.1454 22.6105C58.8674 21.596 58.7424 21.5265 56.9636 21.1791C56.0603 20.9985 55.1569 20.7622 53.8645 20.4704C55.8518 18.8722 57.4916 20.4704 59.326 20.3175C58.1309 18.0662 55.6711 19.1501 53.8645 17.8716C54.5733 17.6215 55.004 17.3018 55.4071 17.3296C56.7829 17.4408 58.1587 17.6632 59.5345 17.8716C59.6596 17.8855 59.7707 18.0662 59.868 18.1913C60.952 19.5532 60.688 23.764 59.2705 25.1537Z" fill="black"/>
<path d="M84.48 90.2891C84.2993 90.6365 83.9935 91.2341 83.6739 91.8456C81.6449 90.2335 79.6438 88.7743 76.9061 88.3296C77.3091 87.607 77.6704 86.5786 78.3513 85.856C78.9767 85.1889 79.9773 84.4246 80.7417 84.494C81.3948 84.5635 81.9368 85.7448 82.5343 86.4396C82.451 86.6064 82.3676 86.7871 82.2981 86.9538C83.66 86.7315 85.0358 86.5091 86.4811 86.2729C86.2449 87.2873 85.7307 87.8432 84.5773 87.8432C83.5767 87.8432 82.576 88.0656 81.5615 88.1907C81.5198 88.4269 81.4921 88.6631 81.4504 88.9133C82.4093 89.358 83.3682 89.8027 84.48 90.2891ZM81.0196 88.6215C81.6728 86.9121 81.3809 85.8421 80.2691 85.5085C78.8933 85.0916 78.5876 86.0505 78.2679 87.1484C79.199 87.6348 80.0607 88.1073 81.0196 88.6215Z" fill="black"/>
<path d="M11.562 81.0615C13.1601 80.5195 15.1752 81.0893 16.3009 78.7824C16.5233 79.8525 16.6761 80.6585 16.7594 81.0615C15.5782 81.1171 14.4387 81.0754 13.3269 81.2422C12.0901 81.4228 10.881 81.798 9.672 82.0899C9.56082 81.9787 9.44966 81.8536 9.33848 81.7424C10.7699 79.9497 12.1873 78.157 13.6465 76.3226C11.6593 75.8501 9.40792 76.67 8.50461 78.2404C8.29616 77.2398 8.12941 76.3921 7.92096 75.4054C9.67198 76.6978 13.2852 75.9474 15.1057 74.0713C15.6616 75.461 15.4532 76.1836 14.0357 77.754C13.1324 78.7407 12.2012 79.7135 11.2979 80.7002C11.3813 80.8252 11.4647 80.9364 11.562 81.0615Z" fill="black"/>
<path d="M27.7245 95.7783C28.1831 96.3898 28.6417 97.0012 29.1142 97.6405C27.5856 97.4598 26.9463 98.655 26.1125 99.4888C25.2231 100.378 24.3892 101.323 23.5415 102.24C23.3887 102.199 23.2497 102.157 23.0968 102.101C23.3331 99.8085 23.5554 97.5293 23.8334 94.7916C22.0407 96.223 20.5259 97.2792 20.5814 99.7807C19.9144 99.0719 19.4558 98.5994 18.9833 98.0991C21.3041 96.765 23.1664 95.1529 23.8751 92.5542C25.1536 93.3602 25.1536 93.3602 24.7923 96.0562C24.6116 97.3904 24.4726 98.7384 24.2642 100.531C25.8207 99.0858 27.2798 98.1269 27.7245 95.7783Z" fill="black"/>
<path d="M14.4389 64.3015C12.1459 62.6061 9.51936 64.1626 6.89282 63.1759C8.8662 61.6333 10.6589 60.2297 12.4655 58.7983C10.5755 57.9367 8.17137 58.2146 7.17078 59.5488C7.17078 58.5343 7.17078 57.756 7.17078 56.8666C8.57438 58.3258 12.8269 58.2146 14.3833 56.7693C14.7447 58.034 14.4111 58.9095 13.2299 59.646C11.868 60.4938 10.6451 61.5777 9.36653 62.5644C9.42212 62.759 9.4777 62.9535 9.53329 63.1481C11.1453 62.9952 12.7713 62.8284 14.4389 62.6617C14.4389 62.9535 14.4389 63.6623 14.4389 64.3015Z" fill="black"/>
<path d="M33.3529 105.478C32.7414 105.909 32.1578 106.104 31.9771 106.493C31.3239 107.883 30.4067 107.563 29.3784 107.063C27.808 106.298 26.9047 105.103 26.9464 103.324C26.9881 101.601 28.1416 100.128 29.8648 99.5721C31.5742 99.0162 32.9639 99.4748 34.0339 100.934C34.2424 101.212 34.548 101.42 34.9094 101.768C34.5897 102.31 34.2702 102.866 33.9366 103.435C33.8394 103.408 33.7421 103.394 33.6587 103.366C33.6309 102.935 33.617 102.49 33.5892 102.06C33.4363 100.045 32.0466 99.322 30.2817 100.364C28.2666 101.545 27.2939 104.103 28.4751 105.562C28.9059 106.09 29.976 106.535 30.5458 106.368C31.0183 106.215 31.1989 105.103 31.5741 104.297C31.9354 104.519 32.6442 104.992 33.3529 105.478Z" fill="black"/>
<path d="M83.0619 79.0601C82.6172 79.1574 82.0474 79.1157 81.7417 79.3658C81.297 79.741 80.9078 80.2969 80.7689 80.8528C80.6855 81.1724 81.1303 81.9368 81.3526 81.9507C81.9085 81.9646 82.5756 81.7978 83.0064 81.4504C83.6039 80.964 83.9375 80.1302 84.5628 79.6855C85.0909 79.3102 85.9803 78.9767 86.5223 79.1713C87.0781 79.3658 87.7452 80.2135 87.7452 80.7833C87.7313 82.0757 87.3422 83.3543 87.0921 84.7301C86.2305 84.5216 85.5772 84.3688 84.938 84.2298C84.9241 84.1047 84.8963 83.9935 84.8824 83.8685C85.4244 83.6878 86.0637 83.6183 86.4806 83.2709C86.9531 82.8818 87.4534 82.2703 87.4812 81.7283C87.509 81.2558 86.9531 80.3664 86.5779 80.3247C86.0637 80.2552 85.4244 80.7694 84.9242 81.1308C84.6462 81.3253 84.535 81.7561 84.3127 82.048C83.5344 83.0902 82.5339 83.5766 81.2831 82.9374C80.2409 82.4093 79.9073 80.9362 80.491 79.7272C80.6995 79.3102 80.9495 78.9072 81.297 78.2819C81.8251 78.393 82.4921 78.532 83.1592 78.671C83.1175 78.796 83.0897 78.9211 83.0619 79.0601Z" fill="black"/>
<path d="M56.3937 109.078C56.0046 108.55 55.6433 107.994 55.2125 107.493C54.8094 107.035 54.3231 106.66 53.8367 106.215C54.5871 105.534 55.5182 105.451 56.6161 106.173C58.0197 107.09 59.4927 107.897 61.0075 108.8C60.8824 106.507 59.7429 104.589 58.0613 104.297C59.1036 103.825 59.8541 103.477 60.5211 103.172C59.9514 106.007 62.0776 107.98 62.6891 110.926C60.3683 109.62 58.3393 108.466 56.1435 107.229C56.2408 108.008 56.2964 108.55 56.3659 109.106L56.3937 109.078Z" fill="black"/>
<path d="M47.3606 106.979C46.4017 108.244 46.2488 112.177 47.0826 113.455C47.7914 114.525 49.2367 114.539 50.0149 113.483C51.0572 112.08 50.8627 108.494 49.5702 106.979C50.4179 106.979 51.1544 106.979 52.0299 106.979C50.5986 108.216 51.0433 109.703 51.1683 111.148C51.3768 113.483 50.2929 114.817 48.1666 114.873C46.4295 114.915 45.5122 114.025 45.5122 112.274C45.5122 111.329 45.7069 110.37 45.6652 109.425C45.6235 108.633 45.3733 107.841 45.2065 106.965C45.7624 106.979 46.5545 106.979 47.3606 106.979Z" fill="black"/>
<path d="M15.0362 68.9432C12.3401 70.4301 10.0054 71.7226 7.64293 73.015C7.58734 72.612 7.49012 71.9171 7.43453 71.5697C8.35173 71.0694 9.53295 70.8193 9.75531 70.2217C10.0055 69.5268 9.54689 68.429 9.10219 67.6924C8.94932 67.4423 7.89312 67.748 7.07319 67.8175C7.0315 67.4562 6.96202 66.7474 6.90643 66.3027C9.47738 67.1366 12.0344 67.9704 15.0362 68.9432ZM10.4085 70.2495C11.2701 69.7631 11.9371 69.3879 12.6042 69.0127C12.5764 68.8876 12.5625 68.7625 12.5347 68.6235C11.7982 68.4429 11.0477 68.2483 10.1722 68.026C10.2556 68.8459 10.3112 69.3462 10.4085 70.2495Z" fill="black"/>
<path d="M84.0074 71.6393C83.5071 71.5837 83.0069 71.5281 82.4927 71.4725C82.4927 69.2768 82.4927 67.1783 82.4927 64.9548C83.1597 64.9131 83.6878 64.8853 84.2298 64.8575C84.2576 64.9548 84.2854 65.0521 84.3271 65.1494C84.0631 65.3578 83.7295 65.5107 83.535 65.7747C83.2848 66.1361 82.9513 66.6086 83.0208 66.9699C83.0625 67.2339 83.6878 67.5258 84.0769 67.5675C85.3832 67.7064 86.7173 67.7898 88.0237 67.7759C88.6212 67.762 89.2188 67.4702 89.8442 67.3034C89.8442 67.9844 89.8442 68.8321 89.8442 69.4853C89.0937 69.2768 88.4267 68.985 87.7457 68.9155C86.5367 68.8043 85.3137 68.7904 84.1047 68.8043C83.6878 68.8043 83.257 69.0267 82.8401 69.1517C83.0069 69.6242 83.1042 70.1245 83.3682 70.5414C83.5489 70.8194 83.9379 70.9722 84.2436 71.1807C84.1602 71.3475 84.0908 71.5003 84.0074 71.6393Z" fill="black"/>
<path d="M69.8461 97.0707C70.666 96.4176 71.2219 95.9729 71.5693 95.6949C72.2781 98.391 72.9729 101.087 73.6678 103.783C73.5566 103.853 73.4454 103.936 73.3343 104.005C72.1808 103.311 71.0413 102.602 69.8878 101.921C68.7761 101.254 67.6504 100.614 66.4691 99.9335C66.7332 99.6834 67.2612 99.2109 67.5948 98.9052C69.1929 100.017 70.6938 101.045 72.292 102.157C72.6533 99.7946 71.4164 97.0985 69.8461 97.0707Z" fill="black"/>
<path d="M82.8256 56.3525C85.7023 59.535 88.0787 60.3827 89.9687 58.9513C89.9687 59.7712 89.9687 60.5216 89.9687 61.3138C88.1621 60.1186 85.4661 60.9247 82.645 63.5512C82.645 62.6062 82.645 61.8002 82.645 61.008C84.2014 61.7585 84.9379 60.3271 86.3554 59.9519C85.0352 59.1875 84.3404 57.77 82.6589 58.6594C82.7145 57.9507 82.7561 57.2975 82.8256 56.3525Z" fill="black"/>
<path d="M11.0755 85.9672C11.0894 87.1206 11.5619 87.5236 12.6598 87.2457C14.4108 86.8149 17.204 84.8554 17.6348 83.4518C18.1351 84.3551 18.5521 85.0777 18.8022 85.5363C17.8711 85.9255 17.0512 86.2034 16.2869 86.6064C15.2585 87.1345 14.3413 87.9683 13.2712 88.2463C12.6598 88.413 11.5619 87.9405 11.1728 87.3985C10.7698 86.8427 10.8392 85.8282 10.9782 85.0638C11.0199 84.772 11.7981 84.5913 12.2706 84.4246C12.3262 84.4107 12.6875 84.9666 12.6459 84.9944C12.3401 85.2862 11.9926 85.5224 11.6452 85.7587C11.4924 85.8699 11.2839 85.8977 11.0755 85.9672Z" fill="black"/>
<path d="M72.459 94.6806C73.7514 93.0824 74.891 91.6649 76.1278 90.1362C76.5586 90.4837 76.9338 90.7755 77.1562 90.9562C76.0861 91.6093 75.0578 92.2208 73.7931 92.9851C74.488 93.5688 74.8354 93.8606 75.1828 94.1664C76.0861 94.9446 76.9616 95.7784 77.9205 96.4872C78.4903 96.9041 79.1991 97.1264 79.9634 97.4878C79.616 97.9047 79.0879 98.5161 78.7266 98.9469C77.7816 98.0019 76.9756 97.0153 75.9889 96.2648C75.0161 95.5144 74.3212 94.1108 72.459 94.6806Z" fill="black"/>
<path d="M89.3581 74.3908C89.1913 75.4053 89.0801 76.114 88.9828 76.6977C86.5648 75.9334 84.2023 75.4748 81.548 75.711C81.6175 75.2107 81.7286 74.3769 81.8537 73.4875C83.0905 74.627 87.9962 75.3358 89.3581 74.3908Z" fill="black"/>
<path d="M80.7243 94.8788C81.2307 95.3719 81.5861 95.7142 81.877 95.9984C80.7124 96.6526 79.7331 97.4128 79.0459 98.5822C78.7922 98.3442 78.368 97.9494 77.9175 97.5257C78.9248 97.5053 80.8246 95.8246 80.7243 94.8788Z" fill="black"/>
<path d="M77.9297 93.5203C78.4565 94 78.8257 94.3336 79.1285 94.6099C78.1613 94.9956 77.3766 95.4947 76.9128 96.3745C76.6502 96.1417 76.2114 95.7551 75.7448 95.3408C76.6558 95.4613 78.1499 94.3215 77.9297 93.5203Z" fill="black"/>
<path d="M64.9124 100.99C64.4816 102.657 66.6774 107.285 68.1643 108.008C67.3166 108.425 66.5939 108.786 65.7462 109.217C66.2604 107.535 64.0647 102.88 62.5082 102.268C63.2865 101.837 63.9674 101.476 64.9124 100.99Z" fill="black"/>
<path d="M20.3864 87.9543C20.9979 88.8437 21.4287 89.4552 21.9151 90.15C20.0668 90.3307 16.3424 93.4297 16.1895 95.0557C15.5225 94.1663 14.9665 93.4575 14.3273 92.6098C15.9949 92.9572 19.8722 90.0249 20.3864 87.9543Z" fill="black"/>
<path d="M56.3661 109.106C56.6718 109.634 56.9498 110.19 57.3112 110.676C57.7281 111.246 58.2422 111.746 58.7703 112.344C58.2561 112.58 57.5612 112.899 57.1582 113.08C56.8942 111.704 56.6441 110.398 56.3939 109.078C56.3939 109.078 56.3661 109.106 56.3661 109.106Z" fill="black"/>
<path d="M47.1662 89.6358C46.513 90.1917 46.1378 90.7476 45.7487 90.7615C45.4291 90.7754 44.8037 90.1083 44.8315 89.7887C44.8593 89.344 45.3734 88.9271 45.6931 88.4963C46.0822 88.802 46.4713 89.1077 47.1662 89.6358Z" fill="black"/>
<path d="M51.5857 90.8726C51.5162 91.1783 51.5023 91.6925 51.28 92.0816C51.0993 92.3874 50.6824 92.6653 50.335 92.7209C50.1543 92.7487 49.7652 92.2762 49.7096 91.9843C49.5706 91.2756 49.4456 90.4974 49.5846 89.8025C49.668 89.33 50.2099 88.9409 50.5434 88.524C50.863 88.9409 51.2383 89.3161 51.4745 89.7747C51.5996 90.0249 51.5301 90.3862 51.5857 90.8726Z" fill="black"/>
</svg>
