<svg width="130" height="129" viewBox="0 0 130 129" fill="none" xmlns="http://www.w3.org/2000/svg">
<path d="M129.236 67.0412C129.017 68.9408 128.771 70.8275 128.59 72.7271C127.802 80.7391 125.36 88.2729 121.393 95.2252C109.84 115.475 92.4203 126.937 69.1469 128.759C36.0395 131.356 6.53748 108.018 0.929122 75.2082C-5.6355 36.8672 23.3884 1.35623 62.3626 0.0381352C94.7334 -1.06028 122.775 21.6833 128.28 53.5372C128.629 55.5919 128.72 57.6983 128.939 59.7788C129.017 60.5541 129.146 61.3166 129.249 62.0919C129.236 63.7331 129.236 65.3871 129.236 67.0412ZM64.5594 127.157C98.9462 127.247 127.324 99.2441 127.466 65.077C127.621 30.07 99.7344 1.7439 65.0376 1.6276C30.3149 1.5113 1.8983 29.4368 1.80784 63.746C1.70446 98.8822 29.6041 127.066 64.5594 127.157Z" fill="black"/>
<path d="M64.4692 3.8115C97.8997 3.77274 124.985 30.7161 125.024 64.0432C125.063 97.3057 98.0935 124.443 64.9474 124.495C31.3231 124.546 4.22461 97.6417 4.21169 64.1854C4.18584 30.8712 31.168 3.85027 64.4692 3.8115ZM82.69 73.244C82.677 75.3375 82.677 77.418 82.677 79.5114C82.7675 79.5373 82.8579 79.5631 82.9484 79.589C84.3569 76.3066 85.7784 73.0243 87.187 69.7549C87.3679 70.1168 87.3679 70.4398 87.3291 70.7629C87.0707 73.0114 86.7605 75.2599 86.5667 77.5214C86.4762 78.4776 86.1532 79.1496 85.3261 79.6536C84.8222 79.9637 84.0726 80.416 84.0468 80.8424C83.9047 82.6387 83.9822 84.4478 83.9822 86.257C84.1502 86.2957 84.3311 86.3345 84.4991 86.3733C85.5329 84.6675 85.4683 82.5611 86.2695 80.416C87.2774 84.7967 85.2744 88.5572 85.1065 92.5373C87.846 93.0025 90.521 93.4548 93.1959 93.8941C75.518 93.4419 58.2665 95.0442 41.7386 102.591C42.165 102.875 42.2943 102.979 42.4493 103.056C58.3181 111.404 74.1224 111.262 89.0349 101.325C103.935 91.4001 110.615 76.914 108.574 59.0551C105.718 34.1277 82.5866 16.6565 58.0339 20.3911C30.3668 24.6038 13.49 52.1416 22.329 78.7231C24.5258 85.3265 28.1829 91.0641 33.1451 95.9359C33.4811 96.259 34.1402 96.5691 34.5537 96.4657C38.1074 95.5999 41.6223 94.6178 45.176 93.7262C45.8609 93.5582 46.1064 93.2868 46.0806 92.589C46.0289 91.1933 46.0289 89.7977 46.0806 88.4021C46.1064 87.6914 45.9255 87.2003 45.1889 87.0581C43.7545 86.7738 43.3151 85.8951 43.5477 84.5253C43.6253 84.0989 43.509 83.6466 43.5736 83.2202C43.7028 82.2768 43.3798 81.5532 42.669 80.92C42.1909 80.4935 41.506 79.9508 41.4802 79.421C41.338 77.3146 41.4285 75.1953 41.4285 72.9726C44.0646 72.9726 46.5328 72.9726 49.1432 72.9726C49.1432 71.5124 49.1819 70.1685 49.1303 68.8374C49.0786 67.6227 49.5438 67.0671 50.8102 67.1317C52.1024 67.1963 53.3947 67.1446 54.7257 67.1446C54.7257 66.0979 54.7257 65.2321 54.7257 64.2629C54.17 64.2629 53.7436 64.2629 53.3171 64.2629C48.7813 64.2629 44.2585 64.2629 39.7227 64.2629C37.9006 64.2629 37.7585 64.1207 37.7585 62.3504C37.7585 54.4676 37.7585 46.572 37.7585 38.6893C37.7585 37.1903 37.9782 36.9318 39.5159 36.9577C42.5139 37.0223 45.499 37.1257 48.4971 37.2032C48.9235 37.2161 49.3499 37.1257 49.7893 37.074C49.8151 36.9189 49.841 36.7638 49.8668 36.6088C48.2257 35.9497 46.5845 35.2778 44.8658 34.5799C45.1114 33.9855 45.4215 33.2489 45.6412 32.7062C47.4374 33.4428 49.0527 34.1018 50.5517 34.7221C49.4533 33.2877 48.3678 31.8533 47.2823 30.4318C47.2048 30.5481 47.1143 30.6774 47.0368 30.7937C47.5795 30.1992 48.1094 29.6048 48.6133 29.0491C49.9702 30.238 51.34 31.4269 52.8132 32.7062C52.0766 30.9875 51.3529 29.3076 50.5905 27.5372C51.1849 27.2917 51.9344 26.9815 52.4772 26.7489C53.2525 28.5839 53.9503 30.2768 54.6611 31.9567C54.7903 31.9179 54.9066 31.8791 55.0358 31.8275C55.0358 29.9795 55.0358 28.1187 55.0358 26.232C55.7595 26.232 56.5219 26.232 57.1422 26.232C57.1422 27.8086 57.1939 29.3076 57.1163 30.8066C57.0776 31.6207 57.4007 31.9308 58.1372 32.1764C60.179 32.8354 61.5617 34.231 62.169 36.2986C62.3887 37.0223 62.7247 37.242 63.4613 37.2161C67.2347 37.0869 71.008 37.0094 74.7814 36.906C75.0786 36.8931 75.3629 36.8672 75.7893 36.8285C75.7893 35.071 75.7764 33.3781 75.8023 31.6982C75.8152 31.3622 76.009 31.0133 76.1124 30.6774C76.3062 30.7161 76.4872 30.7549 76.681 30.7937C76.681 32.7837 76.681 34.7867 76.681 36.7768C76.8361 36.7768 76.9911 36.7638 77.1591 36.7638C77.1591 34.7738 77.1591 32.7966 77.1591 30.4447C77.4564 30.9229 77.5468 31.0133 77.5856 31.1426C78.9812 34.8642 81.9405 36.9189 85.8818 36.906C88.2725 36.906 90.676 36.906 93.0667 36.906C93.3768 36.906 93.6741 36.9835 93.9842 37.0223C93.9842 37.1386 93.9713 37.2678 93.9713 37.3841C90.9862 37.3841 88.014 37.3841 85.0289 37.3841C85.0289 37.5392 85.0289 37.6813 85.0289 37.8364C88.014 37.8364 91.012 37.8364 94.1393 37.8364C94.0876 38.4696 94.1522 39.2062 93.9971 39.2579C92.7307 39.6456 93.2476 40.6535 93.2218 41.403C93.1572 43.0571 93.1701 44.7112 93.2218 46.3652C93.2476 47.2181 93.0279 47.6446 92.0846 47.6575C91.0766 47.6704 90.8053 47.2052 90.857 46.2877C90.9087 45.2022 90.8699 44.1038 90.8699 43.0183C90.8699 42.075 90.8699 41.1187 90.8699 40.1754C89.9653 42.0233 89.3321 43.8712 88.7635 45.732C88.5309 46.4945 88.2337 46.8951 87.3808 46.5591C86.6572 46.2748 86.1919 46.0034 86.5667 45.0342C87.2128 43.3931 87.6909 41.6873 88.2466 40.0074C88.182 39.9686 88.1045 39.9299 88.0398 39.8911C86.7088 41.5322 85.3649 43.1605 83.9563 44.8921C83.3877 44.4398 82.9226 44.078 82.3798 43.6645C83.4007 42.2559 84.344 40.9378 85.507 39.3096C84.5896 39.4776 84.0339 39.5163 83.5299 39.6843C82.5349 40.0074 81.5657 40.3951 80.5965 40.7957C80.0279 41.0283 79.5239 41.067 79.3559 40.3692C79.1233 39.3871 78.4385 39.413 77.6631 39.413C73.8381 39.3613 70.013 39.2579 66.1879 39.1933C64.9474 39.1674 63.6939 39.1933 62.4533 39.1933C62.4275 39.3225 62.4016 39.4517 62.3629 39.5939C63.9653 40.2529 65.5677 40.899 67.2864 41.6098C67.0408 42.2171 66.7307 42.9408 66.4981 43.5094C64.7794 42.7986 63.1899 42.1267 61.5229 41.4418C62.7118 42.9149 63.7844 44.246 64.8828 45.6028C64.5468 45.9259 63.9782 46.4815 63.6164 46.8305C62.2983 45.745 60.9931 44.6853 59.5716 43.5223C60.2048 45.1893 60.8122 46.7658 61.4454 48.4199C60.7993 48.6784 60.0885 48.9627 59.507 49.1953C58.8867 47.5283 58.3181 45.9647 57.7366 44.401C57.6203 44.4398 57.5169 44.4786 57.4006 44.5173C57.4006 50.2291 57.4006 55.9279 57.4006 61.743C58.344 61.743 59.0418 61.7688 59.7267 61.743C60.7476 61.6913 61.2774 62.1048 61.2515 63.1903C61.2257 64.8444 61.2257 66.4985 61.2515 68.1526C61.2774 69.2768 60.7605 69.742 59.6621 69.6774C58.9772 69.6386 58.2923 69.6645 57.5557 69.6645C57.5557 70.8404 57.5557 71.8613 57.5557 73.0114C58.9384 72.7013 59.6621 73.3474 60.1144 74.4846C60.2307 74.7689 60.6571 75.0919 60.9673 75.1178C61.8072 75.2082 62.673 75.1436 63.6422 75.1436C63.6422 73.9289 63.6164 72.8951 63.6551 71.8484C63.668 71.5382 63.7585 71.0213 63.9524 70.9438C66.02 70.0909 67.7516 68.2947 70.3361 68.8245C72.1711 69.1993 74.0577 69.2768 75.9186 69.4965C76.5259 69.574 77.1333 69.6774 77.8957 69.7937C77.3917 70.3365 77.0557 70.6983 76.5647 71.2281C78.7486 71.7838 80.1701 74.0581 82.69 73.244ZM40.343 61.6525C45.2018 61.6525 49.9314 61.6525 54.8937 61.6525C54.8937 55.915 54.8937 50.242 54.8937 44.5819C54.7774 44.5432 54.674 44.5044 54.5577 44.4656C53.9374 46.0163 53.3171 47.567 52.6839 49.1823C52.0378 48.911 51.3012 48.6138 50.8102 48.407C51.4822 46.7012 52.0895 45.1893 52.7615 43.4965C51.2108 44.7112 49.8927 45.745 48.5617 46.7917C48.2645 46.4945 47.7217 45.9517 47.2953 45.5124C48.3549 44.1943 49.4145 42.8891 50.513 41.5452C48.9623 42.2042 47.4116 42.8633 45.7575 43.5611C45.499 42.9279 45.1889 42.1913 44.9563 41.6227C46.675 40.9249 48.2128 40.3046 49.7505 39.6843C49.6988 39.5034 49.6601 39.3225 49.6084 39.1416C46.5328 39.2837 43.4573 39.4129 40.3301 39.5551C40.343 46.9726 40.343 54.235 40.343 61.6525ZM112.67 79.8991C113.898 79.8991 114.789 79.8862 115.681 79.8991C117.826 79.9379 117.917 79.8603 118.136 77.5472C115.939 76.8365 113.73 76.1128 111.417 75.3633C111.223 75.8931 111.068 76.3196 110.887 76.8235C112.45 77.3404 113.872 77.8057 115.293 78.2709C113.962 78.4259 112.67 78.4001 111.391 78.2967C110.732 78.245 110.189 78.3742 110.189 79.0979C110.189 79.5114 110.409 80.0671 110.719 80.2997C111.74 81.075 112.851 81.7341 113.924 82.4448C113.885 82.5224 113.859 82.587 113.82 82.6645C112.399 82.1993 110.99 81.747 109.465 81.256C109.284 81.7858 109.142 82.2122 108.974 82.7421C111.339 83.5174 113.588 84.241 115.81 84.9647C116.792 82.7162 116.792 82.7162 115.022 81.5273C114.337 81.0363 113.639 80.5452 112.67 79.8991ZM78.5677 82.3156C77.0816 82.083 76.3062 82.5224 76.1124 83.9697C75.9702 85.081 75.4663 86.1536 75.35 87.2649C75.2207 88.4409 75.2983 89.6426 75.3758 90.8186C75.3887 91.09 75.8023 91.5164 76.0736 91.5552C77.3013 91.7102 78.5547 91.7619 79.9762 91.8653C79.4852 88.5701 79.02 85.417 78.5677 82.3156ZM47.8638 81.9021C47.8509 81.9925 47.8509 82.083 47.838 82.1735C48.1611 82.2768 48.4841 82.4319 48.8201 82.4707C50.177 82.6257 50.7843 83.4269 51.1332 84.6933C51.5338 86.1923 52.1541 87.6267 52.7227 89.1904C57 88.0273 61.1611 86.8902 65.3221 85.753C62.1174 85.9597 58.9772 86.3991 55.8629 86.9289C54.9583 87.084 54.5448 86.8902 54.3122 85.9597C53.834 84.1247 53.2267 82.3285 52.6452 80.4548C50.9136 80.9717 49.3887 81.4369 47.8638 81.9021ZM46.5587 18.892C45.344 18.2718 44.2585 17.7161 43.1342 17.1475C44.0388 16.2688 44.3619 15.2867 43.5348 14.2399C42.7466 13.2191 41.7257 13.3741 40.7048 13.8523C39.4901 14.4209 38.2883 15.0024 36.9573 15.6485C38.0557 17.8841 39.0895 20.0034 40.175 22.2131C40.7565 21.8901 41.1829 21.6575 41.6352 21.4119C41.1959 20.4557 40.8082 19.6415 40.4334 18.8016C41.6481 17.8712 42.6044 18.6465 43.4831 19.1893C44.5298 19.8354 45.4473 19.9388 46.5587 18.892ZM108.974 44.9696C109.53 43.8066 110.06 42.7082 110.59 41.6227C111.908 42.5402 112.735 42.6177 113.549 41.8682C114.505 41.0024 114.298 39.9945 113.794 38.9994C113.2 37.7976 112.554 36.6346 111.895 35.3682C109.672 36.5442 107.579 37.6555 105.421 38.7927C105.77 39.3483 106.015 39.7489 106.286 40.1883C107.191 39.736 108.018 39.3096 108.832 38.909C109.75 39.9815 109.155 40.8215 108.716 41.6615C108.16 42.734 107.514 43.7808 108.974 44.9696ZM13.0377 60.076C13.0636 60.1535 13.1024 60.2311 13.1282 60.3086C11.9135 61.0581 10.7375 61.8593 9.48406 62.5313C8.50196 63.0482 8.41151 63.746 8.70873 64.7152C11.0865 64.8186 13.4125 64.9349 15.8161 65.0382C15.8161 64.418 15.8161 64.0174 15.8161 63.4617C14.4075 63.3971 13.0507 63.3325 11.7067 63.2808C12.8181 62.3245 13.9165 61.5621 15.1054 60.9289C16.1133 60.3991 16.2942 59.6883 15.9582 58.6545C13.5934 58.5382 11.2674 58.4349 8.86379 58.3186C8.86379 58.9518 8.86379 59.3523 8.86379 59.8822C10.2853 59.9468 11.668 60.0114 13.0377 60.076ZM74.5359 14.3046C74.4842 16.3851 76.2933 18.0004 78.7098 18.065C80.7645 18.1038 82.3669 16.4238 82.4186 14.1495C82.4703 12.0819 80.6611 10.4537 78.2317 10.3761C76.2029 10.3115 74.5876 12.0302 74.5359 14.3046ZM25.7664 34.5412C23.828 33.236 21.8638 31.9308 19.835 30.574C19.5119 31.0779 19.2664 31.4527 18.995 31.8533C20.2485 32.7191 21.3728 33.5074 22.497 34.2956C20.9851 34.5283 19.6024 34.5799 18.2197 34.5153C17.16 34.4636 16.6302 34.9418 16.3847 35.9626C18.3489 37.2807 20.2873 38.573 22.3032 39.9169C22.6262 39.4517 22.8718 39.077 23.1819 38.6376C22.497 38.1724 21.9155 37.7847 21.3469 37.397C20.8042 37.0223 20.2614 36.6475 19.7316 36.2728C21.166 36.0143 22.497 35.9497 23.828 36.0273C24.8877 36.0919 25.4433 35.6396 25.7664 34.5412ZM117.464 48.3036C117.477 45.9388 115.836 44.0263 113.781 44.0263C111.52 44.0263 109.788 45.577 109.775 47.6446C109.75 50.0094 111.404 51.9219 113.458 51.909C115.72 51.8961 117.439 50.3454 117.464 48.3036ZM115.746 62.0919C115.746 63.0869 115.772 64.0303 115.733 64.9736C115.694 65.9687 116.095 66.2013 117.012 65.8136C117.012 64.586 117.012 63.3712 117.012 62.0661C117.516 62.0661 117.955 62.0661 118.55 62.0661C118.55 63.1774 118.563 64.2112 118.55 65.2579C118.524 66.2788 118.976 66.4468 119.713 66.1108C119.713 64.1207 119.713 62.2341 119.713 60.4249C117.232 60.4249 114.906 60.4249 112.618 60.4249C112.618 62.5184 112.618 64.4567 112.618 66.3693C113.639 66.744 113.911 66.3693 113.872 65.4905C113.82 64.3792 113.859 63.2549 113.859 62.1048C114.518 62.0919 115.022 62.0919 115.746 62.0919ZM104.942 28.2221C105.33 27.8215 105.602 27.5243 105.808 27.3175C104.387 25.8573 103.056 24.4875 101.776 23.1694C100.071 24.8752 98.4037 26.5551 96.8272 28.1316C98.1969 29.4885 99.6055 30.8712 101.079 32.3185C101.247 32.1634 101.505 31.9438 101.97 31.5302C100.743 30.4964 99.6572 29.5789 98.4812 28.5968C99.1274 27.9766 99.5538 27.576 100.135 27.0074C101.066 28.0282 101.906 28.9457 102.823 29.9537C103.211 29.6306 103.495 29.3851 103.973 28.9845C102.823 27.9636 101.893 27.1366 100.872 26.232C101.324 25.8056 101.647 25.4954 102.112 25.0561C103.069 26.1416 103.96 27.1366 104.942 28.2221ZM34.8509 16.8761C33.1839 18.0521 31.6203 19.1376 29.9921 20.2877C31.4265 22.3165 32.7833 24.2549 34.1919 26.2449C35.9364 25.0173 37.5259 23.906 39.1929 22.73C38.8827 22.3423 38.6501 22.0581 38.4046 21.7479C37.177 22.5879 36.0398 23.3632 34.8121 24.2032C34.4374 23.6734 34.1014 23.1952 33.7396 22.6913C34.8897 21.8901 35.9106 21.1664 37.009 20.3911C36.7117 20.0163 36.4791 19.732 36.2078 19.396C35.1094 20.1455 34.0756 20.8563 32.9901 21.5928C32.6799 21.1535 32.4473 20.8175 32.1372 20.3781C33.326 19.5382 34.4374 18.7499 35.6392 17.9099C35.3549 17.5481 35.161 17.2897 34.8509 16.8761ZM8.95426 70.8663C9.08348 71.4866 9.18685 71.9259 9.30315 72.4687C10.2077 72.3265 11.0606 72.1973 12.0427 72.0422C12.2236 73.0373 12.4046 73.9806 12.5984 74.9885C11.6034 75.1953 10.7634 75.3633 9.83298 75.5571C9.94928 76.1645 10.0527 76.6426 10.156 77.1854C12.6113 76.7331 14.8986 76.3196 17.3151 75.8802C17.1859 75.2858 17.0825 74.8464 16.9662 74.2907C15.9324 74.4458 14.9632 74.588 13.9165 74.743C13.7226 73.7351 13.5547 72.8176 13.3737 71.8355C14.4592 71.6029 15.4155 71.3961 16.4493 71.1764C16.333 70.6078 16.2425 70.1685 16.1262 69.587C13.6839 70.0134 11.3578 70.4269 8.95426 70.8663ZM51.1978 12.4954C50.3579 10.4407 48.0318 10.2211 46.3778 11.733C45.9126 12.1594 45.512 13.064 45.6412 13.6326C45.7704 14.1883 46.507 14.8215 47.1144 15.0153C47.8639 15.2479 48.7555 15.0153 49.5696 15.0928C50.0348 15.1445 50.4613 15.4288 50.9135 15.6097C50.5776 16.0103 50.3191 16.5918 49.9056 16.7728C49.4533 16.9666 48.6263 17.0054 48.342 16.7211C47.5666 15.9586 46.9851 16.2429 46.3261 16.734C47.1919 18.6594 49.6859 19.0342 51.5985 17.3801C52.1541 16.902 52.503 15.9069 52.503 15.1445C52.503 14.2012 51.6501 13.6455 50.6939 13.568C49.9573 13.5034 49.2207 13.6584 48.4841 13.5938C48.0318 13.5551 47.5925 13.2837 47.1402 13.1157C47.5537 12.7926 47.9414 12.392 48.4066 12.1724C48.6651 12.056 49.0656 12.237 49.4016 12.2757C49.9961 12.3533 50.6034 12.4179 51.1978 12.4954ZM15.9324 57.8921C16.0616 57.8663 16.1908 57.8404 16.3201 57.8016C16.2813 57.2331 16.4364 56.2897 16.1908 56.1734C14.5755 55.411 15.3121 54.2221 15.5318 53.1625C15.6093 52.7877 16.0099 52.2062 16.2942 52.1804C17.5477 52.0641 17.6898 51.2758 17.7286 50.1386C15.2733 50.6426 12.8956 51.0949 10.5437 51.6376C9.67791 51.8444 9.47114 53.2659 10.2077 53.8086C12.0944 55.2042 14.0199 56.5352 15.9324 57.8921ZM12.2882 44.0263C13.9552 44.7629 15.4543 45.4607 16.9662 46.081C18.0775 46.5462 19.0725 46.2102 19.7187 45.241C20.1968 44.5303 20.5586 43.7161 20.8042 42.902C21.1143 41.8682 20.7395 40.9636 19.7833 40.4597C18.2584 39.6585 16.6819 38.9477 15.0278 38.1595C14.7564 38.7281 14.5368 39.1803 14.2912 39.6843C15.7256 40.3563 17.0179 40.9636 18.3231 41.5581C19.2535 41.9845 19.7187 42.579 19.1889 43.6128C18.6978 44.569 18 44.7758 17.0308 44.3106C15.7386 43.6903 14.4334 43.1346 13.0765 42.5273C12.8051 43.0312 12.5855 43.4577 12.2882 44.0263ZM119.726 68.579C117.865 68.3722 116.146 68.0233 114.428 68.0492C113.73 68.0621 112.748 68.7211 112.438 69.3543C112.011 70.2331 111.895 71.3832 112.037 72.3653C112.127 72.9856 112.812 73.8643 113.407 74.0323C115.138 74.5104 116.96 74.7043 118.847 75.0273C118.938 74.3812 119.002 73.9289 119.08 73.3474C117.477 73.1019 115.978 72.921 114.505 72.6367C113.252 72.4041 112.773 71.1118 113.639 70.2072C113.975 69.8454 114.712 69.7033 115.255 69.742C116.663 69.8325 118.059 70.078 119.519 70.2719C119.584 69.6645 119.635 69.251 119.726 68.579ZM92.1105 24.6942C92.7049 23.9189 93.2089 23.2728 93.7128 22.6137C94.5269 23.1306 95.2119 23.6734 95.9872 24.0481C97.0856 24.5909 98.1581 24.229 98.8172 23.1952C99.4633 22.2002 99.3212 21.2439 98.4812 20.4944C97.4474 19.5769 96.3102 18.7757 95.1214 17.8582C93.6224 19.8612 92.2138 21.7608 90.7665 23.7121C91.2576 24.074 91.6323 24.3453 92.1105 24.6942ZM12.5467 78.8007C11.0994 80.2868 11.0348 82.083 12.2882 83.7242C13.4125 85.1973 15.338 85.4945 17.2246 84.4607C18.8141 83.5949 19.4215 81.8892 18.7882 80.0929C18.1938 78.413 17.0308 77.6247 15.4284 77.909C15.4543 78.3613 15.4801 78.8136 15.5059 79.2401C15.7515 79.3047 15.8678 79.3564 15.997 79.3822C17.2246 79.7053 17.7932 80.4548 17.6123 81.4886C17.4314 82.4965 15.997 83.4528 14.6531 83.3882C13.5805 83.3494 12.9731 82.742 12.8439 81.6953C12.8052 81.411 12.8181 81.0104 12.9731 80.8166C13.7097 79.9766 13.1153 79.4597 12.5467 78.8007ZM23.2982 26.5163C25.495 27.5372 27.6014 28.5581 29.7465 29.4756C30.0437 29.6048 30.6253 29.3593 30.9225 29.1008C31.1939 28.8811 31.4523 28.3255 31.3618 28.0541C30.5219 25.8443 29.6044 23.6604 28.6869 21.4378C27.5109 22.0193 27.2654 22.6913 27.8598 23.7767C28.4801 24.9268 28.9195 26.1674 29.5527 27.6276C28.1054 26.9428 26.9294 26.4775 25.8569 25.8314C24.7972 25.1853 24.0348 25.2887 23.2982 26.5163ZM32.6799 102.979C30.8191 105.524 29.0487 107.967 27.2654 110.422C27.3559 110.487 27.4463 110.564 27.5368 110.629C28.6352 109.466 29.7853 108.341 30.8191 107.127C31.6461 106.158 32.4603 105.421 33.7267 106.274C34.4632 105.421 35.51 105.227 36.4145 105.576C36.5696 105.641 37.1899 105.007 37.164 104.969C36.841 104.452 36.4921 103.896 36.0269 103.521C35.6133 103.198 35.0318 103.082 34.3728 102.824C34.7734 102.333 35.1352 101.997 35.329 101.583C35.4583 101.312 35.329 100.924 35.3161 100.601C34.9931 100.678 34.4762 100.666 34.3857 100.846C33.8559 101.893 33.2356 102.643 31.8529 102.242C32.1372 102.513 32.4215 102.759 32.6799 102.979ZM72.5199 111.443C72.3649 111.495 72.1969 111.546 72.0418 111.585C72.0418 111.831 71.9772 112.102 72.0547 112.322C72.507 113.536 72.2227 114.441 71.0985 115.165C70.4911 115.552 69.9354 116.082 69.4702 116.651C69.2635 116.896 69.173 117.491 69.3281 117.736C70.6462 119.907 73.3211 120.514 75.5309 119.183C75.1691 117.943 75.1691 117.943 76.3579 116.121C76.9653 115.19 76.7585 114.622 75.6601 114.363C74.9106 114.195 74.1353 114.157 73.5279 114.079C73.1531 113.097 72.843 112.27 72.5199 111.443ZM85.2098 12.6246C84.176 14.8473 83.1939 16.9924 82.1601 19.228C82.7416 19.4865 83.1939 19.6803 83.6721 19.8871C84.1502 18.905 84.5637 18.0779 85.0031 17.1863C85.7784 17.5481 86.4375 17.7807 87.0319 18.1296C87.8977 18.6207 88.2854 18.3622 88.4017 17.3801C87.4454 16.902 86.5021 16.4238 85.4941 15.9069C85.7913 15.3771 86.0239 14.9765 86.2695 14.5372C87.4713 15.0928 88.5568 15.5839 89.681 16.1137C89.8878 15.6614 90.0299 15.3642 90.2237 14.9507C88.5438 14.1753 86.9414 13.4388 85.2098 12.6246ZM81.5269 108.432C82.1472 110.719 84.2794 112.541 81.6045 114.286C81.7466 114.376 81.85 114.506 81.9663 114.506C83.1035 114.622 83.517 115.009 82.8838 116.185C82.6253 116.651 82.845 117.374 82.845 117.982C82.9742 118.02 83.1035 118.072 83.2327 118.111C83.8142 117.18 84.4991 116.302 84.9255 115.32C85.184 114.712 84.9256 113.924 85.0419 113.239C85.1711 112.49 85.5846 111.766 85.6363 111.016C85.7267 109.866 84.5895 109.957 83.9176 109.582C83.853 109.543 83.8271 109.414 83.7625 109.388C83.1293 109.117 82.4961 108.845 81.5269 108.432ZM63.5647 8.61867C64.844 10.9447 67.0021 12.8443 65.9036 15.8811C66.6531 15.8811 67.1313 15.8811 67.8291 15.8811C67.015 12.7668 69.5349 11.1773 70.8917 9.03219C68.4623 7.98547 68.3848 10.6346 67.1184 11.2807C66.0458 10.2469 66.0716 7.93378 63.5647 8.61867ZM39.4772 111.792C39.5418 112.024 39.5935 112.257 39.6581 112.49C41.1312 112.309 42.6173 112.128 44.0905 111.96C44.1163 112.076 44.1422 112.179 44.168 112.296C42.9275 112.606 41.674 112.929 40.4076 113.252C40.679 114.583 41.8549 114.454 43.1601 114.583C42.5656 113.368 43.3797 113.523 43.9871 113.407C44.0517 114.014 44.1163 114.557 44.1809 115.1C44.3102 115.087 44.4265 115.087 44.5557 115.074C44.6074 114.26 44.6591 113.446 44.7108 112.58C44.8788 112.619 45.176 112.683 45.9255 112.839C44.9046 111.637 43.496 110.719 45.0209 109.44C44.4265 108.755 44.4135 108.742 41.7515 109.388C41.4931 109.453 41.3251 109.892 41.1312 110.164C41.1054 110.189 41.2088 110.306 41.2863 110.448C41.8549 110.448 42.4623 110.448 43.0567 110.448C43.0696 110.512 43.0825 110.577 43.0955 110.642C41.8937 111.016 40.679 111.404 39.4772 111.792ZM110.874 33.7271C109.582 31.9954 108.354 30.3284 107.062 28.5839C106.661 28.9457 106.39 29.1913 106.105 29.4368C106.558 30.0829 106.945 30.6386 107.385 31.2718C105.769 32.4736 104.219 33.6366 102.604 34.8384C102.991 35.3294 103.288 35.6913 103.637 36.1436C105.266 34.9547 106.816 33.8175 108.406 32.6545C108.936 33.3135 109.362 33.8563 109.84 34.4636C110.202 34.2052 110.499 33.9855 110.874 33.7271ZM58.5378 10.2857C58.7317 12.2757 58.9126 14.1495 59.1064 16.1266C59.7138 16.062 60.1661 16.0233 60.7346 15.9586C60.5667 13.9427 60.4245 12.0173 60.2694 10.1048C61.1094 9.97553 61.7814 9.87215 62.4404 9.78169C62.6213 8.95465 62.5438 8.48944 61.6004 8.60575C60.0498 8.78666 58.4861 8.91589 56.9225 9.01927C55.9663 9.08388 56.005 9.58785 56.3152 10.2857C57.013 10.2857 57.6979 10.2857 58.5378 10.2857ZM93.8162 105.511C92.9245 106.455 92.175 107.153 91.5677 107.954C91.3351 108.264 91.3868 108.833 91.4256 109.272C91.4385 109.414 91.8132 109.647 91.9812 109.621C92.1751 109.595 92.524 109.272 92.4981 109.156C92.2138 107.838 93.1055 106.946 93.7645 106.106C94.4882 105.188 94.6174 103.547 96.4136 103.573C96.1164 102.681 96.4007 102.294 97.3699 102.333C97.6542 102.345 97.9514 101.803 98.2357 101.518C98.1323 101.389 98.0418 101.247 97.9385 101.118C97.3311 101.441 96.7238 101.764 95.9226 102.203C95.677 101.505 95.4961 100.756 95.1601 100.097C95.0051 99.7868 94.4882 99.412 94.2168 99.4767C93.8033 99.5671 93.4802 100.006 93.1055 100.291C93.1572 100.368 93.2088 100.459 93.2605 100.536C93.5448 100.536 93.8291 100.536 93.9842 100.536C94.4365 101.441 94.85 102.281 95.2894 103.16C95.0568 103.444 94.7854 103.754 94.4236 104.193C94.2039 103.237 94.2556 102.152 93.7645 101.738C93.2993 101.35 92.2397 101.661 91.2446 101.661C91.5806 102.126 91.852 102.798 92.0975 102.798C93.3768 102.746 93.2089 103.78 93.7645 104.659C92.7307 104.025 91.9683 103.547 91.2059 103.082C91.1542 103.16 91.1025 103.25 91.0508 103.328C91.9037 103.987 92.7566 104.671 93.8162 105.511ZM43.509 107.101C43.4702 107.269 43.4185 107.45 43.3798 107.618C43.8191 107.734 44.2456 107.876 44.6849 107.967C45.4473 108.109 46.2356 108.186 46.998 108.329C48.0577 108.509 48.2386 109.091 47.7734 110.021C46.8301 111.934 45.9255 113.859 44.9821 115.772C44.7754 116.198 44.4394 116.56 44.0905 117.064C43.6511 116.328 43.3281 115.785 42.9921 115.242C42.8758 115.294 42.7595 115.358 42.6432 115.41C42.9404 116.302 43.173 117.219 43.5477 118.085C43.845 118.77 44.4006 118.86 44.84 118.201C45.344 117.452 45.7833 116.638 46.2227 115.837C47.0497 114.312 47.7605 112.709 48.7038 111.262C49.5438 109.97 49.6213 109.039 48.2515 108.445C46.7525 107.773 45.0984 107.527 43.509 107.101ZM39.2316 61.8076C39.8131 60.5283 39.7356 40.3434 39.2058 39.5422C38.5855 40.3046 38.5467 60.7738 39.2316 61.8076ZM112.412 59.3265C113.368 59.4428 113.756 59.2102 113.549 58.2669C113.342 57.3106 113.252 56.3414 113.097 55.3076C115.1 54.9716 116.96 54.6486 118.899 54.3255C118.795 53.6923 118.718 53.24 118.627 52.6843C116.198 53.0849 113.911 53.4597 111.494 53.8603C111.817 55.7599 112.114 57.5432 112.412 59.3265ZM95.0568 108.639C96.1164 109.272 96.5299 108.833 96.9564 108.173C97.1244 107.915 97.6671 107.631 97.8868 107.721C98.1582 107.825 98.4554 108.38 98.3908 108.652C98.2228 109.337 97.8997 110.008 97.5508 110.642C97.3699 110.978 97.021 111.236 96.6204 111.688C99.6572 111.236 100.239 109.582 98.6492 106.649C98.8301 106.326 99.024 106.003 99.2566 105.589C98.9335 105.473 98.6234 105.253 98.4941 105.331C97.176 106.183 96.7238 105.589 96.7238 104.258C95.0568 104.09 95.0568 105.576 94.4753 106.468C94.7983 106.248 95.1343 106.041 95.3411 105.899C95.8451 106.313 96.2844 106.674 96.8918 107.178C96.2973 107.644 95.7288 108.096 95.0568 108.639ZM80.0021 74.6655C80.0021 74.5104 80.0021 74.3553 80.0021 74.2003C78.0895 73.7738 76.1383 72.8563 74.2903 73.0631C72.4037 73.2569 70.2068 73.6446 68.8112 75.4925C72.1323 74.5233 75.4404 74.1744 78.8003 75.1565C79.1363 75.2341 79.6015 74.8335 80.0021 74.6655ZM56.509 44.5949C56.4185 44.5949 56.3151 44.5949 56.2247 44.5949C56.2247 50.2937 56.2247 55.9925 56.2247 61.6784C56.3151 61.6784 56.4185 61.6784 56.509 61.6784C56.509 55.9925 56.509 50.2937 56.509 44.5949ZM55.9404 16.5789C55.4623 14.1236 55.01 11.8105 54.5448 9.41986C53.8987 9.58785 53.4464 9.70416 52.9036 9.83338C53.3818 12.224 53.834 14.5372 54.2993 16.902C54.9066 16.7857 55.333 16.7081 55.9404 16.5789ZM8.82503 68.6048C11.3578 68.4239 13.6839 68.2559 16.0875 68.0879C16.0228 67.4418 15.9841 66.9895 15.9324 66.4468C13.4642 66.6148 11.1382 66.7699 8.70873 66.9249C8.76042 67.5323 8.78626 67.9975 8.82503 68.6048ZM27.9374 32.241C26.0765 30.6644 24.2674 29.1396 22.4065 27.563C22.0318 28.0024 21.7087 28.3771 21.3081 28.8294C23.1948 30.4318 24.9911 31.9438 26.8519 33.5203C27.2525 33.0422 27.5497 32.6933 27.9374 32.241ZM50.7843 118.395C51.2108 118.421 51.5984 118.576 51.844 118.447C52.8002 117.943 53.7177 117.361 54.6223 116.78C56.5736 115.526 58.512 114.247 60.4245 112.955C60.6054 112.826 60.7863 112.438 60.7217 112.244C60.6184 111.96 60.3082 111.546 60.0885 111.546C59.171 111.559 58.2664 111.714 57.2973 111.831C57.6074 112.167 57.8917 112.477 58.3569 112.981C55.837 114.79 53.3818 116.534 50.7843 118.395ZM66.1233 78.9558C68.0229 79.7828 69.4056 81.1655 71.6283 80.0412C73.6701 79.0074 75.8669 77.9607 78.3351 78.8782C78.348 78.8911 78.4255 78.7619 78.4514 78.7102C76.9395 77.5601 75.4017 77.1983 73.5796 78.1675C71.4086 79.3305 69.0826 79.9896 66.6402 78.8265C66.5885 78.8007 66.4851 78.8653 66.1233 78.9558ZM57.1293 119.003C56.7675 118.292 56.3927 117.568 56.0309 116.844C55.9275 116.896 55.8112 116.961 55.7078 117.012C56.173 117.995 56.5736 119.015 57.1163 119.959C57.5945 120.799 58.7187 120.695 59.2744 119.92C59.5587 119.532 59.9851 119.196 60.4245 118.977C61.342 118.511 61.51 117.749 60.5925 117.297C59.9205 116.961 59.0677 117.025 58.0597 116.883C59.3003 118.511 57.8659 118.537 57.1293 119.003ZM51.7664 72.921C52.8002 72.921 53.7307 72.921 54.7257 72.921C54.7257 71.8225 54.7257 70.8017 54.7257 69.7549C53.7177 69.7549 52.7873 69.7549 51.7664 69.7549C51.7664 70.8146 51.7664 71.7967 51.7664 72.921ZM67.0667 37.4617C67.0667 37.565 67.0667 37.6555 67.0796 37.7589C71.3182 37.7589 75.5567 37.7589 79.7953 37.7589C79.7953 37.6555 79.7953 37.565 79.7953 37.4617C75.5567 37.4617 71.3052 37.4617 67.0667 37.4617ZM59.6362 35.9368C59.6233 35.743 59.6233 35.5491 59.6104 35.3553C59.0935 35.0193 58.5895 34.4507 58.0468 34.3861C57.2068 34.2956 56.5607 34.9547 56.7804 35.7817C56.9225 36.2857 57.6462 36.9189 58.1502 36.9448C58.6283 36.9835 59.1452 36.2986 59.6362 35.9368ZM57.4136 67.0283C57.9176 67.0283 58.2794 67.0283 58.7575 67.0283C58.7575 66.253 58.8092 65.5551 58.7317 64.8832C58.7058 64.6506 58.2794 64.25 58.1502 64.2887C57.8659 64.3792 57.4911 64.6764 57.4523 64.9349C57.336 65.5681 57.4136 66.2271 57.4136 67.0283ZM91.3222 46.6754C91.3997 46.6625 91.4772 46.6625 91.5548 46.6495C91.5548 44.1167 91.5548 41.5969 91.5548 39.064C91.4772 39.064 91.3997 39.064 91.3222 39.064C91.3222 41.6098 91.3222 44.1426 91.3222 46.6754ZM68.7595 121.083C68.9146 121.018 69.0697 120.954 69.2247 120.889C68.6303 119.519 68.0488 118.15 67.4543 116.793C67.3768 118.434 67.1571 120.114 68.7595 121.083ZM38.3917 113.304C39.4772 111.21 40.4593 109.324 41.4285 107.437C39.6193 109.104 38.0299 112.257 38.3917 113.304ZM86.6959 113.885C86.9931 114.906 87.0319 115.992 88.3758 115.643C88.7118 115.552 89.2158 114.88 89.1383 114.699C88.686 113.704 87.7814 113.717 86.6959 113.885ZM83.2068 43.1346C83.3619 43.2509 83.517 43.3543 83.6591 43.4706C84.8739 41.907 86.0756 40.3434 87.2904 38.7797C87.1353 38.6634 86.9931 38.5601 86.8381 38.4438C85.6363 40.0074 84.4216 41.571 83.2068 43.1346ZM89.4613 39.3613C89.3321 39.3225 89.2029 39.2708 89.0737 39.232C88.4405 41.1963 87.7943 43.1605 87.1611 45.1247C87.2774 45.1635 87.4066 45.2022 87.5229 45.241C88.1691 43.2768 88.8152 41.3126 89.4613 39.3613ZM56.6382 27.1366C56.5865 27.1366 56.5348 27.1366 56.4702 27.1366C56.4702 28.6744 56.4702 30.1992 56.4702 31.737C56.5219 31.737 56.5736 31.7241 56.6382 31.7241C56.6382 30.1992 56.6382 28.6614 56.6382 27.1366ZM56.173 73.2182C56.9354 71.9001 56.8191 70.1814 56.173 69.6903C56.173 70.75 56.173 71.8613 56.173 73.2182ZM50.5517 72.921C50.6551 72.921 50.7714 72.921 50.8748 72.921C50.8748 71.8355 50.8748 70.75 50.8748 69.6774C50.7714 69.6774 50.6551 69.6774 50.5517 69.6774C50.5517 70.7629 50.5517 71.8355 50.5517 72.921ZM59.9335 63.0482C59.2098 63.9915 59.2098 66.6665 59.9335 67.6486C59.9335 66.0591 59.9335 64.6247 59.9335 63.0482ZM84.7576 38.5471C84.7188 38.3662 84.68 38.1724 84.6413 37.9915C83.2973 38.3275 81.9663 38.6634 80.6224 38.9994C80.6611 39.1416 80.687 39.2837 80.7257 39.4259C82.0697 39.1157 83.4136 38.8314 84.7576 38.5471ZM56.1472 67.0412C56.9225 65.7619 56.7804 64.5472 56.1472 64.25C56.1472 65.1545 56.1472 66.0979 56.1472 67.0412ZM48.7813 30.3672C48.8201 30.3284 48.8589 30.2768 48.8976 30.238C49.9573 31.3106 51.0169 32.3831 52.0895 33.4557C52.0507 33.4945 52.012 33.5332 51.9732 33.572C50.9136 32.4994 49.841 31.4398 48.7813 30.3672ZM60.2953 47.735C60.3857 47.6963 60.4891 47.6575 60.5796 47.6317C60.1144 46.2877 59.6362 44.9438 59.171 43.5869C59.0159 43.6515 58.8609 43.7032 58.6929 43.7678C59.2227 45.0859 59.7655 46.404 60.2953 47.735ZM52.0895 43.07C52.0378 43.0054 51.9861 42.9537 51.9215 42.8891C50.9653 43.8324 50.0219 44.7887 49.0656 45.732C49.0786 45.745 49.0915 45.7579 49.1044 45.7837C50.1124 44.8662 51.1074 43.9617 52.0895 43.07ZM30.0308 104.568C30.1859 104.491 30.328 104.413 30.4831 104.336C29.9662 103.315 29.4493 102.294 28.9324 101.286C28.8161 101.35 28.6998 101.415 28.5706 101.467C29.0746 102.501 29.5527 103.534 30.0308 104.568ZM54.183 44.2201C54.0667 44.1684 53.9503 44.1038 53.834 44.0521C53.2784 45.3831 52.7356 46.7142 52.18 48.0322C52.2963 48.0839 52.4255 48.1356 52.5418 48.1873C53.0845 46.8692 53.6402 45.5511 54.183 44.2201ZM60.8639 42.1913C60.9414 42.1137 61.0319 42.0362 61.1094 41.9587C62.1044 43.0054 63.1124 44.0521 64.1074 45.1118C64.0299 45.1764 63.9653 45.241 63.8877 45.3056C62.8798 44.2718 61.8718 43.238 60.8639 42.1913ZM50.2287 35.5233C50.2803 35.4199 50.3191 35.3294 50.3708 35.2261C49.0527 34.6833 47.7346 34.1406 46.4165 33.5978C46.3778 33.7012 46.339 33.7917 46.3002 33.8951C47.6054 34.4249 48.9235 34.9676 50.2287 35.5233ZM82.4057 37.4229C82.4703 37.2937 82.5349 37.1774 82.5349 37.1774C81.5011 36.5183 80.4673 35.8851 79.4335 35.239C79.343 35.3811 79.2526 35.5362 79.1621 35.6784C80.2476 36.2599 81.3202 36.8414 82.4057 37.4229Z" fill="black"/>
<path d="M82.6896 73.2441C81.1777 72.081 79.6657 70.9051 78.1796 69.755C78.1667 69.6645 78.1409 69.6128 78.1538 69.587C79.614 67.3902 78.7353 65.8653 76.7323 64.6894C74.3417 63.2808 73.5793 61.3295 73.9669 58.5124C74.2771 56.2381 75.5305 54.8037 77.0554 53.4985C77.8049 52.8524 78.0246 52.2967 77.8178 50.9915C76.8874 51.9349 76.1767 52.6585 75.5564 53.2788C75.5435 52.1546 75.9182 51.0303 77.2621 50.41C78.115 50.0224 78.3735 49.3116 78.4123 48.4071C78.4769 46.9339 78.6319 45.4478 78.787 43.9746C78.8387 43.5094 79.0196 43.0571 79.1488 42.5919C79.2651 42.6178 79.3944 42.6436 79.5107 42.6695C79.1876 46.0552 78.8516 49.4538 78.5286 52.8395C78.4381 53.744 78.3347 54.6615 78.3476 55.5661C78.3476 56.0572 78.5802 56.5482 78.6965 57.0393C78.8387 57.0522 78.9679 57.078 79.1101 57.091C79.3556 56.2639 79.7691 55.4498 79.8079 54.6228C79.9759 51.0562 80.0276 47.4766 80.118 43.91C80.1309 43.4061 80.118 42.9021 80.118 42.3981C80.2731 42.3852 80.4282 42.3852 80.5703 42.3723C80.6995 45.0731 80.8288 47.7738 80.958 50.6426C81.6041 50.2291 82.0306 49.8156 82.5345 49.6605C84.0982 49.1436 86.0624 50.7719 85.791 52.3872C85.6359 53.3434 85.2095 54.248 84.964 55.1914C84.8735 55.579 84.951 56.0055 84.951 56.5094C84.2532 56.6387 83.5425 56.7162 82.8576 56.91C82.5862 56.9876 82.289 57.246 82.1469 57.5045C81.9143 57.9438 81.7979 58.4478 81.4103 58.9001C81.3586 58.3703 81.3069 57.8405 81.2423 57.3106C81.1777 56.8196 81.1001 56.3285 81.0355 55.8246C80.9063 55.7858 80.79 55.7599 80.6608 55.7212C80.4411 56.1218 80.1826 56.5094 80.0146 56.9359C79.6916 57.75 79.4977 58.6029 79.1101 59.3782C78.6707 60.2699 79.1618 60.8514 79.7433 61.2649C80.0276 61.4717 80.7383 61.3554 81.0743 61.1228C81.9918 60.5154 82.8188 60.5542 83.7493 61.0323C84.2532 61.2908 84.7572 61.6655 85.3646 60.9936C85.9073 60.3862 86.0495 59.8434 85.6876 59.1327C85.5455 58.8743 85.4938 58.5641 85.3516 58.1635C87.0703 57.8663 88.7244 57.5949 90.3785 57.3106C90.3785 57.2202 90.3785 57.1297 90.3785 57.0393C89.293 56.9359 88.1946 56.8454 87.1091 56.7421C87.1091 56.6645 87.0962 56.587 87.0962 56.4965C88.0007 56.4448 88.9053 56.3285 89.8099 56.3544C90.6369 56.3802 90.96 56.083 90.9988 55.243C91.0504 53.8991 91.296 52.5552 91.296 51.2112C91.296 49.9965 91.7095 49.247 92.9371 48.9886C93.3894 48.8981 93.8159 48.6784 94.2423 48.5104C94.3198 48.6009 94.3844 48.6784 94.462 48.7689C93.958 49.2341 93.3894 49.6476 92.9759 50.1774C92.7174 50.5134 92.4461 51.1337 92.5882 51.4568C93.7383 54.1059 93.4928 56.6774 92.4461 59.2878C92.0067 60.3733 91.6707 61.5234 91.4769 62.6735C91.115 64.8315 90.0942 66.4468 88.1429 67.4936C87.6131 67.7779 87.1608 68.2172 86.5793 68.6695C85.6359 67.92 84.7055 67.1705 83.7105 66.3564C84.0206 65.749 84.3307 65.2321 84.5375 64.6765C84.628 64.4309 84.4988 64.0949 84.4729 63.7977C84.1757 63.8494 83.8009 63.8106 83.5813 63.9786C82.7155 64.6377 81.8884 65.3613 80.9192 66.1755C81.6816 66.8604 82.0693 67.3385 82.5733 67.6357C83.956 68.4369 83.9948 69.4449 83.3487 70.7629C82.9868 71.5254 82.8705 72.3912 82.6379 73.2182C82.6767 73.2441 82.6896 73.2441 82.6896 73.2441ZM82.4958 54.248C83.9948 53.912 84.5246 53.0462 84.3695 51.9349C84.292 51.3534 83.6717 50.8494 83.284 50.3196C83.1548 50.3842 83.0127 50.4359 82.8834 50.5005C82.7542 51.7023 82.625 52.9041 82.4958 54.248ZM76.0733 57.9826C75.2075 59.2361 75.9182 61.5234 77.7532 63.1128C77.2234 61.5105 76.6289 59.6755 76.0733 57.9826Z" fill="black"/>
<path d="M60.9667 103.392C61.6516 102.113 63.2411 104.503 63.5124 102.397C63.422 102.333 63.3444 102.216 63.3057 102.229C62.414 102.526 61.4707 102.578 61.0572 101.622C60.8246 101.079 60.8246 100.006 61.1605 99.748C61.755 99.2828 62.7242 98.9985 63.4737 99.1019C64.7918 99.2699 65.3733 101.092 64.8305 102.798C64.4558 103.974 63.2281 104.594 62.0005 104.142C61.5999 103.987 61.2769 103.612 60.9667 103.392ZM62.75 101.906C63.1248 101.389 63.5124 101.092 63.4866 100.834C63.4478 100.485 63.0989 100.162 62.8792 99.8255C62.6079 100.097 62.1685 100.342 62.1168 100.64C62.078 100.95 62.4269 101.312 62.75 101.906Z" fill="black"/>
<path d="M69.2505 100.045C68.501 100.123 67.7515 100.2 67.002 100.278C66.9891 100.394 66.9891 100.523 66.9762 100.64C68.1004 100.846 69.5865 100.601 69.6123 102.332C69.6253 103.25 69.1471 103.948 68.2167 104.129C67.1054 104.348 66.0457 104.284 65.2316 102.656C66.0457 102.862 66.5368 103.017 67.0408 103.121C67.338 103.185 67.8291 103.276 67.9195 103.147C68.1133 102.862 68.2426 102.384 68.1263 102.1C68.0229 101.854 67.5448 101.673 67.2217 101.66C66.7565 101.635 66.2654 101.79 65.7744 101.88C65.6193 99.1018 65.7356 98.9726 68.2943 99.0114C69.3281 99.0372 69.3281 99.0372 69.2505 100.045Z" fill="black"/>
<path d="M69.9482 102.707C70.659 102.798 71.0983 102.823 71.4989 102.927C71.8349 103.004 72.1321 103.224 72.4681 103.263C72.5715 103.276 72.8687 102.759 72.8041 102.668C72.5973 102.345 72.2743 102.113 71.99 101.841C71.8995 101.764 71.8091 101.686 71.5636 101.492C71.8349 101.234 72.1063 101.066 72.2743 100.808C72.4035 100.601 72.4035 100.304 72.4552 100.045C72.1968 100.032 71.9254 99.9805 71.6669 100.032C71.2017 100.123 70.7494 100.278 69.9999 100.484C70.8528 99.0113 72.2355 98.5978 73.2952 99.2052C74.0576 99.6445 74.1222 100.2 73.5278 101.299C74.4194 102.319 74.4453 103.185 73.6053 103.844C72.5974 104.633 70.9562 104.271 69.9482 102.707Z" fill="black"/>
<path d="M59.326 99.0372C59.326 100.769 59.326 102.41 59.326 104.103C58.8866 104.103 58.5119 104.103 57.995 104.103C57.995 103.043 57.995 102.022 57.995 100.859C57.4522 101.066 57.0774 101.221 56.6769 101.376C56.4701 100.291 57.9691 98.9597 59.326 99.0372Z" fill="black"/>
<path d="M39.8389 17.6514C39.5417 17.0699 39.322 16.6176 39.0506 16.062C39.7872 15.7131 40.4204 15.3254 41.1053 15.1186C41.4154 15.0282 41.8419 15.2995 42.2166 15.4029C42.0874 15.8035 42.0615 16.3333 41.7902 16.553C41.2603 16.9924 40.6013 17.2508 39.8389 17.6514Z" fill="black"/>
<path d="M110.008 38.2758C110.563 37.9786 110.964 37.7589 111.52 37.4617C111.881 38.1466 112.308 38.7539 112.515 39.4259C112.618 39.7619 112.334 40.2271 112.23 40.6277C111.856 40.5243 111.339 40.5243 111.145 40.2788C110.693 39.6843 110.395 38.9865 110.008 38.2758Z" fill="black"/>
<path d="M80.7126 13.891C80.6867 15.5192 79.6917 16.6952 78.3736 16.6564C77.1459 16.6176 76.2414 15.6872 76.2543 14.4725C76.2801 12.9218 77.2493 11.7846 78.5287 11.7975C79.808 11.8105 80.7255 12.6892 80.7126 13.891Z" fill="black"/>
<path d="M116.081 47.903C116.107 49.1177 114.918 50.1256 113.381 50.1902C112.192 50.2419 111.223 49.3115 111.184 48.0839C111.145 46.7787 112.398 45.7061 113.936 45.7061C115.086 45.7061 116.043 46.7012 116.081 47.903Z" fill="black"/>
<path d="M13.8517 54.5065C13.1281 54.0154 12.5336 53.6149 11.642 53.0075C12.6499 52.8266 13.3607 52.6974 14.2911 52.5294C14.136 53.253 14.0068 53.8087 13.8517 54.5065Z" fill="black"/>
<path d="M94.3843 21.6832C94.9271 20.9595 95.2631 20.5202 95.7929 19.8094C96.4132 20.5331 96.9818 21.1534 97.4599 21.8383C97.5245 21.9287 97.0464 22.6007 96.943 22.5749C96.1289 22.3681 95.3406 22.045 94.3843 21.6832Z" fill="black"/>
<path d="M72.5456 115.074C72.3518 115.565 72.1579 116.056 71.9641 116.547C71.8349 116.612 71.6927 116.689 71.5635 116.754C71.8866 116.948 72.4293 117.09 72.5068 117.361C72.6361 117.839 72.5973 118.447 72.4164 118.912C72.3388 119.093 71.5118 119.222 71.318 119.041C70.814 118.602 70.0128 117.762 70.1549 117.452C70.5943 116.47 71.4084 115.668 72.0804 114.79C72.2355 114.88 72.3905 114.984 72.5456 115.074Z" fill="black"/>
<path d="M73.786 118.253C73.127 116.857 75.3884 115.901 73.4759 114.803C73.618 114.712 73.7472 114.622 73.8894 114.531C74.4451 114.686 75.0524 114.751 75.5047 115.061C75.6339 115.152 75.3625 115.979 75.1299 116.392C74.8069 116.974 74.3546 117.491 73.786 118.253Z" fill="black"/>
</svg>
