<svg width="128" height="127" viewBox="0 0 128 127" fill="none" xmlns="http://www.w3.org/2000/svg">
<path d="M127.009 63.5189C126.957 99.1333 97.5715 127.86 61.6341 126.632C27.9581 125.469 0.510695 97.686 0.769144 63.0537C1.02759 27.9175 29.9223 -0.550772 65.7046 0.444259C99.9234 1.40052 126.906 29.3131 127.009 63.5189ZM71.0029 4.8379C70.8607 4.7216 70.7703 4.63114 70.6669 4.54069C67.811 2.11126 67.811 2.11126 64.8647 3.76534C64.6838 3.86872 64.5158 4.06255 64.3349 4.07548C63.8955 4.10132 63.3915 4.19178 63.0297 4.01086C62.2931 3.66196 61.6211 3.1709 60.9492 2.70569C60.4193 2.33094 59.9929 2.20172 59.4373 2.73154C58.8428 3.28721 58.0804 3.63611 57.473 4.17886C56.7881 4.78621 56.1678 4.90252 55.3666 4.41146C54.7593 4.03671 54.1002 3.70073 53.4153 3.49397C53.0406 3.37766 52.4591 3.42935 52.1619 3.64903C51.3736 4.24347 50.6241 4.92836 49.9651 5.65202C49.5128 6.14307 49.0734 6.18184 48.5048 5.988C47.6907 5.71663 46.8637 5.49695 46.0496 5.21266C45.4939 5.0059 45.0804 5.07051 44.7185 5.58741C44.2404 6.25938 43.646 6.84089 43.1937 7.52578C42.6768 8.30113 42.0953 8.40451 41.1907 8.21067C38.3478 7.59039 38.3089 7.61624 36.7712 10.0844C36.138 11.0924 35.479 11.816 34.1609 11.3896C33.812 11.2733 33.3985 11.4025 33.0366 11.325C31.8607 11.0795 31.305 11.6351 30.9432 12.6948C30.3358 14.4522 29.47 15.9254 27.1956 15.4731C27.0664 15.4473 26.9243 15.5248 26.7821 15.5119C25.6449 15.4085 25.0764 16.0159 24.9342 17.0626C24.637 19.2594 23.5902 20.5516 21.1867 20.4483C20.127 20.3966 19.5843 20.991 19.5197 22.0765C19.4809 22.6839 19.2225 23.2912 19.1837 23.8986C19.132 24.9194 18.6022 25.333 17.6588 25.6043C14.9322 26.4055 14.8805 26.4443 14.7642 29.2356C14.7125 30.5149 14.2731 31.2515 13.0455 31.7425C10.3964 32.8022 10.7324 32.1948 10.8875 35.3479C10.965 36.8081 10.5644 37.6739 9.2851 38.3976C7.32088 39.5089 7.26916 39.6123 7.79898 41.9125C8.16081 43.4632 7.91534 44.4582 6.48094 45.3628C4.7364 46.4612 4.8268 46.6034 5.44708 48.5417C5.60215 49.0328 5.65385 49.5626 5.86061 50.0278C6.20951 50.829 5.91232 51.3072 5.31788 51.8887C2.88846 54.2923 2.91428 53.6074 4.49083 56.7604C4.9948 57.7813 5.08526 58.5437 4.2453 59.2803C2.53953 60.7664 2.41033 62.3559 3.9481 63.9841C4.93021 65.0308 4.5942 65.9742 3.99977 67.0209C2.78505 69.1531 2.72045 69.2436 4.33576 71.0398C5.42125 72.2545 5.4988 73.2883 4.74929 74.671C3.80595 76.4285 3.88348 76.4672 5.22742 77.837C5.36956 77.9792 5.47295 78.1859 5.64095 78.2893C7.01073 79.1939 7.23042 80.3181 6.5326 81.8042C5.92524 83.0835 5.88644 84.337 7.54051 85.0219C7.92819 85.1899 8.21248 85.6163 8.58723 85.836C9.44012 86.34 9.5435 87.0378 9.40135 87.9424C8.80692 91.6124 8.56142 90.4752 11.5336 92.336C12.3736 92.8659 12.9033 93.344 12.787 94.4036C12.7095 95.1531 12.6966 95.9285 12.8 96.6651C12.8517 97.0269 13.1618 97.4016 13.4461 97.6601C13.7175 97.9056 14.0923 98.0995 14.4541 98.1512C16.5863 98.5001 17.2195 99.9215 17.142 101.847C17.0903 103.1 17.6976 103.747 18.8994 103.915C19.0674 103.94 19.2225 104.044 19.3905 104.057C21.303 104.121 21.8975 105.297 22.143 107.016C22.4014 108.916 22.5047 109.019 24.4173 109.109C26.2781 109.2 27.299 109.911 27.8288 111.746C28.3845 113.671 28.5396 113.71 30.6201 113.619C32.1838 113.555 33.4372 113.774 33.8249 115.558C33.8507 115.687 33.9412 115.803 34.0058 115.92C34.9233 117.625 35.1559 117.806 37.0814 117.354C38.5804 117.005 39.6917 117.212 40.3766 118.724C41.1003 120.352 42.2762 120.972 44.0207 120.249C45.6361 119.577 46.7086 120.119 47.6777 121.58C48.7245 123.169 49.0605 123.13 50.8308 122.303C52.7692 121.399 53.144 121.463 54.7076 122.949C55.0306 123.26 55.3408 123.621 55.7285 123.815C56.1033 123.996 56.6331 124.138 56.9949 124.009C57.9253 123.686 58.7911 123.143 59.7215 122.807C60.0963 122.665 60.6649 122.704 61.0138 122.885C61.815 123.337 62.4999 123.996 63.3011 124.435C63.6371 124.616 64.2444 124.603 64.5804 124.423C65.472 123.932 66.2732 123.272 67.1519 122.756C67.4362 122.588 67.9403 122.588 68.2504 122.717C69.3359 123.195 70.3826 123.776 71.4681 124.319C72.1271 123.751 72.7604 123.234 73.3548 122.665C74.3628 121.696 75.4353 121.244 76.7146 122.109C78.2136 123.13 79.3896 122.859 80.3458 121.334C81.315 119.783 82.6719 119.654 84.313 120.158C86.1222 120.714 86.1481 120.623 87.2465 119.086C87.2852 119.034 87.324 118.969 87.3498 118.905C88.1122 117.108 89.4691 116.863 91.2136 117.276C92.8806 117.677 93.0098 117.651 93.656 116.062C94.4313 114.175 95.5168 113.09 97.7007 113.542C98.8896 113.787 99.497 113.18 99.9105 112.03C100.893 109.342 100.944 109.239 103.813 108.98C105.17 108.864 105.519 108.179 105.648 107.158C105.894 105.194 106.591 103.824 108.904 103.811C109.977 103.811 110.752 103.268 110.636 101.937C110.584 101.304 110.778 100.645 110.882 99.9991C110.985 99.3271 111.192 98.7844 111.98 98.5647C112.794 98.3321 113.595 97.9702 114.345 97.5696C114.655 97.4017 114.965 96.9752 115.004 96.6263C115.107 95.7734 115.069 94.9076 115.043 94.0547C115.004 93.0597 115.405 92.4782 116.361 92.1422C116.994 91.9225 117.55 91.4573 118.157 91.1342C118.739 90.837 118.894 90.4106 118.764 89.7774C118.596 88.9374 118.519 88.0845 118.403 87.2317C118.312 86.5726 118.467 86.0945 119.1 85.6939C121.827 83.9106 121.814 83.8847 121.078 80.7446C121.026 80.5507 120.858 80.344 120.884 80.176C120.948 79.7495 120.987 79.2456 121.246 78.9613C121.879 78.2505 122.68 77.6949 123.313 76.9841C123.546 76.7257 123.649 76.17 123.546 75.834C123.274 74.8778 122.809 73.9861 122.538 73.0298C122.434 72.6939 122.564 72.2028 122.744 71.8797C123.029 71.3758 123.378 70.8718 123.817 70.497C124.877 69.6183 124.838 68.8042 124.205 67.5895C123.597 66.4394 122.331 65.0954 123.804 63.7127C125.51 62.0974 125.032 60.676 123.61 59.2157C122.757 58.337 122.551 57.3807 123.442 56.334C123.74 55.9851 123.83 55.4553 124.076 55.0418C124.541 54.2922 124.476 53.6978 123.778 53.0905C123.158 52.5606 122.577 51.9533 122.124 51.2684C121.866 50.8807 121.749 50.2475 121.866 49.8081C122.964 45.8926 123.688 47.2366 120.509 44.5099C119.747 43.8638 119.462 43.2435 119.772 42.2226C120.586 39.5477 120.586 39.4443 118.248 38.0358C116.994 37.2733 116.451 36.3817 116.852 35.0378C117.395 33.2286 116.671 32.1302 114.978 31.665C113.298 31.1998 112.678 30.1143 112.936 28.5119C113.208 26.7803 112.368 25.992 110.817 25.6948C109.137 25.3717 108.323 24.4542 108.246 22.6451C108.168 20.655 108.026 20.5775 106.049 20.2803C104.24 20.0218 102.986 19.3628 102.896 17.3339C102.896 17.2047 102.766 17.0755 102.766 16.9463C102.663 15.6411 101.797 15.4085 100.699 15.3439C97.8558 15.1888 97.8041 15.1888 96.7574 12.5268C96.3568 11.5188 95.7882 11.0149 94.7673 11.2475C92.312 11.8031 90.8518 10.7822 90.0764 8.50789C89.8438 7.83592 89.3399 7.655 88.6808 7.75838C87.828 7.87469 86.9621 7.92638 86.1351 8.12021C85.2305 8.3399 84.7394 7.92638 84.2742 7.25441C83.8349 6.59536 83.3826 5.94924 82.8528 5.36773C82.659 5.14804 82.2067 5.01882 81.9095 5.08343C81.0437 5.26435 80.1778 5.5228 79.3378 5.80709C78.4979 6.09138 77.8389 5.97508 77.2703 5.2385C76.8051 4.64407 76.2623 4.10132 75.6679 3.63611C75.3836 3.41643 74.8538 3.28721 74.5178 3.39059C73.3548 3.84287 72.2305 4.34685 71.0029 4.8379Z" fill="black"/>
<path d="M5.17581 54.4085C5.91239 53.6073 6.58436 52.7673 7.35971 52.0566C7.83784 51.6172 7.99292 51.2166 7.77324 50.6222C7.56648 50.0407 7.41135 49.4333 7.23044 48.8518C6.68769 47.159 6.68774 47.159 8.08337 46.0735C8.45812 45.7763 8.89745 45.5178 9.18175 45.1431C9.45312 44.7812 9.69868 44.2902 9.69868 43.8508C9.69868 43.1401 9.55652 42.4035 9.36268 41.7186C9.05254 40.659 9.4531 40.0129 10.3706 39.5606C10.6807 39.4055 10.9263 39.1212 11.2365 39.0178C12.6709 38.5526 12.7613 37.4154 12.5287 36.2524C12.1927 34.5725 12.4511 33.3061 14.3637 32.8796C16.0436 32.5049 16.3925 31.2772 16.302 29.7782C16.2762 29.3647 16.2374 28.9124 16.3925 28.5506C16.5734 28.1371 16.9094 27.7365 17.2712 27.4651C17.6201 27.2067 18.0854 27.0645 18.5118 26.9999C20.1142 26.7673 20.644 25.7206 20.8249 24.2603C21.0963 22.1023 21.148 22.1152 23.2673 21.7017C23.4999 21.65 23.7454 21.5466 23.9651 21.5595C25.0893 21.6371 25.3994 20.9263 25.632 20.0088C25.8517 19.1818 26.1619 18.3806 26.5108 17.6053C26.6013 17.3985 26.9631 17.2305 27.2345 17.1788C27.8031 17.0754 28.4104 16.985 28.979 17.0496C30.3617 17.2176 30.982 16.4422 31.486 15.318C32.5327 12.979 32.5585 12.9919 35.0784 13.1212C36.0734 13.1728 36.9651 13.1082 37.4045 11.9711C38.1928 9.91638 39.6142 9.08934 41.7852 9.9293C42.806 10.3299 43.4135 9.82593 44.0337 9.05058C45.7524 6.85375 45.7911 6.85375 48.4273 7.66787C49.3836 7.96509 50.0297 7.88755 50.7792 7.12513C52.8468 5.01876 52.9115 5.03168 55.5606 6.27224C56.3359 6.63407 56.9691 6.73745 57.5765 6.02671C57.7057 5.87164 57.9642 5.83288 58.0805 5.67781C59.6699 3.75236 61.2594 4.50186 62.7971 5.69073C63.4949 6.22055 64.0506 6.23347 64.7226 5.70365C65.149 5.36767 65.7306 5.23844 66.1441 4.88954C67.2296 3.95912 68.0566 4.26926 68.8966 5.23844C69.2713 5.67781 69.7495 6.05256 70.2534 6.33685C70.5506 6.50485 71.0287 6.54361 71.3518 6.42731C72.1918 6.14302 73.0188 5.78119 73.8071 5.38059C74.5179 5.03168 75.0994 5.10922 75.5129 5.75534C76.8439 7.86171 78.6272 8.13308 80.7465 7.1122C81.5218 6.73745 82.1292 6.8796 82.5298 7.69371C83.5119 9.70962 85.0497 10.4333 87.2077 9.6967C88.4612 9.27026 89.1461 9.90346 89.5596 10.976C90.1799 12.6172 91.2913 13.1728 93.0487 13.0436C95.2326 12.8756 95.336 12.979 96.0338 15.0854C96.4732 16.4164 97.2226 16.8816 98.5795 16.9074C101.086 16.9462 101.177 16.985 101.758 19.4403C102.069 20.7971 102.663 21.5079 104.072 21.482C104.136 21.482 104.214 21.5079 104.278 21.5208C106.501 21.9731 106.566 21.9601 106.798 24.2216C106.94 25.6172 107.483 26.3796 108.892 26.7931C111.373 27.5168 111.399 27.6073 111.347 30.2305C111.321 31.3419 111.657 31.9621 112.704 32.4403C115.327 33.655 115.327 33.7196 115.056 36.5884C114.965 37.5059 115.107 38.1262 116.025 38.5526C116.813 38.9274 117.511 39.5218 118.209 40.0775C118.39 40.2196 118.506 40.5944 118.467 40.827C118.325 41.7057 118.131 42.5844 117.924 43.4502C117.769 44.0834 117.873 44.6003 118.454 44.9751C118.713 45.1431 118.919 45.3886 119.152 45.5824C121.168 47.1202 121.31 47.4304 120.199 49.7306C119.656 50.8548 119.915 51.5268 120.703 52.3151C122.641 54.2534 122.68 54.318 121.414 56.6958C120.884 57.6908 120.922 58.4403 121.607 59.2932C122.202 60.0298 123.055 60.8439 123.093 61.658C123.132 62.4204 122.292 63.2604 121.762 63.997C121.155 64.8369 121.116 65.6123 121.737 66.4393C121.814 66.5427 121.892 66.6719 121.956 66.7882C123.223 68.8946 123.261 68.9334 121.569 70.6521C120.587 71.6471 120.47 72.6163 121.013 73.8827C122.008 76.2216 121.982 76.2863 120.07 77.9145C119.23 78.6252 118.7 79.336 119.255 80.4473C119.294 80.5378 119.268 80.667 119.307 80.7445C120.367 82.8121 119.398 84.0527 117.601 84.9443C116.774 85.3579 116.593 85.9523 116.723 86.8698C117.175 90.0358 117.162 90.0875 114.306 91.496C113.621 91.832 113.44 92.2197 113.453 92.9046C113.453 94.0288 113.763 95.4115 113.234 96.2257C112.743 96.9752 111.308 97.0785 110.339 97.5696C109.977 97.7505 109.602 98.2028 109.525 98.5905C109.279 99.7664 109.176 100.968 109.008 102.196C108.737 102.26 108.439 102.312 108.155 102.416C107.07 102.829 105.571 102.493 104.963 103.759C104.459 104.819 104.291 106.047 103.916 107.404C102.986 107.533 101.888 107.701 100.776 107.817C100.156 107.882 99.7684 108.089 99.5616 108.709C99.2644 109.588 98.9155 110.453 98.4632 111.255C98.2565 111.616 97.6879 112.069 97.3777 112.017C94.832 111.539 93.2684 112.547 92.5318 114.976C92.3379 115.635 91.834 115.855 91.162 115.777C90.3737 115.687 89.5854 115.648 88.8101 115.519C88.0994 115.39 87.6471 115.687 87.2594 116.23C86.7683 116.927 86.2386 117.612 85.7863 118.336C85.4245 118.93 84.9851 118.943 84.3906 118.737C83.6153 118.478 82.827 118.246 82.0129 118.116C81.664 118.065 81.1729 118.22 80.9145 118.452C80.1908 119.124 79.5834 119.925 78.8598 120.597C78.6013 120.83 78.0844 120.972 77.7614 120.895C76.9731 120.688 76.2494 120.249 75.4612 120.068C75.0089 119.964 74.4403 120.093 74.001 120.287C73.5745 120.468 73.2385 120.869 72.8638 121.166C70.8091 122.794 71.5974 122.756 69.1938 121.45C67.992 120.791 67.2037 120.765 66.0795 121.528C63.8051 123.066 63.7147 123.066 61.6212 121.321C60.6003 120.468 59.7991 120.959 58.9074 121.347C58.5715 121.502 58.2872 121.773 57.9383 121.928C57.1112 122.329 56.2713 122.626 55.5735 121.683C54.3976 120.093 52.9631 119.499 51.154 120.572C49.81 121.36 48.8279 120.895 48.1172 119.719C47.1868 118.194 46.0108 118.026 44.3697 118.53C42.3796 119.137 42.315 119.021 41.2166 117.147C40.5446 115.984 39.8339 115.377 38.2832 115.674C35.8667 116.126 35.7116 116.023 34.7295 113.826C34.1092 112.443 33.2693 111.978 31.8995 112.198C30.142 112.469 29.0824 111.797 28.811 110.014C28.5655 108.45 27.6351 107.778 26.0973 107.856C25.9939 107.856 25.8905 107.817 25.7871 107.804C23.7195 107.429 23.7196 107.429 23.3319 105.349C23.2543 104.91 23.2156 104.444 23.0347 104.057C22.8796 103.721 22.5824 103.359 22.2593 103.23C21.5356 102.932 20.7861 102.674 20.0108 102.584C18.8865 102.441 18.5506 101.834 18.5635 100.813C18.5635 100.309 18.3438 99.7794 18.3955 99.2883C18.4989 98.3062 17.9949 97.8539 17.1678 97.5825C16.6768 97.4275 16.2374 97.1044 15.7464 97.001C14.5058 96.7426 14.1569 95.9543 14.3895 94.843C14.8418 92.6591 13.8468 91.4443 11.8567 90.7724C10.9134 90.4493 10.474 89.7515 10.8487 88.7694C11.7145 86.4821 10.6807 85.0736 8.76822 84.0268C8.04456 83.6392 7.68277 83.0835 8.1609 82.2694C8.17382 82.2435 8.17377 82.2048 8.18669 82.166C8.8845 80.2922 8.89749 78.7286 6.95912 77.3976C5.61518 76.4672 5.62811 76.1829 6.48099 74.671C7.39849 73.0427 7.29509 71.7634 5.89946 70.5487C5.71855 70.3936 5.60219 70.1739 5.43419 70.0059C4.78807 69.334 4.60722 68.7137 5.34381 67.8996C5.8607 67.331 6.1967 66.5686 6.48099 65.8449C6.59729 65.5348 6.48098 65.0566 6.31299 64.7336C5.86071 63.8936 5.26625 63.1183 4.83981 62.2654C4.68474 61.9552 4.71056 61.4125 4.89147 61.1153C5.30499 60.4045 5.80897 59.7455 6.35172 59.1381C6.77816 58.66 6.84275 58.2336 6.57138 57.652C6.09325 56.6182 5.66686 55.5586 5.17581 54.4085ZM64.5417 8.18477C33.8379 7.71956 7.96703 33.0476 8.69069 64.9274C9.34973 94.0805 33.0108 118.75 63.7663 118.892C94.4572 119.034 118.881 94.3777 119.243 64.2813C119.617 33.0089 94.5736 8.36568 64.5417 8.18477Z" fill="black"/>
<path d="M90.1023 49.2783C89.159 49.7177 88.3061 50.0666 87.492 50.4801C86.3031 51.0875 85.3728 51.9145 85.4632 53.4006C85.5278 54.5766 86.6392 55.7137 88.0477 56.1402C88.668 56.334 89.2754 56.6312 89.9086 56.7346C90.9036 56.9026 90.9811 57.51 90.9681 58.3499C90.8777 64.333 89.7922 70.1094 87.1173 75.4851C84.8558 80.0339 81.7027 83.9494 78.0845 87.516C75.0735 90.4752 71.662 92.853 68.0954 95.0498C66.997 95.7347 65.7952 96.2645 64.5934 96.7556C64.1799 96.9236 63.5467 96.9106 63.1461 96.7039C61.2723 95.7735 59.3985 94.843 57.6152 93.7446C53.8935 91.4573 50.5725 88.6273 47.6391 85.4096C44.2405 81.675 41.3846 77.5527 39.5109 72.7973C37.7146 68.2227 36.9522 63.4931 36.8359 58.6084C36.8101 57.5487 37.0168 56.9543 38.1927 56.67C39.2653 56.4116 40.312 55.843 41.2424 55.2356C42.7414 54.2406 42.6769 52.0825 41.1908 51.0746C40.661 50.7127 40.0924 50.3638 39.5109 50.0795C38.9423 49.7952 38.3219 49.5756 37.5854 49.2783C38.0635 47.3141 38.4124 45.2853 39.0585 43.3469C40.1182 40.1292 41.3458 36.9632 42.5218 33.7843C42.6639 33.4095 42.9999 33.0994 43.1033 32.7117C43.2842 32.0139 43.659 32.1044 44.1888 32.2853C45.3906 32.6859 46.5924 33.1252 47.833 33.3966C51.9294 34.2883 55.651 33.2415 59.0625 30.9543C60.7037 29.8558 62.2673 28.6024 63.8827 27.4006C65.3429 28.4861 66.7772 29.6232 68.2763 30.6829C73.0446 34.0298 78.1232 34.6113 83.486 32.2982C84.0546 32.0527 84.4165 32.0268 84.7266 32.66C87.2982 37.9324 89.0169 43.4761 90.1023 49.2783ZM88.2415 47.9215C88.0218 47.2107 87.828 46.7326 87.7247 46.2286C86.9235 42.339 85.5795 38.6561 83.9771 35.0378C83.6928 34.3787 83.3956 34.2753 82.7237 34.5079C78.2137 36.0716 73.7942 35.8906 69.6202 33.4871C67.8499 32.4662 66.1958 31.2256 64.5288 30.0368C64.0636 29.7008 63.7663 29.6103 63.2882 30.0109C62.4482 30.7087 61.5437 31.3419 60.665 31.9881C56 35.3479 50.9602 36.4722 45.3906 34.6242C44.0983 34.1978 43.982 34.1978 43.5427 35.5159C42.3021 39.1859 41.0874 42.8559 39.9373 46.5517C39.4204 48.2187 39.5108 48.2445 41.0228 49.007C41.2941 49.1491 41.5655 49.3042 41.824 49.4722C44.4731 51.2038 44.9124 54.0726 42.7027 56.0239C41.7464 56.8638 40.493 57.3549 39.4204 58.0656C39.0456 58.3112 38.5288 58.7505 38.5417 59.0865C38.658 64.2814 39.5755 69.3211 41.824 74.0507C43.7494 78.0696 46.3985 81.5846 49.4224 84.8281C53.2604 88.9504 57.7962 92.0905 62.7584 94.675C63.5725 95.1015 64.322 95.1402 65.0844 94.6492C67.7077 92.9822 70.4085 91.4186 72.9413 89.6094C78.1491 85.8748 82.1421 81.0289 85.2305 75.4464C88.0218 70.3808 89.1848 64.8758 89.2107 59.1124C89.2107 58.5179 88.9652 58.3241 88.4741 58.0656C87.2723 57.4454 85.9672 56.8897 84.9851 55.9851C83.0596 54.2277 83.163 51.9275 84.9722 50.338C85.7087 49.6919 86.6003 49.2396 87.4144 48.671C87.7246 48.4384 87.996 48.1412 88.2415 47.9215Z" fill="black"/>
<path d="M87.4923 94.4811C87.7379 93.8479 87.9059 93.1759 88.2289 92.6073C88.5391 92.0775 89.4437 92.2068 89.4825 92.7883C89.6117 94.3131 89.5729 95.8509 89.5471 97.3757C89.5471 97.5696 89.2628 97.7505 89.1335 97.9443C88.2677 99.2107 87.4019 100.49 86.549 101.756C86.6653 101.847 86.7946 101.924 86.9109 102.015C87.4924 101.227 88.0222 100.387 88.6813 99.663C89.3016 98.9781 89.4178 97.5825 91.1753 98.0348C90.6972 99.3141 90.2449 100.542 89.728 101.963C90.4646 101.576 91.1236 101.214 91.8085 100.839C92.3383 101.666 91.7826 102.002 91.3045 102.299C90.5808 102.739 90.5163 103.165 91.1882 103.708C91.395 103.876 91.5888 104.095 91.718 104.328C92.4675 105.672 92.0799 106.409 90.555 106.564C90.1803 106.602 89.8184 106.615 89.392 106.641C89.9089 106.189 90.555 105.866 90.7747 105.362C90.9685 104.91 90.6584 104.251 90.5808 103.669C90.4128 103.643 90.2448 103.617 90.0768 103.591C89.7538 104.147 89.392 104.703 89.1077 105.284C88.5649 106.421 88.2419 106.551 86.8721 105.956C87.5958 104.961 88.4874 104.07 88.9655 102.997C89.4307 101.95 89.4825 100.723 89.7151 99.5855C89.6246 99.5338 89.547 99.495 89.4566 99.4433C89.1335 99.8439 88.7459 100.206 88.5133 100.645C87.8672 101.873 87.2856 103.139 86.6524 104.38C86.5103 104.664 86.2648 105.039 86.0192 105.078C85.6445 105.142 85.1793 105.026 84.8691 104.819C84.7528 104.742 84.8821 104.134 85.0371 103.85C85.7349 102.596 86.4715 101.356 87.1952 100.115C88.0222 98.6809 88.0222 98.6809 86.6524 97.337C86.1872 98.6034 85.7478 99.7922 85.2568 101.149C84.5073 100.529 83.6932 99.8698 82.6982 99.0427C83.4218 99.0427 83.9387 99.0427 84.4556 99.0427C84.5202 98.2674 84.5202 98.2674 82.22 96.1093C83.0341 96.161 83.6156 96.1869 84.1842 96.2515C85.4635 96.3936 85.89 95.993 85.7608 94.7008C85.7091 94.2614 85.5669 93.835 85.5152 93.3956C85.4765 93.1113 85.4894 92.5944 85.554 92.5815C85.9804 92.504 86.4457 92.4523 86.8334 92.5815C87.0014 92.6332 87.0401 93.1372 87.0918 93.4344C87.1176 93.5895 86.9238 93.8091 86.9884 93.9125C87.1047 94.1193 87.3244 94.2614 87.5053 94.4294C86.8075 95.8897 87.3503 96.6133 89.2628 96.5099C88.8493 95.4503 89.56 94.2356 88.6813 93.1759C88.2419 93.6928 87.8671 94.0805 87.4923 94.4811Z" fill="black"/>
<path d="M30.9559 99.6501C32.2869 100.374 33.3854 101.252 34.6905 100.606C35.6985 100.102 36.6161 99.3916 37.5723 98.7584C37.5206 98.6421 37.4818 98.5258 37.4301 98.4095C37.1458 98.4741 36.8486 98.5904 36.5643 98.5775C35.8536 98.5387 34.949 98.6938 34.4709 98.3191C33.7731 97.7763 33.9927 96.8459 34.4321 96.0059C35.7889 97.0526 37.5464 97.492 38.8258 96.8717C40.0276 96.2902 41.4878 95.2435 41.617 93.3568C43.1806 93.8866 44.7055 94.3777 46.1916 94.9204C46.4371 95.0109 46.5663 95.3856 46.7602 95.6312C46.4759 95.7862 46.2045 96.0576 45.9073 96.0705C44.5762 96.1222 43.2452 96.0964 41.7979 96.0964C41.5007 97.3369 43.1678 97.1302 43.465 98.2415C42.7542 98.1769 42.0951 98.0347 41.4749 98.0994C41.0872 98.1381 40.4411 98.4354 40.4023 98.6938C40.131 100.412 39.95 102.144 39.8725 103.889C39.8596 104.225 40.4023 104.625 40.7383 104.948C41.0355 105.245 41.4103 105.478 41.7463 105.737C41.7204 105.814 41.6946 105.905 41.6687 105.982C40.5186 105.646 39.2781 105.465 38.2701 104.884C37.8954 104.677 37.8695 103.462 38.0375 102.803C38.3218 101.653 38.8775 100.568 39.3298 99.4562C39.4461 99.159 39.5753 98.8747 39.7045 98.5775C39.6269 98.5129 39.5494 98.4483 39.4719 98.3837C38.9808 98.8101 38.451 99.1978 37.9858 99.6501C36.7969 100.813 35.4013 101.511 33.7214 101.666C32.3645 101.795 31.4987 101.278 30.9559 99.6501Z" fill="black"/>
<path d="M52.0847 103.604C52.7309 104.199 53.2606 104.703 53.8163 105.194C54.4883 105.775 55.5609 105.439 55.535 104.574C55.4962 103.398 56.2457 102.571 56.5688 101.563C56.7109 101.11 57.1762 100.774 57.4993 100.387C57.8611 100.891 58.2487 101.382 58.5847 101.899C58.6752 102.041 58.6364 102.286 58.6622 102.48C58.8173 102.48 58.9207 102.467 59.0112 102.48C59.4505 102.519 59.8899 102.571 60.3293 102.609C60.0967 102.945 59.9287 103.385 59.6186 103.592C58.9983 103.992 58.3004 104.264 57.6414 104.612C57.4863 104.69 57.3442 104.806 56.9953 105.052C58.3134 104.948 59.3859 104.858 60.4455 104.768C60.4585 104.871 60.4714 104.961 60.4843 105.065C59.05 105.633 57.0986 105.091 55.9356 107.029C56.6463 107.029 57.034 107.029 57.4217 107.029C57.4476 107.106 57.4863 107.184 57.5122 107.262C57.2537 107.404 56.9952 107.662 56.7368 107.675C55.6901 107.714 55.7418 108.14 56.2457 108.696C56.039 109.058 55.871 109.342 55.703 109.626C56.0519 109.665 56.4267 109.807 56.7497 109.717C57.1116 109.613 57.4605 109.355 57.7319 109.084C57.8223 108.993 57.6543 108.657 57.5639 108.269C58.3521 108.735 58.9983 109.122 59.8641 109.626C58.3909 110.557 56.9048 110.518 55.7289 110.738C55.212 111.784 54.8372 112.728 54.3074 113.568C53.8938 114.227 53.3641 114.046 53.2994 113.322C53.2348 112.663 53.4157 111.991 53.4932 111.242C53.1185 111.087 52.537 110.867 51.9555 110.634C51.9813 110.505 51.9943 110.363 52.0201 110.234C52.4337 110.195 52.8471 110.117 53.2606 110.104C53.9972 110.079 54.385 109.872 54.2816 108.993C54.217 108.412 54.3979 107.727 54.6692 107.184C54.9277 106.693 55.0052 106.254 54.5142 106.086C54.0231 105.918 53.364 105.866 52.9246 106.073C52.6016 106.228 52.4982 106.874 52.3044 107.3C51.7746 108.502 51.2706 109.717 50.715 110.906C50.6503 111.035 50.3919 111.087 50.211 111.164C50.1463 110.957 49.9654 110.725 50.03 110.557C50.2626 109.859 50.4952 109.148 50.8441 108.502C51.5549 107.223 52.1364 105.943 51.8263 104.419C51.7875 104.173 51.9943 103.889 52.0847 103.604Z" fill="black"/>
<path d="M12.8391 69.0627C15.4882 68.6234 18.0856 68.2099 20.6701 67.7834C21.1224 69.4633 21.1353 69.4763 19.8172 70.3033C18.6929 71.014 17.5558 71.6989 16.1602 72.5518C16.6771 72.5777 16.9872 72.6423 17.2715 72.5906C18.2924 72.4355 19.3003 72.2417 20.3083 72.0737C21.5617 71.8669 21.6006 71.9186 21.5747 73.3659C19.1324 73.7665 16.6771 74.18 14.2089 74.5548C13.9892 74.5936 13.511 74.3222 13.511 74.193C13.511 73.6244 13.4206 72.7973 13.7566 72.526C14.687 71.7377 15.7983 71.1562 16.845 70.5101C17.1423 70.3291 17.4654 70.1741 17.7884 70.0061C17.7626 69.9285 17.7367 69.8381 17.698 69.7606C16.5479 69.9673 15.3849 70.1482 14.2348 70.3808C12.9167 70.6651 12.7874 70.5617 12.8391 69.0627Z" fill="black"/>
<path d="M91.356 23.5367C90.3222 24.9452 89.2883 26.3409 88.2416 27.7623C87.8022 27.491 87.4663 27.2713 86.9752 26.9741C88.5647 24.7772 90.1412 22.6192 91.6919 20.4741C93.3589 21.0685 93.6044 21.6242 93.0875 23.2782C92.8162 24.157 92.6094 25.0486 92.3768 25.9532C92.351 26.0566 92.4156 26.1858 92.4802 26.483C93.2426 25.4234 93.8758 24.48 94.5994 23.6013C94.8191 23.3299 95.3361 23.0715 95.6204 23.149C96.1114 23.2912 96.357 23.7434 95.9564 24.2862C94.509 26.2633 93.0617 28.2534 91.6273 30.2176C90.1541 29.4552 90.1025 29.3518 90.4643 27.9174C90.8132 26.5089 91.1621 25.0874 91.511 23.6788C91.4593 23.6142 91.4077 23.5755 91.356 23.5367Z" fill="black"/>
<path d="M20.5669 42.4166C21.9883 43.192 23.4228 43.9673 24.9476 44.7944C24.7279 45.2079 24.5211 45.5826 24.2756 46.0478C22.6861 45.2337 21.1742 44.4584 19.6623 43.683C19.0808 43.3858 18.4605 43.1532 17.9307 42.8043C17.6076 42.5846 17.1683 41.9385 17.207 41.8997C17.6206 41.4604 17.4396 40.4395 18.4734 40.5687C19.7657 40.7367 21.0579 40.8401 22.3502 40.9693C22.6345 40.9951 22.9317 40.9693 23.552 40.9693C22.0529 40.194 20.8382 39.5349 19.5847 38.9405C19.0808 38.6949 18.9128 38.5011 19.21 37.9325C19.4943 37.4027 19.7398 37.2347 20.3084 37.5448C22.208 38.5786 24.1335 39.5478 26.0202 40.5945C26.3174 40.7625 26.7309 41.3053 26.6534 41.4604C26.382 42.0031 26.2398 42.7526 25.2577 42.5975C23.7458 42.3649 22.208 42.2874 20.6703 42.1452C20.6444 42.2486 20.6056 42.3262 20.5669 42.4166Z" fill="black"/>
<path d="M109.021 39.0309C109.292 39.4962 109.602 39.858 109.693 40.2715C109.77 40.5946 109.693 41.0598 109.486 41.3053C108.555 42.4166 107.547 43.4634 106.682 44.7427C108.064 44.0966 109.434 43.4504 110.791 42.8043C111.67 44.0578 111.644 44.1224 110.365 44.691C108.336 45.6085 106.333 46.5648 104.33 47.4822C103.309 46.4614 103.283 46.2029 104.162 45.2079C105.144 44.0966 106.126 42.9852 107.005 41.6801C106.268 42.029 105.519 42.3649 104.782 42.7139C104.226 42.9723 103.645 43.2049 103.115 43.5021C102.508 43.8381 102.198 43.6314 101.926 43.0498C101.629 42.4037 102.068 42.3003 102.482 42.1065C104.64 41.0985 106.798 40.0777 109.021 39.0309Z" fill="black"/>
<path d="M21.5099 54.2148C21.5099 55.9851 21.51 55.9851 20.0239 56.3341C18.7058 56.6571 17.3877 56.9673 16.005 57.4842C16.2893 57.5617 16.5736 57.678 16.8579 57.7297C17.8787 57.8977 18.8867 58.0786 19.9076 58.1949C20.9155 58.3112 21.0577 58.841 20.6959 59.7973C18.0855 59.3967 15.4751 58.9961 12.8777 58.5955C12.658 56.7993 12.7097 56.683 14.2604 56.2694C15.5398 55.9335 16.845 55.6492 18.176 55.1969C17.3619 55.0806 16.5477 54.9643 15.7336 54.848C15.3201 54.7963 14.9195 54.7317 14.506 54.68C13.2525 54.4861 13.2267 54.4603 13.5627 53.0388C16.2118 53.4265 18.8737 53.8271 21.5099 54.2148Z" fill="black"/>
<path d="M40.6866 26.9611C39.3168 28.1241 39.3298 28.1112 38.1151 27.0257C37.6111 26.5734 37.1071 25.7852 36.3318 26.4054C36.2025 26.5088 36.6936 27.4651 36.9779 28.0078C37.1588 28.3567 37.456 28.6539 37.7661 29.0545C37.3655 29.3776 36.9779 29.6877 36.4739 30.1013C34.8456 27.8657 33.295 25.7205 31.6797 23.4979C32.4809 22.8647 33.1916 22.2961 33.9153 21.7275C34.6648 21.1331 35.5564 21.1201 36.2026 21.6629C36.7711 22.1539 37.2493 22.9422 37.3914 23.6659C37.5206 24.312 37.5594 24.7126 38.2055 25.0744C39.0584 25.5655 39.8079 26.2762 40.6866 26.9611ZM36.4868 24.3249C35.8278 23.7434 35.4918 23.2653 35.0524 23.1102C34.8069 23.0197 34.3804 23.485 34.0315 23.7046C34.3933 24.1957 34.7164 24.7255 35.1687 25.1261C35.2462 25.2036 35.8019 24.7384 36.4868 24.3249Z" fill="black"/>
<path d="M107.303 63.5188C106.992 61.8776 107.018 61.8647 108.504 61.8905C110.494 61.9293 112.484 61.9681 114.474 61.9422C115.108 61.9293 115.34 62.1361 115.314 62.7564C115.289 63.4412 115.276 64.1261 115.327 64.811C115.405 65.7673 114.862 66.4134 114.113 66.6073C113.35 66.8011 112.342 66.8399 111.696 66.491C110.998 66.1162 110.598 66.0645 109.887 66.3876C109.047 66.7623 108.065 66.8399 107.122 67.0466C106.992 65.3409 106.992 65.3408 108.44 65.0436C108.879 64.9532 109.331 64.8756 109.719 64.6689C109.939 64.5526 110.145 64.2037 110.133 63.9711C110.12 63.816 109.732 63.5575 109.499 63.5446C108.776 63.48 108.052 63.5188 107.303 63.5188ZM112.898 63.1828C112.329 63.6351 111.748 63.8677 111.696 64.1907C111.606 64.824 112.032 65.2504 112.756 65.2762C113.441 65.315 113.88 65.0049 113.803 64.3458C113.751 63.9969 113.324 63.6997 112.898 63.1828Z" fill="black"/>
<path d="M96.3567 32.6212C96.7444 32.1043 97.5456 31.9493 97.0933 31.0188C96.977 30.7733 97.4809 30.2306 97.7652 29.7007C98.4501 30.3081 99.0446 30.8379 99.5744 31.3161C98.6182 32.4274 97.6748 33.5258 96.7961 34.5338C94.7414 33.9135 93.0356 31.5874 93.5913 30.2176C94.0048 29.2226 94.5993 28.1759 95.4005 27.491C97.3905 25.7723 99.7682 26.2117 101.073 28.1888C101.797 29.2872 101.849 29.2485 100.44 29.8817C99.6907 28.8737 98.9154 27.6978 97.4035 28.2534C96.3567 28.6411 95.5555 29.4165 95.3487 30.5924C95.2066 31.4582 95.5814 32.1043 96.3567 32.6212Z" fill="black"/>
<path d="M104.821 32.6212C106.139 33.8489 106.126 33.9522 104.885 34.7922C103.865 35.4771 102.818 36.1491 101.823 36.8856C101.241 37.325 100.427 37.8548 101.035 38.7206C101.59 39.5218 102.391 39.1212 103.05 38.7077C103.942 38.1391 104.821 37.5447 105.725 36.9632C106.216 36.653 106.707 36.3558 107.289 36.0069C107.586 36.4721 107.845 36.8856 108.219 37.493C106.333 38.5785 104.562 39.664 102.714 40.6202C101.732 41.1242 100.414 40.5427 99.6906 39.5089C99.0574 38.6043 99.0315 37.1958 99.8715 36.485C101.474 35.1153 103.193 33.8876 104.821 32.6212Z" fill="black"/>
<path d="M14.5577 49.33C14.674 48.8519 14.7773 48.4125 14.9065 47.8568C15.2813 47.9344 15.6431 47.9732 15.9791 48.0895C17.1809 48.503 18.3697 48.9553 19.5715 49.3559C19.9204 49.4722 20.334 49.5885 20.6829 49.5109C21.0577 49.4205 21.6134 49.1362 21.665 48.8648C21.7297 48.5159 21.4583 47.8827 21.161 47.7405C19.83 47.1203 18.4602 46.5904 17.0646 46.0994C15.6172 45.5954 15.5914 45.5696 16.4314 43.9801C18.331 44.7555 20.3081 45.4274 22.156 46.3449C23.2286 46.8747 23.5388 48.2574 23.177 49.3171C22.6988 50.674 22.0268 51.2425 20.5666 51.1004C19.326 50.9712 18.0984 50.5706 16.8966 50.2217C16.1213 50.002 15.3976 49.666 14.5577 49.33Z" fill="black"/>
<path d="M23.7714 79.9433C21.1482 80.2147 18.5379 80.5119 15.9275 80.7187C15.682 80.7445 15.3201 80.2664 15.1392 79.9563C14.9325 79.5815 14.8679 79.1163 14.6999 78.5606C17.0259 77.1262 19.3907 75.6531 21.7555 74.1928C22.5309 75.3559 22.518 75.7177 21.5359 76.3509C20.838 76.8032 20.9543 77.2942 21.1353 77.9404C21.3291 78.6123 21.7685 78.5219 22.2595 78.4702C23.3838 78.3539 23.4354 78.4056 23.7714 79.9433ZM17.013 78.8708C17.0388 78.9742 17.0776 79.0646 17.1035 79.168C17.672 79.1163 18.2406 79.0905 18.7963 79C19.1194 78.9483 19.6362 78.8449 19.675 78.6899C19.7396 78.3668 19.5458 77.9791 19.4295 77.5139C18.512 78.0179 17.7625 78.4443 17.013 78.8708Z" fill="black"/>
<path d="M86.5486 26.5735C85.4373 26.1599 84.7395 25.7335 85.2693 24.5446C85.6053 23.8081 84.998 23.6271 84.494 23.3687C84.003 23.0973 83.6411 23.0198 83.318 23.6013C83.15 23.9244 82.8657 24.1828 82.6073 24.4929C82.0645 24.2216 81.5864 23.989 81.0566 23.7176C82.7623 21.7146 84.4035 19.7633 86.1093 17.8637C86.2902 17.657 86.9105 17.6053 87.1431 17.7603C87.6212 18.0705 88.6938 17.9154 88.4741 18.8717C87.8926 21.4303 87.2077 23.9631 86.5486 26.5735ZM86.0446 22.2703C86.2643 21.4174 86.4582 20.6291 86.652 19.8538C86.5745 19.815 86.484 19.7762 86.4065 19.7375C86.0834 20.1122 85.7474 20.4741 85.4244 20.8617C84.6749 21.7663 84.7265 21.8826 86.0446 22.2703Z" fill="black"/>
<path d="M30.0903 24.7515C30.4651 25.1521 30.7752 25.4752 31.1758 25.9016C30.8011 26.3022 30.4909 26.6511 30.1549 26.9613C29.2374 27.7883 29.2762 28.0726 30.478 28.7446C31.0207 28.2664 31.5635 27.7754 32.2483 27.1551C32.4939 27.672 32.7006 28.1243 32.9074 28.5637C33.0237 28.499 33.1271 28.4344 33.2434 28.3698C32.8557 28.7833 32.4939 29.2356 32.0804 29.6104C31.6281 30.011 31.6798 30.3211 32.0675 30.7217C32.481 31.1482 32.817 31.2257 33.2563 30.7346C33.6569 30.2823 34.148 29.9076 34.5874 29.507C35.8538 30.5408 35.8537 30.5666 34.7682 31.5617C34.0575 32.2078 33.3726 32.8798 32.8428 33.3837C31.4989 32.1561 30.1937 30.9802 28.9015 29.7784C28.3975 29.3132 27.9581 28.7963 27.4542 28.3311C27.0019 27.9175 26.9372 27.5816 27.4412 27.1551C28.2941 26.4314 29.1082 25.6561 30.0903 24.7515Z" fill="black"/>
<path d="M74.1562 16.4035C74.0657 16.9592 73.9882 17.4115 73.8977 17.993C73.3679 17.9155 72.8897 17.9025 72.4504 17.7862C71.6492 17.5665 71.3003 18.0318 71.3261 18.652C71.3391 18.9493 71.8172 19.3369 72.179 19.492C72.67 19.6988 73.2257 19.6988 73.8589 19.8151C73.7684 20.3707 73.6909 20.823 73.6004 21.3658C72.2823 21.1332 71.0418 20.9393 69.8141 20.6679C69.6462 20.6292 69.4136 20.2157 69.4394 20.0089C69.8271 17.5536 70.2535 15.0984 70.7058 12.5139C72.0497 12.7594 73.3291 12.992 74.7118 13.2504C74.686 13.7415 74.6601 14.2325 74.6343 14.8528C74.1432 14.7882 73.7555 14.7624 73.3678 14.6848C72.0497 14.4393 71.8818 14.6073 72.0369 15.9771C72.7088 16.1063 73.4067 16.2485 74.1562 16.4035Z" fill="black"/>
<path d="M108.633 60.8439C108.103 60.9086 107.612 60.9732 107.082 61.0507C106.94 59.7585 106.798 58.5437 106.656 57.329C106.591 56.7475 106.863 56.5537 107.418 56.502C109.602 56.2952 111.786 56.0755 113.97 55.8042C114.642 55.7137 114.823 55.9722 114.836 56.5666C114.862 57.1869 114.913 57.8072 115.004 58.4145C115.249 59.9394 115.223 59.9652 113.686 60.004C112.962 59.3837 114.19 57.2127 111.877 57.8072C111.877 58.5825 111.877 59.3579 111.877 60.1203C110.365 60.4304 110.339 60.4304 110.197 58.9831C110.132 58.3111 110.003 57.8847 109.176 57.9881C108.297 58.1044 108.362 58.6084 108.491 59.2545C108.581 59.7455 108.581 60.2624 108.633 60.8439Z" fill="black"/>
<path d="M114.422 54.3957C111.812 54.3957 109.279 54.4216 106.759 54.3569C106.475 54.344 106.036 53.8788 105.958 53.5557C105.842 53.0647 105.364 52.4186 106.139 52.005C108.401 50.8033 110.662 49.6144 112.923 48.4126C113.712 49.8987 113.673 50.0408 112.303 50.6999C110.998 51.3331 109.68 51.9534 108.413 52.7804C109.9 52.7804 111.386 52.7804 112.872 52.7804C114.229 52.7933 114.229 52.8062 114.422 54.3957Z" fill="black"/>
<path d="M28.4879 34.4821C27.622 33.3837 26.7692 32.2594 25.8646 31.1739C24.7921 29.8946 24.7791 29.9075 26.1618 28.7962C27.7642 30.993 29.3665 33.1899 30.956 35.3608C29.7801 37.1441 29.793 37.1312 28.0097 36.2525C27.0535 35.7873 26.0972 35.3221 25.1409 34.8827C24.2105 34.4433 23.2801 34.0169 22.3626 33.5904C22.6211 32.2465 23.0992 31.9622 24.1976 32.5308C25.5803 33.2415 26.9372 33.9652 28.3199 34.6889C28.3715 34.6242 28.4232 34.5467 28.4879 34.4821Z" fill="black"/>
<path d="M64.0767 17.3985C64.1671 15.9641 64.2834 14.5167 64.3351 13.0824C64.361 12.4362 64.5807 12.1261 65.2527 12.1649C65.7954 12.2036 66.351 12.1778 66.9067 12.2165C68.354 12.3199 69.2457 13.302 69.2586 14.801C69.2715 16.1967 68.1731 17.6828 66.9067 17.6052C65.5369 17.5148 65.6532 18.316 65.6403 19.143C65.6274 19.7891 65.6533 20.3706 64.7099 20.3448C64.1672 20.3319 63.9604 20.1897 63.9733 19.647C63.9992 18.8975 63.9733 18.135 63.9733 17.3855C64.0121 17.3985 64.0508 17.3985 64.0767 17.3985ZM66.028 13.7026C65.9634 14.3617 65.86 14.9561 65.8729 15.5505C65.8729 15.7185 66.2606 16.0028 66.4544 16.0028C67.2427 15.9899 67.6175 15.4601 67.5916 14.7235C67.5529 13.7414 66.855 13.6639 66.028 13.7026Z" fill="black"/>
<path d="M107.186 67.512C107.922 67.7833 108.4 67.9643 108.904 68.1452C108.723 68.6362 108.452 69.0497 108.439 69.4633C108.426 69.9026 108.646 70.3549 108.775 70.7943C109.137 70.6134 109.589 70.51 109.822 70.2128C110.494 69.3857 111.075 68.4812 112.329 68.4941C113.272 68.507 114.073 68.7267 114.513 69.67C114.887 70.4841 114.745 72.2157 114.19 72.7068C114.022 72.8619 113.608 72.8619 113.363 72.7714C113.169 72.7068 113.04 72.4096 112.936 72.1899C112.897 72.0994 113.027 71.9315 113.027 71.8022C113.001 71.2983 113.143 70.4971 112.897 70.3291C112.251 69.9155 111.954 70.665 111.554 71.0656C111.024 71.5955 110.494 72.3062 109.822 72.513C108.129 73.0557 106.63 71.8281 106.72 70.0448C106.72 69.2565 106.992 68.4682 107.186 67.512Z" fill="black"/>
<path d="M68.8837 112.598C71.8817 110.091 71.8817 110.091 71.3906 108.748C71.1063 109.148 70.8608 109.587 70.5119 109.911C70.2664 110.13 69.8399 110.324 69.5427 110.272C69.2972 110.221 68.9354 109.768 68.9741 109.523C69.0129 109.251 69.3747 108.967 69.6719 108.812C71.494 107.843 71.7783 107.365 71.6103 105.388C71.5586 104.806 71.5974 104.225 71.5198 103.643C71.4423 103.087 71.2614 102.545 71.1192 101.976C72.9284 101.86 73.3677 102.325 73.1222 103.902C73.0447 104.418 73.0577 104.935 73.0318 105.465C73.174 105.491 73.3161 105.517 73.4711 105.543C73.6004 105.09 73.7167 104.651 73.8847 104.044C74.3757 104.199 74.8926 104.367 75.4095 104.522C75.1252 104.961 74.9573 105.543 74.5567 105.801C73.1481 106.732 72.993 108.127 72.825 109.613C72.5924 111.59 71.003 112.779 68.8837 112.598Z" fill="black"/>
<path d="M41.8239 19.0138C41.0097 19.311 40.5574 19.3627 40.2731 19.6083C40.0147 19.828 39.8726 20.2415 39.8338 20.5904C39.8209 20.6938 40.3507 20.9651 40.635 20.9651C41.6817 20.9781 42.7413 20.7842 43.5684 21.7405C44.5763 22.8906 44.5893 24.4284 43.3875 25.3588C42.7155 25.8757 41.8626 26.16 40.9581 26.5993C40.7125 25.8628 40.5575 25.3717 40.4024 24.9194C41.0485 24.6739 41.6171 24.5447 42.0953 24.2474C42.3408 24.1053 42.5217 23.6401 42.4829 23.3558C42.4571 23.149 42.0436 22.8906 41.7593 22.8389C41.2553 22.7484 40.7384 22.8389 40.2215 22.7872C38.9163 22.6709 37.8566 21.5079 37.9342 20.319C37.9988 19.2464 39.5753 17.7862 40.6479 17.9413C41.0355 18.0188 41.3457 18.5486 41.8239 19.0138Z" fill="black"/>
<path d="M57.5119 12.7208C57.331 13.5478 57.2276 14.4007 56.9433 15.2019C56.4522 16.6363 56.3359 18.0448 56.6848 19.5438C57.0079 20.9395 56.9174 20.9782 55.2504 21.0945C55.2634 18.1741 53.3896 16.0289 51.9681 13.69C53.3379 12.9534 53.6092 13.0309 54.2295 14.2586C54.488 14.7755 54.7593 15.2924 55.0307 15.8093C55.0695 15.8739 55.1988 15.8997 55.4184 16.0031C55.496 15.2794 55.5476 14.6204 55.6252 13.9613C55.7932 12.6303 56.0387 12.4623 57.5119 12.7208Z" fill="black"/>
<path d="M79.2601 14.6718C80.7462 14.6589 80.8884 14.7881 80.8626 16.1191C80.8496 16.7007 80.8367 17.2822 80.8367 17.8637C80.8367 17.9154 80.9013 17.98 81.0434 18.1867C81.4311 17.7474 81.8317 17.3597 82.1419 16.9203C83.2532 15.3438 83.2144 15.8348 84.5584 16.5714C82.6846 18.5873 80.3586 20.2414 79.8934 23.149C78.2393 22.981 78.0842 22.8647 78.7174 21.5466C79.5574 19.7891 79.2084 17.98 79.2601 16.1838C79.273 15.6927 79.2601 15.1887 79.2601 14.6718Z" fill="black"/>
<path d="M110.894 84.0527C110.52 85.7197 110.377 85.8231 109.008 85.6034C108.374 85.5 107.741 85.4096 107.108 85.3062C107.095 85.3062 107.069 85.3579 106.966 85.4484C107.379 85.8877 107.793 86.3788 108.245 86.8052C109.382 87.8649 109.382 87.9036 108.31 89.2088C106.475 87.1541 105.183 84.4792 102.133 83.9493C102.818 82.2048 102.869 82.1014 104.239 82.9543C105.648 83.8331 107.16 83.8072 108.685 83.9235C109.395 83.9881 110.093 84.014 110.894 84.0527Z" fill="black"/>
<path d="M19.4036 85.8878C19.507 86.0816 19.6103 86.2755 19.7266 86.4822C20.0626 87.1154 20.4502 87.2317 21.1222 86.8053C22.6212 85.8619 24.1848 85.022 25.7872 84.1045C26.0973 84.5955 26.3559 85.0091 26.666 85.4872C24.8181 86.5727 23.0347 87.6194 21.2127 88.692C21.329 88.9892 21.4195 89.2864 21.5616 89.5449C21.9364 90.2685 21.4453 90.514 20.9413 90.7854C20.3339 91.1085 20.2176 90.7079 19.998 90.2556C19.5586 89.3639 19.0029 88.5369 18.5248 87.6711C17.8528 86.4951 17.9304 86.3401 19.4036 85.8878Z" fill="black"/>
<path d="M51.3348 22.1023C50.8179 22.2832 50.3656 22.4254 49.7841 22.6192C49.2801 21.0814 48.7762 19.5695 48.2722 18.0576C47.7941 16.5844 47.7941 16.5844 46.2822 16.9721C45.5197 15.7186 45.5585 15.5635 46.8765 15.0725C48.0266 14.646 49.2027 14.2713 50.3269 13.8836C51.2703 15.2534 51.2444 15.3438 49.4482 16.1192C50.0814 18.0705 50.6887 20.0347 51.3348 22.1023Z" fill="black"/>
<path d="M109.951 82.6313C110.494 80.6929 110.494 80.6929 108.84 80.0984C107.806 79.7366 106.773 79.3619 105.739 79.0259C104.369 78.5865 104.317 78.4702 105.054 77.0487C106.656 77.5915 108.31 78.0567 109.874 78.7028C110.74 79.0646 111.192 78.9871 111.463 78.0825C111.515 77.9275 111.631 77.7982 111.761 77.5915C112.226 77.7336 112.665 77.8629 113.272 78.0438C112.73 79.5428 112.29 81.003 111.657 82.3728C111.528 82.6312 110.636 82.5408 109.951 82.6313Z" fill="black"/>
<path d="M12.5546 63.8032C14.4801 63.8032 16.3538 63.7774 18.2276 63.8162C19.9334 63.8549 20.9414 64.9146 20.7604 66.4653C20.7346 66.7366 20.3469 67.2019 20.1918 67.176C19.7912 67.1114 19.158 66.8659 19.1193 66.6074C18.9642 65.6253 18.3697 65.4832 17.5815 65.4961C16.3151 65.5349 15.0487 65.5865 13.7823 65.5995C12.5029 65.5995 12.5029 65.5865 12.5546 63.8032Z" fill="black"/>
<path d="M20.786 62.3688C18.1369 62.3688 15.8109 62.4075 13.4978 62.3559C12.4769 62.33 12.3606 62.0069 12.6836 60.6242C15.1906 60.7276 17.7493 60.8052 20.2821 61.0119C20.5018 61.0248 20.6438 61.9553 20.786 62.3688Z" fill="black"/>
<path d="M105.105 49.9633C104.873 49.4981 104.653 49.0458 104.382 48.503C106.902 47.6372 109.318 46.7843 111.735 45.9961C111.89 45.9444 112.29 46.3191 112.42 46.5776C112.639 47.0299 112.704 47.4822 112.006 47.7018C110.171 48.2833 108.362 48.9036 106.54 49.511C106.1 49.6531 105.648 49.7953 105.105 49.9633Z" fill="black"/>
<path d="M20.6697 35.8002C21.4063 34.1462 21.458 34.3271 22.7115 35.1153C24.2751 36.0975 25.7741 37.17 27.3119 38.1909C28.5008 38.9921 28.5008 39.0438 27.286 40.2068C25.1021 38.7336 22.8795 37.2605 20.6697 35.8002Z" fill="black"/>
<path d="M113.983 75.1233C113.854 75.6402 113.763 76.0279 113.621 76.6094C111.024 75.9762 108.452 75.343 105.881 74.7227C105.829 73.0428 105.958 72.9911 107.574 73.4305C109.486 73.9603 111.424 74.4126 113.35 74.9036C113.531 74.9424 113.712 75.0199 113.983 75.1233Z" fill="black"/>
<path d="M24.0815 80.5765C24.8181 82.1401 24.7923 82.0884 23.345 82.6958C21.3678 83.5357 19.4294 84.4791 17.3489 85.4353C17.0905 84.9184 16.8966 84.5049 16.6252 83.9492C19.1451 82.825 21.5875 81.7137 24.0815 80.5765Z" fill="black"/>
<path d="M42.8063 16.6748C43.349 16.4293 43.7496 16.2484 44.2665 16.0029C45.352 18.5098 46.4116 20.9522 47.5229 23.4979C47.006 23.7047 46.5537 23.8856 45.9852 24.1182C44.9126 21.5983 43.8788 19.1689 42.8063 16.6748Z" fill="black"/>
<path d="M76.0558 21.9343C75.4872 21.831 75.0349 21.7405 74.4792 21.6242C75.1641 19.0655 75.7973 16.5844 76.5468 14.1421C76.6114 13.9353 77.4773 13.9741 78.2785 13.8578C77.4902 16.7395 76.7923 19.2594 76.0558 21.9343Z" fill="black"/>
<path d="M62.5647 12.2554C61.9445 15.3568 62.0479 17.0109 63.0687 20.2286C62.3839 20.487 61.9445 20.2027 61.699 19.5824C60.8332 17.3727 60.6522 15.1242 61.3371 12.824C61.518 12.2037 61.8928 12.0228 62.5647 12.2554Z" fill="black"/>
<path d="M107.858 90.5011C107.496 90.6691 107.109 91.0309 106.785 90.9792C104.304 90.5786 102.327 89.3251 100.893 87.2575C100.66 86.9216 100.764 86.353 100.88 85.849C102.754 88.0846 105.002 89.5319 107.78 90.178C107.806 90.2814 107.832 90.3977 107.858 90.5011Z" fill="black"/>
<path d="M77.8387 108.786C77.2313 109.549 76.9083 110.583 75.7711 110.57C75.0733 110.57 73.8327 109.032 73.7035 107.856C74.9053 109.549 76.3655 109.084 77.8387 108.786Z" fill="black"/>
<path d="M52.8984 102.726C52.795 102.054 52.6658 101.24 52.4719 100.077C53.2473 100.645 53.9063 101.007 54.3974 101.524C54.8626 102.015 54.5654 102.377 53.9322 102.48C53.5703 102.558 53.1956 102.661 52.8984 102.726Z" fill="black"/>
<path d="M44.7317 36.2525C52.1621 38.4234 58.2615 35.994 63.8569 31.7554C69.5945 35.8389 75.5776 38.5656 82.9305 36.2654C83.8222 38.9662 84.7138 41.6282 85.5926 44.2773C85.6959 44.6004 85.8252 44.9234 85.9286 45.2465C86.4713 46.9006 86.3679 47.1978 84.9594 48.167C82.9952 49.5238 81.8192 51.2813 82.0777 53.7883C82.2586 55.5586 83.3052 56.8121 84.5846 57.8718C85.2953 58.4533 86.1224 58.9185 86.9494 59.3062C87.4922 59.5517 87.6731 59.836 87.6214 60.3787C87.2467 64.5656 86.5747 68.675 84.8043 72.5517C82.9952 76.5189 80.5787 80.0855 77.7099 83.3032C74.0787 87.3867 69.8659 90.7466 64.8132 92.9434C64.2963 93.1631 63.4693 93.1631 62.9782 92.9046C58.4941 90.5527 54.4493 87.5935 50.9086 83.9364C47.7167 80.6412 44.9384 77.0617 43.0259 72.8619C41.2684 68.9722 40.3639 64.8758 40.1442 60.6243C40.1054 59.9135 40.2605 59.4871 40.9971 59.1382C41.9662 58.673 42.8579 58.0139 43.672 57.3032C46.7863 54.5765 46.2695 50.1312 42.2506 47.8052C41.6174 47.4433 41.2814 47.1203 41.514 46.3837C42.5995 43.0626 43.6462 39.7286 44.7317 36.2525ZM75.5647 49.2525C76.017 52.173 76.017 52.173 73.3679 52.328C73.3033 52.328 73.2128 52.3022 73.1611 52.341C72.8898 52.5477 72.4116 52.7803 72.4246 52.9871C72.4246 53.3231 72.6959 53.7366 72.9802 53.9433C73.2257 54.1113 73.6393 54.0467 73.9882 54.0596C75.7198 54.1113 75.7198 54.1113 75.694 55.8817C75.694 55.9205 75.694 55.9463 75.694 55.9851C75.7715 56.7734 75.5001 57.1481 74.6343 57.0318C74.1691 56.9672 73.6263 56.9414 73.2128 57.1223C72.8639 57.2773 72.6572 57.7425 72.3858 58.0785C72.696 58.3241 72.9673 58.673 73.3291 58.7763C73.7814 58.8927 74.2854 58.841 74.7635 58.8022C75.5259 58.7505 75.7456 59.0606 75.7327 59.836C75.6939 62.7177 75.7327 65.6123 75.7198 68.4941C75.7198 69.1273 75.9007 69.5925 76.5856 69.6183C77.3739 69.6571 77.4126 69.0885 77.4126 68.4941C77.3997 66.0517 77.4126 63.6094 77.3997 61.1799C77.3997 58.8927 77.3997 58.8926 79.6999 58.8151C79.7387 58.8151 79.7646 58.8151 79.8033 58.8151C80.3719 58.841 80.8371 58.5825 80.7078 58.001C80.6303 57.6521 80.2298 57.2386 79.8809 57.0964C79.4544 56.9284 78.9375 56.993 78.4593 57.0318C77.6452 57.0835 77.4126 56.7346 77.3997 55.9334C77.3738 54.0855 77.3351 54.0855 79.2218 54.0726C79.3639 54.0726 79.4932 54.0726 79.6353 54.0726C80.2814 54.0467 80.9147 53.8141 80.7725 53.1034C80.7079 52.7674 80.0359 52.4185 79.5965 52.341C78.9116 52.2117 78.188 52.3022 77.4126 52.3022C77.4126 51.4364 77.4384 50.7256 77.3997 50.002C77.3609 49.33 77.6711 49.1749 78.2655 49.2266C78.8471 49.2783 79.4544 49.3559 80.01 49.2137C80.3202 49.1362 80.7596 48.6451 80.7466 48.3737C80.7208 48.0507 80.3202 47.6759 79.9842 47.4692C79.7386 47.327 79.351 47.4433 78.9763 47.4433C78.9633 47.1849 78.9116 46.9781 78.9504 46.7972C79.2347 45.2594 79.5707 43.7346 79.8291 42.1839C79.9196 41.6799 80.1392 41.0209 79.3381 40.827C78.6015 40.6461 78.2397 41.1113 78.1105 41.7445C77.7745 43.3857 77.5031 45.0397 77.1541 46.6809C77.0895 46.9652 76.8182 47.1978 76.6502 47.4563C76.4176 47.1978 76.017 46.9781 75.9653 46.6809C75.6164 45.0139 75.4097 43.3081 75.022 41.6541C74.9445 41.3051 74.3242 41.0855 73.9623 40.8012C73.7426 41.2018 73.4842 41.5894 73.3291 42.0159C73.2645 42.2097 73.4066 42.4811 73.4583 42.7137C73.7168 43.8896 74.0011 45.0527 74.2208 46.2286C74.3371 46.9135 74.2854 47.5079 73.3033 47.5984C72.9802 47.6242 72.6959 48.1541 72.3987 48.4513C72.7347 48.7227 73.0319 49.162 73.3937 49.2396C74.0786 49.3429 74.8023 49.2525 75.5647 49.2525ZM56.6979 48.2962C56.8659 48.2833 57.0339 48.2704 57.2019 48.2574C57.6542 50.1054 58.1711 51.9533 58.5588 53.8141C58.843 55.1581 58.9852 56.5278 59.1403 57.8847C59.2178 58.5567 59.6442 58.8668 60.1741 58.6859C60.4842 58.5825 60.7943 58.0268 60.8202 57.6392C60.8719 56.9672 60.7297 56.2694 60.6522 55.5845C60.2774 52.5736 59.9673 49.498 58.2228 46.9394C57.2406 45.505 57.3182 44.2515 57.8351 42.83C57.8997 42.6362 57.9643 42.4423 58.0289 42.2485C58.2356 41.6541 58.3649 41.0338 57.6154 40.7883C56.8271 40.5169 56.5299 41.0984 56.3231 41.7445C55.1601 45.3757 54.7595 49.1233 54.7466 52.9225C54.7208 57.7167 55.5348 62.4205 56.4911 67.1114C56.6203 67.7187 56.6849 68.3648 56.9692 68.8947C57.1501 69.2306 57.68 69.3857 58.0548 69.6312C58.2486 69.2694 58.4941 68.9205 58.6233 68.5457C58.688 68.3519 58.5458 68.0805 58.4942 67.8479C57.3441 63.0278 56.5687 58.1561 56.5428 53.1809C56.5299 51.5527 56.6462 49.9244 56.6979 48.2962ZM50.9474 48.4254C51.6581 53.2714 51.18 58.0268 50.3917 62.7694C50.0945 64.5915 49.6164 66.3877 49.2029 68.1968C49.0607 68.8042 49.1124 69.3211 49.7973 69.502C50.4822 69.6829 50.8182 69.3211 50.9345 68.675C51.012 68.1968 51.1412 67.7316 51.2575 67.2664C52.8082 60.8827 53.4931 54.4085 52.7694 47.8568C52.5368 45.7246 51.9424 43.6183 51.4126 41.5378C51.335 41.2276 50.676 40.8787 50.2883 40.8787C49.668 40.8787 49.6293 41.4602 49.7456 41.9771C49.7973 42.2097 49.8489 42.4553 49.9394 42.6749C50.5726 44.1998 50.5468 45.4791 49.5776 47.0427C47.6005 50.2604 47.3291 54.0467 46.9672 57.7425C46.9414 58.0527 47.4713 58.4145 47.7426 58.7634C48.0786 58.4404 48.6214 58.169 48.6989 57.8072C48.9315 56.67 48.9444 55.4811 49.1382 54.3439C49.4871 52.2893 49.8361 50.2346 50.9474 48.4254ZM66.0408 57.9622C66.1055 57.9752 66.183 57.9881 66.2476 58.001C66.3123 59.3449 66.3122 60.6889 66.4414 62.0199C66.6611 64.2684 66.9325 66.5298 67.2685 68.7654C67.3202 69.0885 67.8758 69.334 68.1989 69.6183C68.4573 69.2823 68.8709 68.9851 68.9484 68.6104C69.0389 68.171 68.8709 67.667 68.8063 67.1889C67.9922 61.6193 67.6432 56.0755 68.8063 50.493C69.4007 47.5984 69.4524 44.6908 68.3798 41.8608C68.1472 41.2535 67.9921 40.5815 67.1522 40.8658C66.3251 41.1372 66.5319 41.7833 66.7258 42.4165C67.4107 44.5358 67.6174 46.6938 67.2814 48.9165C66.8291 51.9145 66.4544 54.9384 66.0408 57.9622ZM57.2923 78.6511C56.2068 80.0984 56.1939 81.2098 57.2794 82.166C58.4166 83.174 60.7039 83.1869 61.8669 82.1919C62.9136 81.3002 63.0041 80.3181 62.2416 79.1163C62.0866 78.8708 62.1124 78.3539 62.2675 78.0825C62.7586 77.2297 62.7456 76.2217 62.1254 75.5239C61.0657 74.3221 58.9593 74.0895 57.6283 75.0458C56.336 75.9633 56.2456 76.842 57.2923 78.6511ZM67.9533 79.504C67.0488 80.2277 66.3251 80.7316 65.7048 81.3519C65.4076 81.6491 65.0458 82.2694 65.1621 82.5279C65.4593 83.1482 66.0796 82.9931 66.5836 82.6571C67.9792 81.6879 69.194 80.5766 69.7884 78.9096C70.68 76.4026 68.9096 74.1412 66.2864 74.4772C65.188 74.6193 64.012 75.7823 63.9603 76.7774C63.8957 77.9533 64.7099 78.9742 66.0021 79.2585C66.5319 79.3877 67.0746 79.4006 67.9533 79.504ZM73.0965 76.1959C73.7685 76.1959 74.4017 76.2863 74.9961 76.1571C75.3321 76.0925 75.6035 75.6919 75.9007 75.4464C75.6035 75.175 75.345 74.8002 74.9961 74.6839C74.6343 74.5547 74.182 74.671 73.7685 74.671C71.4553 74.6839 71.4554 74.6839 71.4166 76.9712C71.3779 78.845 71.3778 78.845 73.2128 79.0388C73.3549 79.0517 73.4842 79.0905 73.6134 79.1163C74.2595 79.2326 74.9703 79.3619 74.9574 80.2018C74.9445 81.1452 74.1562 81.3261 73.4325 81.3907C72.851 81.4424 72.2565 81.2615 71.688 81.339C71.352 81.3778 71.0677 81.7138 70.7576 81.9205C70.9902 82.2048 71.184 82.6313 71.4683 82.7346C72.7218 83.1482 74.014 83.006 75.177 82.4374C76.8957 81.5975 77.012 79.2585 75.4096 78.2376C74.7506 77.8112 73.9236 77.6303 73.1095 77.3201C73.0966 77.0358 73.0965 76.6481 73.0965 76.1959ZM70.5766 57.6392C70.6542 57.6392 70.7317 57.6262 70.8222 57.6262C70.8222 56.6312 70.7705 55.6362 70.8351 54.6412C70.8739 53.995 70.8609 53.3231 70.1631 53.2584C69.4265 53.1938 69.0518 53.8012 69.0518 54.5636C69.026 56.5537 68.9226 58.5437 68.9872 60.5338C69.0518 62.3171 69.2456 64.0875 69.5041 65.8579C69.5557 66.1809 70.1115 66.4394 70.4345 66.7237C70.693 66.3877 71.0548 66.0905 71.1711 65.7286C71.2874 65.3668 71.1969 64.9145 71.1582 64.501C70.9643 62.2137 70.7705 59.9264 70.5766 57.6392ZM63.7148 58.4016C63.6502 58.4016 63.5856 58.4145 63.5209 58.4145C63.7277 60.8052 63.9215 63.1958 64.1541 65.5736C64.2187 66.1939 64.348 66.9304 65.188 66.8141C66.015 66.6978 65.9633 66 65.8728 65.3539C65.847 65.1471 65.7953 64.9533 65.7824 64.7465C65.679 61.4642 65.524 58.1819 65.5111 54.8996C65.5111 54.1501 65.5627 53.336 64.7745 53.2714C63.8957 53.1938 63.7019 54.0338 63.7148 54.8221C63.7148 55.998 63.7148 57.1998 63.7148 58.4016ZM70.2148 46.3708C70.0856 47.5209 69.9563 48.3737 69.8917 49.2266C69.8529 49.7177 69.7754 50.2863 70.5637 50.3767C71.2744 50.4543 71.5329 50.1312 71.6621 49.4851C72.179 46.8618 71.8947 44.3032 71.0418 41.7962C70.8222 41.1372 70.5379 40.5944 69.7625 40.8529C69.0001 41.1113 69.2068 41.7445 69.349 42.326C69.6721 43.7475 69.9563 45.1819 70.2148 46.3708ZM66.7258 46.2803C66.3769 44.7942 66.0279 43.0885 65.5627 41.4085C65.4852 41.1372 64.8907 40.8399 64.5806 40.8787C64.3221 40.9046 63.8828 41.499 63.9474 41.7057C64.7098 44.2773 65.02 46.8618 64.6065 49.5238C64.5677 49.7823 65.0587 50.3638 65.2913 50.3509C65.6144 50.338 66.1442 49.9761 66.2218 49.6789C66.4544 48.658 66.5449 47.5984 66.7258 46.2803ZM54.7983 78.8708C54.8112 78.8708 54.8112 78.8708 54.8241 78.8708C54.8241 77.837 54.8241 76.8161 54.8241 75.7823C54.8241 75.2525 54.8371 74.671 54.1263 74.6452C53.351 74.6064 53.183 75.1362 53.1959 75.7953C53.2088 77.8499 53.2217 79.9046 53.1959 81.9593C53.1959 82.5537 53.4156 82.9931 53.9841 82.8639C54.3072 82.7863 54.7337 82.2953 54.7725 81.9464C54.8629 80.9255 54.7983 79.8917 54.7983 78.8708Z" fill="black"/>
<path d="M59.618 81.3132C59.4887 81.3261 59.3078 81.4037 59.2174 81.352C58.8038 81.1064 58.4161 80.8222 58.0155 80.5508C58.3386 80.2148 58.597 79.7108 58.9976 79.5816C59.437 79.4265 60.0314 79.4782 60.4708 79.6462C60.7422 79.7496 61.0782 80.4474 60.9877 80.5637C60.6776 80.9643 60.1995 81.2227 59.773 81.5329C59.7343 81.4812 59.6696 81.4037 59.618 81.3132Z" fill="black"/>
<path d="M59.5795 75.4852C60.1998 76.1442 60.8975 76.5577 60.9234 77.01C60.9751 77.7854 60.1223 77.7854 59.5407 77.7983C58.9851 77.8112 58.1838 77.7724 58.2872 77.01C58.3389 76.5448 58.985 76.1442 59.5795 75.4852Z" fill="black"/>
<path d="M66.9581 78.3151C66.3895 77.7207 66.0018 77.333 65.6271 76.9324C66.0535 76.5964 66.4412 76.0666 66.9193 75.9891C67.5138 75.8857 68.2374 76.2346 68.1211 77.01C68.0306 77.4105 67.488 77.7336 66.9581 78.3151Z" fill="black"/>
</svg>
