<svg width="127" height="127" viewBox="0 0 127 127" fill="none" xmlns="http://www.w3.org/2000/svg">
<path d="M126.989 63.3331C126.989 98.2755 98.6112 126.795 63.8239 126.808C28.6101 126.821 0.0256183 98.3918 -0.000226676 63.346C-0.0260716 28.6492 28.636 0.0129225 63.3975 0C98.5079 0 126.989 28.3649 126.989 63.3331ZM63.5396 122.273C96.0655 122.298 122.582 95.9882 122.66 63.6303C122.738 31.0786 96.3757 4.6521 63.7076 4.54872C30.9879 4.44534 4.57432 30.6909 4.54847 63.3331C4.53555 96.027 30.7811 122.247 63.5396 122.273Z" fill="black"/>
<path d="M63.514 105.99C39.7625 105.887 20.8698 86.865 20.9344 63.1393C20.999 39.7109 40.2535 20.689 63.7725 20.8182C87.3689 20.9474 106.494 40.021 106.43 63.3978C106.378 87.0072 87.1493 106.094 63.514 105.99ZM63.6949 97.2805C66.6671 94.2567 69.2645 91.4266 72.0945 88.8421C73.1025 87.9376 74.6661 87.2785 76.023 87.1881C79.4087 86.9555 82.8331 87.033 86.2447 87.1493C88.0926 87.2139 88.8292 86.6453 88.7387 84.7328C88.6095 81.7865 88.8163 78.8143 88.6612 75.868C88.5578 73.9038 89.1393 72.4823 90.5996 71.1642C93.2228 68.7864 95.7169 66.2536 98.4823 63.5658C95.1483 60.3093 92.0986 57.531 89.3073 54.52C88.4415 53.6025 87.86 52.0906 87.7954 50.8113C87.6016 47.1025 87.7308 43.3808 87.7308 39.3878C83.9186 39.3878 80.52 39.2457 77.1343 39.4395C74.8471 39.5687 73.2576 38.7804 71.7457 37.1522C69.2128 34.4385 66.4862 31.8928 63.5916 29.0498C60.6065 32.1254 57.9315 35.02 55.0757 37.7208C54.2745 38.4832 52.9434 39.013 51.8321 39.0518C47.8261 39.2069 43.8072 39.1164 39.4394 39.1164C39.4394 42.5021 39.2197 45.6423 39.504 48.7308C39.7883 51.8968 38.7804 54.197 36.351 56.1741C33.8182 58.2417 31.4921 60.5677 28.843 62.9972C32.1641 66.2278 35.0458 68.7994 37.6174 71.6552C38.5865 72.7278 39.2714 74.3948 39.3619 75.8292C39.6074 79.538 39.4394 83.2726 39.4394 87.201C43.8977 87.201 47.9295 87.1105 51.9484 87.2656C53.0597 87.3044 54.4037 87.8342 55.2049 88.5966C58.0478 91.3103 60.7228 94.205 63.6949 97.2805ZM65.349 100.951C65.5299 101.157 65.7109 101.377 65.8918 101.584C74.7954 100.899 82.6264 97.7845 89.1264 91.3879C84.7974 91.0648 80.5459 91.0519 76.2815 91.0777C75.855 91.0777 75.3252 91.2199 75.0409 91.4913C71.7973 94.6185 68.5796 97.7845 65.349 100.951ZM37.8112 91.2974C43.6909 97.4744 56.5229 102.553 62.1184 101.041C58.9911 97.9267 55.9802 94.8899 52.9176 91.9048C52.5687 91.5688 51.9743 91.3362 51.4832 91.3233C47.1283 91.2845 42.7734 91.2974 37.8112 91.2974ZM101.209 60.852C101.144 51.9355 97.9654 44.5439 92.021 38.2635C91.698 42.36 91.6851 46.3659 91.7109 50.3719C91.7109 50.7984 91.7884 51.354 92.0598 51.6254C95.0837 54.7268 98.1463 57.7894 101.209 60.852ZM89.1135 35.4723C85.0817 30.1611 73.1025 25.0826 66.0468 25.6383C69.2775 28.8947 72.3142 31.9832 75.4027 35.0329C75.7258 35.356 76.3848 35.4594 76.9017 35.4594C80.8431 35.4852 84.7715 35.4723 89.1135 35.4723ZM35.4722 88.8421C35.4722 84.1125 35.4852 79.9256 35.4464 75.7387C35.4464 75.3382 35.2396 74.8342 34.9553 74.537C32.0349 71.5777 29.0627 68.6572 25.9225 65.53C25.005 72.0817 29.7088 83.6344 35.4722 88.8421ZM35.4852 38.1602C30.0448 42.4504 24.8629 54.9982 26.1164 61.1622C29.179 57.9445 32.009 55.0111 34.7873 52.0131C35.175 51.5995 35.4464 50.9147 35.4593 50.3461C35.511 46.4306 35.4852 42.515 35.4852 38.1602ZM38.9225 35.0588C43.174 35.0588 47.4126 35.0588 51.6641 35.0458C51.9225 35.0458 52.2456 34.9554 52.4136 34.7874C55.4246 31.8152 58.4096 28.8172 61.4077 25.8321C52.6333 25.9226 45.2158 28.9206 38.9225 35.0588ZM92.5767 87.8859C97.7845 83.1046 102.488 71.2288 101.17 65.8014C98.4306 68.7089 95.9107 71.3451 93.4554 74.033C93.016 74.524 92.6284 75.2735 92.6155 75.9067C92.5379 79.7447 92.5767 83.5698 92.5767 87.8859Z" fill="black"/>
<path d="M77.7412 17.6004C78.3615 14.9642 78.7104 13.1421 79.2402 11.3588C79.3694 10.9194 80.0156 10.6222 80.4291 10.2604C80.6875 10.7385 81.2303 11.2684 81.1528 11.6819C80.5195 14.9125 79.7701 18.1043 78.9818 21.6968C74.5494 19.9523 75.273 15.1322 72.3267 12.3926C71.9778 13.9045 71.784 15.2614 71.3188 16.5407C70.9182 17.6521 71.4221 19.7843 68.6309 18.996C69.3287 15.4423 70.0136 11.9016 70.6985 8.38664C72.5464 7.65006 73.4639 8.41248 74.1488 9.95026C75.1567 12.2892 76.3068 14.5765 77.7412 17.6004Z" fill="black"/>
<path d="M14.1886 37.6431C17.5097 38.9095 20.8179 40.1889 24.6171 41.6362C22.2264 45.668 17.5744 44.3241 14.7443 46.5467C15.9074 48.8211 20.2105 47.6581 20.8566 50.7724C20.6628 51.0567 20.469 51.341 20.2752 51.6253C16.9799 50.1779 13.6717 48.7177 10.0405 47.1153C12.1986 42.838 17.0316 44.4662 19.8875 42.2565C17.9232 40.6153 14.5892 41.0288 13.3487 38.5994C13.633 38.2893 13.9043 37.9662 14.1886 37.6431Z" fill="black"/>
<path d="M19.2024 66.4603C18.5434 70.9315 14.3953 72.3013 12.6766 75.8808C15.3128 75.5836 17.6259 75.3122 20.5981 74.9633C20.1199 75.8162 19.9132 76.7079 19.5384 76.7725C16.2432 77.4186 12.9092 77.9226 9.26503 78.5299C9.00658 73.7745 13.775 72.7536 15.1318 69.1482C13.1547 69.3937 11.3585 69.678 9.54933 69.7814C8.99366 69.8073 8.39923 69.3291 7.81772 69.0836C8.29585 68.6701 8.72231 67.9981 9.25213 67.9076C12.3277 67.3907 15.4291 67.0031 19.2024 66.4603Z" fill="black"/>
<path d="M65.0388 7.72752C65.0388 10.1957 65.1551 12.6768 65.0001 15.158C64.8321 17.7812 63.2167 19.0605 60.2704 19.1898C57.2336 19.3319 55.334 18.1043 55.011 15.4422C54.7525 13.323 54.7525 11.152 54.9205 9.03269C54.9722 8.43826 56.0448 7.92136 56.6521 7.36569C56.9106 7.53368 57.169 7.7146 57.4275 7.88259C57.4275 9.56251 57.3499 11.2424 57.4533 12.9094C57.5567 14.7444 56.846 17.1868 59.9991 17.1997C63.3977 17.2126 62.4414 14.6281 62.5448 12.7285C62.6094 11.5784 62.5319 10.4025 62.4543 9.25237C62.3251 7.35277 63.3072 7.21062 65.0388 7.72752Z" fill="black"/>
<path d="M30.9618 32.5389C29.2302 36.5837 25.8833 33.8053 23.5056 35.2397C24.6169 36.2606 25.7153 37.191 26.6845 38.2507C26.8008 38.367 26.1159 39.2069 25.6765 39.9177C22.5493 37.7079 19.5642 35.6016 16.424 33.3918C16.928 32.6294 17.3545 31.9962 17.7938 31.3242C18.9956 32.0996 20.0294 32.7845 21.761 33.9087C21.2054 32.0479 20.6626 30.8719 20.5334 29.6443C20.4171 28.5717 20.7789 27.4475 21.4509 26.0777C21.8385 32.3709 26.0642 32.8878 30.9618 32.5389Z" fill="black"/>
<path d="M105.098 45.5647C101.764 42.7864 106.222 41.4166 105.861 38.9614C104.659 39.6333 103.612 40.2278 102.346 40.9385C101.932 40.3053 101.532 39.685 101.028 38.8967C104.232 37.023 107.217 35.2784 110.539 33.353C111.482 35.9375 114.596 37.7208 112.645 40.6154C111.986 41.5975 109.673 41.4683 108.122 41.856C108.019 41.6105 107.915 41.3649 107.799 41.1065C106.933 42.5409 106.067 43.9753 105.098 45.5647ZM108.109 37.5011C108.032 37.85 107.941 38.1989 107.864 38.5478C108.833 38.858 109.815 39.181 110.784 39.4912C110.784 38.4832 110.784 37.4753 110.784 35.9375C109.414 36.7387 108.768 37.1264 108.109 37.5011Z" fill="black"/>
<path d="M40.4732 25.5607C39.504 25.664 38.4831 26 37.5656 25.8191C35.5756 25.4444 33.172 27.331 33.1849 29.3599C33.1849 30.0965 32.836 30.833 32.6421 31.5567C32.3708 31.5567 32.1123 31.5696 31.841 31.5696C30.7426 28.1581 29.5278 24.7595 28.5716 21.3092C28.1839 19.9135 30.2773 18.4016 31.5179 19.1382C34.5676 20.9344 37.5398 22.8728 40.5507 24.7465C40.512 25.0308 40.499 25.2893 40.4732 25.5607ZM31.337 21.8261C31.169 21.9553 31.001 22.0716 30.8459 22.2008C31.337 23.4543 31.8151 24.7078 32.4096 26.2585C33.3658 25.4573 33.999 24.9275 34.8261 24.2296C33.495 23.3122 32.4096 22.5756 31.337 21.8261Z" fill="black"/>
<path d="M20.2751 53.2406C18.8019 55.5925 17.1478 57.1561 16.9281 58.9007C16.7343 60.4901 18.0912 62.2863 19.0216 64.6512C15.1965 62.8291 11.953 61.3947 8.82571 59.7665C7.44301 59.0428 7.68855 56.6004 9.16171 56.1611C12.5603 55.1661 15.9977 54.3519 20.2751 53.2406ZM14.9381 56.9881C13.4132 57.3887 12.1468 57.7247 10.1697 58.2545C12.1856 59.0816 13.452 59.6114 14.9381 60.2317C14.9381 59.0945 14.9381 58.2545 14.9381 56.9881Z" fill="black"/>
<path d="M52.4008 117.142C54.6105 116.78 56.7556 116.431 58.8878 116.083C58.8491 115.734 58.8232 115.385 58.7845 115.049C57.1175 114.829 55.4505 114.661 53.7964 114.39C51.858 114.067 50.7467 113.11 51.1085 110.901C51.4703 108.678 52.8014 108.174 54.7785 108.471C55.6572 108.613 56.5618 108.652 57.4405 108.794C61.8988 109.466 62.9455 111.624 60.7874 115.656C59.2497 118.486 54.5847 119.352 52.4008 117.142ZM55.037 109.738C54.4813 110.19 53.7318 110.797 52.9823 111.405C53.693 112.012 54.3779 113.097 55.1274 113.136C56.6652 113.214 59.1721 114.868 59.5857 112.309C60.0121 109.634 57.1046 110.603 55.037 109.738Z" fill="black"/>
<path d="M84.9909 110.914C82.8845 111.637 81.1271 112.322 79.3308 112.852C77.6897 113.33 76.5654 112.645 76.0356 110.991C75.4929 109.311 75.7384 107.98 77.5475 107.282C78.5426 106.895 79.5247 106.326 80.5585 106.158C82.0704 105.913 84.6032 105.357 84.9651 105.964C85.9859 107.67 86.6321 109.945 86.4511 111.909C86.2056 114.661 82.5485 116.625 79.9253 115.773C81.644 114.222 84.6808 114.131 84.9909 110.914ZM83.0138 106.804C81.3597 107.425 79.9641 107.786 78.7364 108.458C78.2454 108.73 77.7801 109.802 77.9481 110.281C78.1161 110.772 79.1629 111.366 79.6798 111.263C81.0496 110.978 82.3806 110.41 83.634 109.789C84.0346 109.596 84.474 108.756 84.3448 108.42C84.1122 107.786 83.466 107.308 83.0138 106.804Z" fill="black"/>
<path d="M103.845 27.3698C101.958 28.2873 101.906 29.2565 103.108 30.6004C103.625 31.1819 103.716 32.1382 104 32.9265C103.716 33.0298 103.444 33.1203 103.16 33.2237C102.281 32.2545 101.39 31.2853 100.382 30.1869C99.5674 30.8718 98.8567 31.4921 97.9909 32.2287C98.8567 33.4434 99.6191 34.503 100.382 35.5756C98.9213 36.9066 98.4561 36.5706 95.2126 31.7634C98.0038 29.3857 100.834 26.9821 103.871 24.3847C105.06 25.832 106.158 27.0855 107.14 28.4165C107.373 28.7267 107.218 29.334 107.243 29.7992C106.726 29.6829 106.08 29.7217 105.706 29.4245C104.982 28.8042 104.413 28.003 103.845 27.3698Z" fill="black"/>
<path d="M92.1501 24.6432C93.8429 23.351 95.6004 22.1363 97.1898 20.7277C98.5596 19.513 99.3091 19.9524 100.123 21.5806C97.2157 23.5061 94.3469 25.4444 91.4264 27.2794C91.0387 27.525 90.1471 27.4733 89.8369 27.189C89.4234 26.8013 89.0357 25.9872 89.152 25.4832C89.9145 22.1104 90.819 18.7764 91.7236 15.2486C92.5636 15.6104 93.1839 15.8947 93.9721 16.2436C93.1709 19.009 92.3826 21.6969 91.6073 24.3848C91.7882 24.4753 91.9691 24.5657 92.1501 24.6432Z" fill="black"/>
<path d="M116.56 50.9146C116.341 50.178 116.173 49.4285 115.876 48.7177C115.63 48.1233 115.255 47.5806 114.932 47.012C114.364 47.4772 113.64 47.8519 113.252 48.4464C112.878 49.015 112.826 49.7903 112.684 50.4881C112.257 52.504 111.146 53.8092 108.975 53.4603C106.817 53.1114 105.796 51.509 105.693 49.4543C105.654 48.5756 106.145 47.671 106.403 46.7794C106.701 46.7923 106.998 46.8052 107.295 46.8181C107.36 47.6193 107.269 48.4722 107.541 49.1959C107.851 50.01 108.484 50.6949 108.975 51.4315C109.595 50.8112 110.228 50.2168 110.81 49.5577C110.952 49.3897 110.797 48.9891 110.926 48.7824C111.779 47.4513 112.477 45.9006 113.653 44.9444C114.105 44.5696 115.889 45.2545 116.651 45.9265C118.137 47.2317 118.137 48.9891 117.465 50.6949C117.155 50.7595 116.858 50.837 116.56 50.9146Z" fill="black"/>
<path d="M117.62 63.4883C117.737 62.7517 117.685 62.3382 117.866 62.0668C118.189 61.5757 118.654 61.1881 119.068 60.7616C119.352 61.2139 119.856 61.6662 119.882 62.1314C119.972 63.8243 119.972 65.53 119.843 67.2229C119.791 67.8819 119.287 68.5022 118.99 69.1483C118.564 68.541 118.111 67.9465 117.724 67.3133C117.556 67.029 117.543 66.6543 117.375 65.9694C114.894 65.9694 112.412 66.0598 109.944 65.9048C109.298 65.866 108.691 65.1165 108.058 64.6901C108.691 64.2895 109.311 63.5787 109.957 63.54C112.451 63.3978 114.945 63.4883 117.62 63.4883Z" fill="black"/>
<path d="M114.467 75.5966C114.971 77.6513 118.719 77.9356 116.405 81.6831C115.398 80.3909 114.713 79.0598 113.64 78.2586C112.206 77.199 110.435 76.5916 108.859 75.6871C108.109 75.2606 107.489 74.6016 106.559 73.8392C111.146 73.361 114.958 72.9475 118.732 72.5469C118.706 74.3561 118.706 74.3561 114.467 75.5966Z" fill="black"/>
<path d="M82.7554 23.5577C82.5487 22.8341 81.9801 21.9554 82.1998 21.4126C83.4662 18.3888 84.9264 15.4295 86.3221 12.4573C86.6322 12.4056 86.9553 12.3669 87.2654 12.3152C87.4722 13.1164 88.0925 14.0856 87.834 14.7058C86.6064 17.6522 85.1461 20.508 83.7763 23.4027C83.4403 23.4544 83.1043 23.5061 82.7554 23.5577Z" fill="black"/>
<path d="M39.8269 13.2327C41.1967 15.9206 42.5019 18.6472 43.9492 21.2963C44.7762 22.8083 44.2335 23.3898 42.5794 23.687C41.1192 20.9087 39.5427 18.1174 38.1987 15.2228C37.9532 14.68 38.6381 13.7108 38.8965 12.9355C39.2067 13.0389 39.5168 13.1422 39.8269 13.2327Z" fill="black"/>
<path d="M119.093 57.4275C115.41 57.8151 111.74 58.2028 108.057 58.6034C107.876 58.3579 107.696 58.1123 107.502 57.8668C108.057 57.3111 108.548 56.3807 109.182 56.2774C111.986 55.838 114.829 55.5666 117.659 55.4245C118.279 55.3857 118.951 56.0835 119.597 56.4453C119.429 56.7684 119.261 57.0915 119.093 57.4275Z" fill="black"/>
<path d="M42.7861 114.299C39.7493 113.576 41.7652 112.103 42.2175 111.004C42.7861 109.609 43.5615 108.303 44.3239 106.83C43.7294 106.352 43.1609 105.9 42.6052 105.46C42.6827 105.202 42.7603 104.944 42.8507 104.685C44.1301 105.021 45.4223 105.357 47.1668 105.822C45.6032 108.859 44.2076 111.573 42.7861 114.299Z" fill="black"/>
<path d="M66.7571 109.725C67.2611 109.596 68.3466 109.324 69.781 108.975C70.1687 112.09 70.5305 114.971 70.8923 117.853C70.7114 118.021 70.5305 118.202 70.3496 118.37C69.8715 117.969 69.0961 117.646 68.9539 117.155C68.618 115.966 68.7084 114.648 68.3725 113.459C68.0365 112.245 67.3903 111.133 66.7571 109.725Z" fill="black"/>
<path d="M24.4617 93.003C25.2242 94.0497 26.1158 94.7475 26.0512 95.3291C25.9737 95.9881 25.0433 96.5438 24.4747 97.1511C23.8673 96.505 22.9239 95.9493 22.7559 95.1998C22.6396 94.7346 23.6476 93.998 24.4617 93.003Z" fill="black"/>
<path d="M104.891 95.2386C103.909 96.0786 103.186 97.1124 102.721 97.009C101.984 96.841 101.415 95.9106 100.782 95.3162C101.364 94.7476 101.906 93.8172 102.553 93.7396C103.147 93.6621 103.845 94.515 104.891 95.2386Z" fill="black"/>
<path d="M57.0525 42.6959C60.2315 44.3887 60.5287 46.6372 60.1152 49.015C59.7275 51.3022 57.7762 51.3152 55.9541 51.5607C55.0495 51.677 54.2225 52.349 53.3696 52.7625C54.3388 53.344 55.2951 54.4424 56.2642 54.4424C61.2523 54.4424 61.5754 54.3261 61.808 59.2108C62.1181 65.8142 61.8984 72.4434 61.7951 79.0597C61.7821 79.6154 60.9809 80.1452 60.5416 80.688C60.1539 80.0418 59.4173 79.3828 59.4303 78.7367C59.4561 73.4514 59.6241 68.179 59.7533 62.8937C59.7663 62.351 59.8567 61.7695 59.6758 61.2913C59.3269 60.348 58.8229 59.4563 58.3706 58.5388C57.4919 58.9653 56.6002 59.4046 55.6311 59.8698C57.9959 62.8291 57.802 63.2555 54.5197 64.0697C53.8995 64.2247 53.4472 65.013 52.5814 65.8142C53.5635 66.0726 53.9253 66.1114 54.2225 66.2536C55.1271 66.68 56.0058 67.1452 56.8845 67.5975C56.1609 68.1144 55.308 68.515 54.7394 69.174C54.0803 69.9494 53.2404 70.9315 53.2275 71.849C53.15 74.9762 53.5376 78.1164 53.4342 81.2436C53.3954 82.4842 52.5426 83.6989 52.0644 84.9136C51.4183 83.7506 50.3845 82.6522 50.2036 81.4116C49.8935 79.3053 50.1261 77.1214 50.0873 74.9762C50.0227 72.1333 51.3667 68.515 45.7971 68.6184C45.9263 68.347 46.0684 68.0627 46.1977 67.7913C47.0247 67.352 47.8905 66.9901 48.6529 66.4603C49.0923 66.1502 49.3637 65.5687 49.6996 65.1164C49.2732 64.8708 48.8467 64.3927 48.4332 64.4056C46.5465 64.4444 46.2235 63.5269 46.4173 61.8341C46.5207 60.9295 46.0167 59.9474 45.7971 59.004C45.4482 59.004 45.0863 59.004 44.7374 59.004C44.4919 60.2963 44.0137 61.6015 44.0525 62.8808C44.1947 67.1711 44.6082 71.4613 44.7503 75.7516C44.815 77.6512 44.4919 79.5637 44.3368 81.4633C43.975 81.5538 43.6002 81.6442 43.2384 81.7347C42.7861 80.9464 41.9978 80.184 41.9203 79.3699C41.6489 76.2556 41.6102 73.1283 41.468 70.0011C41.3 65.9822 41.1708 61.9633 40.9253 57.9573C40.809 56.1482 41.3388 54.9852 43.2642 54.7525C44.4143 54.6104 45.6161 54.6362 46.7275 54.3261C47.8905 53.9901 48.9631 53.3569 50.0744 52.84C50.0098 52.517 49.9451 52.2068 49.8805 51.8838C48.7046 51.7158 47.4382 51.7545 46.3657 51.341C45.2026 50.9016 43.3676 50.1134 43.303 49.338C43.1479 47.5935 43.8845 45.7585 44.2593 43.9623C44.9183 44.169 45.9263 44.2078 46.133 44.6342C46.4432 45.2804 45.9134 46.3529 46.2364 46.9732C46.7016 47.8778 47.6191 48.5498 48.3557 49.3251C49.0406 48.5368 50.0873 47.8519 50.3328 46.9474C50.63 45.9006 50.0098 44.6213 50.2036 43.51C50.3457 42.7217 51.1599 42.0497 51.6768 41.3261C52.1937 42.0239 52.969 42.67 53.15 43.4454C53.3826 44.4533 53.0207 45.6034 53.1629 46.6501C53.2662 47.4255 53.6151 48.5239 54.1708 48.7824C54.8428 49.0925 56.0187 48.9116 56.6648 48.4722C57.0525 48.2138 56.8328 47.0637 56.8716 46.3012C56.9104 45.2545 56.975 44.169 57.0525 42.6959ZM46.7016 56.7038C48.0455 58.4613 48.8468 59.844 49.9839 60.8649C50.4233 61.2526 51.9223 61.1233 52.3746 60.671C53.3955 59.6631 54.0675 58.3062 55.1271 56.7038C52.3746 56.7038 49.9322 56.7038 46.7016 56.7038Z" fill="black"/>
<path d="M83.9959 57.8409C84.4998 65.0775 85.0555 72.831 85.5336 80.5974C85.5724 81.2694 85.0814 81.9672 84.8488 82.6521C84.2026 82.174 83.1042 81.7863 82.9879 81.2048C82.5615 79.0338 82.3159 76.7982 82.2513 74.5755C82.1609 70.8151 82.3547 67.0546 82.2643 63.2942C82.1996 60.9035 81.3597 59.1719 78.3358 59.4821C77.5992 59.5596 76.0615 58.4224 76.0356 57.7892C75.8159 53.331 75.8547 48.8598 75.9322 44.4015C75.9451 43.7296 76.6042 43.0705 76.9531 42.4115C77.5088 42.9025 78.2583 43.2902 78.5684 43.8976C79.3308 45.3707 80.0545 46.1719 81.8895 45.2544C83.9571 44.2206 84.642 45.4353 84.5515 47.3737C84.3706 50.6689 84.2026 53.9771 83.9959 57.8409ZM82.7036 55.3856C81.5664 54.494 80.9074 53.7057 80.0804 53.4602C79.7444 53.3697 78.5167 54.7137 78.633 55.0109C79.0078 55.9025 79.8477 56.6004 80.5068 57.3757C81.0754 56.8588 81.6569 56.3419 82.7036 55.3856ZM79.8994 46.8827C79.1499 47.9681 78.3487 48.7952 78.4779 49.0019C79.0078 49.7773 79.7444 50.5397 80.5972 50.9145C80.9462 51.0695 81.7344 50.2167 82.3289 49.829C81.644 49.0019 80.9591 48.1749 79.8994 46.8827Z" fill="black"/>
<path d="M65.7751 44.0786C67.0286 44.7118 67.4938 44.9186 67.9461 45.1771C69.8974 46.2884 70.9441 45.7844 71.2155 43.5101C71.2801 42.9156 71.797 42.3729 72.1072 41.8043C72.6241 42.3212 73.5674 42.8122 73.6062 43.355C73.8775 48.2397 74.0326 53.1373 74.0455 58.0349C74.0455 58.4872 72.7791 59.3659 72.1459 59.3272C69.5227 59.1333 68.8507 60.684 68.7344 62.7775C68.5276 66.3312 68.5793 69.9236 68.1787 73.4515C67.8944 75.9196 67.1062 78.3361 66.3308 80.7139C66.137 81.3342 65.1807 81.7089 64.5734 82.2C64.3278 81.4375 63.6946 80.533 63.9014 79.9127C67.1837 69.9624 66.4859 59.7924 65.7751 49.5965C65.6847 47.9554 65.7751 46.3142 65.7751 44.0786ZM72.805 54.8043C71.7195 53.9256 70.7374 52.9176 70.5823 53.0339C69.7165 53.6542 68.8895 54.4812 68.4113 55.4246C68.2692 55.7218 69.5614 57.1562 69.6648 57.0916C70.634 56.5618 71.4998 55.8123 72.805 54.8043ZM70.0783 51.6512C70.9054 50.7337 71.5386 50.1393 71.9779 49.4286C72.0425 49.3252 71.0088 48.2009 70.7115 48.2914C69.8199 48.5628 69.0445 49.2089 68.2304 49.6999C68.7215 50.2298 69.2254 50.7466 70.0783 51.6512Z" fill="black"/>
<path d="M79.46 61.8987C79.46 68.3729 79.5117 74.2526 79.4083 80.1324C79.3954 80.9982 78.6201 81.8381 78.2066 82.7039C77.6121 81.9286 76.63 81.2049 76.5137 80.365C76.2811 78.53 76.5912 76.6304 76.5008 74.7566C76.3199 70.8023 75.9839 66.848 75.8159 62.8808C75.7901 62.1959 75.9839 61.188 76.4491 60.8779C76.9789 60.516 77.9998 60.5419 78.6589 60.8003C79.1499 60.9683 79.3825 61.7824 79.46 61.8987Z" fill="black"/>
<path d="M68.6959 84.6809C68.851 83.8151 68.851 82.8847 69.174 82.0835C71.0478 77.4443 72.3659 72.7922 70.5696 67.7912C70.3629 67.1968 70.7247 66.4085 70.7376 65.7107C70.7505 64.8707 70.6213 64.0308 70.6472 63.2037C70.673 62.493 70.6213 61.3687 70.9961 61.162C71.681 60.7872 72.7019 60.826 73.5031 61.0069C73.7486 61.0586 73.7873 62.1699 73.852 62.8031C73.9683 63.8628 74.1362 64.9353 74.0845 65.9821C74.0199 67.4294 73.7357 68.8509 73.5806 70.2982C73.2188 73.5805 73.0895 76.9145 72.4305 80.1322C72.0686 81.9026 70.7893 83.4662 69.9235 85.1332C69.5229 84.9781 69.1094 84.823 68.6959 84.6809Z" fill="black"/>
</svg>
