<svg width="129" height="129" viewBox="0 0 129 129" fill="none" xmlns="http://www.w3.org/2000/svg">
<path d="M117.306 71.7813C119.212 71.9988 120.312 72.1395 121.4 72.2546C121.963 72.3186 122.5 72.4465 122.474 73.1374C122.449 73.8794 121.873 73.905 121.323 73.841C119.199 73.6108 117.088 73.3549 114.977 73.1118C114.504 73.0606 114.043 72.9071 114.005 72.4082C113.954 71.7557 114.261 71.2567 114.939 70.9625C116.398 70.3484 117.818 69.6703 119.263 68.4933C118.035 68.3782 116.794 68.2758 115.566 68.1351C115.003 68.0711 114.504 67.8409 114.619 67.1372C114.734 66.4208 115.259 66.4464 115.835 66.5103C117.856 66.7662 119.89 67.0093 121.912 67.2268C122.462 67.2907 123.05 67.3291 123.114 67.9944C123.191 68.6596 122.871 69.1586 122.206 69.4528C120.811 70.1053 119.43 70.7834 117.306 71.7813Z" fill="black"/>
<path d="M10.3649 68.2759C12.1049 68.2759 13.2433 68.2759 14.3692 68.2759C14.8809 68.2759 15.5079 68.148 15.5847 68.9028C15.6486 69.5809 15.1752 69.8112 14.5867 69.8495C12.463 69.9903 10.3393 70.1182 8.21555 70.2461C7.74219 70.2717 7.30725 70.2333 7.14094 69.7216C6.92345 69.0691 7.07687 68.519 7.67817 68.1096C8.97032 67.2397 10.2369 66.3313 11.8617 65.1927C10.1985 65.1927 9.00868 65.1927 7.81888 65.1927C7.21758 65.1927 6.73148 64.9752 6.75707 64.3227C6.78266 63.8238 7.21762 63.6191 7.70378 63.5935C9.91706 63.44 12.1176 63.2992 14.3309 63.1201C14.881 63.0817 15.1753 63.3376 15.2904 63.811C15.4184 64.3739 15.2264 64.8601 14.7402 65.1927C13.4481 66.1138 12.156 67.0222 10.3649 68.2759Z" fill="black"/>
<path d="M91.7577 115.945C89.3909 115.881 87.2799 113.578 87.2415 111.275C87.2032 109.267 88.9302 107.348 91.0284 107.181C91.9623 107.105 93.3057 107.002 93.3313 108.218C93.3569 109.177 92.231 108.96 91.3994 108.832C90.0305 108.64 89.0966 109.433 88.9558 110.7C88.7895 112.222 89.6212 113.463 90.9645 114.154C92.052 114.717 93.0626 114.269 93.7662 113.322C94.1884 112.759 94.5722 111.953 93.408 111.877C92.8195 111.838 91.9368 112.759 91.7321 111.646C91.5402 110.572 92.8963 110.559 93.5104 110.021C94.2141 109.407 94.8024 109.586 95.1479 110.444C95.5189 111.352 96.6576 112.068 95.8388 113.297C94.8025 114.87 93.4592 115.881 91.7577 115.945Z" fill="black"/>
<path d="M98.6912 112.056C98.0899 112.068 97.8852 111.659 97.6166 111.314C97.0153 110.546 96.4011 109.791 95.7998 109.036C92.8573 105.301 92.9725 104.75 97.1432 102.345C97.6677 102.038 98.0644 101.821 98.461 102.409C98.8064 102.921 98.3458 103.138 98.1155 103.497C97.4375 104.52 94.8404 104.789 96.0686 106.35C97.22 107.821 98.0387 105.403 99.1261 104.968C99.6251 104.763 99.9577 104.75 100.252 105.147C100.482 105.441 100.482 105.8 100.15 106.081C99.881 106.311 99.51 106.465 99.3437 106.759C98.8575 107.552 96.7082 107.655 98.1922 109.254C99.5355 110.699 99.9833 108.665 100.904 108.422C101.582 108.243 102.005 106.759 102.811 107.719C103.783 108.857 102.235 109.1 101.71 109.599C100.764 110.495 99.6763 111.275 98.6912 112.056Z" fill="black"/>
<path d="M114.171 73.9055C115.067 73.9823 114.952 74.5196 114.952 75.2104C114.939 76.3875 113.173 78.0634 115.016 78.6135C116.615 79.0869 116.09 76.8736 116.628 75.9269C116.883 75.4663 116.999 74.8394 117.715 75.1209C118.214 75.3128 118.188 75.799 118.073 76.2467C117.958 76.6689 117.805 77.0911 117.715 77.5261C117.549 78.3321 116.947 79.2788 118.367 79.6242C119.775 79.9569 119.672 78.8054 119.979 78.0634C120.146 77.654 120.159 77.1934 120.299 76.7713C120.491 76.2211 120.53 75.3512 121.412 75.6582C122.244 75.9525 121.783 76.6945 121.668 77.2574C120.709 82.0166 120.709 82.0166 116.09 80.7884C115.834 80.7245 115.553 80.7117 115.323 80.5965C114.338 80.1104 112.444 80.4942 112.418 79.2788C112.393 77.59 113.263 75.8757 113.775 74.187C113.813 74.059 114.03 73.9951 114.171 73.9055Z" fill="black"/>
<path d="M107.801 91.1511C108.389 91.279 109.106 91.0231 109.182 91.7779C109.233 92.3537 108.837 92.7886 108.248 92.8654C107.724 92.9422 107.186 92.9166 106.841 93.4155C106.483 93.9145 105.971 94.4262 106.585 95.0275C107.11 95.5392 107.545 95.0403 107.954 94.7333C108.299 94.4646 108.632 94.1575 108.978 93.8761C110.091 92.9549 111.255 92.456 112.56 93.4923C113.686 94.3878 113.916 95.5009 113.276 96.793C112.573 98.2003 111.703 99.3901 109.886 99.2878C109.336 99.2622 108.696 99.1726 108.671 98.5329C108.658 98.0212 109.08 97.5095 109.72 97.5862C110.5 97.6758 111.114 97.4583 111.575 96.8314C111.959 96.3069 112.24 95.7567 111.766 95.1426C111.242 94.4646 110.692 94.7333 110.167 95.1554C109.822 95.4369 109.489 95.7312 109.157 96.0254C108.159 96.8954 107.11 97.4711 105.805 96.6267C104.769 95.9486 104.487 94.9891 104.922 93.8505C105.459 92.4688 106.316 91.4069 107.801 91.1511Z" fill="black"/>
<path d="M112.099 46.8599C112.227 46.4633 112.329 45.9387 112.559 45.491C112.789 45.0432 113.122 44.4803 113.749 44.7234C114.338 44.9536 114.453 45.5677 114.171 46.0539C113.8 46.6936 113.455 47.2693 113.813 48.0241C114.005 48.4335 114.261 48.8429 114.76 48.8173C115.323 48.7917 115.387 48.2928 115.399 47.845C115.425 46.9622 115.323 46.0539 115.476 45.1967C115.719 43.7638 116.704 43.0602 118.125 43.137C120.005 43.2393 120.517 44.6466 120.875 46.1946C121.195 47.5891 120.696 48.6126 119.57 49.3802C119.404 49.4954 118.994 49.4698 118.866 49.3546C118.559 49.0476 118.316 48.6254 118.559 48.1776C118.815 47.717 119.301 47.3204 119.378 46.8599C119.532 45.9132 119.161 44.9792 118.137 44.8513C117.127 44.7234 117.203 45.6701 117.165 46.3737C117.152 46.6424 117.165 46.9111 117.178 47.1669C117.242 48.9324 116.871 50.5828 114.747 50.4932C112.751 50.3781 112.406 48.5998 112.099 46.8599Z" fill="black"/>
<path d="M120.978 53.6914C121.157 52.6167 119.801 50.6977 121.195 50.5314C122.807 50.3395 121.95 52.6167 122.436 53.7298C123.434 56.0326 122.436 56.9665 120.134 56.9921C119.609 56.9921 119.072 57.1073 118.547 57.1968C114.236 57.8493 113.775 57.4271 113.698 52.8982C113.686 52.3608 113.532 51.7596 114.313 51.7084C115.016 51.6572 115.029 52.2713 115.234 52.7702C115.669 53.7937 114.773 55.943 116.475 55.7256C118.611 55.4441 116.846 53.6018 116.974 52.4632C117.025 52.0026 116.999 51.5421 117.536 51.4269C118.266 51.2734 118.419 51.8235 118.496 52.3736C118.585 52.9877 118.662 53.6018 118.739 54.2287C118.841 55.0475 119.136 55.5464 120.134 55.265C120.94 55.0091 121.426 54.6765 120.978 53.6914Z" fill="black"/>
<path d="M9.08526 71.8968C10.71 72.1527 13.1023 72.3446 15.3924 72.9331C16.9276 73.3169 17.0172 74.4683 15.6866 75.3895C13.8827 76.6433 12.0021 77.8075 10.1599 78.9973C9.76328 79.2531 9.35388 79.88 8.88052 79.1636C8.57348 78.703 8.57348 78.1657 9.04684 77.7307C11.2473 75.7349 10.4925 74.3788 8.11294 73.3681C7.65237 73.1762 7.43487 72.7924 7.46045 72.3318C7.48604 71.7817 7.85708 71.6154 9.08526 71.8968Z" fill="black"/>
<path d="M119.02 65.679C117.306 65.6918 115.771 65.2312 114.99 63.6192C114.35 62.3015 114.274 60.843 115.272 59.6021C115.656 59.1287 116.142 58.2332 116.948 58.9496C117.485 59.4357 117.319 59.9859 116.73 60.5104C115.655 61.4827 115.707 62.6341 116.884 63.4145C118.355 64.3869 120.005 64.3229 121.285 63.0819C122.334 62.0584 121.95 60.9838 120.696 60.2673C120.108 59.9347 120.031 59.423 120.338 58.924C120.824 58.1564 121.451 58.6042 121.924 58.9496C123.293 59.9859 123.651 61.4315 123.152 62.9924C122.538 64.9754 120.939 65.6278 119.02 65.679Z" fill="black"/>
<path d="M12.642 45.2349C10.7741 45.286 9.95547 46.4758 10.8382 48.0239C11.286 48.8043 11.7849 49.4823 10.7742 49.9301C9.95541 50.2883 9.59714 49.3288 9.2901 48.7787C8.39455 47.2179 9.18784 44.8511 10.8254 43.9555C12.8724 42.8425 16.2754 43.9299 17.2861 46.0281C18.1177 47.768 17.4396 50.0452 15.8148 50.8896C15.3542 51.1327 14.8041 51.4909 14.3691 50.992C13.8318 50.3651 14.1773 49.8022 14.8042 49.4951C15.9172 48.945 16.544 48.0878 15.9811 46.9364C15.3158 45.5931 13.9214 45.35 12.642 45.2349Z" fill="black"/>
<path d="M117.562 88.5794C117.421 90.4856 116.436 91.7394 114.594 92.2127C112.675 92.7117 109.796 91.1509 109.131 89.2574C108.491 87.4535 109.041 85.9311 110.564 84.8053C111.216 84.3191 112.201 83.8074 112.7 84.5494C113.314 85.4577 112.368 85.752 111.587 86.0846C110.436 86.5708 110.001 87.6326 110.692 88.7073C111.562 90.0378 112.918 90.8182 114.543 90.524C115.617 90.3321 116.244 89.4493 115.86 88.3107C115.592 87.4919 114.76 86.3789 116.052 86.2126C117.268 86.0718 117.447 87.5175 117.562 88.5794Z" fill="black"/>
<path d="M84.4263 115.523C84.3624 116.098 83.9914 116.29 83.518 116.354C81.7014 116.585 81.0361 117.416 81.9573 119.182C82.2387 119.719 82.5585 120.359 81.7013 120.73C80.6394 121.177 80.5243 120.295 80.3068 119.668C79.923 118.58 79.6161 117.48 79.2706 116.38C78.1832 112.913 79.0532 111.71 82.8017 111.442C83.2878 111.403 83.6843 111.378 83.8251 111.94C83.9658 112.529 83.5309 112.695 83.1087 112.849C82.8656 112.938 82.5841 112.99 82.3666 113.117C81.6757 113.552 80.0509 113.117 80.6011 114.755C81.0744 116.162 82.0595 115.19 82.8143 115.011C83.5308 114.819 84.2088 114.461 84.4263 115.523Z" fill="black"/>
<path d="M63.1892 117.48C64.6861 116.751 64.5199 113.923 67.1041 114.908C65.8376 117.326 63.4708 119.194 63.8801 122.265C63.9441 122.751 63.5603 123.071 63.0357 123.058C62.3833 123.032 62.0123 122.661 62.1787 122.034C62.8183 119.604 61.4238 117.813 60.3875 115.894C60.1445 115.459 59.3385 114.844 60.2596 114.384C60.8225 114.102 61.4878 114.384 61.8332 115.011C62.2938 115.817 62.7415 116.648 63.1892 117.48Z" fill="black"/>
<path d="M52.5068 113.053C54.3491 113.322 56.1787 113.578 58.0209 113.885C58.5071 113.962 59.1851 114.026 59.134 114.742C59.0828 115.433 58.4814 115.535 57.9313 115.369C56.6263 114.985 56.4344 115.855 56.2681 116.776C56.0122 118.171 55.7692 119.565 55.5133 120.973C55.4109 121.51 55.283 122.047 54.5538 121.945C53.7478 121.83 53.5815 121.356 53.799 120.602C53.9781 120.013 54.0037 119.373 54.1188 118.772C54.4515 116.943 55.782 114.832 52.686 114.013C52.558 113.974 52.5964 113.36 52.5453 113.015L52.5068 113.053Z" fill="black"/>
<path d="M11.2342 55.2778C11.5284 53.5123 10.4026 53.3076 9.05931 53.1924C8.47081 53.1413 7.4601 53.2052 7.75435 52.0538C7.97184 51.1711 8.6626 51.4525 9.2639 51.5421C11.0934 51.8107 12.9357 52.0666 14.7652 52.3097C15.4432 52.3992 16.3004 52.2841 16.1468 53.3843C16.0189 54.3311 15.2385 54.1264 14.7012 53.9728C12.7182 53.3971 12.5264 54.7533 12.2833 56.0966C12.1042 56.3908 11.925 56.7618 11.5156 56.6083C10.7991 56.3141 11.1574 55.7511 11.2342 55.2778Z" fill="black"/>
<path d="M11.2343 55.2779C11.2598 55.9688 11.3495 56.5701 12.2834 56.0839C12.5137 57.5552 13.7418 57.0306 14.599 57.2225C15.1747 57.3505 15.6224 57.5296 15.5329 58.2204C15.4433 58.8857 14.9955 59.052 14.3814 58.9625C12.2833 58.681 10.1724 58.4251 8.07429 58.1437C7.52416 58.0669 6.99955 57.9134 7.03793 57.2097C7.08911 56.3526 7.62647 56.2758 8.35571 56.4165C9.53271 56.634 10.8505 57.1202 11.2343 55.2779Z" fill="black"/>
<path d="M10.9789 60.2672C11.9512 60.2672 12.9362 60.2416 13.9085 60.28C14.5482 60.3056 15.495 60.0369 15.3926 61.2139C15.3159 62.0967 14.5611 61.9688 13.9598 61.956C12.0919 61.9176 10.224 61.8664 8.36898 61.8024C7.65254 61.7768 6.79535 61.8024 6.91049 60.7662C7.03843 59.7171 7.90847 60.0241 8.58652 60.0625C9.37972 60.1009 10.1857 60.1393 10.9789 60.1649C10.9789 60.1905 10.9789 60.2288 10.9789 60.2672Z" fill="black"/>
<path d="M119.532 84.3832C119.289 85.0612 118.931 85.3555 118.137 85.0356C116.167 84.2424 114.171 83.526 112.176 82.7968C111.638 82.6049 111.165 82.3874 111.408 81.6837C111.613 81.0696 112.035 80.8649 112.649 81.0952C114.722 81.8628 116.794 82.6432 118.867 83.4237C119.289 83.59 119.66 83.8203 119.532 84.3832Z" fill="black"/>
<path d="M59.3517 103.932V108.474H58.4178V104.981C58.3026 105.083 58.1491 105.173 57.9444 105.25C57.7397 105.326 57.5605 105.378 57.3942 105.403V104.61C57.9188 104.456 58.3666 104.239 58.7504 103.945H59.3517V103.932Z" fill="black"/>
<path d="M60.9763 107.616C61.2194 107.77 61.4881 107.847 61.8079 107.847C62.5244 107.847 62.8954 107.386 62.9082 106.452H62.8954C62.7035 106.746 62.3965 106.9 61.9871 106.9C61.6161 106.9 61.3089 106.772 61.0786 106.516C60.8355 106.26 60.7205 105.928 60.7205 105.531C60.7205 105.07 60.8612 104.687 61.1555 104.405C61.4497 104.124 61.8207 103.97 62.2813 103.97C62.7675 103.97 63.1385 104.149 63.4071 104.52C63.6758 104.891 63.8165 105.39 63.8165 106.043C63.8165 106.823 63.6501 107.437 63.3175 107.885C62.9849 108.333 62.5115 108.563 61.8974 108.563C61.552 108.563 61.245 108.512 60.9763 108.397V107.616ZM61.6416 105.441C61.6416 105.672 61.6928 105.864 61.8079 105.992C61.9231 106.119 62.0766 106.196 62.2685 106.196C62.4476 106.196 62.5883 106.132 62.7034 106.004C62.8186 105.876 62.8697 105.723 62.8697 105.531C62.8697 105.301 62.8186 105.109 62.7034 104.93C62.5883 104.763 62.4348 104.674 62.2429 104.674C62.051 104.674 61.9103 104.751 61.7951 104.891C61.6928 105.045 61.6416 105.224 61.6416 105.441Z" fill="black"/>
<path d="M64.5968 108.358V107.552C64.9038 107.744 65.2365 107.834 65.5819 107.834C65.8378 107.834 66.0553 107.77 66.196 107.642C66.3495 107.514 66.4135 107.335 66.4135 107.117C66.4135 106.657 66.0937 106.427 65.4668 106.427C65.2365 106.427 64.9679 106.439 64.6608 106.478L64.8272 104.021H67.1811V104.789H65.5819L65.5181 105.723C65.6716 105.71 65.8251 105.697 65.953 105.697C66.388 105.697 66.7335 105.813 66.9765 106.056C67.2196 106.299 67.3603 106.619 67.3603 107.015C67.3603 107.463 67.2067 107.834 66.8997 108.115C66.5927 108.397 66.1833 108.538 65.6588 108.538C65.2494 108.55 64.8911 108.486 64.5968 108.358Z" fill="black"/>
<path d="M69.1 107.706H70.9806V108.473H68.0254V108.141C68.0254 107.911 68.0637 107.693 68.1533 107.501C68.2428 107.309 68.358 107.13 68.4987 106.964C68.6523 106.798 68.8826 106.606 69.1896 106.388C69.4711 106.171 69.6758 105.979 69.7909 105.825C69.906 105.659 69.9572 105.48 69.9572 105.301C69.9572 104.904 69.7397 104.699 69.3047 104.699C68.9209 104.699 68.5627 104.853 68.2045 105.16V104.328C68.5883 104.073 69.0233 103.957 69.5095 103.957C69.9573 103.957 70.3026 104.073 70.5585 104.303C70.8144 104.533 70.9424 104.84 70.9424 105.237C70.9424 105.454 70.9039 105.659 70.8271 105.838C70.7503 106.017 70.648 106.183 70.5073 106.337C70.3665 106.49 70.1364 106.682 69.8293 106.9C69.5351 107.117 69.3303 107.284 69.2279 107.399C69.1256 107.514 69.1 107.616 69.1 107.706Z" fill="black"/>
<path d="M128.999 64.502C129.089 99.4668 100.879 127.613 66.4901 128.495C30.6042 129.417 1.2046 99.6715 0.910348 65.0905C0.603302 29.4861 29.9389 0.04809 64.8269 0.291168C100.674 0.547039 128.897 28.501 128.999 64.502ZM126.415 64.5276C126.377 30.6631 98.7555 2.93943 65.0444 2.93943C31.1159 2.93943 3.60978 30.5991 3.62257 64.6811C3.63537 98.2386 31.4229 125.898 65.0827 125.885C98.6402 125.873 126.453 98.0467 126.415 64.5276Z" fill="black"/>
<path d="M111.305 64.6684C111.165 90.2938 90.3112 110.968 64.7497 110.84C38.8683 110.712 18.5906 89.7821 18.7441 63.3762C18.8848 38.2497 39.9174 17.6009 65.2486 17.7032C90.7974 17.7928 111.446 38.851 111.305 64.6684ZM88.1107 46.783C88.2386 46.2712 87.906 45.9514 87.6117 45.6188C80.6392 37.5844 71.8629 34.0022 61.2827 35.1664C56.7921 35.6526 52.6087 37.1494 48.3612 40.2583C49.4103 40.2583 49.7557 40.2838 50.0883 40.2583C58.0075 39.4906 65.8628 39.8105 73.6413 41.5888C78.6819 42.7402 83.3132 44.9535 88.0596 46.8341C87.1513 47.589 86.1917 47.0388 85.245 46.9493C80.1275 46.4759 75.0102 45.606 69.8544 46.655C67.9482 47.0388 66.8734 47.8704 67.0141 50.0581C67.1805 52.5401 67.0909 55.0348 67.027 57.5168C66.9886 58.7961 67.3851 59.4358 68.7412 59.6661C76.7116 60.971 84.6821 62.3271 92.6397 63.7216C93.7527 63.9135 94.4436 63.7856 94.3029 62.5062C93.7144 56.698 92.3838 51.1584 88.1107 46.783ZM67.1166 80.8778C67.1038 80.8778 67.0782 80.8778 67.0654 80.8778C67.0654 83.8075 67.027 86.75 67.0782 89.6798C67.1038 91.3301 66.9758 92.7758 64.8265 92.827C62.626 92.8653 62.5364 91.3813 62.5364 89.7565C62.562 84.1529 62.3958 78.5494 62.6388 72.9586C62.754 70.3871 61.7432 69.6195 59.4787 69.2612C52.5446 68.1866 45.6361 66.9712 38.7276 65.7686C35.542 65.2057 35.3885 65.3208 35.9003 68.5704C38.4718 84.8438 53.3635 95.7183 69.7904 93.3131C82.4304 91.4581 93.4329 79.6752 94.2261 67.2399C94.3156 65.7814 94.2005 65.065 92.4605 65.3848C84.5925 66.7921 76.7245 68.1482 68.8437 69.4659C67.5387 69.6834 67.0782 70.2463 67.1166 71.5641C67.1678 74.6601 67.1166 77.769 67.1166 80.8778ZM62.6004 53.1414C62.6004 52.3354 62.6004 51.5422 62.6004 50.7362C62.5876 46.9365 61.8711 46.1049 58.0587 45.8235C55.5639 45.6444 53.0947 45.9898 50.6768 46.6167C49.1927 47.0005 48.2461 46.7062 48.0798 44.9919C48.0158 44.2882 47.747 43.6102 47.6447 42.9065C47.4144 41.2434 46.826 41.2178 45.649 42.2796C39.9303 47.4354 36.5783 53.781 35.6956 61.4572C35.4525 63.5169 36.1689 63.8368 38.0367 63.4914C44.1392 62.3527 50.2547 61.2653 56.3956 60.293C62.5749 59.3207 62.5876 59.3846 62.6004 53.1414ZM106.086 65.2952C102.094 65.2952 102.043 65.2825 101.506 69.2612C101.02 72.8051 100.111 76.2209 98.8445 79.5601C96.8359 84.8694 96.8488 84.831 102.133 87.2874C103.271 87.8247 103.808 87.6968 104.422 86.5837C107.749 80.5835 109.668 74.174 110.129 67.3294C110.231 65.8582 109.77 65.1417 108.209 65.2952C107.519 65.3592 106.802 65.308 106.086 65.2952ZM105.996 64.0031C110.372 63.8752 110.436 65.001 109.988 59.7045C109.553 54.5359 108.133 49.5848 105.907 44.8895C103.86 40.5653 103.898 40.6805 99.5354 42.5995C97.6804 43.4183 97.4757 44.2371 98.2817 45.977C100.354 50.4419 101.403 55.2139 101.813 60.1139C102.145 64.0159 102.107 64.0159 105.996 64.0031ZM24.0278 63.8496C26.561 64.5532 27.3669 63.2227 27.4948 60.3569C27.6995 55.9048 29.0173 51.6317 30.706 47.4994C32.318 43.559 32.2669 43.6741 28.5568 41.6272C26.7401 40.6293 25.9852 41.077 25.1281 42.7402C22.3902 48.1007 20.5991 53.7043 19.9978 59.7045C19.5629 63.8752 19.4989 63.8624 24.0278 63.8496ZM95.2496 42.4843C95.0321 42.0494 94.7635 41.4864 94.4692 40.9491C91.4499 35.563 87.4839 30.9446 83.2621 26.4668C81.0871 24.164 79.2193 23.8058 76.3791 25.0979C74.4345 25.9807 74.895 26.4028 75.9696 27.5287C80.1659 31.9169 83.6841 36.7912 86.5115 42.1645C86.9209 42.9449 87.5351 43.5974 88.0212 44.3394C88.6481 45.2989 89.4413 45.5676 90.5287 45.1198C91.7569 44.6081 93.0107 44.1731 94.2517 43.6869C94.7378 43.4822 95.3008 43.3287 95.2496 42.4843ZM23.9127 65.065C19.5629 65.0778 19.6268 65.0778 20.0234 69.0566C20.5224 74.2507 21.9297 79.1635 24.1685 83.8587C26.2027 88.1189 26.1771 87.991 30.4118 85.9952C32.1901 85.1508 32.2286 84.3832 31.4354 82.784C29.2093 78.2935 27.7123 73.4959 27.482 68.5064C27.3413 65.4871 26.2795 64.5148 23.9127 65.065ZM54.6557 26.147C54.515 25.8783 54.4636 25.712 54.3485 25.5841C53.2994 24.3687 49.3718 24.1768 48.1565 25.2898C43.474 29.5629 39.4312 34.3604 36.1305 39.7593C33.93 43.3543 33.495 42.8426 37.7297 44.4545C41.2607 45.7979 41.2991 45.7723 43.0006 42.446C45.8024 36.9703 49.2951 31.968 53.4914 27.4775C53.9008 27.0297 54.2847 26.5692 54.6557 26.147ZM80.5498 21.5285C69.944 17.8184 59.6579 17.8568 49.0137 21.6948C56.9329 27.1321 73.91 27.0425 80.5498 21.5285ZM80.9207 106.836C71.8757 101.284 55.1034 101.347 48.8089 106.798C59.4276 110.7 69.9055 110.891 80.9207 106.836ZM40.1989 83.1934C39.0347 83.6412 37.8193 84.2297 36.54 84.5623C34.5314 85.0997 34.2627 85.8801 35.4141 87.6968C39.0475 93.4411 43.4485 98.4945 48.4252 103.087C49.4487 104.034 52.7367 103.791 53.6962 102.78C54.2335 102.205 53.8369 101.846 53.4914 101.45C49.0521 96.3452 45.2395 90.8184 42.2458 84.7286C41.8876 83.9738 41.3887 83.1295 40.1989 83.1934ZM89.6716 83.1678C88.4051 83.2574 87.9444 84.2425 87.5222 85.0485C84.4006 91.0998 80.3451 96.4731 75.6754 101.399C75.33 101.77 74.7542 102.064 74.9973 102.691C75.2916 103.458 79.9229 104.405 80.5498 103.778C85.8464 98.5969 90.5287 92.9293 94.1876 86.4558C94.5075 85.8801 94.853 85.2148 94.0725 84.8694C92.6269 84.2169 91.1045 83.7052 89.6716 83.1678ZM96.9895 85.9824C95.8893 85.8033 95.659 86.4558 95.3647 86.9675C91.8465 93.1852 87.4199 98.712 82.4432 103.804C82.0083 104.252 81.0742 104.674 81.8546 105.505C82.4048 106.094 83.0956 105.979 83.8121 105.646C91.3091 102.166 97.3733 96.9977 102.107 90.2299C102.478 89.7053 102.926 89.0785 102.171 88.6435C100.405 87.6584 98.5631 86.7884 96.9895 85.9824ZM31.4225 63.7728C33.8789 64.3997 34.6593 63.2867 34.7745 60.8815C34.9536 57.2097 36.1562 53.7427 37.8321 50.4675C39.8535 46.5015 39.8152 46.5911 35.6317 44.8639C33.9685 44.1731 33.3159 44.5569 32.6379 46.1049C30.5525 50.8641 29.1069 55.7513 28.5568 60.9454C28.3137 63.3378 28.9534 64.3229 31.4225 63.7728ZM31.7936 65.0394C28.3777 65.0394 28.3904 65.0394 28.6207 68.1482C28.9277 72.1654 29.9385 76.0035 31.4097 79.7264C33.3544 84.6391 33.3415 84.5879 38.2286 82.6945C39.6871 82.1316 39.9686 81.6582 39.0731 80.2765C36.6423 76.5024 35.1071 72.3189 34.7873 67.8412C34.6337 65.4871 33.6871 64.6812 31.7936 65.0394ZM32.1901 86.3662C31.0387 86.9419 29.7849 87.62 28.4928 88.1957C27.303 88.733 27.1623 89.2959 27.9555 90.3962C32.5484 96.8058 38.3438 101.782 45.393 105.313C46.2886 105.761 47.2098 105.876 47.7599 104.981C48.2845 104.136 47.261 103.791 46.8004 103.356C41.8365 98.6097 37.41 93.4283 33.8534 87.5304C33.4951 86.9547 33.2776 86.1743 32.1901 86.3662ZM48.1308 23.8825C47.8238 23.294 47.7727 22.9998 47.5936 22.8846C46.8644 22.3729 46.2502 22.8718 45.6234 23.1789C39.3545 26.2109 33.994 30.4072 29.7209 35.9085C26.5353 40.0024 26.1643 39.0685 31.1922 41.7295C32.4715 42.4076 33.1496 42.318 33.9172 40.9619C37.4227 34.8082 41.862 29.3965 47.0434 24.5606C47.3633 24.2535 47.7982 24.0872 48.1308 23.8825ZM82.8526 22.488C82.5839 22.5904 82.1234 22.6415 81.9827 22.8718C81.5349 23.6522 82.3281 23.9465 82.7375 24.3175C87.4839 28.6545 91.5138 33.58 94.8401 39.0813C97.0406 42.7274 97.015 42.6251 100.93 40.6805C102.747 39.7721 102.695 39.0173 101.595 37.546C96.9895 31.3923 91.3219 26.5564 84.4133 23.1917C83.9272 22.9486 83.4411 22.7439 82.8526 22.488ZM100.572 60.536C100.431 56.5061 99.4715 52.6424 98.141 48.8683C96.4266 43.9556 96.4138 43.994 91.6035 45.9002C90.2985 46.412 89.9659 46.8469 90.7975 48.1519C93.5609 52.4889 95.0961 57.2737 95.4159 62.4167C95.4799 63.5041 95.8509 63.9391 96.9895 64.0415C100.533 64.3485 100.789 64.1566 100.572 60.536ZM46.0072 40.0024C51.2142 36.5481 56.7665 34.3093 62.9841 33.8743C63.675 33.8231 64.174 33.4777 64.1612 32.6973C64.1356 31.0213 64.4683 29.2046 63.931 27.695C63.4321 26.3005 61.5513 27.1833 60.3359 26.7994C60.0033 26.6971 59.6452 26.5947 59.2998 26.5947C58.1995 26.5947 57.0352 25.776 56.0117 26.7611C51.9818 30.6119 48.6299 34.9873 46.0072 40.0024ZM46.1095 88.6179C47.7215 91.9442 49.8708 94.81 51.9561 97.7525C54.2334 100.964 56.7025 103.126 60.9244 101.475C61.3978 101.296 61.9735 101.36 62.5108 101.386C63.7901 101.437 64.238 100.797 64.1868 99.5948C64.1484 98.5329 64.1484 97.471 64.174 96.4092C64.1996 95.3729 63.8925 94.7844 62.7155 94.6692C56.6898 94.1319 51.1758 92.1233 46.1095 88.6179ZM83.697 89.104C83.4539 88.9761 83.2364 88.8098 83.1724 88.8482C78.1829 92.328 72.6689 94.3238 66.5792 94.7332C65.9907 94.7716 65.6709 95.0403 65.4662 95.6415C64.3275 99.1086 65.5942 101.194 69.2019 101.731C69.9951 101.846 70.8011 101.885 71.5687 102.102C72.4387 102.345 73.0911 102.179 73.718 101.527C77.4537 97.7141 80.8952 93.6841 83.697 89.104ZM83.134 39.3755C81.5604 36.2539 79.3728 33.6184 77.3386 30.855C74.7927 27.3879 71.9014 25.648 67.4492 26.8762C65.9524 27.2856 65.2614 27.6182 65.3893 29.179C65.4789 30.1514 65.4789 31.1365 65.4021 32.1088C65.2998 33.3625 65.8244 33.8359 67.0654 33.8999C72.8864 34.2709 78.1317 36.2795 83.134 39.3755ZM97.9746 65.3336C96.2219 65.001 95.4542 65.5639 95.2879 67.4957C94.9296 71.5897 93.6759 75.4661 91.6417 79.0611C89.953 82.0676 90.0171 81.9524 93.3434 83.3214C95.0961 84.0378 95.8253 83.6028 96.529 81.978C98.4736 77.4747 99.868 72.8562 100.495 67.9691C100.751 65.8965 100.188 64.8859 97.9746 65.3336ZM90.6055 64.7963C90.6311 64.566 90.6438 64.3229 90.6694 64.0927C83.3387 62.9284 76.0081 61.777 68.6774 60.6128C67.4876 60.4209 67.1933 60.9071 67.1038 62.0457C66.9375 64.0287 67.4492 65.0394 69.6753 64.8091C71.3385 64.6428 73.0399 64.7963 74.7287 64.7963C80.0252 64.7963 85.3218 64.7963 90.6055 64.7963ZM39.0859 64.4381C39.4825 64.8986 39.572 65.1161 39.6999 65.1417C46.8515 66.3315 54.0032 67.5085 61.1676 68.6727C62.5109 68.8902 62.6004 67.9947 62.5748 67.048C62.5364 65.871 62.9458 64.4253 60.9372 64.4253C53.76 64.4381 46.6085 64.4381 39.0859 64.4381Z" fill="black"/>
<path d="M53.0437 10.0271C52.6599 11.0633 52.9157 11.8054 53.1076 12.573C53.2739 13.2382 55.0522 12.7521 54.195 13.7756C53.453 14.6583 52.1353 15.0805 51.0478 15.6562C50.9327 15.7202 50.5489 15.4771 50.4338 15.298C50.2547 15.0037 50.1523 14.556 50.5873 14.3897C52.2121 13.7628 51.8794 11.9845 51.3293 11.5367C49.5382 10.1166 51.1246 8.63256 50.8559 7.23806C50.7664 6.77749 50.856 6.3553 51.4445 6.26575C52.0458 6.18899 52.2505 6.57279 52.2505 7.04615C52.2761 8.61976 53.2356 9.11871 54.5917 9.22106C55.0139 8.79887 54.6813 8.37668 54.6429 7.96729C54.6045 7.50672 54.5788 7.05895 55.1673 6.93101C55.7814 6.79028 55.9094 7.21247 56.0117 7.67304C56.1141 8.17199 56.1142 8.88843 56.8818 8.65814C57.547 8.46624 57.2399 7.78818 57.2911 7.28923C57.3551 6.58559 56.6259 5.48534 57.8029 5.30623C58.8647 5.13992 58.5448 6.27854 58.6727 6.89263C58.8519 7.72421 59.2997 7.91612 60.0033 7.53231C61.0652 6.94381 62.0759 6.87984 61.7688 8.41507C61.4618 9.9247 64.0077 12.2403 60.6686 12.9184C58.4297 13.3662 58.4169 13.2894 57.726 10.8203C57.6365 10.4876 57.4958 10.1294 56.8049 10.219C56.2548 11.8054 56.3445 13.6988 57.5343 14.6839C58.7496 15.6946 60.6047 15.234 61.8329 13.9675C62.3318 13.4557 62.7668 12.9824 63.2914 13.6348C63.8159 14.3001 63.5088 15.1701 62.7796 15.4131C60.8478 16.0656 58.8263 16.4622 56.7793 16.2191C55.6023 16.0784 55.6408 15.0037 55.6024 14.1338C55.5385 12.3683 54.8988 10.9482 53.0437 10.0271Z" fill="black"/>
<path d="M81.2028 7.60904C79.9362 8.04403 78.7335 7.28921 77.5565 8.15917C78.7719 9.69439 80.8189 8.79885 82.239 10.0142C80.8829 10.6795 79.8338 9.79674 78.7464 9.89909C78.2602 9.95026 77.5693 9.63043 77.4414 10.3597C77.3007 11.1145 78.0427 11.0505 78.516 11.1912C79.2325 11.3959 80.3328 11.1017 80.3968 12.2019C80.4608 13.1359 80.4606 14.5943 79.6291 14.8374C78.209 15.2468 78.6824 13.8651 78.5801 13.0719C78.3881 11.4983 76.9425 12.0228 76.047 11.7414C75.2793 11.4983 74.2815 11.2296 73.8465 12.4834C73.6418 13.0591 73.9744 14.0826 72.8614 14.0698C72.2729 14.057 72.1065 13.5069 72.3496 13.1103C72.8485 12.2915 71.9914 10.7691 73.6161 10.5516C74.2047 10.4748 74.8059 10.5388 75.6247 10.5388C74.9722 8.85002 73.6418 9.14427 72.6822 9.13148C71.646 9.10589 71.71 10.2573 71.5948 10.9865C71.3645 12.3171 70.9935 13.5836 70.2642 14.7223C69.9572 15.2084 69.6118 15.8993 68.8058 15.3491C68.1661 14.9142 68.4731 14.4664 68.793 14.0186C70.0723 12.2147 70.469 10.1294 70.6097 7.98006C70.712 6.36807 71.2237 5.60046 73.0788 5.97147C74.985 6.35528 76.9553 6.35528 78.9127 6.49601C79.7699 6.53439 80.7294 6.3169 81.2028 7.60904Z" fill="black"/>
<path d="M29.1454 26.3389C28.8639 27.0425 28.3523 27.2728 27.7894 27.5927C25.5633 28.8976 25.5504 29.6012 27.4055 31.2644C27.9556 31.7634 29.3629 32.032 28.4034 33.2218C27.4439 34.3988 26.8682 33.0683 26.2796 32.6461C24.1559 31.1493 23.5546 31.3156 22.9405 34.1046C22.6079 35.627 22.045 35.6142 21.0343 34.7698C20.561 34.3732 20.1132 33.9127 19.5758 33.6312C17.8231 32.6973 18.0278 31.7122 19.2432 30.42C20.0748 29.5373 21.4309 28.4882 19.4479 27.2856C18.9874 27.0042 19.192 26.4796 19.5374 26.147C19.7677 25.9295 20.2795 25.6224 20.3434 25.6736C22.5183 27.7974 23.0301 25.3282 24.0792 24.3559C24.5781 23.8953 24.8212 22.616 25.8447 23.4859C26.9578 24.4199 28.3906 25.0339 29.1454 26.3389ZM23.4395 30.7399C23.1197 30.0746 22.6335 29.4093 21.9682 29.4349C20.9192 29.4861 20.3434 30.4456 20.1771 31.354C20.0364 32.1216 20.8552 32.6973 21.4949 32.6973C22.5951 32.6973 22.8382 31.5587 23.4395 30.7399ZM24.6933 28.8464C25.6272 28.4242 26.3052 27.6438 26.4076 26.7099C26.4843 26.0446 25.6527 25.341 24.9747 25.4689C24.0024 25.648 23.3371 26.5692 23.2348 27.5031C23.158 28.2323 23.9768 28.5906 24.6933 28.8464Z" fill="black"/>
<path d="M39.3549 10.9353C39.9178 10.8202 40.1354 11.2551 40.3657 11.6134C41.9265 13.9802 43.4617 16.3726 45.0481 18.7266C45.6622 19.6477 45.419 20.1083 44.4339 20.4921C41.4658 21.6563 38.7537 23.2171 36.6811 25.7119C36.0031 26.5307 35.5041 26.1596 35.0435 25.4432C33.5083 23.0508 31.973 20.6584 30.3994 18.3044C29.9133 17.5752 29.8494 17.0634 30.6426 16.5517C33.406 14.7734 36.1438 12.9567 38.8944 11.1656C39.0223 11.076 39.1886 11.0121 39.3549 10.9353ZM43.2058 19.2127C43.0906 18.9057 43.0651 18.7266 42.9628 18.5859C41.6195 16.6284 40.6216 14.1721 38.7921 12.9311C37.7174 12.2019 35.9519 14.5175 34.4166 15.3107C33.8665 15.5922 33.3804 15.9888 32.8559 16.3086C31.9731 16.8587 31.7427 17.3961 32.3057 18.4707C35.5296 24.5349 35.7216 24.6116 41.3124 20.8247C41.7474 20.5305 42.2079 20.249 42.6173 19.9164C42.8604 19.7117 43.0395 19.4174 43.2058 19.2127Z" fill="black"/>
<path d="M98.8192 18.9057C97.3863 18.829 96.478 18.0997 95.5441 17.5496C93.6634 16.4494 93.3692 17.524 93.4459 19.0209C93.5355 20.4921 94.2775 21.6947 95.173 22.8333C95.4673 23.2172 96.5164 23.5242 95.5697 24.2278C94.9684 24.6756 94.3543 24.7908 93.7658 23.9848C92.9086 22.8078 92.269 21.554 92.0387 20.1467C91.8596 19.0848 91.5142 18.7906 90.4523 19.2512C89.0578 19.8652 87.548 19.9932 86.0128 19.9548C85.2452 19.9292 84.7719 19.571 84.7847 18.8673C84.8103 17.9974 85.5268 18.4452 85.9874 18.4068C86.7806 18.3428 87.5737 18.3044 88.3541 18.1509C89.6975 17.8822 91.2199 17.3705 91.4246 16.0144C91.6037 14.863 89.8637 14.863 89.0961 14.1849C88.5716 13.7243 87.4074 13.8651 87.676 12.6113C88.5844 12.2403 89.1601 12.9695 89.8126 13.2894C91.2967 14.0058 92.7934 15.3747 93.7402 12.6625C93.9704 12.01 94.5334 12.1251 95.0707 12.3938C95.6592 12.6881 95.8766 13.1358 95.4545 13.6604C93.7529 15.7969 95.5441 16.283 96.9642 17.0379C97.655 17.4089 98.6401 17.5752 98.8192 18.9057Z" fill="black"/>
<path d="M106.265 29.9211C105.907 28.3475 104.116 27.9893 104.129 26.7227C105.83 28.1556 107.647 29.678 109.477 31.226C108.568 32.3774 107.494 31.1493 106.56 31.9169C107.558 33.0939 108.53 34.2453 109.822 35.7677C107.813 35.7805 107.442 34.4244 106.649 33.6824C105.869 32.9532 105.267 31.9169 104.129 33.209C103.553 33.8615 102.888 33.7847 102.299 33.1834C101.877 32.7613 101.225 32.4414 101.442 31.6738C101.813 30.3433 102.542 31.5331 103.093 31.4435C104.18 31.2516 103.809 30.6503 103.374 30.1386C102.376 28.9616 101.327 27.8357 100.495 26.4796C102.977 26.6843 103.336 30.1897 106.265 29.9211Z" fill="black"/>
<path d="M19.8065 95.1937C20.8556 94.5668 21.9047 93.9399 22.9538 93.3131C23.3888 93.0572 23.8493 92.5327 24.297 93.1723C24.7576 93.8248 24.1436 94.0807 23.6958 94.3621C22.0326 95.36 20.3696 96.3835 18.6808 97.3558C18.2586 97.5989 17.8107 98.1362 17.2862 97.6117C16.7745 97.1128 16.8513 96.5243 17.1839 95.9102C17.9643 94.4645 18.7064 92.9932 19.1542 91.151C18.1435 91.7267 17.1328 92.3152 16.1093 92.8653C15.6231 93.134 15.0345 93.8248 14.5612 92.9676C14.2029 92.3152 14.945 92.0849 15.3544 91.829C16.9408 90.8567 18.5399 89.91 20.1391 88.9633C20.5741 88.7074 21.0604 88.234 21.5594 88.6818C22.1095 89.168 21.9431 89.8204 21.6488 90.3961C20.8812 91.8546 20.0881 93.3003 19.3077 94.7587C19.4868 94.9123 19.653 95.053 19.8065 95.1937Z" fill="black"/>
<path d="M39.1247 116.917C37.2696 115.996 38.0116 114.563 37.7557 113.463C37.5638 112.67 37.5254 111.736 36.6298 111.531C35.7471 111.314 35.6191 112.337 35.1714 112.836C34.7748 113.284 34.6725 114.448 33.6874 113.706C32.9454 113.143 33.777 112.606 34.0201 112.132C34.5062 111.186 35.1202 110.316 35.6575 109.407C37.3335 106.567 39.6876 106.503 41.6578 109.267C42.5405 110.508 42.2846 112.184 41.0053 112.337C38.3442 112.657 39.2654 114.269 39.2654 115.663C39.2782 115.97 39.2014 116.316 39.1247 116.917ZM38.4082 108.384C37.487 108.499 37.0521 109.228 37.1416 109.855C37.3079 111.083 38.4593 111.378 39.5084 111.506C40.2248 111.595 40.7366 111.083 40.647 110.367C40.4551 109.126 39.2525 108.908 38.4082 108.384Z" fill="black"/>
<path d="M103.694 97.7141C105.869 97.7013 108.261 100.03 108.248 102.141C108.235 104.226 106.368 106.055 104.295 106.017C102.043 105.966 99.8557 103.714 99.9069 101.475C99.9581 99.518 101.762 97.7269 103.694 97.7141ZM103.54 99.0063C102.274 99.0063 101.225 100.081 101.225 101.386C101.225 102.934 103.182 104.815 104.73 104.699C106.048 104.597 106.815 103.817 106.918 102.499C107.033 101.028 105.024 99.0063 103.54 99.0063Z" fill="black"/>
<path d="M74.5244 114.154C76.8529 114.192 78.3626 115.983 78.3242 118.683C78.2987 121.037 76.8146 122.521 74.4734 122.533C72.0298 122.559 70.4689 120.678 70.5585 117.851C70.6352 115.523 72.132 114.115 74.5244 114.154ZM76.9681 118.657C76.8017 117.019 76.3795 115.382 74.3837 115.28C72.8741 115.19 71.9401 116.226 71.9529 117.813C71.9657 119.629 72.4776 121.305 74.6141 121.369C76.1621 121.408 76.8785 120.218 76.9681 118.657Z" fill="black"/>
<path d="M110.525 28.5138C111.331 28.4115 111.958 28.2324 112.559 28.258C113.301 28.2836 113.673 29.3838 113.404 29.4222C110.589 29.742 112.253 30.9062 112.687 32.0704C112.879 32.5694 111.997 33.3498 111.267 33.3242C110.577 33.2986 110.461 32.7613 110.512 31.9809C110.602 30.5224 105.843 25.1363 104.461 25.1363C103.873 25.1363 103.438 25.2259 103.207 24.663C103.003 24.1512 103.463 23.8826 103.77 23.5883C104.18 23.2045 104.615 22.8719 105.114 23.4348C105.907 24.3431 106.611 25.1875 107.097 23.1917C107.186 22.8079 107.711 23.1022 107.967 23.3069C108.581 23.793 108.35 24.4327 108.197 25.0084C107.724 26.7611 108.977 28.5266 110.525 28.5138Z" fill="black"/>
<path d="M44.524 119.284C43.6668 119.156 42.5666 118.798 41.8374 117.8C41.364 117.16 40.7754 116.175 41.5686 115.689C42.5409 115.075 42.5026 116.278 42.7713 116.841C43.1935 117.736 43.9354 118.158 44.9205 118.082C45.3811 118.043 45.8289 117.826 45.9441 117.365C46.2255 116.239 45.2277 115.868 44.588 115.318C43.6413 114.499 42.5538 113.77 43.0399 112.248C43.3086 111.416 43.8971 110.917 44.8054 110.866C46.2255 110.802 47.441 111.237 48.2598 112.452C48.554 112.875 48.8098 113.527 48.3109 113.898C47.7607 114.307 47.3259 113.898 47.1468 113.322C46.9804 112.759 46.6222 112.414 46.136 112.158C45.5347 111.838 44.9078 111.749 44.4856 112.376C44.1018 112.939 44.5495 113.374 44.9461 113.732C45.5346 114.269 46.2128 114.717 46.7757 115.28C47.5433 116.035 47.7352 116.994 47.249 117.966C46.7501 118.913 45.9313 119.412 44.524 119.284Z" fill="black"/>
<path d="M31.7041 111.838C29.9002 110.955 28.1603 110.022 27.1112 108.269C26.9449 108 31.7296 102.333 31.9727 102.448C33.687 103.279 35.1199 104.469 36.4888 106.209C34.7873 106.516 34.2755 105.237 33.4184 104.687C32.7531 104.252 32.2415 103.919 31.6018 104.661C30.9493 105.429 31.4993 105.825 31.9727 106.427C32.5612 107.169 34.4931 107.488 33.6615 108.499C32.9195 109.382 32.0367 107.693 31.2179 107.169C30.4503 106.682 30.0025 106.734 29.4268 107.386C28.7487 108.154 28.7999 108.704 29.6059 109.356C30.4247 110.034 31.5889 110.444 31.7041 111.838Z" fill="black"/>
<path d="M14.8294 89.4365C12.8208 89.462 12.1682 88.5665 11.6821 87.4535C11.1447 86.2381 10.889 84.8564 12.1043 84.0888C13.7163 83.0525 15.5713 82.3744 17.3241 81.5812C17.7974 81.3637 18.2069 81.5172 18.3604 82.0418C18.4884 82.464 18.1429 82.6815 17.8358 82.8222C16.5437 83.3979 15.2515 83.948 13.9594 84.5109C12.8463 84.9971 12.1938 85.7647 12.7695 87.0057C13.3452 88.2594 14.3304 88.2339 15.4434 87.7477C16.6588 87.2104 17.887 86.7114 19.0896 86.1869C19.5118 86.0078 19.9211 85.8287 20.1898 86.3916C20.3689 86.7754 20.2154 87.1208 19.87 87.2744C18.0149 88.0803 16.1471 88.8735 14.8294 89.4365Z" fill="black"/>
<path d="M31.8324 101.284C29.133 103.126 26.715 104.009 24.3482 104.93C23.1072 105.416 22.4035 104.674 23.0176 103.369C23.9132 101.437 24.9367 99.5693 25.9474 97.6886C26.1265 97.356 26.28 96.7291 26.8557 96.9594C27.5082 97.2153 27.4314 97.791 27.1627 98.3027C26.3951 99.7868 25.6148 101.271 24.7065 102.998C27.1884 103.139 28.7747 100.734 31.8324 101.284Z" fill="black"/>
<path d="M70.8015 15.5026C72.9636 15.4642 74.6523 15.17 75.3431 13.1486C75.599 12.3938 76.7761 12.5985 76.6865 13.0846C76.2004 15.6817 78.5288 15.413 79.7058 16.283C80.0128 16.5133 80.678 16.4749 80.4221 17.1146C80.2558 17.5496 79.7698 17.9334 79.3987 17.5879C77.0191 15.4002 74.2429 16.0783 71.5179 16.3853C71.4283 16.3981 71.3133 16.1423 70.8015 15.5026Z" fill="black"/>
<path d="M26.0368 95.7311C25.8449 95.9614 25.7041 96.2045 25.5122 96.358C23.849 97.6629 22.173 98.9551 20.497 100.247C20.1388 100.529 19.755 100.797 19.3712 100.324C19.0002 99.8762 19.2562 99.5052 19.6272 99.211C21.2903 97.906 22.9534 96.6011 24.655 95.3345C24.898 95.1554 25.2946 95.0914 25.5889 95.1298C25.7424 95.1682 25.8704 95.5136 26.0368 95.7311Z" fill="black"/>
<path d="M49.3468 120.819C48.9502 120.794 48.5664 120.589 48.6687 120.205C49.2828 117.915 49.9353 115.651 50.6134 113.386C50.6646 113.233 51.0483 113.066 51.2274 113.117C51.4066 113.156 51.6752 113.501 51.6368 113.642C51.0227 115.932 50.3704 118.197 49.7051 120.474C49.6795 120.614 49.4748 120.704 49.3468 120.819Z" fill="black"/>
<path d="M38.8048 13.8908C38.9839 15.2597 37.8068 15.2213 37.423 15.8354C37.0648 16.4239 37.4615 17.1915 37.8581 16.8973C40.4424 15.0038 40.4808 18.3429 42.6429 18.6244C40.1354 20.2492 38.2034 21.4901 36.1437 22.8335C35.6703 21.1575 38.5489 21.2343 37.2567 19.6223C36.3356 18.4581 35.6192 20.2876 34.7236 19.9165C34.3142 18.6884 36.6171 18.7139 35.8494 17.6393C35.0435 16.5135 34.2631 18.4709 32.9837 17.8312C34.762 16.1424 36.7579 15.1062 38.8048 13.8908Z" fill="black"/>
</svg>
