<svg width="129" height="129" viewBox="0 0 129 129" fill="none" xmlns="http://www.w3.org/2000/svg">
<path d="M48.0197 126.212C47.9057 126.263 45.1064 125.364 45.005 125.338C44.511 125.212 44.0297 125.085 43.5484 124.92C33.9722 121.665 25.5994 116.472 18.468 109.302C13.6292 104.451 9.67719 98.9534 6.61181 92.8227C3.66044 86.9199 1.65905 80.7258 0.6457 74.2151C0.417697 72.771 0.215092 71.327 -0.000244141 69.8703C-0.000244141 66.1209 -0.000244141 62.3589 -0.000244141 58.6095C0.0884238 58.1282 0.202364 57.6342 0.253031 57.1528C0.633036 53.3528 1.39306 49.616 2.48241 45.9553C6.09246 33.9092 12.6792 23.7883 22.192 15.5549C27.3221 11.1088 33.0349 7.60012 39.3049 4.99075C45.195 2.53338 51.3258 0.975355 57.6972 0.39268C59.0906 0.266011 60.4839 0.139343 61.8773 7.62939e-06C63.2326 7.62939e-06 64.588 7.62939e-06 65.9434 7.62939e-06C67.3747 0.126676 68.8187 0.253345 70.25 0.39268C75.5194 0.87402 80.6368 2.0267 85.6022 3.81273C91.3783 5.89009 96.7618 8.72747 101.702 12.3629C109.948 18.4176 116.421 25.9924 121.082 35.0998C124.401 41.5979 126.516 48.4634 127.492 55.6961C128.201 60.9402 128.264 66.197 127.644 71.441C126.225 83.3352 121.88 94.0514 114.521 103.513C108.58 111.139 101.271 117.118 92.645 121.462C86.5269 124.54 80.0669 126.58 73.2774 127.53C72.1374 127.694 71.0101 127.884 69.87 128.062C65.9307 128.062 62.0039 128.062 58.0645 128.062C57.9125 128.024 57.7606 127.973 57.6085 127.948C55.3158 127.58 53.0232 127.2 50.7305 126.871C50.1225 126.782 50.3884 126.846 49.1344 126.542L48.0197 126.212ZM63.8787 124.92C97.9651 124.781 124.325 97.4081 124.68 64.8669C125.047 31.3125 98.1298 3.66073 64.4106 3.43272C30.2735 3.20472 3.5971 30.6791 3.20443 63.3849C2.79909 96.9014 29.6528 124.73 63.8787 124.92Z" fill="black"/>
<path d="M86.6409 25.8531C87.1855 26.1951 87.6923 26.5117 88.1103 26.7777C88.2623 27.4744 86.8436 27.8544 87.9456 28.5384C88.2876 28.7411 88.7309 29.0831 89.0222 28.9944C89.3516 28.8804 89.5669 28.3864 89.8709 27.9938C90.3902 28.3864 90.8716 28.7538 91.3149 29.0958C91.0363 29.5898 90.5423 30.0965 90.6436 30.4131C90.783 30.8565 91.3783 31.1605 91.8216 31.5531C92.2143 31.1478 92.5436 30.7931 92.8983 30.4131C93.0123 30.5018 93.1009 30.5525 93.1896 30.6285C93.5569 30.9578 93.9117 31.2998 94.3297 31.6925C93.9877 32.0598 93.6836 32.4018 93.291 32.8198C93.6583 33.1998 94.0003 33.5798 94.393 33.8965C94.4816 33.9725 94.7983 33.9218 94.887 33.8205C95.1277 33.5545 95.3177 33.2378 95.5584 32.8832C96.1664 33.5292 96.5717 33.9725 96.9644 34.3905C96.9264 34.4919 96.9137 34.5425 96.8884 34.5679C95.7737 35.6572 95.7737 35.7079 97.1164 36.8479C97.4711 36.5692 97.8384 36.2905 98.2944 35.9359C98.6871 36.4299 99.067 36.9112 99.4597 37.4052C99.3584 37.5066 99.3077 37.5826 99.2444 37.6332C98.2184 38.4566 98.2184 38.4566 99.0164 39.5079C99.0924 39.6093 99.1937 39.7106 99.3331 39.8626C99.7384 39.5966 100.156 39.3433 100.625 39.0393C100.967 39.5713 101.296 40.0779 101.626 40.5973C101.208 40.9393 100.701 41.2053 100.498 41.6106C100.397 41.826 100.777 42.3326 101.018 42.662C101.676 43.536 102.056 42.2946 102.74 42.4973C102.968 42.928 103.247 43.46 103.551 44.0427C103.082 44.296 102.677 44.524 102.196 44.7773C102.449 45.322 102.69 45.854 102.956 46.4367C103.462 46.2214 103.918 46.0314 104.412 45.8287C104.666 46.4367 104.894 46.9814 105.109 47.5007C105.033 47.602 105.021 47.6654 104.983 47.678C103.564 48.2861 103.564 48.2861 104.387 49.8947C104.666 49.8061 104.97 49.7427 105.248 49.6161C105.692 49.4007 105.907 49.5527 106.021 50.0087C106.122 50.4141 106.262 50.8194 106.401 51.2374C106.262 51.3134 106.198 51.3641 106.11 51.3894C104.881 51.7821 104.894 51.7821 105.261 53.0361C105.375 53.4035 105.514 53.5048 105.882 53.4288C106.984 53.2008 106.984 53.2135 107.199 54.3281C107.237 54.5435 107.275 54.7588 107.313 54.9741C107.212 55.0248 107.161 55.0628 107.098 55.0882C106.693 55.2148 105.996 55.2782 105.958 55.4808C105.856 55.9875 106.034 56.5702 106.11 57.1782C106.667 57.1148 107.123 57.0642 107.68 57.0008C107.769 57.6215 107.858 58.2042 107.947 58.8502C107.427 58.9389 106.958 59.0149 106.426 59.1035C106.464 59.6102 106.465 60.0916 106.553 60.5729C106.579 60.7122 106.857 60.8642 107.035 60.8769C107.364 60.9022 107.693 60.8389 108.086 60.8009C108.111 61.1429 108.137 61.4342 108.162 61.7129C108.263 62.7263 108.263 62.7389 107.225 62.7769C106.806 62.7896 106.579 62.9289 106.629 63.3723C106.642 63.5116 106.629 63.6383 106.629 63.7776C106.629 64.6643 106.629 64.6643 107.516 64.6896C107.719 64.6896 107.921 64.715 108.225 64.7276C108.2 65.2596 108.225 65.779 108.111 66.273C108.073 66.425 107.668 66.615 107.465 66.577C106.882 66.4883 106.528 66.5136 106.49 67.2483C106.439 68.3757 106.414 68.3883 107.339 68.4897C107.516 68.515 107.693 68.5403 107.972 68.5657C107.909 69.1103 107.896 69.655 107.756 70.1617C107.718 70.2884 107.288 70.3137 107.035 70.377C106.756 70.4277 106.262 70.4024 106.224 70.5164C106.072 70.9977 106.046 71.5171 106.021 72.0237C106.021 72.0744 106.363 72.1504 106.553 72.2011C106.807 72.2644 107.073 72.3151 107.415 72.3911C107.288 72.9991 107.161 73.5817 107.035 74.1771C106.895 74.1898 106.807 74.2151 106.718 74.2024C105.426 73.9744 105.426 73.9744 105.135 75.2411C105.109 75.3678 105.084 75.5071 105.059 75.6971C105.527 75.8618 105.983 76.0138 106.515 76.1911C106.325 76.7991 106.16 77.3691 105.97 77.9518C105.299 77.9771 104.552 77.0398 104.083 78.4078C103.614 79.7758 104.843 79.4085 105.274 79.9278C105.059 80.4598 104.83 81.0045 104.602 81.5492C104.058 81.4099 103.576 81.1565 103.133 81.2199C102.905 81.2452 102.728 81.8279 102.588 82.1825C102.132 83.2972 103.45 82.8792 103.69 83.5379C103.462 83.9812 103.196 84.5259 102.892 85.1339C102.588 84.9692 102.322 84.8552 102.082 84.6906C101.626 84.3739 101.36 84.5006 101.144 84.9692C100.992 85.2986 100.802 85.6026 100.6 85.9699C101.03 86.2613 101.436 86.5273 101.892 86.8186C101.55 87.3633 101.246 87.87 100.942 88.364C100.283 88.3513 99.7131 86.9959 99.0797 88.288C98.9277 88.6046 98.345 88.858 98.8137 89.314C99.0797 89.58 99.409 89.77 99.7637 90.036C99.371 90.568 99.0037 91.0367 98.6871 91.4673C98.0157 91.4167 97.6104 90.074 96.863 91.214C96.6604 91.518 96.3817 91.9487 96.4577 92.2147C96.559 92.544 97.0024 92.7594 97.3697 93.0887C96.9137 93.57 96.5083 94.0134 96.1283 94.4187C96.0017 94.3807 95.951 94.3807 95.9257 94.3554C95.571 94.0894 95.115 93.5194 94.9124 93.608C94.431 93.798 94.0637 94.3047 93.633 94.71C94.013 95.1281 94.317 95.4827 94.7856 96.0147C94.5196 96.2047 94.241 96.3694 94.0003 96.5594C93.7723 96.7367 93.557 96.9394 93.3543 97.1294C92.9236 96.8001 92.569 96.3441 92.1383 96.2427C91.8976 96.1794 91.4543 96.6354 91.201 96.9267C90.517 97.6994 91.733 97.8388 91.6443 98.5988C91.315 98.8521 90.8336 99.2321 90.4282 99.5488C89.9976 99.1688 89.6809 98.7128 89.2629 98.5608C89.0349 98.4848 88.6296 98.9154 88.3129 99.1054C87.9709 99.3081 87.8189 99.5488 88.1229 99.9161C88.3255 100.157 88.4776 100.435 88.7056 100.765C88.1736 101.107 87.6669 101.436 87.0843 101.803C86.8943 101.499 86.7042 101.259 86.5776 100.98C86.3749 100.537 86.1089 100.499 85.7289 100.777C85.4122 100.993 85.0829 101.183 84.6902 101.411C84.9182 101.867 85.1208 102.297 85.3742 102.804C84.8168 103.095 84.2849 103.387 83.7655 103.666C83.4615 103.209 83.2715 102.665 82.8915 102.475C82.6382 102.348 82.0808 102.665 81.7388 102.893C80.9028 103.45 81.9795 103.919 81.7894 104.578C81.3208 104.78 80.7508 105.021 80.2061 105.262C79.9401 104.78 79.7501 104.324 79.4461 103.957C79.3701 103.856 78.9014 104.046 78.6354 104.172C78.3314 104.312 77.7741 104.248 77.9388 104.869C78.0274 105.211 78.1794 105.54 78.3314 105.958C77.7107 106.161 77.1408 106.338 76.5581 106.528C76.3301 106.034 76.2287 105.477 75.8994 105.198C75.7094 105.034 75.1394 105.274 74.7594 105.401C73.708 105.768 74.8101 106.478 74.4047 107.098C73.9487 107.2 73.3534 107.339 72.72 107.478C72.5934 106.946 72.492 106.503 72.378 105.971C71.8333 106.072 71.1747 106.009 70.82 106.313C70.5667 106.541 70.706 107.225 70.6553 107.833C70.1486 107.909 69.5533 107.998 68.882 108.099C68.844 107.833 68.844 107.63 68.7933 107.44C68.7173 107.162 68.6159 106.655 68.5019 106.655C67.9953 106.617 67.476 106.706 66.982 106.82C66.906 106.832 66.8552 107.238 66.9059 107.44C67.0452 108.162 66.7033 108.378 66.0699 108.352C65.7533 108.34 65.4366 108.352 65.1199 108.352C65.0186 107.846 65.0566 107.25 64.7906 106.896C64.6259 106.68 63.9673 106.744 63.5619 106.807C62.6119 106.984 63.4099 107.833 62.9539 108.302C62.4472 108.302 61.8392 108.302 61.1932 108.302C61.1932 108.074 61.1806 107.922 61.1932 107.77C61.2439 106.769 61.2438 106.769 60.2812 106.642C59.4325 106.528 59.3691 106.554 59.3185 107.428C59.2805 107.998 59.0399 108.188 58.4952 108.074C58.1278 107.998 57.7478 107.947 57.3045 107.871C57.3678 107.39 57.4185 106.921 57.4818 106.389C57.0005 106.288 56.5191 106.148 56.0378 106.11C55.8985 106.098 55.6704 106.313 55.6071 106.465C55.4804 106.794 55.4424 107.149 55.3537 107.567C54.7077 107.428 54.1251 107.314 53.5044 107.187C53.5298 107.01 53.5297 106.896 53.5551 106.794C53.8084 105.654 53.5297 105.274 52.3517 105.287C52.187 105.287 51.9464 105.54 51.883 105.718C51.5537 106.68 51.5664 106.68 50.5657 106.364C50.3124 106.288 50.0717 106.199 49.7677 106.085C49.9197 105.591 50.059 105.173 50.2364 104.641C49.7424 104.464 49.2863 104.248 48.7923 104.134C48.6657 104.109 48.3743 104.337 48.311 104.502C47.8676 105.591 48.0577 105.49 46.943 105.046C46.6897 104.945 46.4616 104.831 46.1956 104.704C46.3476 104.21 46.7403 103.577 46.5756 103.324C46.297 102.918 45.651 102.753 45.1063 102.462C44.8403 102.969 44.6123 103.4 44.3463 103.868C43.7762 103.577 43.2316 103.311 42.7376 103.058C42.6236 102.411 43.9663 101.816 42.7249 101.246C42.3829 101.094 42.0536 100.549 41.6102 100.967C41.3316 101.233 41.1796 101.639 40.9263 102.031C40.3689 101.677 39.8622 101.347 39.3302 101.005C39.6089 100.549 39.8496 100.157 40.1409 99.6881C39.6723 99.3714 39.2289 98.8521 38.7856 98.8394C38.4309 98.8268 38.0508 99.4348 37.6202 99.8275C37.1895 99.4981 36.7208 99.1308 36.2268 98.7634C36.5055 98.3074 36.8982 97.9021 36.9362 97.4714C36.9615 97.2181 36.4421 96.8761 36.1128 96.6607C35.1881 96.0401 35.2515 97.3194 34.5802 97.3954C34.2002 97.0534 33.7315 96.6354 33.2502 96.1921C33.6048 95.7867 33.9215 95.4321 34.2635 95.0521C33.8075 94.6467 33.4022 94.2794 32.9335 93.8614C32.6422 94.1147 32.2875 94.4187 31.8948 94.7734C31.4515 94.33 31.0081 93.912 30.5394 93.456C30.9448 93.076 31.2867 92.7467 31.6034 92.4554C31.5907 92.3667 31.6035 92.3033 31.5781 92.278C31.2488 91.8853 30.9701 91.2773 30.5648 91.1633C30.2481 91.0747 29.7541 91.5813 29.2601 91.8727C28.9054 91.4293 28.538 90.9607 28.12 90.4287C28.538 90.0993 28.9181 89.808 29.2601 89.542C29.2474 89.4533 29.2601 89.428 29.2474 89.4026C28.5001 87.9333 28.4621 87.9206 26.9801 88.8073C26.6507 88.3006 26.3087 87.794 25.9667 87.2746C26.3974 86.9326 26.8534 86.6919 27.1067 86.2993C27.208 86.1473 26.8407 85.6786 26.6761 85.3619C26.0807 84.1966 25.574 85.5773 24.89 85.3619C24.662 84.9439 24.3833 84.4119 24.0793 83.8546C24.5353 83.5759 25.08 83.3986 25.2827 83.0312C25.4093 82.7905 25.0674 82.2459 24.852 81.8785C24.3074 80.9665 23.826 82.1319 23.142 81.8405C22.9773 81.4605 22.7367 80.9159 22.458 80.2952C22.9393 80.0798 23.3827 79.8898 23.8893 79.6618C23.6867 79.0918 23.4967 78.5598 23.2814 77.9645C22.7747 78.1165 22.3186 78.2431 21.7866 78.4078C21.5839 77.7998 21.394 77.2171 21.1786 76.6091C21.7106 76.4318 22.154 76.2925 22.5593 76.1531C22.5847 76.0771 22.5973 76.0518 22.5973 76.0265C22.4453 74.4178 22.3566 74.3544 20.6973 74.6838C20.6213 74.3924 20.5326 74.1011 20.4566 73.8098C20.3933 73.5311 20.33 73.2397 20.254 72.8471C21.242 72.7457 22.0526 72.4924 21.5459 71.1877C21.1533 70.149 20.4186 71.1877 19.874 70.7317C19.8106 70.263 19.7346 69.693 19.6333 69.0344C20.14 68.9457 20.5959 68.8697 21.1533 68.7683C21.1026 68.249 21.0773 67.7297 20.9886 67.2103C20.9633 67.109 20.6847 66.995 20.5073 66.9823C20.178 66.9697 19.8486 67.033 19.4433 67.0583C19.4433 66.3996 19.4433 65.8043 19.4433 65.1456C19.6459 65.133 19.8486 65.133 20.0386 65.095C20.3172 65.0316 20.8239 64.9683 20.8366 64.8543C20.9126 64.3476 20.8873 63.8156 20.7733 63.3343C20.7479 63.2203 20.2033 63.1949 19.8993 63.1949C19.4559 63.2076 19.2786 63.0429 19.3419 62.5996C19.3926 62.1943 19.4053 61.7889 19.4433 61.3456C19.9499 61.2949 20.5326 61.3836 20.9 61.1302C21.128 60.9782 21.09 60.3196 21.0393 59.9142C20.9253 59.0022 20.0639 59.6102 19.5699 59.2049C19.5952 59.0275 19.6206 58.7615 19.6586 58.4955C19.7853 57.4188 19.7852 57.4062 20.8366 57.5582C21.1913 57.6089 21.4067 57.5202 21.4447 57.1275C21.4573 56.9755 21.4826 56.8108 21.5206 56.6588C21.6853 55.7975 21.6727 55.7215 20.8113 55.6075C20.2286 55.5315 20.14 55.2782 20.254 54.8095C20.3553 54.4168 20.444 54.0368 20.558 53.6061C21.0646 53.7075 21.5206 53.7961 22.0526 53.9101C22.2046 53.3275 22.3566 52.7701 22.534 52.1621C22.0273 51.9974 21.5586 51.8454 21.0393 51.6808C21.2293 51.0728 21.4066 50.5028 21.584 49.9327C22.1286 50.0214 22.648 50.2241 23.104 50.1354C23.3067 50.0974 23.3826 49.4767 23.5473 49.1347C23.75 48.7167 23.598 48.5141 23.1927 48.3874C22.9013 48.2987 22.6099 48.1594 22.2553 48.0074C22.5086 47.3994 22.7367 46.842 22.9647 46.2974C23.636 46.2847 24.434 47.412 24.814 46.0314C24.9027 45.702 25.384 45.3727 24.9027 45.0307C24.5987 44.8153 24.2314 44.676 23.8133 44.4733C24.1047 43.8907 24.3833 43.3713 24.662 42.8266C25.1687 43.0293 25.6373 43.3713 26.0553 43.3207C26.334 43.2826 26.5874 42.7 26.7521 42.3073C27.1574 41.3446 25.9667 41.6106 25.764 40.9393C26.0173 40.5213 26.334 40.0019 26.6634 39.4699C27.1574 39.7233 27.5754 40.0146 28.0314 40.1033C28.1834 40.1286 28.4368 39.6219 28.6521 39.3559C29.4881 38.3046 28.082 38.3806 27.892 37.7219C28.196 37.3166 28.5507 36.8352 28.9434 36.3032C29.3741 36.6199 29.7667 36.9112 30.1214 37.1772C30.2101 37.1392 30.2355 37.1392 30.2481 37.1266C31.4135 36.0119 31.4134 36.0119 30.2607 34.7705C30.6661 34.3272 31.0715 33.8712 31.5021 33.3898C31.9201 33.7445 32.2748 34.0485 32.5915 34.3272C32.6801 34.3019 32.7054 34.3019 32.7181 34.2892C33.0854 33.9218 33.6554 33.6052 33.7441 33.1745C33.8074 32.8452 33.2755 32.3892 32.9714 31.9078C33.3768 31.5278 33.8075 31.1098 34.2635 30.6918C34.6688 31.0591 34.9855 31.5405 35.4035 31.6418C35.6695 31.7051 36.1129 31.2365 36.4042 30.9325C37.1262 30.1598 35.8849 30.0205 35.9355 29.2858C36.3029 28.9944 36.7968 28.6271 37.1642 28.3358C37.5948 28.7031 37.9749 29.2984 38.3169 29.2731C38.8109 29.2351 39.2669 28.7538 39.7862 28.4371C39.4822 27.9558 39.2289 27.5631 38.9376 27.0817C39.4569 26.7397 39.9636 26.4104 40.5209 26.0431C40.8123 26.4864 41.0782 26.8917 41.3696 27.3478C41.9016 27.0437 42.4083 26.7524 42.9529 26.4357C42.6996 25.9671 42.4842 25.5491 42.2182 25.0551C42.7882 24.7637 43.3329 24.4724 43.8903 24.181C44.1689 24.637 44.3589 25.1057 44.6883 25.3971C44.815 25.4984 45.2837 25.2071 45.6003 25.0931C46.905 24.6117 45.6256 23.9404 45.7903 23.269C46.2843 23.0664 46.8543 22.8257 47.361 22.6104C47.931 22.9904 47.5636 24.3837 48.7923 23.7504C49.1217 23.5857 49.5777 23.3577 49.6411 23.0917C49.7171 22.7497 49.4384 22.3443 49.2864 21.901C49.907 21.711 50.477 21.521 51.0723 21.3437C51.161 21.521 51.2244 21.635 51.2751 21.7617C51.4144 22.0783 51.5284 22.6737 51.6677 22.6864C52.1364 22.699 52.6431 22.547 53.0864 22.3697C53.2004 22.319 53.2004 21.9263 53.213 21.6983C53.2257 21.407 53.1118 20.875 53.2004 20.8497C53.6945 20.6597 54.2391 20.5837 54.7711 20.5077C54.8218 20.495 54.9484 20.7357 54.9864 20.875C55.0624 21.179 55.1131 21.483 55.2017 21.8883C55.7338 21.8123 56.2405 21.7743 56.7345 21.6477C56.8611 21.6223 56.9751 21.3183 56.9751 21.1283C56.9751 20.8243 56.8865 20.5077 56.8105 20.077C57.4565 19.9756 58.0518 19.8743 58.6472 19.7856C58.7865 20.3303 58.7865 21.0397 59.0778 21.1917C59.5085 21.4197 60.1545 21.255 60.6865 21.255C60.7372 20.609 60.6232 19.8616 60.8639 19.7096C61.2819 19.4436 61.9405 19.5576 62.4979 19.507C62.5992 20.0643 62.5739 20.6217 62.8272 20.9637C62.9792 21.179 63.5999 21.103 63.9925 21.065C65.0059 20.951 64.2332 20.0896 64.7146 19.5576C65.1072 19.5576 65.6519 19.545 66.2092 19.5703C66.3106 19.583 66.4499 19.7983 66.4626 19.9376C66.4879 20.1783 66.3739 20.4443 66.4372 20.6723C66.4752 20.8497 66.6652 21.103 66.8299 21.141C68.1219 21.407 68.122 21.3943 68.4007 20.115C68.4133 20.0263 68.4513 19.9503 68.5146 19.773C69.0973 19.8363 69.6927 19.8996 70.3007 19.963C70.402 20.647 69.6673 21.6857 71.0607 21.6857C71.39 21.6857 71.846 22.091 72.036 21.4703C72.1374 21.1283 72.188 20.7737 72.2893 20.3177C72.91 20.4443 73.4927 20.5583 74.0881 20.6723C74.0374 21.217 73.8727 21.749 74.0121 22.1923C74.0881 22.4203 74.7214 22.4964 75.1141 22.5724C76.1908 22.7624 75.532 21.5843 76.3427 21.3057C76.6467 21.3943 77.2167 21.5717 77.8628 21.7617C77.7234 22.281 77.5841 22.7497 77.4574 23.1804C77.4954 23.231 77.5081 23.2564 77.5334 23.269C78.0147 23.459 78.5594 23.8644 78.9648 23.763C79.3068 23.6744 79.5094 23.003 79.8261 22.4963C80.3328 22.6864 80.8901 22.9017 81.4981 23.1424C81.2955 23.649 81.1181 24.105 80.9535 24.523C80.9915 24.5864 81.0041 24.6117 81.0168 24.6244C82.4101 25.4984 82.4102 25.4984 83.3222 24.0037C83.8542 24.2824 84.3988 24.561 84.9688 24.8651C84.7282 25.3591 84.5255 25.7771 84.2975 26.2457C84.8295 26.5624 85.3109 26.8411 85.8555 27.1577C86.0709 26.7144 86.3369 26.3091 86.6409 25.8531ZM63.7392 23.307C41.6862 23.307 23.408 40.9393 23.104 63.3723C22.8 86.5019 41.3442 104.261 63.0425 104.616C85.7162 104.996 104.463 86.7553 104.45 63.7903C104.45 41.5093 86.1722 23.3197 63.7392 23.307Z" fill="black"/>
<path d="M11.8181 65.6649C10.9314 66.7163 10.2475 66.9823 9.32279 66.6529C8.39811 66.3236 7.85339 65.4623 7.85339 64.2969C7.85339 63.3089 7.89146 62.3082 7.91679 61.3202C7.91679 61.2315 7.9421 61.1429 7.96743 60.9782C8.4741 60.9782 8.98079 60.9655 9.48747 60.9782C11.2228 61.0289 12.9582 61.1302 14.7062 61.1555C15.2889 61.1682 15.3776 61.3962 15.3522 61.8902C15.2889 62.8529 15.2888 63.8282 15.2255 64.7909C15.1748 65.5256 14.8202 66.0829 14.1108 66.3363C13.3381 66.6149 12.6415 66.4883 12.0715 65.8676C11.9955 65.8043 11.9195 65.7536 11.8181 65.6649ZM8.68945 63.4736C8.68945 63.7902 8.66412 64.1069 8.68945 64.4236C8.76545 65.2469 9.31011 65.7789 10.0195 65.7663C10.6908 65.7536 11.1468 65.2976 11.2355 64.4742C11.2988 63.9169 11.2988 63.3469 11.3495 62.7896C11.4128 62.1942 11.1722 61.9535 10.5895 62.0042C10.4501 62.0169 10.3235 62.0042 10.1841 62.0042C8.74011 62.0042 8.74012 62.0042 8.68945 63.4736ZM12.1855 63.3849C12.1855 63.7649 12.1602 64.1069 12.1855 64.4489C12.2362 65.0443 12.5782 65.3863 13.1862 65.4243C13.8195 65.4623 14.2502 65.2216 14.3642 64.5756C14.4528 64.0942 14.4782 63.6002 14.4909 63.1062C14.5162 62.1435 14.5035 62.1435 13.5662 62.1309C12.2488 62.1055 12.2488 62.1055 12.1855 63.3849Z" fill="black"/>
<path d="M16.2516 91.2013C17.8856 90.4033 19.507 89.5926 21.1917 88.7693C21.3437 89.0606 21.4703 89.3013 21.635 89.618C19.4056 90.7326 17.2143 91.822 15.0483 92.8987C14.4783 92.3033 14.4909 91.784 14.8962 91.1506C15.8462 89.694 16.733 88.1993 17.6323 86.7172C17.7463 86.5399 17.8223 86.3372 17.9236 86.1472C17.8856 86.0966 17.8477 86.0459 17.8097 86.0079C16.1503 86.8186 14.4909 87.6419 12.7682 88.4906C12.6289 88.1993 12.5023 87.9586 12.3376 87.6419C13.4269 87.0846 14.4656 86.5652 15.517 86.0332C16.429 85.5772 17.3283 85.1212 18.253 84.6906C18.5063 84.5766 18.975 84.4626 19.051 84.5639C19.3297 84.9312 19.621 85.3239 19.241 85.8812C18.3037 87.2873 17.4423 88.7439 16.543 90.188C16.3657 90.4666 16.2136 90.758 16.049 91.0366C16.1376 91.1 16.2009 91.1506 16.2516 91.2013Z" fill="black"/>
<path d="M64.2077 121.488C63.9544 121.5 63.7137 121.526 63.3717 121.538C63.2703 119.068 63.1563 116.624 63.055 114.192C63.8657 113.964 64.3597 114.09 64.7903 114.787C65.677 116.231 66.6777 117.599 67.6404 118.992C67.7671 119.17 67.9191 119.334 68.1598 119.638C68.1978 119.296 68.2358 119.106 68.2358 118.929C68.1851 117.485 68.1217 116.041 68.0584 114.597C68.0457 114.268 67.9064 113.913 68.4764 113.862C69.0464 113.812 69.0211 114.154 69.0338 114.534C69.1098 116.611 69.1984 118.688 69.2871 120.766C69.2871 120.918 69.2491 121.07 69.2237 121.196C68.5144 121.437 68.0584 121.26 67.6657 120.639C66.7664 119.233 65.791 117.865 64.8537 116.484C64.6763 116.231 64.4863 116.003 64.233 115.674C64.2077 117.688 64.2077 119.55 64.2077 121.488Z" fill="black"/>
<path d="M95.5331 102.462C95.8118 102.234 96.0271 102.082 96.2931 101.867C97.8131 103.805 99.3205 105.718 100.828 107.643C100.372 108.251 99.9285 108.454 99.1939 108.15C97.6232 107.516 96.0145 106.984 94.4184 106.414C94.1524 106.313 93.8738 106.25 93.4938 106.3C94.6338 107.77 95.7738 109.239 96.9391 110.746C96.6985 110.949 96.4958 111.126 96.2171 111.367C94.6844 109.416 93.1771 107.491 91.6824 105.578C92.1764 104.894 92.6704 104.73 93.4431 105.046C94.9884 105.692 96.5718 106.212 98.1425 106.782C98.3578 106.858 98.5858 106.908 98.8138 106.972C98.8518 106.921 98.8898 106.87 98.9278 106.82C97.8005 105.388 96.6985 103.957 95.5331 102.462Z" fill="black"/>
<path d="M106.958 88.3262C107.541 87.0722 107.997 85.9702 108.542 84.9188C108.909 84.2095 109.403 83.5508 110.328 83.5761C111.43 83.6015 112.126 84.1968 112.456 85.2862C113.862 84.5768 114.888 86.0208 116.193 85.8562C115.901 86.9962 115.825 87.0468 114.812 86.6415C112.823 85.8435 112.722 85.8815 111.835 87.8449C111.645 88.2755 111.455 88.6935 111.227 89.1875C112.19 89.6435 113.102 90.0616 114.09 90.5176C113.95 90.8342 113.836 91.1002 113.684 91.4422C111.442 90.3909 109.226 89.3649 106.958 88.3262ZM111.746 85.9322C111.67 85.2228 111.252 84.8935 110.708 84.7035C110.125 84.5008 109.618 84.6401 109.327 85.2101C108.96 85.9068 108.63 86.6288 108.326 87.3508C108.263 87.4902 108.402 87.8322 108.554 87.9209C109.036 88.1995 109.555 88.4275 110.087 88.6302C110.214 88.6809 110.492 88.6302 110.53 88.5542C110.961 87.6802 111.354 86.8062 111.746 85.9322Z" fill="black"/>
<path d="M78.0149 119.664C77.3309 120.183 77.2803 119.436 77.0269 119.436C76.2036 119.816 75.4309 120.36 74.5696 120.55C72.8595 120.943 71.3775 119.93 70.8075 118.22C70.4908 117.244 70.4402 116.269 70.6935 115.281C71.0355 114.002 71.9221 113.229 73.1888 112.963C74.3289 112.722 75.4562 112.773 76.3176 113.736C76.5329 113.976 76.6849 114.28 76.9002 114.597C76.3555 114.863 76.0009 114.914 75.6208 114.394C75.1015 113.698 74.3162 113.571 73.4801 113.748C72.5048 113.964 71.8461 114.546 71.6561 115.522C71.4281 116.712 71.6181 117.865 72.2895 118.904C72.8468 119.752 73.9235 120.056 75.0002 119.676C76.0895 119.296 76.5836 118.562 76.5329 117.472C76.5076 117.016 76.3429 116.877 75.8996 116.978C75.3802 117.105 74.8482 117.181 74.2656 117.295C74.2022 117.029 74.1515 116.788 74.0755 116.484C75.1395 116.269 76.1529 116.066 77.2422 115.851C77.5082 117.156 77.7616 118.41 78.0149 119.664Z" fill="black"/>
<path d="M24.2695 97.256C23.6741 96.7493 23.6235 96.4073 23.8768 95.888C24.5608 94.4313 23.1421 92.5186 21.5461 92.7339C20.2034 92.9113 19.1394 93.6079 18.392 94.7353C17.8347 95.584 17.9867 96.5973 18.7341 97.484C19.3927 98.2567 20.3427 98.4973 21.2294 98.13C21.8881 97.864 21.9261 97.712 21.5461 97.142C21.2674 96.7367 20.9761 96.3313 20.6468 95.888C20.8621 95.7106 21.0521 95.5713 21.3054 95.3686C21.9387 96.2553 22.5468 97.1167 23.1928 98.0287C22.1035 98.8014 21.0521 99.536 19.9754 100.296C19.8361 100.131 19.7221 99.992 19.5827 99.84C19.7347 99.6374 19.874 99.4347 20.0387 99.1814C19.874 99.0927 19.7347 99.004 19.57 98.9407C16.834 97.8387 16.3527 94.6846 18.6834 92.8733C19.2281 92.4553 19.8741 92.1259 20.5327 91.9233C22.8381 91.2139 25.1942 93.1899 24.9155 95.6093C24.8648 96.1413 24.5101 96.648 24.2695 97.256Z" fill="black"/>
<path d="M58.1659 113.52C60.4332 113.52 61.8265 114.952 61.8519 117.295C61.8772 119.613 60.3952 121.273 58.3305 121.273C55.9492 121.273 54.5431 119.905 54.5558 117.536C54.5431 115.61 55.7338 113.394 58.1659 113.52ZM60.7752 117.27C60.7752 117.118 60.7879 116.953 60.7752 116.801C60.6866 115.598 59.8759 114.66 58.7232 114.42C57.6339 114.192 56.4558 114.698 56.0631 115.788C55.7718 116.56 55.6071 117.472 55.6831 118.283C55.8478 119.943 57.3805 120.817 58.9766 120.31C60.0786 119.968 60.7752 118.79 60.7752 117.27Z" fill="black"/>
<path d="M47.6272 113.393C47.6145 115.724 45.9551 117.662 43.9791 117.649C41.8511 117.637 40.1537 116.079 40.1791 114.141C40.2044 111.886 41.9651 109.758 43.8525 109.821C45.7145 109.885 47.7158 111.025 47.6272 113.393ZM41.2304 114.255C41.2304 115.686 42.2944 116.763 43.7384 116.775C45.2585 116.788 46.6264 115.154 46.6391 113.292C46.6518 111.911 45.5118 110.771 44.1057 110.746C42.6237 110.708 41.2304 112.418 41.2304 114.255Z" fill="black"/>
<path d="M107.427 95.2675C108.137 95.7235 108.783 96.1415 109.492 96.5975C110.315 95.3435 111.101 94.1402 111.911 92.8988C112.165 93.0508 112.367 93.1648 112.671 93.3422C111.671 94.8875 110.695 96.3822 109.695 97.9402C107.592 96.5722 105.553 95.2549 103.463 93.8995C104.451 92.3668 105.401 90.8975 106.376 89.3774C106.629 89.5421 106.832 89.6688 107.085 89.8334C106.414 90.8848 105.781 91.8981 105.109 92.8735C104.805 93.3168 104.78 93.6082 105.299 93.8868C105.73 94.1148 106.135 94.4062 106.642 94.7355C107.389 93.6082 108.111 92.5188 108.871 91.3788C109.137 91.5435 109.34 91.6701 109.606 91.8348C108.897 92.9748 108.187 94.0642 107.427 95.2675Z" fill="black"/>
<path d="M7.86597 68.6798C9.14532 68.5405 10.3233 68.3885 11.5013 68.2618C12.6034 68.1478 13.7054 68.0338 14.8075 67.9578C14.9721 67.9451 15.2761 68.1098 15.2887 68.2238C15.4787 69.8578 15.6308 71.4918 15.7954 73.1385C15.2381 73.3792 14.9467 73.3539 14.9087 72.6952C14.8454 71.6818 14.7061 70.6812 14.6047 69.6678C14.5667 69.2118 14.3894 69.0218 13.87 69.0471C12.2233 69.1358 12.2107 69.1105 12.3627 70.7318C12.426 71.4918 12.5148 72.2518 12.5908 73.0245C12.5908 73.0625 12.5654 73.1132 12.5654 73.1512C11.8307 73.4172 11.7294 73.3539 11.666 72.6445C11.5774 71.7072 11.5014 70.7572 11.362 69.8198C11.3367 69.6425 11.0707 69.4271 10.868 69.3765C10.64 69.3131 10.3867 69.4271 10.1334 69.4398C8.81603 69.5538 8.81597 69.5538 8.96798 70.8838C9.05664 71.7072 9.12002 72.5432 9.24669 73.3665C9.34802 74.0505 9.04399 74.1519 8.42331 73.9872C8.24598 72.2645 8.05597 70.5292 7.86597 68.6798Z" fill="black"/>
<path d="M114.66 83.7659C114.673 82.9806 114.85 82.7526 115.471 82.7273C115.876 82.7146 116.471 82.4359 116.636 82.1066C116.965 81.4733 117.117 80.7259 117.219 80.0166C117.295 79.4972 116.953 79.1299 116.433 78.9779C115.889 78.8132 115.445 78.9779 115.141 79.4592C114.787 80.0292 114.457 80.6246 114.128 81.2199C113.457 82.4486 112.646 82.8666 111.633 82.4866C110.556 82.0813 109.961 81.0172 110.277 79.8012C110.442 79.1679 110.708 78.5092 111.088 77.9772C111.645 77.2045 112.329 77.0652 113.343 77.3439C113.343 77.8252 113.292 78.1672 112.621 78.1925C111.506 78.2305 110.644 80.1052 111.265 81.0552C111.709 81.7393 112.633 81.7393 113.051 81.0552C113.495 80.3206 113.875 79.5479 114.356 78.8385C115.23 77.5592 117.155 77.6859 117.839 79.0285C118.511 80.3206 117.637 83.0186 116.294 83.5886C115.825 83.7406 115.243 83.6899 114.66 83.7659Z" fill="black"/>
<path d="M85.4755 109.138C85.8175 108.935 86.0455 108.808 86.3495 108.631C86.9195 109.619 87.4642 110.569 88.0216 111.519C88.2876 111.988 88.5409 112.469 88.8449 112.912C89.5289 113.9 90.4536 114.09 91.429 113.495C92.3916 112.9 92.6703 111.962 92.1129 110.924C91.4796 109.746 90.7956 108.606 90.1369 107.453C90.0102 107.225 89.8836 106.984 89.7316 106.706C90.0356 106.528 90.2763 106.389 90.6183 106.186C91.5049 107.808 92.4803 109.34 93.177 110.974C93.8483 112.52 92.6829 114.128 90.7576 114.66C89.6809 114.952 88.7816 114.724 88.1989 113.799C87.2616 112.304 86.4129 110.746 85.4755 109.138Z" fill="black"/>
<path d="M37.9496 115.129C37.1896 114.939 36.9996 114.534 37.1769 113.824C37.5316 112.418 37.5063 112.393 36.2269 111.658C34.6309 110.746 35.2136 110.658 33.7442 111.861C33.2502 112.266 32.8702 112.355 32.4015 111.747C33.1869 111.114 33.9722 110.468 34.7702 109.834C35.8216 108.986 36.8983 108.15 37.9496 107.314C38.2789 107.048 38.545 106.845 39.0137 107.136C39.4697 107.415 39.4443 107.706 39.3556 108.15C38.9249 110.265 38.5196 112.393 38.1016 114.508C38.0763 114.698 38.0129 114.901 37.9496 115.129ZM38.3296 108.416C38.2663 108.365 38.1903 108.314 38.127 108.264C37.3543 108.91 36.5689 109.556 35.6823 110.278C36.4043 110.696 36.9869 111.038 37.6456 111.43C37.8989 110.328 38.1143 109.378 38.3296 108.416Z" fill="black"/>
<path d="M98.8648 99.5358C99.4475 98.5985 99.4474 98.5985 100.334 98.9658C101.791 99.5612 103.26 100.157 104.717 100.752C104.92 100.841 105.135 100.904 105.528 101.043C105.35 100.663 105.274 100.423 105.147 100.22C104.362 98.8772 103.564 97.5345 102.766 96.1918C102.247 95.3178 102.26 95.3178 103.07 94.6084C103.982 96.2298 104.894 97.8385 105.794 99.4472C106.098 99.9918 106.427 100.537 106.706 101.107C106.782 101.271 106.756 101.613 106.642 101.727C106.452 101.93 106.085 102.183 105.895 102.12C103.564 101.297 101.246 100.423 98.8648 99.5358Z" fill="black"/>
<path d="M12.7802 35.2013C12.9322 35.0113 13.1349 34.5933 13.4769 34.3653C13.8062 34.15 14.2749 34.036 14.6549 34.0993C15.4529 34.2133 16.1623 34.6313 16.4283 35.404C17.2769 37.8107 19.025 39.2927 21.2164 40.382C21.2924 40.42 21.419 40.4454 21.457 40.5087C21.6217 40.7747 21.7483 41.0661 21.8877 41.3447C21.609 41.4587 21.3431 41.5981 21.0644 41.6614C20.925 41.6994 20.7603 41.6107 20.4817 41.5601C20.7477 42.6874 20.963 43.7768 21.2797 44.8408C21.5077 45.6008 21.457 45.8668 20.849 46.0695C20.0636 46.3228 19.6076 46.1075 19.4176 45.3221C20.203 45.1828 20.317 44.6634 20.2156 43.9668C20.165 43.6628 20.165 43.3334 20.2156 43.0168C20.4563 41.5727 19.975 40.4327 18.911 39.4574C17.6823 38.33 16.5423 37.114 15.3263 35.974C14.4016 35.1253 13.7682 34.986 12.7802 35.2013Z" fill="black"/>
<path d="M99.5359 19.5575C99.9919 20.2669 99.9792 20.6089 99.4472 21.1789C99.0039 21.6476 98.5479 22.0909 98.0792 22.5596C98.6746 23.1042 99.5866 22.4329 100.03 23.4336C99.1432 23.3956 98.2945 23.1676 97.5472 23.3576C96.7998 23.5603 96.1538 24.1556 95.4065 24.6116C96.4452 25.891 96.6732 27.6516 98.5225 27.9936C97.9272 28.057 97.2812 28.2977 96.7492 28.1457C96.4326 28.057 96.2172 27.3983 96.0525 26.955C95.9005 26.537 95.9132 26.0683 95.7865 25.6376C95.5332 24.8269 95.3432 24.7763 94.6338 25.2069C93.3038 26.0303 91.8218 26.195 90.2891 26.1443C91.8978 25.777 93.3164 25.0043 94.6971 24.1556C95.7611 23.4969 95.7865 23.3196 95.1278 22.2556C95.0138 22.0782 94.9505 21.8629 94.7985 21.5336C95.0392 21.6602 95.1278 21.6982 95.2165 21.7616C96.6225 22.7116 96.8505 22.6989 98.0412 21.5209C98.3325 21.2422 98.5859 20.9129 98.8265 20.5962C99.1052 20.2795 99.3079 19.9375 99.5359 19.5575Z" fill="black"/>
<path d="M120.006 64.4742C119.296 64.4742 118.612 64.4109 117.954 64.4995C117.422 64.5629 116.852 64.7022 116.396 64.9809C115.37 65.5889 114.407 66.2982 113.406 66.9569C113.229 67.0836 113.026 67.1849 112.798 67.3116C112.57 66.6402 112.621 66.1969 113.292 65.8296C114.217 65.3356 115.078 64.7275 116.092 64.0942C115.775 63.8789 115.572 63.7142 115.357 63.5875C114.673 63.1822 114.014 62.7515 113.292 62.4222C112.608 62.1055 112.431 61.6495 112.646 60.8895C113.432 61.3582 114.255 61.7508 114.964 62.2828C116.32 63.2962 117.789 63.7142 119.448 63.4735C119.613 63.4482 119.79 63.4735 120.006 63.4735C120.006 63.8029 120.006 64.0815 120.006 64.4742Z" fill="black"/>
<path d="M35.6699 18.3796C35.5052 19.2156 35.3659 19.963 35.2139 20.723C35.2899 20.723 35.3279 20.7357 35.3532 20.723C35.6065 20.6343 35.8472 20.5583 36.0879 20.4697C36.0119 20.7357 35.9992 21.0397 35.8472 21.255C35.3279 22.053 35.3279 22.0277 35.9992 22.699C36.3159 23.0157 36.5945 23.3704 36.8225 23.7504C36.9112 23.9024 36.8099 24.1684 36.7972 24.3964C36.5946 24.3837 36.3666 24.409 36.1766 24.3457C35.9739 24.2824 35.7965 24.1304 35.6572 24.0417C35.6825 23.6997 35.7078 23.421 35.7205 23.1424C35.6445 23.1297 35.5812 23.117 35.5052 23.1044C35.3279 23.7377 35.1505 24.371 34.9732 25.0044C34.9099 25.2197 34.9225 25.5237 34.7832 25.6377C34.6058 25.7771 34.2765 25.8531 34.0612 25.7771C33.9345 25.7391 33.7952 25.3211 33.8712 25.1564C34.2005 24.371 34.6312 23.6237 34.9605 22.8384C35.0492 22.623 34.9605 22.3064 34.8972 22.053C34.8339 21.825 34.6946 21.6223 34.5172 21.255C34.4159 21.4703 34.3018 21.6223 34.3018 21.7617C34.3018 21.901 34.5045 22.0403 34.5045 22.1797C34.5172 22.5344 34.4666 22.889 34.4412 23.2437C34.1752 23.0917 33.8205 23.003 33.6558 22.775C33.3265 22.3317 33.1112 21.8123 32.8198 21.255C33.6685 21.1537 33.8585 20.571 34.0738 19.963C34.3398 19.2536 34.7072 18.595 35.6699 18.3796Z" fill="black"/>
<path d="M22.2935 38.3804C21.9262 37.7217 21.6602 37.2277 21.3689 36.7717C20.9382 36.1004 20.6342 36.1004 20.1022 36.797C20.1149 36.5817 20.0895 36.4424 20.1402 36.3157C20.2922 35.8217 20.0515 35.543 19.7095 35.2137C18.8735 34.4283 18.1135 33.5797 17.3282 32.7436C17.2268 32.6423 17.2015 32.4776 17.2141 32.123C17.7841 32.237 18.4555 32.2116 18.8862 32.5156C19.4688 32.921 19.9122 32.845 20.4442 32.579C20.6595 32.4776 20.8875 32.3763 21.2802 32.199C21.3815 33.0983 21.4702 33.909 21.5588 34.7197C21.5842 34.935 21.5335 35.2263 21.6475 35.353C22.3822 36.2017 22.2049 37.2024 22.2935 38.3804ZM19.9249 32.921C19.8615 33.035 19.7982 33.1363 19.7348 33.2503C20.0008 33.4023 20.2668 33.5543 20.5328 33.681C20.5455 33.681 20.7102 33.3897 20.6975 33.3897C20.4568 33.225 20.1909 33.073 19.9249 32.921Z" fill="black"/>
<path d="M51.1483 113.242C50.2996 113.001 49.5522 112.798 48.8175 112.596C48.7415 111.886 48.9949 111.76 49.5902 111.937C51.2622 112.406 52.9469 112.811 54.6823 113.254C54.6443 113.533 54.6063 113.761 54.5683 114.078C53.9476 113.926 53.403 113.837 52.871 113.66C52.2629 113.444 52.0349 113.647 51.8956 114.255C51.5156 115.876 51.0723 117.485 50.6543 119.107C50.4389 119.917 50.4516 119.917 49.5396 119.55C50.0842 117.473 50.6036 115.408 51.1483 113.242Z" fill="black"/>
<path d="M112.849 73.4677C112.646 73.4423 112.545 73.4423 112.431 73.4297C112.329 73.417 112.216 73.379 112.089 73.341C112.089 73.189 112.076 73.0497 112.089 72.923C112.279 71.1116 112.469 69.3003 112.672 67.4889C113.229 67.4003 113.558 67.4636 113.432 68.1223C113.368 68.4263 113.394 68.7556 113.356 69.0596C113.242 70.0603 113.242 70.035 114.268 70.1363C115.965 70.301 117.675 70.5036 119.372 70.681C119.486 70.6936 119.588 70.719 119.752 70.757C119.74 71.0356 119.727 71.289 119.702 71.6436C118.967 71.5803 118.27 71.5296 117.586 71.4663C116.282 71.3396 114.99 71.213 113.685 71.061C113.28 71.0103 113.115 71.1116 113.09 71.5423C113.052 72.1757 112.938 72.809 112.849 73.4677Z" fill="black"/>
<path d="M11.577 77.9265C11.8303 78.3826 11.995 78.7499 11.273 78.9652C10.5383 79.1806 10.3357 79.6492 10.5257 80.3079C10.7283 81.0299 11.1843 81.3213 11.9823 81.1186C13.3377 80.7766 14.6677 80.3712 16.0104 79.9912C16.441 79.8646 16.8717 79.7506 17.3657 79.6239C17.4671 79.9406 17.5431 80.2192 17.6571 80.5739C16.7958 80.8273 15.9724 81.0553 15.1617 81.2833C14.237 81.5493 13.2996 81.8406 12.3623 82.0813C10.9436 82.4486 10.0569 81.8533 9.76561 80.4092C9.46161 78.9652 10.0316 78.1672 11.577 77.9265Z" fill="black"/>
<path d="M27.5629 104.932C27.4362 105.11 27.3603 105.211 27.2843 105.325C26.7396 106.072 26.7522 106.541 27.3349 107.035C27.9049 107.516 28.5003 107.44 29.0956 106.769C30.109 105.616 31.1097 104.464 32.123 103.298C32.2877 103.108 32.4523 102.931 32.655 102.703C32.8957 102.893 33.111 103.07 33.4024 103.311C33.1237 103.64 32.8704 103.957 32.617 104.248C31.6417 105.376 30.6917 106.516 29.6783 107.618C28.9816 108.378 28.3102 108.479 27.4869 108.061C26.4609 107.542 25.8529 106.68 26.0429 105.781C26.1443 105.287 26.4989 104.844 26.7776 104.299C27.1196 104.565 27.3096 104.73 27.5629 104.932Z" fill="black"/>
<path d="M111.379 37.4432C110.898 37.3926 110.556 37.5573 110.569 38.0893C110.594 38.6339 111.037 38.5326 111.392 38.5453C111.734 38.5579 112.076 38.5579 112.405 38.5073C113.533 38.3679 114.673 38.2159 115.965 38.0386C115.559 37.6206 115.255 37.3039 114.951 36.9746C114.977 36.9492 115.002 36.9112 115.027 36.8859C115.483 37.2659 115.927 37.6459 116.37 38.0133C116.041 38.7479 115.699 38.8239 114.774 38.7606C113.71 38.6846 112.633 38.7479 111.569 38.7479C111.531 38.8239 111.506 38.8999 111.468 38.9759C111.797 39.2799 112.165 39.5459 112.456 39.8753C112.709 40.154 112.887 40.5086 113.102 40.8253C112.722 40.8506 112.304 40.99 111.987 40.8633C111.468 40.648 110.999 40.2806 110.543 39.9386C110.125 39.6093 109.745 39.2293 109.378 38.8873C110.467 39.0899 111.189 40.23 112.393 40.3313C111.924 39.7106 111.569 39.0013 110.721 38.8239C110.493 38.7733 110.315 38.5073 110.1 38.3679C109.669 38.0893 109.226 37.8233 108.846 37.4559C109.112 37.5953 109.365 37.7473 109.644 37.8486C109.834 37.9246 110.176 38.0006 110.227 37.9246C110.366 37.7093 110.48 37.4052 110.442 37.1646C110.417 36.9619 110.189 36.7212 109.986 36.6452C109.707 36.5439 109.391 36.5819 109.087 36.4426C109.568 36.3539 110.049 36.2652 110.657 36.1512C110.442 35.8472 110.315 35.6699 110.201 35.5052C110.759 34.7452 111.303 33.9979 111.848 33.2505C111.886 33.2632 111.937 33.2759 111.975 33.2885C111.797 33.7445 111.62 34.2005 111.43 34.6565C111.392 34.7452 111.316 34.8085 111.291 34.8845C111.177 35.2646 111.063 35.6446 110.949 36.0119C111.443 35.7839 111.924 35.5686 112.405 35.3279C112.469 35.2899 112.481 35.1505 112.494 35.0872C112.747 35.4292 113.001 35.7459 113.241 36.0752L113.254 36.0626C113.127 36.0879 112.912 36.0879 112.887 36.1512C112.646 36.7719 112.139 36.5819 111.683 36.5946C111.443 36.5946 111.202 36.6959 110.949 36.7466C111.075 36.9746 111.202 37.2026 111.329 37.4432H111.379Z" fill="black"/>
<path d="M51.3767 18.0503C51.706 17.7843 52.0353 17.5183 52.3647 17.2523C53.188 16.5683 53.4413 15.5549 53.8467 14.6303C53.91 14.4783 53.758 14.1616 53.606 14.0096C53.302 13.6929 52.9347 13.4269 52.5926 13.1356C52.6306 13.0722 52.6814 13.0089 52.7194 12.9456C53.2007 13.2622 53.6693 13.5789 54.252 13.9589C54.404 13.4902 54.5434 13.0849 54.6827 12.6796C55.6201 12.9582 55.8607 13.5156 55.3034 14.2123C54.974 14.6303 55.1134 14.8329 55.4554 15.0736C56.57 15.8336 57.6848 16.619 59.0528 16.8976C59.1921 16.923 59.3314 17.0116 59.5467 17.1003C58.7234 17.2776 58.0014 17.531 57.2667 17.569C56.5194 17.607 55.9874 17.0876 55.5821 16.4796C55.5061 16.3656 55.506 16.2136 55.43 16.1123C55.202 15.7956 54.9613 15.4916 54.7207 15.1876C54.48 15.4536 54.1887 15.6816 54.0113 15.9856C53.4033 17.0243 52.4914 17.6703 51.3767 18.0503Z" fill="black"/>
<path d="M75.6459 16.0491C75.8739 14.7697 75.874 14.7697 75.4433 14.263C75.608 13.921 75.7852 13.5664 75.9499 13.2117C74.8352 13.541 75.2279 14.6304 74.7086 15.403C73.8599 14.111 74.9113 13.313 75.3673 12.401C75.3673 12.553 75.3673 12.705 75.3673 13.009C75.646 12.7557 75.7853 12.553 75.988 12.439C76.6846 12.0463 77.3813 11.6283 78.116 11.3497C78.6987 11.1343 78.9393 11.4763 78.762 12.059C78.344 13.4017 77.9386 14.7697 77.5206 16.1124C77.4699 16.2771 77.2926 16.4164 77.1786 16.5684C76.9506 16.3911 76.7226 16.2137 76.6213 16.1251C76.9 15.8717 77.1913 15.7324 77.2673 15.517C77.622 14.4024 77.9386 13.275 78.2426 12.1477C78.3313 11.8057 78.1793 11.641 77.7866 11.717C76.7226 11.907 76.4186 12.667 77.0266 13.6044C77.1153 13.7437 77.0899 14.1364 76.9633 14.225C76.4566 14.5924 76.3046 15.099 76.2033 15.6817C76.1653 15.8717 75.9626 16.0364 75.836 16.2137C75.7726 16.1504 75.7093 16.0997 75.6459 16.0491Z" fill="black"/>
<path d="M11.577 85.514C11.4377 85.1467 11.3491 84.8933 11.2224 84.564C13.5404 83.69 15.8204 82.8413 18.1385 81.9673C18.2651 82.2966 18.3792 82.5499 18.5185 82.9046C16.1878 83.7786 13.9204 84.6273 11.577 85.514Z" fill="black"/>
<path d="M31.0208 110.797C30.7295 110.582 30.5141 110.417 30.2228 110.189C31.6921 108.2 33.1488 106.237 34.6308 104.223C34.8968 104.426 35.1375 104.603 35.4288 104.831C33.9595 106.807 32.5155 108.77 31.0208 110.797Z" fill="black"/>
<path d="M9.04388 77.027C8.96788 76.609 8.91728 76.343 8.86661 76.039C11.1593 75.5703 13.4266 75.1016 15.694 74.6583C15.846 74.6329 16.15 74.8356 16.2007 75.0003C16.2514 75.1649 16.1247 75.5576 16.0107 75.583C13.718 76.077 11.4126 76.533 9.04388 77.027Z" fill="black"/>
<path d="M111.595 75.292C111.684 74.912 111.747 74.6714 111.836 74.3167C114.255 74.7854 116.649 75.2667 119.094 75.7481C119.018 76.0901 118.967 76.3561 118.891 76.7361C116.472 76.2421 114.078 75.7734 111.595 75.292Z" fill="black"/>
<path d="M103.197 105.439C102.931 105.692 102.715 105.882 102.462 106.123C100.752 104.35 99.0673 102.602 97.294 100.765C97.56 100.55 97.788 100.385 98.092 100.144C99.764 101.88 101.461 103.64 103.197 105.439Z" fill="black"/>
<path d="M78.4709 9.67751C78.6483 9.95618 78.7877 10.1462 78.9903 10.4502C78.4583 10.5895 78.0023 10.7162 77.559 10.8302C78.0656 10.0828 78.5723 9.32283 79.0917 8.57549C79.0537 8.52482 79.0156 8.46149 78.9776 8.41082C78.3443 8.84149 77.6603 9.2215 77.0903 9.71551C76.4443 10.2728 75.7856 10.3615 74.8482 9.98151C75.6969 9.55084 76.4063 9.17083 77.1409 8.82883C77.9263 8.46149 78.737 8.10682 79.5477 7.79015C79.7123 7.72681 80.0037 7.85348 80.181 7.98015C80.2443 8.01815 80.181 8.38549 80.0797 8.47416C79.5603 8.89216 79.0283 9.2595 78.4709 9.67751Z" fill="black"/>
<path d="M71.7068 15.4157C72.6568 15.859 73.6828 16.1757 74.5315 16.7584C75.8615 17.6957 77.2295 18.3417 78.9142 18.3417C78.2429 18.6077 77.5842 18.8991 76.8875 19.1144C76.6975 19.1777 76.3935 19.0384 76.2162 18.8991C75.7728 18.5571 75.3802 18.1517 74.9368 17.8097C74.3035 17.3157 73.6448 16.847 72.9861 16.4037C72.5555 16.1124 72.0741 15.8717 71.6181 15.6057C71.6434 15.5424 71.6688 15.479 71.7068 15.4157Z" fill="black"/>
<path d="M52.3899 7.15676C53.2133 7.4481 54.176 6.97943 54.6193 8.10678C54.67 8.22078 55.4553 8.19545 55.7846 8.01811C56.2153 7.79011 56.5573 7.77744 57.1906 8.04344C56.304 8.51212 55.582 8.90479 54.8346 9.31013C54.8473 9.15813 54.8599 9.03146 54.8979 8.71479C54.0746 9.20879 53.3779 9.6268 52.6179 10.0828C52.9346 9.50013 53.4159 9.01879 53.3779 8.56279C53.3526 8.10678 52.7953 7.70144 52.3899 7.15676Z" fill="black"/>
<path d="M107.706 40.1665C107.491 40.2805 107.238 40.3691 107.06 40.5338C106.351 41.2178 105.692 41.9778 104.945 42.5985C104.35 43.0925 104.008 42.9405 103.856 42.2058C103.666 41.3065 103.526 40.4071 103.362 39.5204C103.691 40.1918 104.02 40.8758 104.362 41.5598C104.514 41.8765 104.704 41.9905 105.046 41.7245C105.73 41.2051 106.44 40.7238 107.149 40.2171C107.124 40.1411 107.111 40.0525 107.086 39.9765C106.516 39.7485 105.933 39.5204 105.363 39.2798C104.679 38.9884 104.641 38.8491 105.008 38.1778C105.502 38.9884 106.389 39.2291 107.124 39.6851C107.339 39.8118 107.516 40.0018 107.706 40.1665C107.706 40.1665 107.694 40.1791 107.706 40.1665Z" fill="black"/>
<path d="M16.1627 42.1425C16.606 41.6231 16.9607 41.1924 17.3281 40.7871C17.6701 40.4071 18.0627 40.1031 18.62 40.2804C19.2027 40.4578 19.2534 40.9138 19.2534 41.4078C19.2534 41.9778 19.2534 42.5478 19.2534 43.1178C19.19 43.1178 19.1267 43.1178 19.0507 43.1178C18.9621 42.8898 18.8987 42.6491 18.7974 42.4338C18.468 41.7245 18.1894 41.6485 17.442 41.9145C17.062 42.0411 16.6313 42.0538 16.1627 42.1425Z" fill="black"/>
<path d="M25.0041 39.584C24.8901 39.2673 24.7761 38.9253 24.6367 38.6213C24.3834 38.0639 24.1681 38.0513 23.7881 38.5326C23.6614 38.6846 23.5347 38.8366 23.4587 38.938C23.5094 38.4059 23.4461 37.8106 23.6361 37.3039C23.8007 36.8859 24.2188 36.5566 24.5988 36.2653C24.7128 36.1766 25.0928 36.3159 25.2448 36.4679C25.3588 36.5946 25.3968 36.9746 25.2954 37.0759C24.8267 37.5699 25.0548 38.0766 25.1688 38.596C25.2321 38.9 25.2068 39.2293 25.2194 39.546C25.1434 39.5713 25.0801 39.5713 25.0041 39.584Z" fill="black"/>
<path d="M30.5269 17.0622C31.1476 16.8342 31.7429 16.5302 32.3889 16.3909C32.7056 16.3276 33.1617 16.5176 33.3897 16.7456C33.5037 16.8596 33.263 17.3662 33.0984 17.6576C32.921 17.9616 32.655 18.2149 32.3256 18.5949C32.389 18.3416 32.427 18.2149 32.4523 18.1009C32.579 17.6196 32.4017 17.3662 31.895 17.3409C31.4516 17.3156 31.0083 17.2649 30.5523 17.2269C30.5523 17.1636 30.5396 17.1129 30.5269 17.0622Z" fill="black"/>
<path d="M35.0361 17.138C34.1115 18.468 33.4655 20.0513 31.7428 20.6847C32.9461 19.8107 33.4274 18.43 34.2128 17.2646C34.3394 17.0746 34.6308 16.9986 34.8335 16.872C34.9095 16.9606 34.9728 17.0493 35.0361 17.138Z" fill="black"/>
<path d="M54.6951 10.7668C54.3911 11.1975 54.239 11.6155 53.9477 11.8055C53.2763 12.2235 52.5416 12.5275 51.7056 12.7682C52.1616 12.1982 52.6177 11.6155 53.099 11.0075C53.6564 11.6155 54.0237 10.8302 54.6951 10.7668Z" fill="black"/>
<path d="M113.216 35.3912C114.153 35.2012 115.053 35.3659 115.813 34.6439C115.775 35.0365 115.851 35.4799 115.686 35.7839C115.559 36.0119 115.078 36.2145 114.837 36.1512C114.305 36.0245 113.824 35.6952 113.216 35.3912Z" fill="black"/>
<path d="M107.693 40.1793C108.111 40.3313 108.529 40.458 108.922 40.648C109.454 40.9013 109.441 41.408 109.441 42.13C108.744 41.636 108.174 41.2433 107.528 40.7873C108.364 40.6733 107.667 40.382 107.705 40.1667C107.705 40.1667 107.693 40.1793 107.693 40.1793Z" fill="black"/>
<path d="M36.2648 21.7109C36.7714 21.2296 37.5187 21.1156 37.9494 21.5209C38.1141 21.6729 38.1015 22.0149 38.1648 22.2682C37.9115 22.3062 37.6201 22.4456 37.4047 22.3696C37.0121 22.2176 36.6701 21.9516 36.2648 21.7109Z" fill="black"/>
<path d="M55.1639 11.4002C55.2399 11.0075 55.5946 10.6022 54.8472 10.5262C54.8852 10.4502 54.9232 10.3742 54.9612 10.2982C55.3412 10.3235 55.7592 10.2728 56.1139 10.3995C56.5573 10.5642 56.5826 11.1595 56.1899 11.2482C56.0379 11.2862 55.8732 11.2355 55.7212 11.2482C55.5566 11.2735 55.4046 11.3369 55.1639 11.4002Z" fill="black"/>
<path d="M72.9226 12.2235C73.1632 12.6795 73.4293 13.1355 73.6193 13.6169C73.6826 13.7689 73.5053 13.9969 73.4419 14.1869C73.2519 14.0602 72.9226 13.9715 72.8846 13.8069C72.7706 13.3255 72.7579 12.8062 72.7072 12.2995C72.7832 12.2868 72.8592 12.2488 72.9226 12.2235Z" fill="black"/>
<path d="M106.122 36.0246C105.958 36.1386 105.793 36.2526 105.476 36.4552C106.439 36.7213 107.262 36.9619 108.086 37.1899C108.073 37.2279 108.073 37.2659 108.061 37.2913C107.174 37.1393 106.3 36.9999 105.413 36.8099C105.046 36.7339 105.071 36.4552 105.299 36.2652C105.515 36.1006 105.793 36.0119 106.046 35.8979C106.084 35.9486 106.11 35.9866 106.122 36.0246Z" fill="black"/>
<path d="M109.15 39.8247C108.694 39.736 108.352 39.66 107.997 39.5967C108.618 38.6213 107.098 38.824 107.275 38.0133C107.731 38.786 108.782 38.824 109.15 39.8247Z" fill="black"/>
<path d="M113.267 36.1006C113.393 36.1386 113.507 36.1639 113.583 36.1892C113.469 36.5946 113.355 36.9619 113.254 37.3292C113.039 38.0386 112.823 38.1526 112.127 37.8486C111.873 37.7346 111.633 37.5826 111.392 37.4432L111.379 37.4686C112.937 37.7219 113.355 37.4179 113.292 36.1006H113.267Z" fill="black"/>
<path d="M109.822 34.0357C109.733 34.4031 109.682 34.7831 109.543 35.1378C109.48 35.3024 109.277 35.4164 109.125 35.5304C109.087 35.5558 108.872 35.4291 108.872 35.4038C108.897 35.2264 108.935 35.0238 109.036 34.8718C109.252 34.5678 109.505 34.2891 109.733 33.9977C109.771 33.9977 109.796 34.0104 109.822 34.0357Z" fill="black"/>
<path d="M77.1535 53.6568C77.1661 53.9355 77.1915 54.1508 77.1915 54.3789C77.1915 57.7229 77.1914 61.0669 77.2041 64.411C77.2041 64.8417 77.0648 65.1077 76.7354 65.3737C75.0381 66.8304 73.3787 68.3124 71.6814 69.7691C71.4787 69.9464 71.1114 69.9971 70.82 69.9971C65.2593 70.0097 59.6986 69.9337 54.1378 70.0477C52.4911 70.0857 51.2371 69.4271 49.9451 68.6671C49.5524 68.4391 49.6791 68.1604 49.7678 67.8564C50.7558 64.601 51.7311 61.3329 52.7191 58.0776C53.1118 56.7856 53.5045 55.4809 53.8845 54.1888C53.9985 53.7962 54.1632 53.5935 54.6319 53.6062C61.9786 53.6188 69.3254 53.6188 76.6721 53.6188C76.7988 53.6062 76.9381 53.6315 77.1535 53.6568Z" fill="black"/>
<path d="M47.386 84.4246C57.6082 84.4246 67.7543 84.4246 77.9511 84.4246C77.9765 84.6779 78.0018 84.8933 78.0018 85.1086C78.0018 87.148 77.9891 89.1747 78.0145 91.214C78.0271 91.7587 77.8878 91.9614 77.3051 91.9614C67.539 91.9487 57.7855 91.9487 48.0194 91.9614C47.4874 91.9614 47.3227 91.7967 47.3354 91.2647C47.3607 89.2127 47.3481 87.148 47.3481 85.0959C47.3481 84.8933 47.3734 84.6906 47.386 84.4246Z" fill="black"/>
<path d="M74.8735 82.7144C66.5767 82.7144 58.3686 82.7144 50.0591 82.7144C50.1098 81.4858 49.6665 80.2444 50.7432 79.1677C51.3892 78.5217 51.8705 77.6984 52.4659 77.0017C52.6305 76.8117 52.9472 76.647 53.1879 76.647C59.306 76.6217 65.4241 76.6217 71.5548 76.647C71.8208 76.647 72.1755 76.8117 72.3528 77.0144C73.1509 77.9264 73.9108 78.8891 74.6708 79.8391C74.7595 79.9531 74.8609 80.1177 74.8735 80.2571C74.8862 81.0678 74.8735 81.8658 74.8735 82.7144Z" fill="black"/>
<path d="M75.0383 32.6552C76.0897 34.8972 77.103 37.0379 78.1037 39.1786C79.6744 42.548 81.2324 45.93 82.8158 49.2994C83.0564 49.8061 82.9551 50.0721 82.6004 50.5154C81.3464 52.0861 79.7757 52.6815 77.8123 52.3901C77.1283 52.2888 76.2669 52.5675 75.7729 52.2381C75.2789 51.9088 75.1396 51.0474 74.8736 50.4014C73.7336 47.6527 72.5809 44.904 71.4662 42.1426C71.3396 41.8133 71.2383 41.446 71.2383 41.104C71.2129 39.1153 71.2382 37.1266 71.2129 35.1379C71.2002 34.4665 71.4156 34.0739 72.0996 33.8459C73.0749 33.5292 74.0123 33.0732 75.0383 32.6552Z" fill="black"/>
<path d="M59.0906 30.2864C61.0286 30.2864 62.8653 30.2864 64.778 30.2864C64.778 37.5951 64.778 44.8786 64.778 52.2633C63.8279 52.2633 62.916 52.2633 61.9913 52.2633C61.206 52.2633 60.4079 52.2507 59.6225 52.2633C59.2172 52.276 59.0273 52.124 59.0526 51.7187C59.0653 51.5667 59.0526 51.402 59.0526 51.25C59.0526 44.5619 59.0526 37.8738 59.0526 31.173C59.0526 30.907 59.0779 30.641 59.0906 30.2864Z" fill="black"/>
<path d="M82.4359 61.5608C82.4359 59.1668 82.4359 56.8994 82.4359 54.5561C82.7272 54.5561 82.9679 54.5561 83.2086 54.5561C87.1607 54.5561 91.1127 54.5687 95.0648 54.5434C95.7741 54.5307 95.9894 54.7587 95.9134 55.4301C95.8754 55.8101 95.9514 56.2028 95.8881 56.5828C95.8501 56.8488 95.6981 57.1274 95.5334 57.3301C95.2674 57.6468 95.2928 58.4828 95.6854 58.6348C96.7874 59.0401 96.9268 59.8381 96.8761 60.8768C96.8001 62.3842 96.8381 63.9042 96.8634 65.4116C96.8761 65.9436 96.7494 66.2476 96.2047 66.3996C95.8247 66.5136 95.3054 66.5769 95.3814 67.1976C95.4701 67.9196 95.0014 68.8443 96.0654 69.2243C96.7494 69.4776 96.9015 69.9463 96.8761 70.643C96.8255 72.3403 96.8381 74.0377 96.8761 75.7224C96.8888 76.267 96.7495 76.647 96.1921 76.761C95.4955 76.9004 95.3434 77.3184 95.3561 77.9771C95.3941 79.8011 95.3688 81.6378 95.3688 83.5251C94.9001 83.5251 94.4948 83.5251 93.9754 83.5251C93.9754 82.9298 93.9754 82.3598 93.9754 81.7771C93.9754 80.4471 93.9627 79.1044 93.988 77.7744C94.0007 77.2677 93.8614 76.9511 93.3547 76.837C92.696 76.685 92.468 76.305 92.4934 75.583C92.5567 73.873 92.5314 72.1503 92.506 70.4276C92.4934 69.8956 92.6327 69.5409 93.1394 69.3129C93.4434 69.1736 93.8614 68.9203 93.912 68.6543C94.026 68.0716 93.9881 67.4383 93.8994 66.8429C93.8741 66.6529 93.456 66.4629 93.19 66.3996C92.62 66.2602 92.4807 65.9182 92.4934 65.3736C92.5314 63.7015 92.5567 62.0295 92.4807 60.3575C92.4427 59.5721 92.6834 59.0655 93.4054 58.7995C94.0134 58.5715 94.0641 58.1408 93.8487 57.5454C89.8207 58.1155 86.0966 59.6228 82.4359 61.5608ZM95.8121 62.6375C95.7994 62.2322 95.8375 61.8142 95.7868 61.4215C95.7615 61.2062 95.6221 60.9528 95.4574 60.8262C95.1028 60.5602 94.7607 60.3195 94.2414 60.6108C93.7221 60.9022 93.5574 61.2315 93.5954 61.7888C93.6334 62.4855 93.5954 63.1949 93.6081 63.8915C93.6081 64.0815 93.646 64.3729 93.76 64.4362C94.1907 64.6895 94.6214 64.9429 95.2041 64.7022C95.7234 64.4742 95.8501 64.1575 95.8121 63.6509C95.7994 63.3215 95.8121 62.9795 95.8121 62.6375ZM95.8121 73.0877C95.8121 72.6823 95.8247 72.277 95.8121 71.8716C95.7994 71.365 95.2294 70.8076 94.7227 70.8076C94.2541 70.8076 93.6207 71.3903 93.6081 71.859C93.5954 72.6697 93.5954 73.4803 93.6081 74.3037C93.6081 74.4684 93.6334 74.7344 93.7348 74.7977C94.2034 75.0637 94.6594 75.279 95.2547 75.0384C95.7867 74.823 95.8374 74.4937 95.8121 74.0377C95.7994 73.721 95.8121 73.4043 95.8121 73.0877Z" fill="black"/>
<path d="M42.1928 86.7425C43.1555 87.1859 44.0675 87.6165 44.9668 88.0219C44.6755 89.4279 44.4348 89.5926 43.1047 89.6812C40.698 89.8586 38.57 89.0732 36.48 87.8319C36.8854 86.9325 37.2907 86.0205 37.734 85.0072C38.5067 85.2985 39.2287 85.5645 40.0774 85.8812C43.5734 74.861 47.0441 63.8915 50.5529 52.808C51.1609 53.0614 51.7308 53.2514 52.2629 53.5301C52.3769 53.5934 52.4275 53.9607 52.3642 54.1381C51.5282 56.8994 50.6668 59.6608 49.8055 62.4095C47.4621 69.8956 45.1061 77.3944 42.7627 84.8805C42.56 85.5012 42.3828 86.0965 42.1928 86.7425Z" fill="black"/>
<path d="M66.2346 41.3193C66.2346 37.9499 66.2599 34.5805 66.2219 31.2111C66.2092 30.5018 66.4372 30.3118 67.1086 30.3625C67.9192 30.4131 68.7426 30.4005 69.5533 30.3625C70.1106 30.3371 70.3006 30.5018 70.288 31.0718C70.25 32.6552 70.2753 34.2385 70.2753 35.8219C70.2753 41.0406 70.2626 46.2593 70.288 51.4908C70.288 52.1241 70.0979 52.3141 69.4899 52.2888C68.6793 52.2508 67.8559 52.2508 67.0452 52.2888C66.4499 52.3141 66.2219 52.1494 66.2346 51.5034C66.2599 48.096 66.2472 44.714 66.2346 41.3193Z" fill="black"/>
<path d="M58.3556 32.123C58.3556 34.8083 58.3683 37.3164 58.3556 39.8244C58.343 41.3318 58.5836 41.1291 57.013 41.1418C52.8329 41.1544 48.6529 41.1291 44.4728 41.1544C43.8648 41.1544 43.7001 40.9898 43.6621 40.3691C43.6115 39.4951 43.9281 38.9504 44.6121 38.4437C46.1195 37.329 47.6648 36.3284 49.5142 35.9357C50.1982 35.7964 50.9076 35.771 51.5916 35.6444C53.9096 35.2137 55.9617 34.2257 57.7097 32.6423C57.8744 32.4903 58.0516 32.3636 58.3556 32.123Z" fill="black"/>
<path d="M48.843 53.6062C47.5637 57.7229 46.3223 61.713 45.043 65.8297C44.2956 65.4117 43.6496 64.9557 42.9276 64.6643C41.6482 64.1577 41.2176 63.3343 41.2936 61.9283C41.4329 59.4076 41.3443 56.8742 41.3189 54.3409C41.3063 53.7455 41.4962 53.5682 42.0916 53.5809C44.3083 53.6189 46.5123 53.6062 48.843 53.6062Z" fill="black"/>
<path d="M53.5804 71.9477C59.6985 71.9477 65.6773 71.9477 71.7827 71.9477C71.7827 72.8724 71.7953 73.759 71.77 74.6584C71.77 74.7724 71.5673 74.9371 71.428 74.9624C71.2126 75.0131 70.9847 74.9877 70.7567 74.9877C65.3353 74.9877 59.9011 74.9877 54.4797 74.9877C53.593 74.9877 53.5931 74.9877 53.5931 74.1011C53.5678 73.4044 53.5804 72.7077 53.5804 71.9477Z" fill="black"/>
<path d="M40.3561 63.2836C38.3421 62.0802 36.4294 60.9529 34.5167 59.8002C34.4027 59.7369 34.3013 59.5469 34.3013 59.4202C34.2887 57.5328 34.2887 55.6455 34.2887 53.6948C36.3407 53.6948 38.3168 53.6948 40.3561 53.6948C40.3561 56.8488 40.3561 59.9902 40.3561 63.2836Z" fill="black"/>
<path d="M46.4366 45.55C46.4366 44.4987 46.4239 43.5107 46.4366 42.5227C46.4366 42.016 46.8419 42.13 47.1333 42.13C49.882 42.1173 52.6434 42.13 55.3921 42.13C56.1647 42.13 56.9248 42.1427 57.6974 42.1173C58.1408 42.1047 58.3561 42.244 58.3308 42.738C58.2928 43.6627 58.3181 44.5874 58.3181 45.5627C54.3661 45.55 50.452 45.55 46.4366 45.55Z" fill="black"/>
<path d="M46.4491 49.2742C46.4491 48.2482 46.4238 47.2855 46.4744 46.3228C46.4871 46.1961 46.8924 45.9935 47.1204 45.9808C49.3371 45.9555 51.5412 45.9555 53.7579 45.9555C55.0626 45.9555 56.3799 45.9808 57.6846 45.9555C58.1912 45.9428 58.3559 46.1201 58.3306 46.6268C58.2926 47.2855 58.2926 47.9315 58.3306 48.5902C58.3686 49.1222 58.1659 49.2868 57.6339 49.2868C54.6319 49.2615 51.6298 49.2742 48.6277 49.2868C47.9437 49.2742 47.2471 49.2742 46.4491 49.2742Z" fill="black"/>
<path d="M58.3052 49.7046C58.3052 50.87 58.3052 51.896 58.3052 52.9093C55.2145 53.6187 52.4912 52.5167 49.7805 51.1866C49.6285 51.5793 49.5144 51.82 49.4384 52.0733C49.1091 53.0487 49.1091 53.0487 48.0451 53.0487C47.5511 53.0487 47.0571 53.0487 46.4491 53.0487C46.4491 51.9973 46.4238 51.022 46.4744 50.034C46.4871 49.9073 46.905 49.7173 47.1331 49.7173C50.3884 49.692 53.6312 49.7046 56.8865 49.7046C57.3425 49.7046 57.7859 49.7046 58.3052 49.7046Z" fill="black"/>
<path d="M79.0031 53.6316C79.7124 53.6316 80.3584 53.6316 81.0804 53.6316C81.0931 53.923 81.1184 54.1763 81.1184 54.4423C81.1184 56.8617 81.1058 59.2684 81.1311 61.6877C81.1311 62.1437 81.0297 62.4478 80.6117 62.6758C80.0924 62.9671 79.5984 63.3218 79.0031 63.7018C79.0031 60.3071 79.0031 57.0137 79.0031 53.6316Z" fill="black"/>
<path d="M61.7508 94.2794C63.0428 94.2668 63.6508 95.2168 63.0808 96.3441C62.9922 96.5088 63.0301 96.8128 63.1315 96.9775C63.6128 97.7881 63.5748 98.5355 62.9795 99.0675C62.4348 99.5488 61.2821 99.5742 60.6995 99.1308C60.0788 98.6495 59.9901 97.9021 60.4081 97.0535C60.4968 96.8761 60.5348 96.5721 60.4461 96.4075C59.8761 95.2928 60.4841 94.2921 61.7508 94.2794ZM61.6368 98.6242C62.2448 98.5482 62.4855 98.3075 62.4981 97.8895C62.5108 97.4208 62.1815 97.1168 61.7888 97.2055C61.5101 97.2688 61.1808 97.6361 61.1048 97.9148C61.0541 98.0921 61.4468 98.3835 61.6368 98.6242ZM62.4475 95.8121C62.4475 95.7234 62.4602 95.6348 62.4602 95.5461C62.2448 95.4194 62.0168 95.1788 61.8015 95.1914C61.5735 95.2041 61.3581 95.4574 61.1301 95.6094C61.3201 95.7994 61.4848 96.1161 61.6874 96.1415C61.9281 96.1541 62.1942 95.9261 62.4475 95.8121Z" fill="black"/>
<path d="M70.1105 96.1539C70.2118 96.1539 70.3258 96.1666 70.4271 96.1539C71.3265 96.0019 71.8585 96.2299 72.1752 96.9013C72.5045 97.5979 72.3778 98.4973 71.8712 98.9786C71.3518 99.4853 70.4145 99.612 69.7938 99.194C69.5531 99.0293 69.2871 98.7506 69.2111 98.4846C68.9071 97.3699 68.8945 96.2426 69.3505 95.1659C69.6545 94.4439 70.4651 94.1146 71.2885 94.3172C71.9598 94.4819 72.3271 95.0012 72.3018 95.7992C71.9345 95.8879 71.6051 96.0019 71.3518 95.5079C71.2631 95.3179 70.8071 95.1406 70.6298 95.2166C70.3384 95.3559 70.1485 95.6979 69.9078 95.9512C69.9965 96.0272 70.0471 96.0906 70.1105 96.1539ZM70.8958 98.5353C71.0225 98.3453 71.3518 98.0793 71.4152 97.7626C71.4912 97.3699 71.3012 97.0026 70.7818 97.0153C70.3385 97.0279 69.9711 97.1673 69.9711 97.6993C69.9711 98.1553 70.1358 98.4973 70.8958 98.5353Z" fill="black"/>
<path d="M66.8551 97.4459C66.7664 97.4459 66.6778 97.4459 66.6018 97.4586C65.7277 97.6232 65.1831 97.4206 64.8411 96.8125C64.4865 96.1792 64.5624 95.2925 65.0057 94.7732C65.4364 94.2665 66.2724 94.0385 66.9184 94.4058C67.2858 94.6085 67.7165 95.0392 67.7672 95.4192C67.8938 96.2552 67.8685 97.1292 67.7672 97.9779C67.6658 98.8899 66.8551 99.4852 66.0065 99.4219C65.1451 99.3586 64.6891 98.8392 64.6511 97.7626C64.9551 97.8386 65.3605 97.8259 65.4745 98.0032C65.7025 98.3579 65.9558 98.6366 66.3231 98.4466C66.6271 98.2946 66.8045 97.9146 67.0451 97.6232C66.9818 97.5726 66.9184 97.5092 66.8551 97.4459ZM66.3611 96.7619C66.5764 96.4832 66.9185 96.2172 66.9691 95.9132C67.0451 95.5205 66.7664 95.1785 66.2978 95.1659C65.8164 95.1532 65.5505 95.4192 65.5378 95.9005C65.5251 96.3565 65.7024 96.6352 66.3611 96.7619Z" fill="black"/>
<path d="M57.2411 95.5839C56.8991 95.5332 56.6837 95.5079 56.4051 95.4699C56.4051 95.2419 56.4051 95.0012 56.4051 94.7606C56.9751 94.5832 57.5198 94.4059 58.1911 94.1906C58.1911 95.9259 58.2038 97.4839 58.1658 99.0293C58.1658 99.156 57.8364 99.3713 57.6717 99.3586C57.5197 99.346 57.2664 99.0926 57.2664 98.9406C57.2284 98.1299 57.2411 97.3193 57.2411 96.4959C57.2411 96.2173 57.2411 95.9259 57.2411 95.5839Z" fill="black"/>
</svg>
