<svg width="128" height="128" viewBox="0 0 128 128" fill="none" xmlns="http://www.w3.org/2000/svg">
<path d="M0.767383 64.2949C0.724527 29.182 28.9091 1.26877 63.1791 0.883069C98.7777 0.483085 126.634 29.0677 127.177 62.7806C127.748 98.5649 98.9778 126.921 64.3363 127.078C29.3091 127.235 1.02452 99.1078 0.767383 64.2949ZM125.834 64.0806C126.077 30.2105 98.2493 2.06874 63.7935 2.18302C30.0091 2.2973 2.55296 29.5391 2.1244 63.0663C1.68156 97.8935 29.5662 125.207 62.8792 125.75C97.9207 126.335 125.934 98.0221 125.834 64.0806Z" fill="black"/>
<path d="M16.9529 64.5805C16.5243 38.1244 38.0948 16.811 64.2224 16.9538C90.4785 17.0967 111.692 38.6815 111.035 65.2519C110.421 90.1081 89.8071 111.479 62.9939 110.964C37.4378 110.464 17.1529 89.5652 16.9529 64.5805ZM110.192 63.9948C110.221 38.2673 89.1358 17.6824 63.8368 17.8252C38.2378 17.9681 17.5529 38.8387 17.7672 64.2091C17.9815 89.6367 38.4806 110.293 64.2796 110.122C90.0786 109.95 110.192 89.0938 110.192 63.9948Z" fill="black"/>
<path d="M63.9361 121.093C63.9361 121.507 64.0789 122.035 63.9075 122.178C63.5789 122.45 62.8647 122.75 62.679 122.593C61.7933 121.878 60.922 121.078 60.2363 120.164C59.6649 119.393 58.3364 118.636 57.5936 119.136C57.2507 119.364 57.0935 120.121 57.1363 120.607C57.2078 121.236 57.7363 121.036 58.1648 120.85C58.3362 120.778 58.5219 120.75 58.8648 120.864C58.7219 121.05 58.622 121.307 58.4363 121.421C57.9792 121.693 57.4935 121.921 57.0078 122.15C56.3364 122.464 56.0078 122.193 56.0506 121.45C56.1935 119.478 56.365 117.521 56.4507 115.55C56.4792 114.793 56.7792 114.55 57.4935 114.593C59.1648 114.693 60.8362 114.779 62.5219 114.85C63.0361 114.879 63.5789 115.021 63.3932 115.636C63.1932 116.264 63.8219 117.45 62.3933 117.393C62.0648 117.379 61.7076 117.293 61.3933 117.379C61.079 117.464 60.8076 117.736 60.5219 117.921C60.7933 118.15 61.0504 118.493 61.3647 118.564C61.9504 118.693 62.5647 118.621 63.1646 118.707C63.3646 118.736 63.5218 118.993 63.6932 119.136C63.5075 119.236 63.3076 119.407 63.1219 119.407C62.6219 119.421 62.1219 119.293 61.6219 119.336C61.379 119.35 61.1648 119.607 60.9362 119.75C61.4219 120.364 61.8505 121.036 62.3933 121.578C62.9219 122.093 63.1789 121.407 63.5218 121.164C63.5503 121.15 63.5932 121.164 63.9361 121.093ZM59.3506 115.336C59.3506 115.35 59.3506 115.364 59.3506 115.379C58.9792 115.35 58.5935 115.236 58.2649 115.321C57.9506 115.393 57.6792 115.679 57.3792 115.864C57.6221 116.079 57.8507 116.45 58.1078 116.479C59.2649 116.607 60.4362 116.664 61.6076 116.679C61.8504 116.679 62.1076 116.364 62.3648 116.207C62.1362 115.979 61.9219 115.621 61.6505 115.564C60.8791 115.421 60.1077 115.407 59.3506 115.336ZM58.6791 118.421C58.7791 118.407 59.0648 118.436 59.2934 118.321C59.7791 118.093 59.8506 117.593 59.3792 117.436C58.8221 117.236 58.1506 117.336 57.5221 117.35C57.4364 117.35 57.2649 117.693 57.3078 117.836C57.3506 118.021 57.5364 118.25 57.7221 118.321C57.9649 118.421 58.2505 118.378 58.6791 118.421Z" fill="black"/>
<path d="M53.5364 121.464C53.0221 121.493 52.5222 121.664 52.3508 121.493C51.5651 120.75 50.7651 119.993 50.1794 119.093C49.7366 118.393 49.551 118.336 48.8367 118.793C47.9653 119.35 46.9224 119.664 45.9082 119.964C45.6225 120.05 45.2225 119.736 44.8797 119.607C44.9083 119.493 44.9225 119.393 44.951 119.279C45.6796 119.15 46.4224 119.036 47.151 118.907C47.4081 118.864 47.7082 118.821 47.9081 118.664C48.1796 118.45 48.3796 118.15 48.6224 117.893C48.3367 117.721 48.0653 117.479 47.751 117.379C47.2368 117.221 46.6938 117.164 46.1795 117.036C45.8938 116.964 45.6368 116.793 45.351 116.664C45.4796 116.479 45.5225 116.364 45.5511 116.379C46.8653 116.607 47.0796 115.65 47.2368 114.736C47.3654 113.964 47.7653 113.807 48.4367 114.007C48.6938 114.079 48.9509 114.164 49.2223 114.193C49.7508 114.264 50.2223 114.307 50.3366 113.55C50.3651 113.322 50.7509 113.15 50.9652 112.965C51.0366 113.222 51.2508 113.536 51.1793 113.75C50.9651 114.422 51.208 114.679 51.8509 114.764C52.1509 114.793 52.4222 114.936 52.7222 114.993C53.4222 115.107 53.565 115.45 53.3793 116.136C53.165 116.879 52.6079 117.793 53.9221 118.164C53.9936 118.193 54.0792 118.536 54.0364 118.564C53.9078 118.664 53.6936 118.764 53.5364 118.736C52.8079 118.593 52.1079 118.393 51.3793 118.25C51.1793 118.207 50.9366 118.321 50.7223 118.35C50.7794 118.593 50.7652 118.907 50.9223 119.05C51.6794 119.793 52.4936 120.507 53.5364 121.464ZM52.6364 116.593C52.565 115.693 52.1364 115.436 51.5365 115.35C50.5079 115.207 50.508 116.079 50.3794 116.664C50.208 117.507 51.108 117.493 51.4651 117.464C51.8937 117.436 52.2507 116.907 52.6364 116.593ZM48.8081 114.593C47.7939 114.807 47.8368 115.436 47.7796 115.964C47.7082 116.807 48.4938 116.979 48.8937 116.822C49.3223 116.65 49.7508 115.979 49.7651 115.507C49.7937 115.193 49.0938 114.85 48.8081 114.593Z" fill="black"/>
<path d="M12.4811 63.4521C12.0954 63.4378 11.7098 63.3807 11.3384 63.395C9.99561 63.4521 8.667 63.5807 7.3242 63.6092C7.02421 63.6092 6.7099 63.3521 6.39563 63.2093C6.68133 62.995 6.967 62.595 7.2527 62.5807C9.52404 62.4664 11.7954 62.4236 14.0668 62.395C14.2667 62.395 14.6525 62.7093 14.6382 62.8093C14.5668 63.1664 14.4526 63.6092 14.1811 63.795C12.5812 64.9521 10.9384 66.0377 9.30986 67.1663C9.03844 67.352 8.80993 67.6091 8.6528 68.0519C9.76704 68.0519 10.8669 68.0662 11.9812 68.0519C12.6097 68.0376 13.2525 67.9234 13.881 67.9519C14.1953 67.9662 14.481 68.2234 14.7953 68.3662C14.5382 68.5662 14.2811 68.9233 14.0097 68.9376C11.7384 69.0376 9.45272 69.0805 7.18138 69.0947C6.96711 69.0947 6.55276 68.7805 6.56704 68.6376C6.59562 68.2805 6.72424 67.8091 6.98137 67.6234C8.52417 66.5091 10.1242 65.4806 11.7098 64.4092C11.9955 64.2092 12.2669 63.9664 12.5383 63.7521C12.5383 63.6521 12.5097 63.5521 12.4811 63.4521Z" fill="black"/>
<path d="M33.3094 21.6965C33.1237 21.4108 32.9809 21.0965 32.7666 20.8394C31.8809 19.7537 30.9381 18.6966 30.081 17.5824C29.8953 17.3396 29.9808 16.911 29.938 16.5682C30.238 16.6824 30.638 16.7253 30.8237 16.9396C32.2236 18.6109 33.5951 20.2966 34.9237 22.0108C35.1237 22.2679 35.095 22.6965 35.1807 23.0536C34.7807 23.1393 34.3379 23.3679 33.9951 23.2679C32.2095 22.7108 30.4381 22.0822 28.6668 21.4822C28.3382 21.368 27.9809 21.2965 27.4524 21.3965C27.6238 21.7108 27.7524 22.0679 27.9666 22.3394C28.838 23.4393 29.7524 24.5107 30.5952 25.6392C30.7666 25.8678 30.7381 26.2678 30.7952 26.582C30.481 26.4678 30.0667 26.4535 29.881 26.2392C28.4239 24.525 27.0097 22.7965 25.624 21.0394C25.4669 20.8394 25.4382 20.2537 25.5382 20.1966C25.8954 19.9966 26.3953 19.768 26.7524 19.868C28.5095 20.4109 30.238 21.068 31.9665 21.668C32.3237 21.7965 32.7094 21.8679 33.0951 21.9679C33.1666 21.8679 33.238 21.7822 33.3094 21.6965Z" fill="black"/>
<path d="M121.32 54.9239C121.32 56.6667 120.377 58.0666 118.863 58.5523C116.492 59.3237 114.52 58.9094 113.377 57.3952C112.263 55.9096 112.177 54.0525 113.149 52.624C114.12 51.1955 116.677 50.4526 118.606 51.0098C120.306 51.524 121.32 52.9811 121.32 54.9239ZM116.849 57.8381C118.763 57.8952 120.206 56.7952 120.391 55.1667C120.577 53.5954 119.52 52.3097 117.763 51.9383C115.549 51.4669 113.349 53.0811 113.463 55.0667C113.563 56.8238 114.72 57.7809 116.849 57.8381Z" fill="black"/>
<path d="M115.606 65.9806C115.949 66.0235 116.291 66.0949 116.634 66.0949C118.106 66.0949 119.577 66.0663 121.063 66.0949C121.334 66.0949 121.606 66.352 121.863 66.4949C121.591 66.6663 121.32 66.9806 121.048 66.9949C118.806 67.0234 116.563 67.0092 114.32 66.9663C114.063 66.9663 113.577 66.6377 113.591 66.5092C113.634 66.1521 113.806 65.6949 114.077 65.5092C115.606 64.4807 117.163 63.5093 118.72 62.5236C118.834 62.4522 118.991 62.4236 119.063 62.3236C119.234 62.1379 119.363 61.9236 119.506 61.7094C119.277 61.6094 119.063 61.4237 118.834 61.4237C117.591 61.4094 116.348 61.4237 115.12 61.438C114.82 61.438 114.506 61.5094 114.22 61.4237C113.963 61.3522 113.763 61.1094 113.534 60.9523C113.777 60.7665 114.006 60.438 114.249 60.4237C116.52 60.3951 118.806 60.4094 121.091 60.4523C121.348 60.4523 121.834 60.7808 121.82 60.938C121.791 61.2808 121.62 61.7379 121.348 61.9236C119.706 63.0236 118.02 64.0521 116.349 65.1092C116.077 65.2807 115.82 65.4664 115.563 65.6521C115.563 65.7521 115.577 65.8663 115.606 65.9806Z" fill="black"/>
<path d="M107.263 27.6819C106.991 27.8105 106.692 27.9105 106.449 28.0962C105.249 28.9533 104.077 29.8533 102.863 30.6961C102.592 30.8818 102.177 30.8532 101.82 30.9104C101.977 30.5675 102.049 30.1104 102.306 29.9247C104.02 28.639 105.777 27.4105 107.534 26.182C107.792 26.0106 108.149 25.9963 108.463 25.9106C108.577 26.3248 108.877 26.8105 108.763 27.1391C108.134 28.8676 107.377 30.5532 106.677 32.2532C106.52 32.6246 106.406 32.996 106.134 33.696C106.72 33.4674 107.077 33.396 107.363 33.196C108.52 32.3817 109.62 31.5104 110.791 30.7247C111.077 30.5247 111.534 30.5818 111.906 30.5104C111.734 30.8247 111.634 31.2247 111.363 31.4246C109.577 32.7817 107.763 34.096 105.934 35.3959C105.763 35.5245 105.277 35.5673 105.263 35.5102C105.106 35.1388 104.863 34.6674 104.977 34.3531C105.606 32.596 106.334 30.8675 107.034 29.1247C107.192 28.7105 107.334 28.2962 107.477 27.8676C107.406 27.8105 107.334 27.7391 107.263 27.6819Z" fill="black"/>
<path d="M17.0526 47.6099C17.0811 48.5384 16.7954 48.8241 16.0811 48.7098C13.1955 48.2384 13.1955 48.2527 12.4812 51.2526C12.3098 51.9811 12.4527 52.4097 13.2241 52.5811C13.8098 52.7097 14.4097 52.8525 14.9668 53.0668C15.224 53.1668 15.3955 53.4668 15.5955 53.6668C15.324 53.7668 15.024 54.0096 14.7811 53.9525C13.3097 53.6382 11.8527 53.2668 10.3813 52.9097C9.79565 52.7668 9.22429 52.524 8.6386 52.4668C7.69578 52.3668 7.45289 51.9097 7.71003 51.0526C8.05287 49.8955 8.26711 48.6956 8.73852 47.5956C9.4242 45.9957 11.1384 45.81 12.3384 47.0813C12.5527 47.3099 12.867 47.5527 13.1385 47.567C14.4241 47.6385 15.6955 47.6099 17.0526 47.6099ZM10.9814 52.024C11.1671 51.8097 11.4812 51.6097 11.5669 51.324C11.7955 50.6669 11.9385 49.9669 12.0671 49.2813C12.2528 48.2956 11.8669 47.6385 11.0241 47.4099C10.2527 47.2099 9.52418 47.6956 9.25276 48.6527C9.06705 49.2955 8.85285 49.9527 8.79571 50.6098C8.76714 50.8955 9.00993 51.3669 9.26706 51.5097C9.7099 51.7526 10.2671 51.824 10.9814 52.024Z" fill="black"/>
<path d="M51.8795 7.65428C52.0367 7.52571 52.2795 7.19715 52.5652 7.14001C53.6794 6.91145 54.8079 6.64003 55.9365 6.64003C56.665 6.64003 57.5793 6.89716 58.0935 7.38286C58.8078 8.03997 58.8934 9.01137 58.3506 9.96847C58.2077 10.2256 58.3936 10.7113 58.4935 11.0827C58.7793 12.1398 59.1078 13.1683 59.3792 14.2254C59.4078 14.3112 59.1792 14.5826 59.122 14.5683C58.8935 14.5112 58.5507 14.4254 58.4793 14.254C58.2793 13.7969 58.1935 13.2969 58.0792 12.8112C57.7507 11.4113 57.4079 11.1684 55.965 11.3541C55.7651 11.3827 55.565 11.4113 55.365 11.4398C53.4222 11.7113 53.4222 11.7113 53.7508 13.6969C53.8079 14.054 53.8936 14.4254 53.8793 14.7969C53.865 14.9826 53.6507 15.1397 53.5222 15.3254C53.3222 15.1683 53.0079 15.054 52.965 14.8683C52.8365 14.354 52.8223 13.8112 52.7366 13.2826C52.4652 11.497 52.1938 9.71134 51.8795 7.65428ZM53.8936 10.7684C54.5079 10.697 54.8651 10.6542 55.2365 10.597C55.6079 10.5542 55.9651 10.5113 56.3365 10.4399C57.165 10.2827 57.7363 9.5542 57.622 8.79709C57.5077 7.98283 56.865 7.46857 55.9793 7.53999C55.208 7.61142 54.4364 7.68285 53.6936 7.86855C53.4365 7.93998 53.0937 8.33996 53.0794 8.61138C53.0509 9.12565 53.165 9.68277 53.3365 10.1827C53.4365 10.4685 53.7793 10.6542 53.8936 10.7684Z" fill="black"/>
<path d="M92.7352 13.354C94.6065 13.3255 96.7635 15.3111 96.7492 17.1682C96.7349 19.3252 95.0065 22.1966 92.2209 22.1966C90.2067 22.1966 88.0638 20.2395 88.1924 18.3253C88.3495 15.8682 90.2495 13.4398 92.7352 13.354ZM95.7064 17.3253C95.6778 15.6968 94.3494 14.3826 92.7495 14.4111C91.021 14.4397 89.1923 16.5825 89.2209 18.5253C89.2495 19.8681 90.7924 21.3109 92.1923 21.2823C93.7637 21.2537 95.735 19.0395 95.7064 17.3253Z" fill="black"/>
<path d="M106.934 95.9796C106.306 95.4653 105.735 94.9082 105.049 94.5368C104.863 94.4368 104.263 94.8653 103.992 95.1653C103.306 95.9367 102.735 96.8081 102.049 97.5938C101.863 97.7938 101.449 97.8081 101.149 97.8938C101.22 97.6081 101.206 97.2652 101.363 97.051C102.292 95.8224 103.263 94.6225 104.206 93.4082C104.535 92.9654 104.806 92.9083 105.263 93.2797C107.006 94.6796 108.792 96.051 110.563 97.4081C111.006 97.7509 111.191 98.0652 110.777 98.5652C109.834 99.7366 108.949 100.951 107.992 102.108C107.834 102.308 107.434 102.308 107.149 102.394C107.192 102.079 107.12 101.694 107.292 101.465C107.934 100.579 108.634 99.708 109.363 98.8794C109.792 98.3795 109.791 98.0081 109.234 97.6509C109.006 97.5081 108.82 97.3224 108.62 97.1367C108.077 96.6224 107.62 96.7224 107.192 97.2938C106.692 97.9652 106.22 98.6652 105.649 99.2794C105.377 99.5794 104.949 99.708 104.592 99.9223C104.692 99.5509 104.706 99.108 104.906 98.808C105.406 98.0652 106.006 97.3795 106.563 96.6653C106.663 96.5081 106.763 96.2938 106.934 95.9796Z" fill="black"/>
<path d="M22.1524 92.0795C21.6525 91.2224 21.2524 90.5224 20.8524 89.851C20.5667 89.3653 20.1953 88.9082 19.9668 88.3939C19.8525 88.1511 19.9525 87.8082 19.9525 87.5225C20.2239 87.6511 20.5954 87.7225 20.7382 87.9368C21.5953 89.2653 22.381 90.6224 23.2095 91.9509C23.5381 92.4795 23.281 92.7366 22.8524 92.9938C20.9239 94.1366 18.9954 95.2651 17.0811 96.4365C16.5526 96.765 16.2098 96.6793 15.9241 96.1936C15.1385 94.908 14.3528 93.6223 13.6099 92.3223C13.4814 92.0938 13.5957 91.7367 13.6099 91.4224C13.8957 91.5795 14.2813 91.6509 14.4384 91.8938C15.0241 92.7509 15.567 93.6366 16.0527 94.5651C16.4384 95.2937 16.8527 95.5079 17.5384 94.9365C17.7384 94.7651 17.9812 94.6365 18.224 94.5223C18.8383 94.2223 18.8383 93.8794 18.4526 93.3366C17.8527 92.4938 17.3384 91.5938 16.8241 90.6938C16.7241 90.5081 16.7955 90.2224 16.7812 89.9796C17.0383 90.051 17.3955 90.0367 17.5098 90.2081C18.0812 91.0367 18.6097 91.8938 19.0811 92.7795C19.4382 93.4509 19.8239 93.6652 20.4953 93.1795C21.0239 92.7938 21.581 92.4652 22.1524 92.0795Z" fill="black"/>
<path d="M22.352 103.95C21.6521 103.55 21.5664 103.179 22.1949 102.722C22.3806 102.579 22.5521 102.422 22.7378 102.265C24.352 100.922 24.352 100.922 22.9235 99.3648C21.295 97.6077 21.3092 97.622 19.4807 99.1505C19.2093 99.379 18.5379 99.5647 18.395 99.4219C17.9093 98.9505 18.4093 98.6076 18.7807 98.3076C20.395 96.9506 21.9949 95.5792 23.6377 94.265C23.9091 94.0507 24.3663 94.0792 24.7377 93.9935C24.6091 94.3507 24.5662 94.7935 24.3234 95.0649C23.852 95.5792 23.2663 95.9792 22.7235 96.422C22.3378 96.7363 22.1806 97.0791 22.5663 97.522C23.2235 98.2791 23.8662 99.0505 24.4805 99.8362C24.7948 100.236 25.0804 100.293 25.4804 99.9504C26.1089 99.3933 26.7376 98.8362 27.409 98.3505C27.6376 98.1934 28.0375 98.2934 28.366 98.2648C28.2946 98.5505 28.309 98.9505 28.1376 99.1076C26.2091 100.75 24.2805 102.35 22.352 103.95Z" fill="black"/>
<path d="M37.2085 113.179C36.4514 113.379 36.1656 113.179 36.5942 112.479C37.0513 111.736 37.4656 110.979 37.8799 110.208C38.1513 109.693 38.4942 109.536 39.0085 109.879C39.337 110.108 39.737 110.236 40.0512 110.479C40.8084 111.05 41.394 111.207 41.7654 110.093C41.8082 109.95 42.1798 109.908 42.4083 109.822C42.4226 110.05 42.5367 110.379 42.4368 110.507C41.7368 111.279 42.194 111.65 42.8654 112.036C44.8367 113.165 44.8224 113.179 43.6796 115.179C43.551 115.407 43.451 115.664 43.3224 115.893C42.8796 116.707 42.7368 116.65 42.1082 115.964C41.6797 115.493 41.0511 115.179 40.4654 114.907C40.3225 114.836 39.9083 115.15 39.7511 115.379C39.4369 115.85 39.2369 116.393 38.9227 116.864C38.8084 117.036 38.5085 117.064 38.3085 117.164C38.2799 116.907 38.137 116.607 38.2227 116.393C38.3941 115.964 38.6513 115.564 38.9513 115.207C39.537 114.493 39.2226 114.064 38.5512 113.736C38.1227 113.536 37.6656 113.365 37.2085 113.179ZM38.8798 110.365C38.4226 111.093 37.7513 111.85 37.8799 112.065C38.2656 112.665 38.994 113.05 39.594 113.507C39.9369 113.007 40.6798 112.365 40.5655 112.05C40.3226 111.45 39.6083 111.05 38.8798 110.365ZM41.8939 112.05C41.4225 112.707 40.7368 113.407 40.8511 113.579C41.2225 114.164 41.8796 114.55 42.4368 115.022C42.8082 114.55 43.5368 113.964 43.4511 113.622C43.2797 113.079 42.5796 112.693 41.8939 112.05Z" fill="black"/>
<path d="M63.8933 14.7397C62.1648 14.7397 60.9935 14.0683 60.6078 12.8683C60.5221 12.5969 60.7078 12.2255 60.7793 11.9112C61.0078 12.0969 61.3364 12.2255 61.4649 12.4683C62.1935 13.8826 63.9219 14.3825 65.2932 13.554C66.3075 12.9397 66.3219 11.7684 65.2648 11.2541C64.5791 10.9255 63.822 10.7255 63.0791 10.5541C61.4792 10.1827 60.7221 9.48274 60.7793 8.3685C60.8364 7.08283 61.8078 6.16858 63.2935 5.94002C64.5934 5.75431 66.1647 6.46857 66.6218 7.52567C66.7361 7.79709 66.6218 8.18279 66.6075 8.51135C66.3218 8.35421 65.9362 8.25422 65.7934 8.01137C65.0791 6.91141 64.0219 6.55428 62.7933 6.99712C62.0791 7.25425 61.6649 7.79709 61.8363 8.43992C61.9506 8.86848 62.5219 9.26846 62.9934 9.49702C63.5933 9.78273 64.2792 9.86844 64.922 10.0399C66.4362 10.4684 67.1789 11.2684 67.1218 12.4112C67.0504 13.5826 66.1647 14.4254 64.6648 14.6682C64.3505 14.6968 64.0505 14.7111 63.8933 14.7397Z" fill="black"/>
<path d="M100.477 99.122C100.663 99.1934 101.12 99.322 101.492 99.5648C101.692 99.6934 101.749 100.022 101.863 100.265C101.592 100.308 101.292 100.45 101.077 100.379C99.4632 99.8362 98.4204 100.236 97.5633 101.722C97.1919 102.365 97.2205 102.936 97.7347 103.465C98.2204 103.965 98.7633 104.007 99.3776 103.679C100.206 103.236 101.049 102.822 101.892 102.393C102.692 101.979 103.42 102.022 104.106 102.679C104.834 103.379 105.134 104.279 104.749 105.15C104.149 106.479 103.134 107.45 101.563 107.622C101.335 107.65 101.049 107.693 100.877 107.579C100.506 107.35 99.8917 106.95 99.9345 106.75C100.092 106.079 100.635 106.379 101.063 106.565C102.277 107.065 103.877 105.579 103.963 104.593C104.049 103.665 103.177 102.979 102.306 103.322C101.349 103.707 100.435 104.222 99.5204 104.707C98.6204 105.179 97.8489 105.007 97.1204 104.35C96.4347 103.722 96.2205 102.965 96.4776 102.079C96.9348 100.479 98.6346 99.122 100.477 99.122Z" fill="black"/>
<path d="M50.2225 11.9542C49.8939 12.1114 49.5938 12.3114 49.251 12.4256C48.3796 12.6828 47.5083 12.9113 46.6369 13.1256C46.0083 13.2827 45.837 13.6684 45.9798 14.2541C45.9941 14.3256 46.0226 14.3827 46.0368 14.4398C46.5511 16.3112 46.5369 16.2969 48.4082 15.7684C49.2082 15.5398 50.0224 15.3112 50.8366 15.1255C51.0509 15.0827 51.308 15.2255 51.5366 15.2684C51.3937 15.4827 51.2795 15.8255 51.0795 15.8969C49.551 16.3826 48.0082 16.854 46.4512 17.2397C46.2226 17.2969 45.7084 16.9255 45.637 16.654C44.9942 14.5113 44.437 12.3399 43.837 10.1686C43.6656 9.55432 43.8656 9.24004 44.4941 9.08291C45.8655 8.75435 47.2083 8.34008 48.5796 8.02581C48.8939 7.95438 49.2653 8.18294 49.6081 8.26865C49.351 8.48293 49.1225 8.78292 48.8225 8.86863C47.8654 9.16862 46.8797 9.41147 45.9083 9.61146C44.9084 9.81145 44.9511 10.4543 45.1226 11.2114C45.294 11.9257 45.4798 12.5113 46.4512 12.2256C47.3511 11.9542 48.2654 11.7685 49.1797 11.5828C49.4797 11.5257 49.794 11.54 50.0939 11.5114C50.1368 11.6828 50.1796 11.8257 50.2225 11.9542Z" fill="black"/>
<path d="M11.0382 74.8088C10.9096 74.1945 10.6525 73.2232 10.4953 72.2375C10.4525 71.9518 10.6668 71.6375 10.7526 71.3375C10.9383 71.5946 11.2383 71.8232 11.3097 72.1089C11.5383 73.0517 11.6524 74.0231 11.9239 74.9517C12.0096 75.2231 12.4525 75.5659 12.7382 75.5659C13.2953 75.5659 13.8953 75.4516 14.381 75.1945C14.6239 75.0659 14.838 74.5374 14.7952 74.2231C14.6666 73.2232 14.4237 72.2518 14.2237 71.2661C14.1809 71.0375 14.0667 70.7947 14.1095 70.5804C14.1524 70.3947 14.3667 70.2518 14.5096 70.0804C14.6667 70.2233 14.9095 70.3518 14.9523 70.5233C15.3237 72.1232 15.6667 73.7231 15.9524 75.3374C15.9809 75.5231 15.6524 75.9373 15.4381 75.9802C13.2096 76.4659 10.9811 76.8944 8.7526 77.3658C8.05262 77.5087 7.80979 77.223 7.69551 76.5516C7.46695 75.2374 7.13833 73.9231 6.92406 72.6089C6.86692 72.2946 7.10987 71.9375 7.20986 71.5946C7.39557 71.8518 7.69558 72.0946 7.76701 72.3803C8.02414 73.4231 8.20978 74.4802 8.40977 75.5373C8.59547 76.4944 9.26693 76.2659 9.89548 76.1802C10.4955 76.0945 11.1525 76.0802 11.0382 74.8088Z" fill="black"/>
<path d="M15.5816 40.4098C16.753 40.4098 17.9243 40.3812 19.0957 40.4384C19.3671 40.4527 19.6243 40.7669 19.8957 40.9526C19.6243 41.1384 19.3671 41.3526 19.0671 41.4955C18.8956 41.5669 18.6672 41.5383 18.4672 41.4955C17.3815 41.2384 16.8387 41.6669 16.4672 42.7097C15.8387 44.4811 15.7672 44.4525 17.1386 45.8096C17.2529 45.9239 17.4386 46.0382 17.4671 46.181C17.51 46.4524 17.4671 46.7239 17.4528 47.0096C17.21 46.9524 16.9243 46.9667 16.7529 46.8238C15.8958 46.081 15.0815 45.2953 14.2387 44.5239C13.3816 43.7383 12.4674 42.9811 11.6675 42.1383C11.3246 41.7812 11.2104 41.2098 10.9961 40.7241C11.4532 40.5384 11.9103 40.2384 12.3817 40.2098C13.4531 40.1384 14.5245 40.1812 15.5959 40.1812C15.5816 40.2527 15.5816 40.3384 15.5816 40.4098ZM14.9815 43.8097C15.2958 43.1526 15.5958 42.6812 15.7387 42.1669C15.7958 41.9669 15.5673 41.4955 15.4245 41.4669C14.4816 41.3241 13.5245 41.2669 12.5674 41.1812C12.5246 41.2955 12.4816 41.4241 12.4387 41.5383C13.2244 42.2526 14.0244 42.9669 14.9815 43.8097Z" fill="black"/>
<path d="M114.22 35.3529C114.334 35.4243 114.834 35.5814 114.948 35.8814C115.063 36.1671 114.891 36.7242 114.663 36.9814C113.077 38.7527 111.449 40.4812 109.806 42.1954C109.649 42.3669 109.32 42.3669 109.063 42.4526C109.034 42.1526 108.892 41.7812 109.02 41.5812C109.249 41.1812 109.634 40.8812 109.963 40.5526C110.106 40.4098 110.377 40.1955 110.334 40.1098C109.991 39.167 109.649 38.2242 109.206 37.3385C109.092 37.1099 108.606 36.9671 108.292 36.9528C107.792 36.9385 107.292 37.1242 106.806 37.1242C106.577 37.1242 106.363 36.8385 106.135 36.6957C106.335 36.5242 106.52 36.2242 106.734 36.1957C109.12 35.8671 111.52 35.6386 114.22 35.3529ZM113.563 36.6957C113.52 36.5957 113.477 36.4957 113.42 36.41C112.891 36.4528 112.363 36.4814 111.834 36.51C110.063 36.6099 109.949 36.7957 110.763 38.3242C110.82 38.4384 110.849 38.6242 110.934 38.667C111.12 38.7527 111.449 38.8813 111.534 38.7956C112.234 38.1099 112.891 37.3956 113.563 36.6957Z" fill="black"/>
<path d="M83.8638 113.978C83.0353 114.264 82.1925 114.55 81.3639 114.85C80.5497 115.135 80.4926 115.421 81.0783 116.05C82.164 117.221 83.4496 117.992 85.1781 117.864C85.0781 118.707 84.721 119.049 84.0924 118.778C83.1211 118.364 82.164 117.907 81.264 117.335C80.6783 116.964 80.5212 116.935 80.2069 117.635C79.7355 118.678 79.0927 119.664 78.4213 120.592C78.1213 121.021 77.5928 121.321 77.0214 120.735C77.6356 120.064 78.3356 119.478 78.7784 118.735C79.1641 118.078 79.3355 117.264 79.4784 116.492C79.6355 115.607 79.0641 115.464 78.3641 115.678C77.7641 115.864 77.1784 116.135 76.5641 116.292C76.3641 116.349 76.107 116.164 75.8785 116.078C76.0356 115.892 76.15 115.635 76.3357 115.55C76.8357 115.35 77.3642 115.235 77.8784 115.092C79.3212 114.678 79.3642 114.607 78.8499 113.235C78.807 113.107 78.6926 112.964 78.7212 112.864C78.7784 112.635 78.9213 112.421 79.0213 112.207C79.207 112.307 79.407 112.393 79.5642 112.535C79.6499 112.607 79.6784 112.778 79.707 112.907C80.1784 114.435 80.1784 114.435 81.6926 113.964C82.1355 113.821 82.5639 113.592 83.0211 113.492C83.2639 113.435 83.564 113.55 83.8211 113.592C83.8497 113.75 83.8638 113.864 83.8638 113.978Z" fill="black"/>
<path d="M24.9517 31.5531C24.4803 31.3388 23.7234 31.1245 23.1377 30.6817C21.9092 29.7532 20.7519 28.7389 19.6091 27.7104C19.3948 27.5104 19.3806 27.0818 19.2806 26.7533C19.6377 26.839 20.0662 26.8104 20.3234 27.0104C21.4519 27.9104 22.5091 28.8818 23.6233 29.796C24.8518 30.8103 26.0232 30.7245 26.966 29.596C27.7945 28.5961 27.6232 27.4247 26.4947 26.4247C25.4233 25.4676 24.2947 24.5534 23.2519 23.582C23.0233 23.3677 23.009 22.9391 22.8948 22.6106C23.2376 22.6677 23.6804 22.6106 23.909 22.7963C25.1375 23.8248 26.3517 24.8819 27.4945 26.0104C28.3945 26.8961 28.7516 28.0246 28.2088 29.2246C27.6088 30.4388 26.6945 31.3388 24.9517 31.5531Z" fill="black"/>
<path d="M12.7095 85.594C11.1381 85.7368 10.0953 84.7797 9.43813 83.4083C8.85244 82.1655 8.8239 80.8513 9.82386 79.7371C10.0381 79.5085 10.4095 79.4085 10.6952 79.2514C10.6524 79.5942 10.7381 80.0656 10.5524 80.2799C9.75245 81.1799 9.83808 82.137 10.2952 83.0941C10.7809 84.1226 11.6525 84.8083 12.781 84.5797C13.8952 84.3512 15.0095 83.9369 15.9951 83.3655C16.8951 82.8369 17.1522 81.837 16.8522 80.7942C16.5522 79.7228 15.895 79.0657 14.7665 78.8942C14.3236 78.8228 13.5951 78.9942 13.7237 78.2228C13.7522 78.0514 14.6094 77.8514 15.0094 77.9371C16.5236 78.28 17.4236 79.3085 17.7665 80.8085C18.0808 82.2084 17.6806 83.4369 16.5521 84.3083C15.4807 85.1369 14.2666 85.7083 12.7095 85.594Z" fill="black"/>
<path d="M113.763 67.866C116.134 69.166 118.505 70.4659 120.862 71.7944C121.062 71.9087 121.262 72.3373 121.205 72.5087C121.105 72.8087 120.805 73.1944 120.534 73.2658C118.162 73.8229 115.762 74.3372 113.377 74.8229C113.12 74.88 112.82 74.6372 112.534 74.5515C112.748 74.3086 112.977 73.8372 113.191 73.8372C115.148 73.8801 115.477 72.5944 115.677 71.0659C115.762 70.3659 115.662 69.9088 114.977 69.6088C114.577 69.4374 114.177 69.2374 113.862 68.9517C113.634 68.7374 113.563 68.366 113.42 68.066C113.52 68.0089 113.634 67.9374 113.763 67.866ZM119.562 72.4515C119.562 72.323 119.577 72.1944 119.577 72.0658C119.034 71.7801 118.491 71.4801 117.92 71.2087C116.605 70.5802 116.162 70.8659 116.205 72.3373C116.205 72.5515 116.52 72.9658 116.648 72.9515C117.634 72.8372 118.591 72.6372 119.562 72.4515Z" fill="black"/>
<path d="M74.1929 115.45C73.9072 115.521 73.607 115.607 73.3213 115.65C72.4642 115.793 71.6072 115.879 70.7501 116.064C69.9073 116.25 69.2073 117.493 69.3216 118.364C69.4358 119.193 69.4787 120.021 69.4644 120.85C69.4501 121.178 69.2502 121.564 69.0216 121.793C68.8502 121.95 68.4787 121.907 68.193 121.95C68.2216 121.693 68.2645 121.421 68.2931 121.164C68.3788 120.393 68.4929 119.607 68.5215 118.836C68.5215 118.693 68.1787 118.536 67.993 118.378C67.8216 118.593 67.5645 118.793 67.5073 119.05C67.293 119.921 67.193 120.807 66.9645 121.678C66.8931 121.95 66.536 122.135 66.3074 122.364C66.2789 122.007 66.1931 121.635 66.2502 121.293C66.3931 120.45 66.693 119.607 66.7645 118.764C66.8502 117.807 67.1073 116.636 65.3217 116.593C65.3931 116.493 65.4502 116.393 65.5217 116.293C65.9645 116.164 66.5074 116.15 66.8074 115.864C67.0645 115.636 67.0502 115.107 67.1931 114.55C67.3645 114.679 67.6931 114.779 67.7502 114.979C68.0074 115.764 68.693 115.879 69.2787 115.793C69.5787 115.75 69.793 115.136 70.0501 114.779C70.2073 114.55 70.3786 114.321 70.5501 114.107C70.7072 114.321 70.8357 114.564 71.0214 114.75C71.2071 114.921 71.4501 115.15 71.6787 115.15C72.2501 115.15 72.8071 115.007 73.3785 114.979C73.6499 114.964 73.9215 115.079 74.2072 115.136C74.1929 115.236 74.1929 115.35 74.1929 115.45ZM68.136 117.864C68.5217 117.493 68.7502 117.264 68.9787 117.05C68.7359 116.836 68.5073 116.478 68.2502 116.464C67.9788 116.464 67.7073 116.793 67.4501 116.978C67.6358 117.221 67.836 117.464 68.136 117.864Z" fill="black"/>
<path d="M104.106 21.4822C103.978 21.6393 103.892 21.8679 103.778 21.8679C103.578 21.8822 103.32 21.825 103.163 21.6965C102.406 21.0822 101.649 20.4822 100.949 19.7965C100.335 19.1823 99.8777 19.2537 99.4063 19.9394C99.292 20.1108 99.1493 20.2679 98.9922 20.3822C98.3922 20.8394 98.5208 21.2822 99.0065 21.6965C99.635 22.2393 100.321 22.7393 100.921 23.325C101.121 23.5107 101.106 23.9107 101.192 24.2249C100.906 24.1535 100.563 24.1392 100.335 23.9821C99.6635 23.4821 99.035 22.925 98.4207 22.3679C98.0064 21.9822 97.6922 21.9822 97.335 22.425C96.835 23.0536 96.3208 23.6821 95.7637 24.2392C95.578 24.4249 95.1923 24.4106 94.9066 24.4821C94.9209 24.1821 94.8351 23.7964 94.9779 23.6107C96.435 21.8107 97.9064 20.0394 99.4349 18.3109C99.6063 18.1252 100.221 18.0537 100.421 18.2109C101.563 19.0966 102.635 20.0537 103.72 20.9965C103.878 21.1251 103.963 21.3108 104.106 21.4822Z" fill="black"/>
<path d="M41.3796 17.4822C41.2225 16.0394 41.0511 14.5823 40.894 13.1395C40.8226 12.4681 40.694 11.811 40.694 11.1396C40.694 10.8825 40.9941 10.6111 41.1655 10.3539C41.3512 10.5825 41.6655 10.7968 41.694 11.0396C41.9512 13.4395 42.1797 15.8394 42.3654 18.2393C42.394 18.5536 42.1083 19.025 41.8369 19.1964C41.6654 19.3107 41.1369 19.1107 40.9226 18.8964C39.1798 17.2251 37.4656 15.5251 35.78 13.8109C35.5943 13.6252 35.6228 13.2538 35.537 12.9681C35.8513 13.011 36.2942 12.9253 36.4799 13.0967C37.7942 14.3823 39.0655 15.7251 40.3511 17.0537C40.5654 17.2679 40.8225 17.4536 41.0511 17.6536C41.1511 17.5965 41.2653 17.5394 41.3796 17.4822Z" fill="black"/>
<path d="M28.9948 109.764C28.5234 109.479 28.2519 109.35 28.0234 109.164C26.7377 108.093 25.4521 107.022 24.2093 105.922C24.0236 105.764 23.9806 105.436 23.8663 105.193C24.152 105.193 24.4522 105.179 24.7379 105.179C24.7665 105.179 24.7806 105.222 24.8092 105.236C26.5091 106.45 26.5091 106.45 27.8519 104.864C28.7805 103.765 29.6663 102.636 30.6377 101.565C30.8662 101.322 31.4661 101.05 31.6089 101.165C32.1518 101.579 31.6946 101.965 31.3946 102.322C30.2375 103.707 29.1091 105.122 27.9091 106.479C27.3806 107.079 27.3806 107.479 28.052 107.922C28.4377 108.179 28.7947 108.507 29.0804 108.864C29.1947 109.036 29.0377 109.379 28.9948 109.764Z" fill="black"/>
<path d="M91.0497 113.122C91.7782 112.679 92.4925 112.207 93.2496 111.807C93.5211 111.665 93.8924 111.722 94.2352 111.679C94.0495 111.936 93.8925 112.236 93.6497 112.422C93.2783 112.693 92.8354 112.879 92.4212 113.093C91.5641 113.522 90.9212 113.964 91.6926 115.064C91.8355 115.279 91.3926 115.95 91.1498 116.364C91.0926 116.464 90.7354 116.393 90.5211 116.393C90.5354 116.193 90.5497 115.979 90.564 115.779C90.5783 115.393 90.5783 114.993 90.5926 114.607C90.2069 114.664 89.7783 114.65 89.4355 114.807C88.6783 115.164 87.9785 115.636 87.2357 116.021C87.0499 116.107 86.7784 116.021 86.5355 116.007C86.6355 115.779 86.6642 115.45 86.8356 115.35C87.4927 114.95 88.2069 114.65 88.8783 114.279C89.164 114.122 89.5069 113.95 89.6498 113.693C89.7926 113.45 89.6927 113.064 89.707 112.75C89.4355 112.793 89.1355 112.764 88.9069 112.879C88.4784 113.079 88.1213 113.393 87.6927 113.579C87.5356 113.65 87.2784 113.522 87.0784 113.479C87.1641 113.293 87.1927 113.007 87.3356 112.922C88.6784 112.165 90.0211 111.422 91.3925 110.707C91.5354 110.636 91.7926 110.793 92.0068 110.836C91.9497 111.065 91.9497 111.336 91.8211 111.507C91.4926 111.965 91.1069 112.379 90.7497 112.807C90.8355 112.893 90.9497 113.007 91.0497 113.122Z" fill="black"/>
<path d="M117.077 87.665C116.977 87.8936 116.906 88.0936 116.82 88.265C116.077 89.7221 115.349 91.1935 114.563 92.6363C114.42 92.8934 114.049 93.0505 113.792 93.2505C113.777 92.8934 113.62 92.4791 113.763 92.2077C114.62 90.4649 114.635 90.4935 112.878 89.6364C111.492 88.9507 110.12 88.2507 108.778 87.5079C108.535 87.3651 108.435 86.9651 108.263 86.6937C108.592 86.6651 108.978 86.4937 109.235 86.608C110.892 87.3936 112.549 88.2079 114.149 89.1079C114.863 89.5078 115.235 89.4221 115.549 88.7079C115.735 88.2793 115.949 87.8508 116.22 87.4793C116.32 87.3508 116.62 87.3079 116.835 87.3222C116.935 87.3222 117.02 87.5508 117.077 87.665Z" fill="black"/>
<path d="M80.1785 8.08288C80.4642 8.41144 80.8641 8.71142 81.007 9.09712C81.307 9.95423 81.4357 10.8542 81.6785 11.7256C81.7642 12.0256 81.9214 12.3113 82.0499 12.6113C82.3642 12.4541 82.7355 12.3684 82.9926 12.1541C83.7355 11.5399 84.4212 10.8399 85.1926 10.2399C85.4783 10.0257 85.9355 10.0399 86.3212 9.95423C86.3783 10.0828 86.4355 10.2114 86.4926 10.3542C85.6498 11.0828 84.8355 11.8684 83.9355 12.5398C82.6498 13.4827 81.807 14.6255 81.5641 16.2254C81.5213 16.5397 81.0643 16.7825 80.8071 17.054C80.7214 16.6825 80.4643 16.2111 80.5928 15.954C81.8214 13.5969 80.5643 11.4827 80.05 9.29712C79.9786 8.96856 79.9071 8.64 79.85 8.31144C79.95 8.21144 80.0642 8.1543 80.1785 8.08288Z" fill="black"/>
<path d="M119.02 45.1669C118.948 45.2527 118.848 45.4812 118.705 45.4955C118.548 45.5098 118.305 45.3812 118.234 45.2527C118.02 44.8812 117.834 44.4813 117.705 44.067C117.448 43.2956 117.034 43.0813 116.262 43.4099C114.691 44.067 113.091 44.667 111.506 45.2955C111.377 45.3384 111.248 45.4384 111.134 45.4241C110.806 45.3812 110.491 45.2955 110.177 45.2384C110.363 44.9955 110.491 44.6384 110.734 44.5241C111.42 44.1813 112.163 43.9384 112.877 43.6527C113.905 43.2527 114.92 42.7956 115.963 42.4528C116.877 42.1528 116.891 41.6528 116.534 40.91C116.348 40.5243 116.234 40.0957 116.163 39.6814C116.134 39.5529 116.334 39.3386 116.477 39.2672C116.563 39.2243 116.848 39.3529 116.891 39.4529C117.577 41.3242 118.277 43.1956 119.02 45.1669Z" fill="black"/>
<path d="M13.3525 58.6525C11.8525 58.481 10.3526 58.3096 8.86691 58.1096C7.99552 57.9953 7.40985 58.1525 7.467 59.2239C7.48128 59.481 7.42417 59.7667 7.32418 60.0096C7.2099 60.281 7.00995 60.5238 6.83853 60.781C6.72425 60.481 6.51002 60.1667 6.5243 59.8667C6.58144 58.7667 6.70994 57.6668 6.80993 56.5668C6.86707 55.9954 6.86707 55.424 6.98135 54.8669C7.03849 54.6098 7.33848 54.3955 7.52419 54.1669C7.63847 54.4098 7.86702 54.6526 7.86702 54.8955C7.85274 57.0097 7.83854 57.024 9.92417 57.2668C11.2813 57.4239 12.6526 57.5239 14.024 57.7239C14.3669 57.7668 14.6667 58.0953 14.981 58.281C14.6382 58.4239 14.3096 58.5953 13.9525 58.6953C13.7668 58.7525 13.5525 58.6667 13.3525 58.6525Z" fill="black"/>
<path d="M76.4214 8.21152C75.6642 8.19724 75.5072 8.66865 75.4072 9.24005C75.1215 10.9971 74.8357 12.7399 74.4929 14.4827C74.4358 14.797 74.0929 15.0541 73.8929 15.3398C73.7643 14.9827 73.4786 14.6113 73.5357 14.2827C73.7929 12.5971 74.15 10.9257 74.4214 9.24005C74.6214 8.0401 74.4358 7.84011 73.2501 7.69725C72.7501 7.64011 72.1216 7.86868 71.9787 7.08299C72.4501 6.99728 72.9358 6.81158 73.3929 6.86872C74.8786 7.06871 76.3642 7.35441 77.8356 7.66869C78.0927 7.72583 78.2927 8.0401 78.5212 8.22581C78.2355 8.29723 77.9499 8.45437 77.6642 8.44008C77.2356 8.41151 76.8071 8.28295 76.4214 8.21152Z" fill="black"/>
<path d="M69.8218 119.336C70.1503 118.278 70.4647 117.307 70.7646 116.336C70.8646 116.264 70.9646 116.193 71.0503 116.136C71.6931 117.764 73.036 116.336 74.1645 117.15C73.5788 117.307 73.2074 117.321 72.9503 117.493C72.7218 117.65 72.6216 117.979 72.4502 118.236C72.7216 118.364 72.9788 118.578 73.2502 118.593C73.6217 118.607 73.9931 118.478 74.3645 118.407C74.4074 118.521 74.4645 118.65 74.5073 118.764C74.2074 118.907 73.9074 119.036 73.6217 119.193C73.3788 119.321 73.1503 119.493 72.9217 119.636C73.0646 119.85 73.1645 120.093 73.3502 120.25C73.6787 120.536 74.0787 120.721 74.393 121.007C74.5501 121.15 74.5645 121.421 74.6502 121.636C74.4073 121.664 74.093 121.821 73.9359 121.721C73.5502 121.478 73.1788 121.15 72.8931 120.793C72.4503 120.221 72.1502 120.236 71.7645 120.85C71.4645 121.336 71.136 121.793 70.736 122.193C70.5932 122.335 70.2217 122.235 69.9503 122.25C70.0217 122.035 70.0503 121.764 70.1789 121.593C70.4646 121.221 70.8646 120.936 71.1075 120.564C71.6217 119.778 71.4789 119.536 70.5503 119.464C70.4218 119.436 70.2646 119.393 69.8218 119.336ZM71.1788 117.493C70.9359 117.893 70.7361 118.136 70.6361 118.407C70.6218 118.464 71.0217 118.778 71.0646 118.75C71.2931 118.564 71.5218 118.336 71.6503 118.079C71.6932 118.007 71.4216 117.779 71.1788 117.493Z" fill="black"/>
<path d="M20.2233 39.7672C20.0518 39.6672 19.8661 39.5815 19.6947 39.4815C17.8377 38.4101 15.9663 37.3673 14.1235 36.2531C13.8521 36.0817 13.7234 35.6674 13.5234 35.3674C13.8663 35.3674 14.2807 35.2531 14.5521 35.396C16.1092 36.2388 17.6663 37.1102 19.1805 38.0244C19.9519 38.4959 20.4374 38.4387 20.8231 37.5816C21.1374 36.8816 21.5518 36.2245 21.9803 35.5817C22.1232 35.3674 22.4946 35.296 22.7518 35.1674C22.7661 35.4531 22.8946 35.8102 22.7804 36.0245C22.1661 37.1388 21.4803 38.2102 20.8374 39.3101C20.7089 39.5387 20.6661 39.8387 20.5804 40.0958C20.4804 39.9958 20.3518 39.8815 20.2233 39.7672Z" fill="black"/>
<path d="M111.348 81.0941C111.148 80.637 110.934 80.3656 110.977 80.1798C111.334 78.8228 111.734 77.48 112.191 76.1514C112.248 75.98 112.748 75.8086 112.991 75.8657C115.191 76.4514 117.377 77.0657 119.548 77.7228C119.791 77.7942 119.933 78.1656 120.119 78.3942C119.848 78.4942 119.519 78.7228 119.291 78.6656C117.476 78.1799 115.676 77.6799 113.891 77.1085C113.091 76.8514 112.677 77.1085 112.491 77.8657C112.291 78.6371 112.105 79.4227 111.877 80.1941C111.82 80.437 111.634 80.637 111.348 81.0941Z" fill="black"/>
<path d="M85.3213 110.336C85.7213 110.479 86.1355 110.607 86.5355 110.779C86.7498 110.879 86.9927 111.193 87.1212 111.15C87.7641 110.879 88.3784 110.522 89.007 110.207C89.8069 109.807 89.6926 109.093 89.6926 108.379C89.6926 108.122 89.9212 107.85 90.0355 107.593C90.1497 107.85 90.2926 108.093 90.3783 108.365C90.4497 108.593 90.464 108.85 90.5068 109.093C90.7782 109.036 91.0926 109.036 91.3212 108.922C92.1497 108.479 92.621 108.593 92.821 109.393C92.8639 109.55 92.8068 109.779 92.7211 109.922C92.6782 109.979 92.3639 109.965 92.2782 109.893C91.7639 109.379 91.321 109.693 90.8353 109.965C89.4783 110.75 88.0926 111.493 86.7212 112.264C86.2784 112.507 85.8213 112.75 86.0641 113.422C86.107 113.55 85.9499 113.75 85.8784 113.922C85.7213 113.836 85.4928 113.807 85.3928 113.664C85.0642 113.179 84.5214 112.664 85.4214 112.207C86.1928 111.822 86.3069 111.422 85.4641 110.993C85.3498 110.936 85.2214 110.879 85.0929 110.822C85.1643 110.664 85.2499 110.507 85.3213 110.336Z" fill="black"/>
<path d="M68.5505 14.1538C68.7934 11.6825 69.0077 9.46828 69.2791 7.23979C69.3077 6.96837 69.6792 6.73981 69.8934 6.49696C70.0506 6.78267 70.3648 7.08266 70.3362 7.33979C70.1219 9.56827 69.8649 11.7825 69.5649 13.9967C69.5363 14.2538 69.1505 14.4681 68.9363 14.7109C68.7791 14.4681 68.6077 14.2252 68.5505 14.1538Z" fill="black"/>
<path d="M37.3517 21.9964C36.9375 21.5393 36.7374 21.3678 36.5946 21.1536C35.3946 19.2679 34.209 17.368 33.0519 15.4538C32.9233 15.2395 33.0376 14.8824 33.0376 14.5967C33.309 14.6824 33.7377 14.6824 33.8519 14.8681C35.1233 16.868 36.3804 18.8822 37.5803 20.925C37.6803 21.1107 37.4803 21.4678 37.3517 21.9964Z" fill="black"/>
<path d="M118.092 85.3372C117.806 85.3943 117.491 85.5657 117.249 85.4943C115.606 84.9229 113.977 84.2943 112.349 83.6944C111.778 83.4801 111.192 83.3515 110.649 83.0944C110.42 82.9801 110.306 82.6515 110.135 82.4087C110.42 82.3087 110.749 82.0801 110.963 82.1516C113.177 82.9087 115.377 83.7087 117.577 84.5229C117.792 84.5943 117.934 84.8372 118.12 85.0086C118.106 85.1086 118.092 85.2229 118.092 85.3372Z" fill="black"/>
<path d="M112.106 50.2525C112.02 50.181 111.649 49.9382 111.677 49.881C111.792 49.6239 111.977 49.2668 112.22 49.1954C113.634 48.7954 115.063 48.4668 116.491 48.1097C117.306 47.9097 118.091 47.6526 118.92 47.4954C119.148 47.4526 119.42 47.6811 119.677 47.7811C119.548 48.0097 119.463 48.3954 119.277 48.4525C116.934 49.0811 114.606 49.6382 112.106 50.2525Z" fill="black"/>
<path d="M106.263 90.7653C106.534 90.9081 106.734 91.0081 106.934 91.1367C108.72 92.1938 110.506 93.2366 112.291 94.308C112.491 94.4223 112.748 94.5366 112.848 94.7223C112.948 94.908 112.948 95.2222 112.848 95.4222C112.791 95.5222 112.405 95.5794 112.263 95.4937C110.148 94.2651 108.063 93.008 105.977 91.7224C105.834 91.6367 105.706 91.3081 105.763 91.1653C105.82 90.9795 106.091 90.8938 106.263 90.7653Z" fill="black"/>
<path d="M87.3642 108.793C87.7499 109.036 88.1355 109.279 88.5355 109.508C88.4641 109.65 88.3928 109.793 88.3071 109.922C87.9071 109.708 87.507 109.493 87.0927 109.293C87.1784 109.136 87.2642 108.965 87.3642 108.793Z" fill="black"/>
<path d="M90.7355 91.0654C90.1784 91.4797 89.5641 91.8368 89.0784 92.3225C86.9214 94.3796 84.8214 96.5081 82.6501 98.5509C82.2358 98.9366 81.5646 99.2365 80.9931 99.2508C78.079 99.3223 75.1505 99.2794 72.2363 99.2794C70.1364 99.2651 69.5793 98.8794 68.7936 96.8795C68.665 96.5509 68.5221 96.2367 68.3363 95.7652C67.6792 96.6652 67.1364 97.408 66.5936 98.1509C65.9508 98.9937 65.0793 99.2937 64.0365 99.2937C58.0653 99.2794 52.0942 99.308 46.123 99.2794C41.8661 99.2508 37.7519 96.0081 36.8234 91.8797C36.4805 90.3512 36.2805 88.7655 36.2805 87.2084C36.2377 72.0805 36.2662 56.9382 36.2662 41.8102C36.2662 40.496 36.152 39.1818 36.2662 37.8818C36.5662 34.5819 37.6662 31.6249 40.7375 29.925C41.7232 29.3821 42.9517 29.0821 44.0802 29.0679C55.0226 29.025 65.9507 29.0821 76.8931 29.0964C78.1359 29.0964 79.3789 29.1679 80.6217 29.0679C81.5931 28.9964 82.2645 29.325 82.9216 29.9964C85.193 32.3249 87.5214 34.6105 89.807 36.9104C90.0213 37.1247 90.1783 37.3961 90.464 37.7675C90.0355 37.8389 89.8212 37.9104 89.607 37.9104C75.9789 37.9104 62.3652 37.8818 48.7372 37.8818C46.1373 37.8818 44.8087 39.2389 44.8087 41.8816C44.8087 55.2383 44.7659 68.5949 44.8373 81.9372C44.8516 85.3085 45.9801 88.2655 49.4085 89.6369C50.6513 90.1369 52.0656 90.4369 53.4084 90.4655C57.5654 90.5797 61.7367 90.4512 65.8936 90.5512C67.4364 90.5797 68.5507 89.9369 69.4935 88.9084C70.1649 88.1798 70.6363 87.2656 71.222 86.4513C71.3648 86.2513 71.5791 86.1085 71.7505 85.9228C71.8791 86.1371 72.0791 86.3228 72.1076 86.5513C72.5362 89.1084 74.2077 90.6512 76.879 90.5512C81.2074 90.4083 85.5358 90.4655 89.8642 90.4512C90.0499 90.4512 90.2356 90.5369 90.407 90.594C90.507 90.7512 90.6213 90.9083 90.7355 91.0654Z" fill="black"/>
<path d="M61.1221 55.0522C62.9934 55.0522 64.879 55.0951 66.7503 55.0379C67.6075 55.0093 67.9504 55.2665 67.9361 56.1664C67.8933 58.5378 67.8933 60.9234 67.9361 63.2947C67.9504 64.0519 67.736 64.3804 66.9218 64.3661C63.0076 64.3376 59.0792 64.3376 55.1651 64.3804C54.3223 64.3947 54.0651 64.0947 54.0794 63.2662C54.1223 60.8948 54.1366 58.5092 54.0937 56.1379C54.0794 55.3093 54.3652 55.0236 55.1937 55.0379C57.1651 55.0808 59.1364 55.0522 61.1221 55.0522Z" fill="black"/>
<path d="M83.0641 64.3806C81.1214 64.3806 79.1786 64.3663 77.2359 64.3949C76.6645 64.3949 76.4501 64.1806 76.4644 63.6378C76.4787 61.0522 76.4787 58.4808 76.4644 55.8952C76.4644 55.2952 76.6929 55.0524 77.3072 55.0524C81.1642 55.0667 85.0211 55.0667 88.8781 55.0667C89.5352 55.0667 89.7354 55.3667 89.7354 55.9952C89.7211 58.5094 89.7209 61.0236 89.7495 63.5378C89.7638 64.2235 89.4211 64.3949 88.8211 64.3949C86.8926 64.3663 84.9784 64.3806 83.0641 64.3806Z" fill="black"/>
<path d="M61.0368 72.9084C62.9796 72.9084 64.9225 72.9227 66.8653 72.8941C67.6224 72.8799 67.9938 73.1084 67.9224 73.9227C67.7795 75.5798 67.9223 77.294 67.5224 78.8796C67.0081 80.8938 65.8224 81.5795 63.7225 81.5938C61.3797 81.6081 59.037 81.5938 56.6943 81.5652C55.0515 81.5367 54.18 80.8081 54.0943 79.1653C53.9943 77.3368 54.0657 75.4798 54.08 73.637C54.08 72.8941 54.6085 72.9084 55.1371 72.9084C57.0941 72.9227 59.0655 72.9227 61.0368 72.9084C61.0368 72.9227 61.0368 72.9227 61.0368 72.9084Z" fill="black"/>
<path d="M83.1211 72.9232C84.8639 72.9232 86.6065 72.9232 88.3493 72.9232C89.6635 72.9232 89.7065 72.9803 89.7065 74.2517C89.7065 76.3231 89.678 78.4087 89.7351 80.4801C89.7494 81.3229 89.4493 81.6086 88.6208 81.5943C86.0066 81.5657 83.3925 81.5229 80.7783 81.5943C78.007 81.68 76.507 79.7515 76.4641 77.2659C76.4356 76.1659 76.4927 75.0517 76.4498 73.9517C76.4213 73.1803 76.6927 72.8803 77.4926 72.8946C79.364 72.9518 81.2354 72.9232 83.1211 72.9232Z" fill="black"/>
</svg>
